<?xml version="1.0" encoding="UTF-8"?>
<svg xmlns="http://www.w3.org/2000/svg" xmlns:xlink="http://www.w3.org/1999/xlink" width="353pt" height="146pt" viewBox="0 0 353 146" version="1.1">
<g id="surface35">
<path style="fill:none;stroke-width:1;stroke-linecap:butt;stroke-linejoin:miter;stroke:rgb(14.99939%,28.999329%,50%);stroke-opacity:0.7;stroke-miterlimit:3.25;" d="M 65.109375 124.269531 L 214.625 141.886719 "/>
<path style=" stroke:none;fill-rule:nonzero;fill:rgb(14.99939%,28.999329%,50%);fill-opacity:0.7;" d="M 213.894531 138.621094 L 214.027344 138.996094 L 214.308594 139.898438 L 214.453125 140.4375 L 214.566406 140.976562 L 214.632812 141.472656 L 214.625 141.886719 L 214.539062 142.25 L 214.363281 142.710938 L 214.121094 143.226562 L 213.855469 143.75 L 213.363281 144.640625 L 213.140625 145.019531 L 225.441406 143.160156 Z M 213.894531 138.621094 "/>
<path style="fill:none;stroke-width:1;stroke-linecap:butt;stroke-linejoin:miter;stroke:rgb(14.99939%,28.999329%,50%);stroke-opacity:0.7;stroke-miterlimit:3.25;" d="M 179.90625 124.667969 L 215.417969 138.746094 "/>
<path style=" stroke:none;fill-rule:nonzero;fill:rgb(14.99939%,28.999329%,50%);fill-opacity:0.7;" d="M 215.550781 135.402344 L 215.582031 135.800781 L 215.625 136.742188 L 215.625 137.300781 L 215.59375 137.851562 L 215.53125 138.351562 L 215.417969 138.746094 L 215.242188 139.074219 L 214.953125 139.476562 L 214.585938 139.914062 L 214.195312 140.351562 L 213.488281 141.082031 L 213.179688 141.390625 L 225.542969 142.761719 Z M 215.550781 135.402344 "/>
<path style="fill:none;stroke-width:1;stroke-linecap:butt;stroke-linejoin:miter;stroke:rgb(14.99939%,28.999329%,50%);stroke-opacity:0.7;stroke-miterlimit:3.25;" d="M 198.386719 106.25 L 199.144531 107.8125 L 200.042969 109.667969 L 201.011719 111.664062 L 202.117188 113.949219 L 203.292969 116.375 L 204.625 118.878906 L 206.050781 121.316406 L 207.65625 123.625 L 209.351562 125.867188 L 211.226562 127.976562 L 213.191406 130.023438 L 216.253906 132.972656 L 218.03125 134.6875 "/>
<path style=" stroke:none;fill-rule:nonzero;fill:rgb(14.99939%,28.999329%,50%);fill-opacity:0.7;" d="M 219.425781 131.644531 L 219.304688 132.023438 L 218.984375 132.910156 L 218.769531 133.425781 L 218.535156 133.925781 L 218.285156 134.363281 L 218.03125 134.6875 L 217.746094 134.921875 L 217.324219 135.183594 L 216.820312 135.449219 L 216.292969 135.707031 L 215.359375 136.117188 L 214.957031 136.28125 L 225.878906 142.242188 Z M 219.425781 131.644531 "/>
<path style="fill:none;stroke-width:1;stroke-linecap:butt;stroke-linejoin:miter;stroke:rgb(14.99939%,28.999329%,50%);stroke-opacity:0.7;stroke-miterlimit:3.25;" d="M 255.152344 106.371094 L 254.839844 107.8125 L 254.4375 109.667969 L 254.003906 111.664062 L 253.511719 113.949219 L 252.984375 116.375 L 252.261719 118.839844 L 251.371094 121.199219 L 250.144531 123.355469 L 248.753906 125.402344 L 247.027344 127.242188 L 245.136719 128.980469 L 241.03125 132.238281 L 237.234375 135.25 L 236.804688 135.589844 "/>
<path style=" stroke:none;fill-rule:nonzero;fill:rgb(14.99939%,28.999329%,50%);fill-opacity:0.7;" d="M 239.636719 137.375 L 239.277344 137.203125 L 238.4375 136.765625 L 237.957031 136.488281 L 237.492188 136.1875 L 237.09375 135.882812 L 236.804688 135.589844 L 236.609375 135.273438 L 236.40625 134.820312 L 236.210938 134.285156 L 236.027344 133.726562 L 235.746094 132.75 L 235.632812 132.328125 L 228.273438 142.359375 Z M 239.636719 137.375 "/>
<path style="fill:none;stroke-width:1;stroke-linecap:butt;stroke-linejoin:miter;stroke:rgb(14.99939%,28.999329%,50%);stroke-opacity:0.7;stroke-miterlimit:3.25;" d="M 253.914062 105.039062 L 132.988281 122.316406 "/>
<path style=" stroke:none;fill-rule:nonzero;fill:rgb(14.99939%,28.999329%,50%);fill-opacity:0.7;" d="M 134.53125 125.285156 L 134.304688 124.953125 L 133.800781 124.15625 L 133.527344 123.671875 L 133.277344 123.179688 L 133.085938 122.714844 L 132.988281 122.316406 L 132.976562 121.941406 L 133.03125 121.449219 L 133.128906 120.890625 L 133.253906 120.316406 L 133.5 119.328125 L 133.621094 118.90625 L 122.203125 123.855469 Z M 134.53125 125.285156 "/>
<path style="fill:none;stroke-width:1;stroke-linecap:butt;stroke-linejoin:miter;stroke:rgb(14.99939%,28.999329%,50%);stroke-opacity:0.7;stroke-miterlimit:3.25;" d="M 254.230469 105.792969 L 240.546875 116.421875 "/>
<path style=" stroke:none;fill-rule:nonzero;fill:rgb(14.99939%,28.999329%,50%);fill-opacity:0.7;" d="M 243.359375 118.238281 L 243 118.0625 L 242.167969 117.617188 L 241.6875 117.332031 L 241.226562 117.027344 L 240.832031 116.71875 L 240.546875 116.421875 L 240.351562 116.101562 L 240.15625 115.648438 L 239.964844 115.113281 L 239.789062 114.554688 L 239.515625 113.574219 L 239.40625 113.148438 L 231.945312 123.105469 Z M 243.359375 118.238281 "/>
<path style="fill:none;stroke-width:1;stroke-linecap:butt;stroke-linejoin:miter;stroke:rgb(14.99939%,28.999329%,50%);stroke-opacity:0.7;stroke-miterlimit:3.25;" d="M 274.757812 87.140625 L 274.757812 97.109375 L 274.496094 99.507812 L 273.972656 101.734375 L 272.925781 103.617188 L 271.617188 105.332031 L 269.785156 106.703125 L 267.695312 107.902344 L 259.015625 111.695312 L 251.050781 115.179688 L 244.527344 118.03125 L 242.128906 119.082031 "/>
<path style=" stroke:none;fill-rule:nonzero;fill:rgb(14.99939%,28.999329%,50%);fill-opacity:0.7;" d="M 244.40625 121.53125 L 244.101562 121.269531 L 243.402344 120.636719 L 243.007812 120.242188 L 242.636719 119.835938 L 242.332031 119.4375 L 242.128906 119.082031 L 242.015625 118.722656 L 241.9375 118.234375 L 241.882812 117.667969 L 241.851562 117.082031 L 241.824219 116.066406 L 241.828125 115.628906 L 232.148438 123.445312 Z M 244.40625 121.53125 "/>
<path style="fill:none;stroke-width:1;stroke-linecap:butt;stroke-linejoin:miter;stroke:rgb(14.99939%,28.999329%,50%);stroke-opacity:0.7;stroke-miterlimit:3.25;" d="M 178.425781 106.40625 L 178.425781 111.597656 "/>
<path style=" stroke:none;fill-rule:nonzero;fill:rgb(14.99939%,28.999329%,50%);fill-opacity:0.7;" d="M 181.582031 110.488281 L 181.226562 110.664062 L 180.363281 111.050781 L 179.84375 111.253906 L 179.324219 111.429688 L 178.835938 111.554688 L 178.425781 111.597656 L 178.054688 111.554688 L 177.574219 111.429688 L 177.035156 111.253906 L 176.484375 111.050781 L 175.542969 110.664062 L 175.140625 110.488281 L 178.425781 122.488281 Z M 181.582031 110.488281 "/>
<path style="fill:none;stroke-width:1;stroke-linecap:butt;stroke-linejoin:miter;stroke:rgb(14.99939%,28.999329%,50%);stroke-opacity:0.7;stroke-miterlimit:3.25;" d="M 179.921875 105.367188 L 218.972656 119.761719 "/>
<path style=" stroke:none;fill-rule:nonzero;fill:rgb(14.99939%,28.999329%,50%);fill-opacity:0.7;" d="M 219.027344 116.417969 L 219.066406 116.816406 L 219.128906 117.757812 L 219.144531 118.3125 L 219.128906 118.863281 L 219.074219 119.363281 L 218.972656 119.761719 L 218.804688 120.097656 L 218.523438 120.503906 L 218.171875 120.949219 L 217.789062 121.394531 L 217.101562 122.144531 L 216.796875 122.460938 L 229.195312 123.53125 Z M 219.027344 116.417969 "/>
<path style="fill:none;stroke-width:1;stroke-linecap:butt;stroke-linejoin:miter;stroke:rgb(14.99939%,28.999329%,50%);stroke-opacity:0.7;stroke-miterlimit:3.25;" d="M 80.746094 105.488281 L 109.3125 118.804688 "/>
<path style=" stroke:none;fill-rule:nonzero;fill:rgb(14.99939%,28.999329%,50%);fill-opacity:0.7;" d="M 109.644531 115.476562 L 109.648438 115.875 L 109.636719 116.820312 L 109.601562 117.375 L 109.542969 117.925781 L 109.445312 118.417969 L 109.3125 118.804688 L 109.117188 119.125 L 108.804688 119.507812 L 108.414062 119.921875 L 107.996094 120.335938 L 107.25 121.027344 L 106.921875 121.316406 L 119.183594 123.410156 Z M 109.644531 115.476562 "/>
<path style="fill:none;stroke-width:1;stroke-linecap:butt;stroke-linejoin:miter;stroke:rgb(14.99939%,28.999329%,50%);stroke-opacity:0.7;stroke-miterlimit:3.25;" d="M 80.863281 105.121094 L 166.171875 121.699219 "/>
<path style=" stroke:none;fill-rule:nonzero;fill:rgb(14.99939%,28.999329%,50%);fill-opacity:0.7;" d="M 165.6875 118.386719 L 165.789062 118.773438 L 166.003906 119.695312 L 166.105469 120.242188 L 166.179688 120.789062 L 166.207031 121.289062 L 166.171875 121.699219 L 166.058594 122.054688 L 165.847656 122.503906 L 165.570312 123 L 165.261719 123.5 L 164.707031 124.351562 L 164.457031 124.710938 L 176.863281 123.777344 Z M 165.6875 118.386719 "/>
<path style="fill:none;stroke-width:1;stroke-linecap:butt;stroke-linejoin:miter;stroke:rgb(14.99939%,28.999329%,50%);stroke-opacity:0.7;stroke-miterlimit:3.25;" d="M 25.167969 86.882812 L 25.226562 86.976562 L 26.246094 88.546875 L 27.453125 90.402344 L 28.75 92.398438 L 30.234375 94.683594 L 31.8125 97.109375 L 33.628906 99.46875 L 35.59375 101.617188 L 37.847656 103.351562 L 40.25 104.875 L 42.941406 105.980469 L 45.78125 106.875 L 63.613281 110.972656 L 79.914062 114.722656 L 93.152344 117.765625 L 104.863281 120.457031 L 108.460938 121.285156 "/>
<path style=" stroke:none;fill-rule:nonzero;fill:rgb(14.99939%,28.999329%,50%);fill-opacity:0.7;" d="M 108.089844 117.957031 L 108.179688 118.347656 L 108.363281 119.273438 L 108.445312 119.824219 L 108.5 120.375 L 108.511719 120.875 L 108.460938 121.285156 L 108.335938 121.636719 L 108.109375 122.078125 L 107.816406 122.5625 L 107.492188 123.054688 L 106.90625 123.886719 L 106.644531 124.238281 L 119.074219 123.722656 Z M 108.089844 117.957031 "/>
<path style="fill:none;stroke-width:1;stroke-linecap:butt;stroke-linejoin:miter;stroke:rgb(14.99939%,28.999329%,50%);stroke-opacity:0.7;stroke-miterlimit:3.25;" d="M 25.800781 86.074219 L 67.519531 100.6875 "/>
<path style=" stroke:none;fill-rule:nonzero;fill:rgb(14.99939%,28.999329%,50%);fill-opacity:0.7;" d="M 67.515625 97.339844 L 67.5625 97.738281 L 67.640625 98.679688 L 67.664062 99.234375 L 67.65625 99.789062 L 67.613281 100.289062 L 67.519531 100.6875 L 67.355469 101.023438 L 67.082031 101.4375 L 66.734375 101.886719 L 66.359375 102.339844 L 65.683594 103.101562 L 65.386719 103.421875 L 77.796875 104.289062 Z M 67.515625 97.339844 "/>
<path style="fill:none;stroke-width:1;stroke-linecap:butt;stroke-linejoin:miter;stroke:rgb(14.99939%,28.999329%,50%);stroke-opacity:0.7;stroke-miterlimit:3.25;" d="M 179.550781 86.675781 L 188.863281 95.988281 "/>
<path style=" stroke:none;fill-rule:nonzero;fill:rgb(14.99939%,28.999329%,50%);fill-opacity:0.7;" d="M 190.3125 92.972656 L 190.183594 93.347656 L 189.847656 94.230469 L 189.625 94.742188 L 189.378906 95.238281 L 189.125 95.667969 L 188.863281 95.988281 L 188.570312 96.21875 L 188.144531 96.472656 L 187.636719 96.730469 L 187.105469 96.972656 L 186.164062 97.367188 L 185.757812 97.527344 L 196.566406 103.6875 Z M 190.3125 92.972656 "/>
<path style="fill:none;stroke-width:1;stroke-linecap:butt;stroke-linejoin:miter;stroke:rgb(14.99939%,28.999329%,50%);stroke-opacity:0.7;stroke-miterlimit:3.25;" d="M 179.972656 85.9375 L 243.378906 101.789062 "/>
<path style=" stroke:none;fill-rule:nonzero;fill:rgb(14.99939%,28.999329%,50%);fill-opacity:0.7;" d="M 243.070312 98.453125 L 243.152344 98.847656 L 243.316406 99.777344 L 243.390625 100.328125 L 243.433594 100.878906 L 243.4375 101.378906 L 243.378906 101.789062 L 243.246094 102.136719 L 243.011719 102.574219 L 242.707031 103.054688 L 242.375 103.539062 L 241.773438 104.359375 L 241.507812 104.703125 L 253.945312 104.429688 Z M 243.070312 98.453125 "/>
<path style="fill:none;stroke-width:1;stroke-linecap:butt;stroke-linejoin:miter;stroke:rgb(14.99939%,28.999329%,50%);stroke-opacity:0.7;stroke-miterlimit:3.25;" d="M 178.425781 87.140625 L 178.425781 92.332031 "/>
<path style=" stroke:none;fill-rule:nonzero;fill:rgb(14.99939%,28.999329%,50%);fill-opacity:0.7;" d="M 181.582031 91.222656 L 181.226562 91.398438 L 180.363281 91.785156 L 179.84375 91.988281 L 179.324219 92.164062 L 178.835938 92.289062 L 178.425781 92.332031 L 178.054688 92.289062 L 177.574219 92.164062 L 177.035156 91.988281 L 176.484375 91.785156 L 175.542969 91.398438 L 175.140625 91.222656 L 178.425781 103.222656 Z M 181.582031 91.222656 "/>
<path style="fill:none;stroke-width:1;stroke-linecap:butt;stroke-linejoin:miter;stroke:rgb(14.99939%,28.999329%,50%);stroke-opacity:0.7;stroke-miterlimit:3.25;" d="M 199.253906 66.59375 L 199.589844 66.664062 L 205.976562 67.941406 L 208.335938 68.414062 L 210.8125 68.90625 L 213.40625 69.425781 L 216.117188 69.96875 L 219.410156 70.628906 L 222.816406 71.308594 L 226.34375 72.011719 L 229.984375 72.742188 L 233.742188 73.492188 L 237.613281 74.269531 L 241.601562 75.066406 L 245.710938 75.886719 L 250.398438 76.824219 L 255.199219 77.785156 L 260.121094 78.769531 L 265.15625 79.777344 L 270.308594 80.808594 L 275.578125 81.859375 L 280.964844 82.9375 L 286.464844 84.039062 L 287.050781 84.199219 L 287.621094 84.375 L 288.171875 84.566406 L 288.703125 84.769531 L 289.21875 84.992188 L 289.71875 85.222656 L 290.199219 85.472656 L 290.664062 85.734375 L 291.039062 86.066406 L 291.398438 86.414062 L 291.738281 86.777344 L 292.0625 87.15625 L 292.367188 87.546875 L 292.65625 87.953125 L 292.929688 88.371094 L 293.183594 88.804688 L 293.347656 89.320312 L 293.496094 89.894531 L 293.628906 90.570312 L 293.742188 91.398438 L 293.839844 92.421875 L 293.917969 93.683594 L 293.976562 95.230469 L 294.023438 97.109375 L 293.992188 97.738281 L 293.949219 98.363281 L 293.894531 98.984375 L 293.828125 99.601562 L 293.746094 100.210938 L 293.65625 100.816406 L 293.550781 101.417969 L 293.4375 102.015625 L 293.257812 102.585938 L 293.070312 103.152344 L 292.867188 103.714844 L 292.65625 104.273438 L 292.429688 104.828125 L 292.191406 105.375 L 291.941406 105.917969 L 291.675781 106.457031 L 291.34375 106.980469 L 290.929688 107.570312 L 290.375 108.296875 L 289.613281 109.226562 L 288.574219 110.429688 L 287.199219 111.976562 L 285.417969 113.933594 L 283.167969 116.375 L 282.550781 116.996094 L 281.925781 117.605469 L 281.296875 118.207031 L 280.660156 118.800781 L 280.019531 119.386719 L 279.371094 119.960938 L 278.714844 120.527344 L 278.054688 121.085938 L 277.367188 121.601562 L 276.667969 122.105469 L 275.96875 122.601562 L 275.257812 123.085938 L 274.542969 123.566406 L 273.824219 124.035156 L 273.097656 124.496094 L 272.367188 124.945312 L 271.601562 125.355469 L 270.835938 125.753906 L 270.058594 126.140625 L 269.28125 126.523438 L 268.492188 126.894531 L 267.699219 127.257812 L 266.902344 127.609375 L 266.097656 127.957031 L 263.769531 128.871094 L 261.488281 129.773438 L 259.25 130.652344 L 257.054688 131.515625 L 254.910156 132.363281 L 252.808594 133.191406 L 250.75 134 L 248.738281 134.792969 L 246.953125 135.496094 L 245.210938 136.183594 L 243.515625 136.851562 L 241.863281 137.5 L 240.257812 138.132812 L 238.699219 138.75 L 238.640625 138.769531 "/>
<path style=" stroke:none;fill-rule:nonzero;fill:rgb(14.99939%,28.999329%,50%);fill-opacity:0.7;" d="M 240.828125 141.304688 L 240.535156 141.035156 L 239.859375 140.375 L 239.480469 139.964844 L 239.125 139.542969 L 238.832031 139.136719 L 238.640625 138.769531 L 238.542969 138.410156 L 238.484375 137.917969 L 238.449219 137.351562 L 238.4375 136.765625 L 238.449219 135.746094 L 238.46875 135.308594 L 228.507812 142.761719 Z M 240.828125 141.304688 "/>
<path style="fill:none;stroke-width:1;stroke-linecap:butt;stroke-linejoin:miter;stroke:rgb(14.99939%,28.999329%,50%);stroke-opacity:0.7;stroke-miterlimit:3.25;" d="M 196.269531 66.996094 L 195.703125 67.277344 L 194.628906 67.816406 L 193.496094 68.382812 L 192.308594 68.972656 L 191.070312 69.59375 L 189.605469 70.324219 L 188.089844 71.085938 L 186.519531 71.871094 L 184.890625 72.683594 L 183.210938 73.523438 L 181.472656 74.390625 L 179.515625 75.371094 L 177.503906 76.375 L 175.4375 77.410156 L 173.316406 78.472656 L 171.140625 79.558594 L 168.90625 80.675781 L 167.839844 81.242188 L 166.785156 81.816406 L 165.734375 82.40625 L 164.691406 83.003906 L 163.660156 83.617188 L 162.636719 84.238281 L 161.644531 84.910156 L 160.664062 85.589844 L 159.6875 86.285156 L 158.722656 86.988281 L 157.765625 87.703125 L 156.816406 88.433594 L 155.886719 89.226562 L 154.855469 90.136719 L 153.617188 91.273438 L 152.066406 92.742188 L 150.097656 94.652344 L 147.601562 97.109375 L 146.742188 97.964844 L 145.03125 99.675781 L 144.175781 100.535156 L 143.320312 101.390625 L 142.460938 102.246094 L 141.605469 103.101562 L 140.75 103.960938 L 139.039062 105.671875 L 138.179688 106.527344 L 137.324219 107.382812 L 136.46875 108.242188 L 134.757812 109.953125 L 133.898438 110.808594 L 133.042969 111.664062 L 132.1875 112.523438 L 129.457031 115.253906 "/>
<path style=" stroke:none;fill-rule:nonzero;fill:rgb(14.99939%,28.999329%,50%);fill-opacity:0.7;" d="M 132.472656 116.703125 L 132.09375 116.574219 L 131.210938 116.234375 L 130.703125 116.015625 L 130.207031 115.769531 L 129.777344 115.511719 L 129.457031 115.253906 L 129.222656 114.960938 L 128.972656 114.535156 L 128.714844 114.027344 L 128.46875 113.492188 L 128.074219 112.554688 L 127.917969 112.148438 L 121.753906 122.957031 Z M 132.472656 116.703125 "/>
<path style="fill:none;stroke-width:1;stroke-linecap:butt;stroke-linejoin:miter;stroke:rgb(14.99939%,28.999329%,50%);stroke-opacity:0.7;stroke-miterlimit:3.25;" d="M 198.816406 67.410156 L 199.203125 67.792969 L 209.933594 78.523438 L 211.507812 80.101562 L 212.339844 81.039062 L 213.125 82 L 213.855469 82.980469 L 214.535156 83.984375 L 215.066406 85.046875 L 215.546875 86.132812 L 215.972656 87.242188 L 216.351562 88.367188 L 216.578125 89.621094 L 216.757812 91.253906 L 216.882812 93.628906 L 216.957031 97.109375 L 217.019531 98.375 L 217.125 99.625 L 217.269531 100.863281 L 217.453125 102.085938 L 217.765625 103.273438 L 218.117188 104.445312 L 218.511719 105.601562 L 218.945312 106.75 L 219.503906 107.855469 L 220.105469 108.945312 L 220.746094 110.023438 L 221.429688 111.089844 L 222.464844 112.539062 L 223.441406 113.914062 "/>
<path style=" stroke:none;fill-rule:nonzero;fill:rgb(14.99939%,28.999329%,50%);fill-opacity:0.7;" d="M 225.371094 111.179688 L 225.179688 111.53125 L 224.703125 112.34375 L 224.398438 112.8125 L 224.078125 113.257812 L 223.75 113.640625 L 223.441406 113.914062 L 223.117188 114.09375 L 222.652344 114.273438 L 222.109375 114.441406 L 221.542969 114.597656 L 220.554688 114.828125 L 220.125 114.917969 L 229.761719 122.785156 Z M 225.371094 111.179688 "/>
<path style="fill:none;stroke-width:1;stroke-linecap:butt;stroke-linejoin:miter;stroke:rgb(14.99939%,28.999329%,50%);stroke-opacity:0.7;stroke-miterlimit:3.25;" d="M 199.238281 66.667969 L 262.644531 82.519531 "/>
<path style=" stroke:none;fill-rule:nonzero;fill:rgb(14.99939%,28.999329%,50%);fill-opacity:0.7;" d="M 262.335938 79.1875 L 262.417969 79.582031 L 262.582031 80.507812 L 262.65625 81.0625 L 262.699219 81.613281 L 262.703125 82.113281 L 262.644531 82.519531 L 262.511719 82.871094 L 262.277344 83.308594 L 261.972656 83.789062 L 261.640625 84.273438 L 261.039062 85.09375 L 260.773438 85.4375 L 273.210938 85.164062 Z M 262.335938 79.1875 "/>
<path style="fill:none;stroke-width:1;stroke-linecap:butt;stroke-linejoin:miter;stroke:rgb(14.99939%,28.999329%,50%);stroke-opacity:0.7;stroke-miterlimit:3.25;" d="M 197.691406 67.875 L 197.691406 77.84375 L 197.488281 80.328125 L 197.085938 82.730469 L 196.277344 84.964844 L 195.269531 87.113281 L 193.855469 89.097656 L 192.242188 91 L 187.253906 95.988281 "/>
<path style=" stroke:none;fill-rule:nonzero;fill:rgb(14.99939%,28.999329%,50%);fill-opacity:0.7;" d="M 190.269531 97.4375 L 189.890625 97.308594 L 189.011719 96.96875 L 188.5 96.75 L 188.003906 96.503906 L 187.574219 96.246094 L 187.253906 95.988281 L 187.023438 95.695312 L 186.769531 95.269531 L 186.511719 94.761719 L 186.265625 94.226562 L 185.875 93.289062 L 185.714844 92.882812 L 179.550781 103.6875 Z M 190.269531 97.4375 "/>
<path style="fill:none;stroke-width:1;stroke-linecap:butt;stroke-linejoin:miter;stroke:rgb(14.99939%,28.999329%,50%);stroke-opacity:0.7;stroke-miterlimit:3.25;" d="M 196.566406 67.410156 L 187.253906 76.722656 "/>
<path style=" stroke:none;fill-rule:nonzero;fill:rgb(14.99939%,28.999329%,50%);fill-opacity:0.7;" d="M 190.269531 78.171875 L 189.890625 78.042969 L 189.011719 77.703125 L 188.5 77.484375 L 188.003906 77.238281 L 187.574219 76.980469 L 187.253906 76.722656 L 187.023438 76.429688 L 186.769531 76.003906 L 186.511719 75.496094 L 186.265625 74.960938 L 185.875 74.023438 L 185.714844 73.617188 L 179.550781 84.421875 Z M 190.269531 78.171875 "/>
<path style="fill:none;stroke-width:1;stroke-linecap:butt;stroke-linejoin:miter;stroke:rgb(14.99939%,28.999329%,50%);stroke-opacity:0.7;stroke-miterlimit:3.25;" d="M 314.414062 86.675781 L 316.886719 89.148438 L 317.507812 89.765625 L 318.140625 90.402344 L 324.847656 97.109375 L 325.574219 97.960938 L 326.230469 98.808594 L 326.828125 99.65625 L 327.355469 100.5 L 327.816406 101.34375 L 328.214844 102.183594 L 328.351562 103.015625 L 328.417969 103.84375 L 328.421875 104.671875 L 328.363281 105.496094 L 328.234375 106.316406 L 328.042969 107.136719 L 327.5625 107.96875 L 326.878906 108.917969 L 325.847656 110.113281 L 324.324219 111.671875 L 322.175781 113.71875 L 319.257812 116.375 L 318.25 117.191406 L 317.234375 117.984375 L 316.207031 118.757812 L 315.167969 119.507812 L 314.117188 120.238281 L 313.058594 120.949219 L 311.957031 121.578125 L 310.84375 122.183594 L 309.722656 122.769531 L 308.589844 123.332031 L 307.445312 123.878906 L 306.289062 124.402344 L 305.09375 124.839844 L 303.882812 125.257812 L 302.664062 125.65625 L 301.4375 126.035156 L 300.195312 126.390625 L 298.945312 126.726562 L 293.125 128.070312 L 287.460938 129.378906 L 281.957031 130.652344 L 276.613281 131.886719 L 271.425781 133.085938 L 266.398438 134.246094 L 262.007812 135.261719 L 257.773438 136.242188 L 253.699219 137.183594 L 249.78125 138.089844 L 246.023438 138.957031 L 242.425781 139.789062 L 239.460938 140.472656 L 239.1875 140.535156 "/>
<path style=" stroke:none;fill-rule:nonzero;fill:rgb(14.99939%,28.999329%,50%);fill-opacity:0.7;" d="M 240.980469 143.363281 L 240.726562 143.054688 L 240.15625 142.300781 L 239.84375 141.839844 L 239.550781 141.371094 L 239.324219 140.925781 L 239.1875 140.535156 L 239.148438 140.164062 L 239.160156 139.667969 L 239.210938 139.105469 L 239.285156 138.519531 L 239.449219 137.515625 L 239.527344 137.085938 L 228.578125 142.988281 Z M 240.980469 143.363281 "/>
<path style="fill:none;stroke-width:1;stroke-linecap:butt;stroke-linejoin:miter;stroke:rgb(14.99939%,28.999329%,50%);stroke-opacity:0.7;stroke-miterlimit:3.25;" d="M 313.289062 87.140625 L 313.289062 97.109375 L 313.011719 99.457031 L 312.453125 101.585938 L 311.34375 103.269531 L 309.953125 104.738281 L 308.007812 105.761719 L 305.78125 106.566406 L 287.816406 110.757812 L 271.40625 114.585938 L 258.109375 117.683594 L 246.375 120.421875 L 242.847656 121.246094 "/>
<path style=" stroke:none;fill-rule:nonzero;fill:rgb(14.99939%,28.999329%,50%);fill-opacity:0.7;" d="M 244.640625 124.070312 L 244.390625 123.757812 L 243.820312 123.007812 L 243.503906 122.550781 L 243.210938 122.082031 L 242.980469 121.636719 L 242.847656 121.246094 L 242.804688 120.875 L 242.8125 120.378906 L 242.863281 119.8125 L 242.9375 119.230469 L 243.097656 118.226562 L 243.179688 117.796875 L 232.238281 123.71875 Z M 244.640625 124.070312 "/>
<path style="fill:none;stroke-width:1;stroke-linecap:butt;stroke-linejoin:miter;stroke:rgb(14.99939%,28.999329%,50%);stroke-opacity:0.7;stroke-miterlimit:3.25;" d="M 311.71875 85.8125 L 210.007812 102.761719 "/>
<path style=" stroke:none;fill-rule:nonzero;fill:rgb(14.99939%,28.999329%,50%);fill-opacity:0.7;" d="M 211.617188 105.695312 L 211.386719 105.371094 L 210.863281 104.582031 L 210.578125 104.105469 L 210.316406 103.621094 L 210.117188 103.160156 L 210.007812 102.761719 L 209.988281 102.390625 L 210.03125 101.894531 L 210.117188 101.335938 L 210.226562 100.757812 L 210.453125 99.765625 L 210.558594 99.339844 L 199.261719 104.554688 Z M 211.617188 105.695312 "/>
<path style="fill:none;stroke-width:1;stroke-linecap:butt;stroke-linejoin:miter;stroke:rgb(14.99939%,28.999329%,50%);stroke-opacity:0.7;stroke-miterlimit:3.25;" d="M 311.777344 86.054688 L 267.335938 100.867188 "/>
<path style=" stroke:none;fill-rule:nonzero;fill:rgb(14.99939%,28.999329%,50%);fill-opacity:0.7;" d="M 269.382812 103.511719 L 269.101562 103.226562 L 268.464844 102.53125 L 268.109375 102.105469 L 267.773438 101.664062 L 267.503906 101.242188 L 267.335938 100.867188 L 267.257812 100.5 L 267.222656 100.007812 L 267.21875 99.4375 L 267.238281 98.851562 L 267.304688 97.835938 L 267.347656 97.402344 L 257 104.3125 Z M 269.382812 103.511719 "/>
<path style="fill:none;stroke-width:1;stroke-linecap:butt;stroke-linejoin:miter;stroke:rgb(14.99939%,28.999329%,50%);stroke-opacity:0.7;stroke-miterlimit:3.25;" d="M 244.707031 47.898438 L 244.378906 48.117188 L 243.785156 48.507812 L 243.175781 48.910156 L 242.546875 49.328125 L 241.898438 49.757812 L 241.230469 50.203125 L 240.464844 50.707031 L 239.679688 51.230469 L 238.875 51.761719 L 238.050781 52.308594 L 237.210938 52.863281 L 236.347656 53.4375 L 235.464844 54.019531 L 234.566406 54.617188 L 233.566406 55.277344 L 232.550781 55.953125 L 231.515625 56.636719 L 230.460938 57.335938 L 229.382812 58.050781 L 228.289062 58.773438 L 227.175781 59.511719 L 226.042969 60.261719 L 225.382812 60.773438 L 224.761719 61.289062 L 224.179688 61.808594 L 223.636719 62.332031 L 223.132812 62.859375 L 222.667969 63.390625 L 222.238281 63.925781 L 221.851562 64.464844 L 221.660156 65.023438 L 221.503906 65.585938 L 221.386719 66.152344 L 221.3125 66.71875 L 221.273438 67.292969 L 221.273438 67.871094 L 221.3125 68.453125 L 221.390625 69.039062 L 221.675781 69.65625 L 222.074219 70.347656 L 222.648438 71.1875 L 223.480469 72.246094 L 224.636719 73.597656 L 226.191406 75.304688 L 228.210938 77.449219 L 230.773438 80.101562 L 231.199219 80.566406 L 231.605469 81.039062 L 232.003906 81.515625 L 232.390625 82 L 232.761719 82.488281 L 233.121094 82.980469 L 233.46875 83.480469 L 233.800781 83.984375 L 234.074219 84.511719 L 234.332031 85.046875 L 234.578125 85.589844 L 234.8125 86.132812 L 235.03125 86.683594 L 235.238281 87.242188 L 235.4375 87.800781 L 235.617188 88.367188 L 235.738281 88.96875 L 235.84375 89.621094 L 235.941406 90.367188 L 236.023438 91.253906 L 236.089844 92.324219 L 236.148438 93.628906 L 236.191406 95.207031 L 236.222656 97.109375 L 236.179688 97.714844 L 236.117188 98.304688 L 236.039062 98.878906 L 235.941406 99.4375 L 235.828125 99.984375 L 235.695312 100.515625 L 235.546875 101.03125 L 235.378906 101.53125 L 235.125 101.957031 L 234.851562 102.367188 L 234.5625 102.765625 L 234.253906 103.144531 L 233.925781 103.511719 L 233.585938 103.863281 L 233.222656 104.199219 L 232.84375 104.523438 L 232.378906 104.769531 L 231.894531 105 L 231.394531 105.21875 L 230.875 105.421875 L 230.339844 105.609375 L 229.785156 105.78125 L 229.210938 105.9375 L 228.621094 106.082031 L 221.90625 107.203125 L 215.335938 108.296875 L 208.90625 109.367188 L 202.617188 110.417969 L 196.472656 111.441406 L 190.472656 112.441406 L 184.617188 113.417969 L 178.902344 114.371094 L 173.902344 115.203125 L 169.042969 116.011719 L 164.328125 116.796875 L 155.328125 118.296875 L 151.042969 119.011719 L 146.902344 119.703125 L 142.902344 120.367188 L 139.617188 120.917969 L 133.476562 121.941406 L 132.941406 122.027344 "/>
<path style=" stroke:none;fill-rule:nonzero;fill:rgb(14.99939%,28.999329%,50%);fill-opacity:0.7;" d="M 134.554688 124.960938 L 134.320312 124.636719 L 133.800781 123.851562 L 133.515625 123.371094 L 133.253906 122.886719 L 133.050781 122.425781 L 132.941406 122.027344 L 132.921875 121.65625 L 132.964844 121.164062 L 133.050781 120.601562 L 133.164062 120.023438 L 133.386719 119.03125 L 133.496094 118.605469 L 122.199219 123.820312 Z M 134.554688 124.960938 "/>
<path style="fill:none;stroke-width:1;stroke-linecap:butt;stroke-linejoin:miter;stroke:rgb(14.99939%,28.999329%,50%);stroke-opacity:0.7;stroke-miterlimit:3.25;" d="M 246.738281 48.445312 L 246.75 48.472656 L 247.140625 49.265625 L 247.550781 50.101562 L 248.023438 51.066406 L 248.515625 52.074219 L 249.03125 53.125 L 249.570312 54.21875 L 250.167969 55.441406 L 250.789062 56.707031 L 251.433594 58.015625 L 252.09375 59.363281 L 252.613281 60.527344 L 253.101562 61.699219 L 253.558594 62.878906 L 253.980469 64.066406 L 254.3125 65.273438 L 254.609375 66.488281 L 254.878906 67.710938 L 255.113281 68.941406 L 255.253906 70.25 L 255.363281 71.933594 L 255.441406 74.34375 L 255.488281 77.84375 L 255.488281 92.332031 "/>
<path style=" stroke:none;fill-rule:nonzero;fill:rgb(14.99939%,28.999329%,50%);fill-opacity:0.7;" d="M 258.648438 91.222656 L 258.289062 91.398438 L 257.425781 91.785156 L 256.910156 91.988281 L 256.386719 92.164062 L 255.898438 92.289062 L 255.488281 92.332031 L 255.117188 92.289062 L 254.640625 92.164062 L 254.097656 91.988281 L 253.546875 91.785156 L 252.605469 91.398438 L 252.207031 91.222656 L 255.488281 103.222656 Z M 258.648438 91.222656 "/>
<path style="fill:none;stroke-width:1;stroke-linecap:butt;stroke-linejoin:miter;stroke:rgb(14.99939%,28.999329%,50%);stroke-opacity:0.7;stroke-miterlimit:3.25;" d="M 244.554688 47.605469 L 209.289062 61.660156 "/>
<path style=" stroke:none;fill-rule:nonzero;fill:rgb(14.99939%,28.999329%,50%);fill-opacity:0.7;" d="M 211.488281 64.183594 L 211.191406 63.917969 L 210.515625 63.257812 L 210.132812 62.851562 L 209.773438 62.433594 L 209.480469 62.027344 L 209.289062 61.660156 L 209.191406 61.300781 L 209.128906 60.808594 L 209.09375 60.242188 L 209.078125 59.65625 L 209.085938 58.636719 L 209.101562 58.199219 L 199.171875 65.695312 Z M 211.488281 64.183594 "/>
<path style="fill:none;stroke-width:1;stroke-linecap:butt;stroke-linejoin:miter;stroke:rgb(14.99939%,28.999329%,50%);stroke-opacity:0.7;stroke-miterlimit:3.25;" d="M 247.359375 47.90625 L 248.164062 48.445312 L 250.503906 50.015625 L 253.269531 51.871094 L 256.246094 53.867188 L 259.652344 56.152344 L 263.269531 58.578125 L 267.128906 61.089844 L 271.023438 63.546875 L 274.984375 65.890625 L 278.980469 68.175781 L 283.039062 70.351562 L 287.128906 72.46875 L 292.882812 75.347656 L 298.238281 78.023438 L 302.121094 79.964844 "/>
<path style=" stroke:none;fill-rule:nonzero;fill:rgb(14.99939%,28.999329%,50%);fill-opacity:0.7;" d="M 302.542969 76.644531 L 302.539062 77.046875 L 302.5 77.988281 L 302.449219 78.542969 L 302.375 79.089844 L 302.265625 79.582031 L 302.121094 79.964844 L 301.917969 80.277344 L 301.59375 80.652344 L 301.191406 81.058594 L 300.761719 81.457031 L 300 82.128906 L 299.660156 82.40625 L 311.863281 84.835938 Z M 302.542969 76.644531 "/>
<path style="fill:none;stroke-width:1;stroke-linecap:butt;stroke-linejoin:miter;stroke:rgb(14.99939%,28.999329%,50%);stroke-opacity:0.7;stroke-miterlimit:3.25;" d="M 244.511719 28.210938 L 243.527344 28.511719 L 242.175781 28.917969 L 240.761719 29.347656 L 239.28125 29.796875 L 237.738281 30.261719 L 236.128906 30.75 L 234.457031 31.257812 L 232.460938 31.863281 L 230.398438 32.484375 L 228.273438 33.128906 L 226.085938 33.789062 L 223.832031 34.472656 L 221.515625 35.175781 L 219.132812 35.894531 L 216.683594 36.636719 L 213.914062 37.476562 L 211.082031 38.332031 L 208.183594 39.210938 L 205.222656 40.109375 L 202.195312 41.023438 L 199.101562 41.960938 L 195.945312 42.917969 L 192.726562 43.890625 L 191.878906 44.179688 L 191.042969 44.476562 L 190.210938 44.785156 L 189.386719 45.101562 L 188.566406 45.433594 L 187.753906 45.773438 L 186.949219 46.121094 L 186.148438 46.484375 L 185.382812 46.898438 L 184.621094 47.324219 L 183.867188 47.757812 L 183.121094 48.203125 L 182.378906 48.660156 L 181.644531 49.128906 L 180.914062 49.605469 L 180.191406 50.09375 L 179.496094 50.644531 L 178.757812 51.25 L 177.941406 51.953125 L 176.996094 52.804688 L 175.882812 53.847656 L 174.554688 55.128906 L 172.96875 56.6875 L 171.074219 58.578125 L 170.441406 59.214844 L 169.167969 60.480469 L 168.527344 61.113281 L 167.886719 61.742188 L 167.246094 62.367188 L 166.597656 62.992188 L 165.953125 63.617188 L 165.296875 64.226562 L 164.636719 64.839844 L 163.316406 66.050781 L 162.652344 66.65625 L 161.984375 67.257812 L 161.320312 67.859375 L 160.648438 68.457031 L 159.957031 69.054688 L 159.183594 69.714844 L 158.246094 70.507812 L 157.070312 71.488281 L 155.570312 72.730469 L 153.667969 74.296875 L 151.285156 76.253906 L 148.339844 78.664062 L 147.640625 79.242188 L 146.945312 79.820312 L 146.246094 80.40625 L 145.554688 80.988281 L 144.859375 81.574219 L 144.167969 82.164062 L 142.792969 83.34375 L 142.113281 83.945312 L 140.085938 85.761719 L 138.742188 86.980469 L 138.074219 87.59375 L 137.40625 88.210938 L 136.738281 88.84375 L 135.996094 89.554688 L 135.113281 90.410156 L 134.019531 91.480469 L 132.640625 92.839844 L 130.90625 94.558594 L 128.742188 96.710938 L 126.078125 99.367188 L 125.65625 99.832031 L 125.246094 100.304688 L 124.847656 100.785156 L 124.460938 101.265625 L 124.089844 101.753906 L 123.730469 102.246094 L 123.382812 102.746094 L 123.050781 103.25 L 122.777344 103.78125 L 122.519531 104.316406 L 122.273438 104.855469 L 122.039062 105.402344 L 121.820312 105.953125 L 121.613281 106.507812 L 121.417969 107.070312 L 121.234375 107.636719 L 121.113281 108.226562 L 121.007812 108.824219 L 120.910156 109.429688 L 120.828125 110.035156 L 120.761719 110.648438 L 120.703125 111.269531 L 120.679688 111.597656 "/>
<path style=" stroke:none;fill-rule:nonzero;fill:rgb(14.99939%,28.999329%,50%);fill-opacity:0.7;" d="M 123.9375 110.53125 L 123.574219 110.699219 L 122.707031 111.074219 L 122.1875 111.273438 L 121.664062 111.441406 L 121.175781 111.558594 L 120.765625 111.597656 L 120.394531 111.550781 L 119.914062 111.421875 L 119.378906 111.238281 L 118.828125 111.027344 L 117.894531 110.628906 L 117.496094 110.449219 L 120.628906 122.488281 Z M 123.9375 110.53125 "/>
<path style="fill:none;stroke-width:1;stroke-linecap:butt;stroke-linejoin:miter;stroke:rgb(14.99939%,28.999329%,50%);stroke-opacity:0.7;stroke-miterlimit:3.25;" d="M 247.277344 28.746094 L 247.820312 29.179688 L 248.453125 29.6875 L 249.109375 30.210938 L 249.78125 30.75 L 250.539062 31.355469 L 251.3125 31.976562 L 252.105469 32.609375 L 252.917969 33.261719 L 253.753906 33.929688 L 254.609375 34.613281 L 255.542969 35.363281 L 256.496094 36.125 L 257.46875 36.90625 L 258.464844 37.699219 L 259.476562 38.511719 L 260.511719 39.339844 L 261.578125 40.191406 L 262.640625 41.046875 L 263.707031 41.898438 L 264.773438 42.753906 L 265.835938 43.605469 L 267.96875 45.316406 L 269.03125 46.171875 L 270.097656 47.023438 L 271.160156 47.878906 L 272.226562 48.734375 L 273.289062 49.589844 L 274.378906 50.464844 L 275.632812 51.476562 L 277.210938 52.746094 L 279.28125 54.410156 L 282 56.601562 L 285.535156 59.445312 L 286.34375 60.214844 L 287.085938 60.984375 L 287.765625 61.757812 L 288.375 62.535156 L 288.917969 63.316406 L 289.394531 64.101562 L 289.601562 64.898438 L 289.746094 65.703125 L 289.824219 66.507812 L 289.832031 67.320312 L 289.777344 68.132812 L 289.652344 68.949219 L 289.265625 69.78125 L 288.808594 70.613281 L 288.285156 71.453125 L 287.695312 72.296875 L 287.039062 73.140625 L 286.316406 73.988281 L 283.890625 76.414062 L 283.585938 76.722656 "/>
<path style=" stroke:none;fill-rule:nonzero;fill:rgb(14.99939%,28.999329%,50%);fill-opacity:0.7;" d="M 286.601562 78.171875 L 286.222656 78.042969 L 285.339844 77.703125 L 284.828125 77.484375 L 284.335938 77.238281 L 283.902344 76.980469 L 283.585938 76.722656 L 283.351562 76.429688 L 283.097656 76.003906 L 282.84375 75.496094 L 282.597656 74.960938 L 282.203125 74.023438 L 282.046875 73.617188 L 275.882812 84.421875 Z M 286.601562 78.171875 "/>
<path style="fill:none;stroke-width:1;stroke-linecap:butt;stroke-linejoin:miter;stroke:rgb(14.99939%,28.999329%,50%);stroke-opacity:0.7;stroke-miterlimit:3.25;" d="M 244.589844 28.421875 L 242.621094 29.335938 L 238.558594 31.222656 L 233.203125 33.707031 L 227.203125 36.496094 L 219.902344 39.882812 L 211.957031 43.574219 L 209.660156 44.878906 L 207.53125 46.34375 L 205.753906 48.121094 L 204.148438 50.058594 L 202.886719 52.3125 L 201.890625 54.527344 "/>
<path style=" stroke:none;fill-rule:nonzero;fill:rgb(14.99939%,28.999329%,50%);fill-opacity:0.7;" d="M 205.3125 54.597656 L 204.914062 54.640625 L 203.972656 54.703125 L 203.417969 54.71875 L 202.863281 54.707031 L 202.367188 54.652344 L 201.964844 54.554688 L 201.632812 54.386719 L 201.222656 54.105469 L 200.777344 53.753906 L 200.328125 53.371094 L 199.578125 52.6875 L 199.261719 52.382812 L 198.226562 64.78125 Z M 205.3125 54.597656 "/>
<path style="fill:none;stroke-width:1;stroke-linecap:butt;stroke-linejoin:miter;stroke:rgb(14.99939%,28.999329%,50%);stroke-opacity:0.7;stroke-miterlimit:3.25;" d="M 247.515625 28.339844 L 247.917969 28.5 L 248.925781 28.898438 L 249.980469 29.316406 L 251.078125 29.753906 L 252.21875 30.207031 L 253.402344 30.675781 L 254.632812 31.164062 L 256.085938 31.742188 L 257.582031 32.332031 L 259.121094 32.945312 L 260.707031 33.574219 L 262.335938 34.21875 L 264.007812 34.882812 L 265.726562 35.566406 L 267.488281 36.265625 L 269.46875 37.050781 L 271.496094 37.855469 L 273.570312 38.679688 L 275.683594 39.519531 L 277.84375 40.375 L 280.050781 41.25 L 282.300781 42.144531 L 284.59375 43.054688 L 285.410156 43.40625 L 286.222656 43.765625 L 287.027344 44.136719 L 287.828125 44.515625 L 288.621094 44.902344 L 289.410156 45.296875 L 290.195312 45.699219 L 290.972656 46.113281 L 291.71875 46.566406 L 292.460938 47.03125 L 293.199219 47.507812 L 293.929688 47.988281 L 294.652344 48.476562 L 295.375 48.976562 L 296.085938 49.484375 L 296.792969 50.003906 L 297.484375 50.574219 L 298.238281 51.226562 L 299.121094 52.027344 L 300.207031 53.046875 L 301.558594 54.359375 L 303.25 56.035156 L 305.347656 58.144531 L 307.917969 60.753906 L 308.335938 61.226562 L 308.738281 61.707031 L 309.128906 62.191406 L 309.511719 62.679688 L 309.875 63.171875 L 310.230469 63.671875 L 310.574219 64.175781 L 310.902344 64.683594 L 311.167969 65.214844 L 311.421875 65.753906 L 311.667969 66.300781 L 311.894531 66.847656 L 312.113281 67.402344 L 312.320312 67.960938 L 312.511719 68.523438 L 312.691406 69.09375 L 312.808594 69.6875 L 312.914062 70.289062 L 313.007812 70.890625 L 313.089844 71.5 L 313.15625 72.117188 L 313.214844 72.734375 L 313.238281 73.066406 "/>
<path style=" stroke:none;fill-rule:nonzero;fill:rgb(14.99939%,28.999329%,50%);fill-opacity:0.7;" d="M 316.296875 71.917969 L 315.941406 72.097656 L 315.082031 72.496094 L 314.566406 72.707031 L 314.046875 72.890625 L 313.5625 73.019531 L 313.152344 73.066406 L 312.78125 73.027344 L 312.300781 72.910156 L 311.757812 72.738281 L 311.203125 72.542969 L 310.257812 72.167969 L 309.855469 72 L 313.289062 83.957031 Z M 316.296875 71.917969 "/>
<path style="fill:none;stroke-width:1;stroke-linecap:butt;stroke-linejoin:miter;stroke:rgb(14.99939%,28.999329%,50%);stroke-opacity:0.7;stroke-miterlimit:3.25;" d="M 246.035156 29.34375 L 246.035156 34.53125 "/>
<path style=" stroke:none;fill-rule:nonzero;fill:rgb(14.99939%,28.999329%,50%);fill-opacity:0.7;" d="M 249.191406 33.425781 L 248.832031 33.601562 L 247.972656 33.984375 L 247.453125 34.191406 L 246.929688 34.367188 L 246.445312 34.488281 L 246.035156 34.53125 L 245.664062 34.488281 L 245.183594 34.367188 L 244.644531 34.191406 L 244.09375 33.984375 L 243.152344 33.601562 L 242.75 33.425781 L 246.035156 45.425781 Z M 249.191406 33.425781 "/>
<path style="fill:none;stroke-width:1;stroke-linecap:butt;stroke-linejoin:miter;stroke:rgb(14.99939%,28.999329%,50%);stroke-opacity:0.7;stroke-miterlimit:3.25;" d="M 91.1875 66.863281 L 90.066406 67.304688 L 88.640625 67.863281 L 87.128906 68.457031 L 85.53125 69.082031 L 83.851562 69.742188 L 81.835938 70.535156 L 79.738281 71.355469 L 77.550781 72.214844 L 75.285156 73.105469 L 72.933594 74.027344 L 70.496094 74.984375 L 67.722656 76.070312 L 64.867188 77.191406 L 61.925781 78.34375 L 58.902344 79.53125 L 55.792969 80.75 L 52.601562 82.003906 L 51.71875 82.433594 L 50.902344 82.878906 L 50.140625 83.339844 L 49.445312 83.820312 L 48.8125 84.316406 L 48.238281 84.828125 L 47.910156 85.410156 L 47.644531 86.011719 L 47.4375 86.628906 L 47.292969 87.261719 L 47.210938 87.914062 L 47.191406 88.582031 L 47.433594 89.335938 L 47.816406 90.214844 L 48.421875 91.324219 L 49.339844 92.769531 L 50.644531 94.664062 L 52.421875 97.109375 L 53.105469 97.925781 L 53.800781 98.722656 L 54.515625 99.5 L 55.238281 100.253906 L 55.980469 100.992188 L 56.730469 101.707031 L 57.539062 102.347656 L 58.363281 102.964844 L 59.199219 103.5625 L 60.050781 104.136719 L 60.914062 104.695312 L 61.792969 105.234375 L 62.726562 105.691406 L 63.671875 106.128906 L 64.632812 106.546875 L 65.609375 106.945312 L 66.597656 107.324219 L 67.601562 107.683594 L 71.875 109.003906 L 76.039062 110.292969 L 80.082031 111.542969 L 84.011719 112.757812 L 87.824219 113.9375 L 91.523438 115.082031 L 94.757812 116.082031 L 97.875 117.046875 L 100.878906 117.976562 L 103.769531 118.867188 L 106.542969 119.726562 L 108.699219 120.394531 "/>
<path style=" stroke:none;fill-rule:nonzero;fill:rgb(14.99939%,28.999329%,50%);fill-opacity:0.7;" d="M 108.574219 117.046875 L 108.636719 117.445312 L 108.75 118.378906 L 108.792969 118.9375 L 108.808594 119.488281 L 108.78125 119.988281 L 108.699219 120.394531 L 108.550781 120.734375 L 108.292969 121.15625 L 107.960938 121.621094 L 107.605469 122.085938 L 106.957031 122.871094 L 106.671875 123.203125 L 119.105469 123.609375 Z M 108.574219 117.046875 "/>
<path style="fill:none;stroke-width:1;stroke-linecap:butt;stroke-linejoin:miter;stroke:rgb(14.99939%,28.999329%,50%);stroke-opacity:0.7;stroke-miterlimit:3.25;" d="M 91.902344 67.679688 L 91.886719 67.710938 L 91.609375 68.21875 L 91.320312 68.742188 L 91.023438 69.28125 L 90.695312 69.882812 L 90.355469 70.5 L 90.007812 71.136719 L 89.648438 71.785156 L 89.285156 72.453125 L 88.910156 73.132812 L 88.5 73.878906 L 88.082031 74.640625 L 87.65625 75.417969 L 87.222656 76.210938 L 86.777344 77.019531 L 86.324219 77.84375 L 85.9375 78.6875 L 85.59375 79.53125 L 85.292969 80.363281 L 85.035156 81.195312 L 84.816406 82.019531 L 84.640625 82.839844 L 84.632812 83.640625 L 84.667969 84.433594 L 84.742188 85.222656 L 84.863281 86.003906 L 85.023438 86.78125 L 85.226562 87.554688 L 85.617188 88.332031 L 86.183594 89.242188 L 87.058594 90.4375 L 88.371094 92.050781 L 90.25 94.226562 L 92.835938 97.109375 L 93.65625 97.921875 L 94.492188 98.714844 L 95.335938 99.484375 L 96.195312 100.234375 L 97.066406 100.960938 L 97.949219 101.667969 L 98.882812 102.289062 L 99.832031 102.890625 L 100.789062 103.46875 L 101.761719 104.023438 L 102.746094 104.558594 L 103.742188 105.074219 L 104.789062 105.503906 L 105.847656 105.910156 L 106.921875 106.296875 L 108.003906 106.660156 L 109.101562 107.003906 L 110.214844 107.324219 L 115.746094 108.683594 L 121.128906 110.007812 L 126.359375 111.289062 L 131.4375 112.539062 L 136.363281 113.75 L 141.136719 114.921875 L 145.304688 115.945312 L 149.324219 116.933594 L 153.1875 117.882812 L 156.902344 118.792969 L 160.464844 119.667969 L 163.875 120.507812 L 166.300781 121.101562 "/>
<path style=" stroke:none;fill-rule:nonzero;fill:rgb(14.99939%,28.999329%,50%);fill-opacity:0.7;" d="M 165.980469 117.773438 L 166.0625 118.164062 L 166.234375 119.089844 L 166.308594 119.644531 L 166.355469 120.191406 L 166.359375 120.695312 L 166.300781 121.101562 L 166.171875 121.453125 L 165.9375 121.890625 L 165.636719 122.371094 L 165.308594 122.859375 L 164.707031 123.679688 L 164.441406 124.027344 L 176.878906 123.703125 Z M 165.980469 117.773438 "/>
<path style="fill:none;stroke-width:1;stroke-linecap:butt;stroke-linejoin:miter;stroke:rgb(14.99939%,28.999329%,50%);stroke-opacity:0.7;stroke-miterlimit:3.25;" d="M 93.324219 67.734375 L 93.410156 67.925781 L 93.507812 68.144531 L 93.710938 68.589844 L 93.8125 68.816406 L 93.917969 69.046875 L 94.019531 69.28125 L 94.136719 69.535156 L 94.371094 70.058594 L 94.613281 70.589844 L 94.734375 70.863281 L 94.859375 71.136719 L 95.109375 71.691406 L 95.238281 71.972656 L 95.367188 72.257812 L 95.496094 72.546875 L 95.761719 73.132812 L 95.902344 73.449219 L 96.046875 73.769531 L 96.195312 74.09375 L 96.339844 74.421875 L 96.488281 74.75 L 96.640625 75.082031 L 96.789062 75.417969 L 96.941406 75.753906 L 97.097656 76.09375 L 97.25 76.4375 L 97.40625 76.785156 L 97.566406 77.136719 L 97.722656 77.488281 L 97.886719 77.84375 L 98.0625 78.195312 L 98.246094 78.542969 L 98.433594 78.886719 L 98.621094 79.226562 L 98.816406 79.5625 L 99.011719 79.894531 L 99.210938 80.226562 L 99.414062 80.550781 L 99.621094 80.871094 L 99.832031 81.1875 L 100.046875 81.503906 L 100.261719 81.8125 L 100.707031 82.421875 L 101.214844 82.960938 L 101.472656 83.226562 L 101.734375 83.484375 L 102 83.742188 L 102.269531 83.996094 L 102.539062 84.246094 L 103.09375 84.730469 L 103.375 84.96875 L 103.664062 85.203125 L 103.953125 85.433594 L 104.246094 85.660156 L 104.539062 85.882812 L 104.875 86.078125 L 105.269531 86.289062 L 105.785156 86.535156 L 106.476562 86.832031 L 107.40625 87.207031 L 108.632812 87.675781 L 110.210938 88.257812 L 112.199219 88.96875 L 114.660156 89.832031 L 117.644531 90.867188 L 121.21875 92.09375 L 125.4375 93.53125 L 130.359375 95.195312 L 136.039062 97.109375 L 137.144531 97.472656 L 138.246094 97.832031 L 139.347656 98.195312 L 140.453125 98.554688 L 141.554688 98.914062 L 142.660156 99.269531 L 143.761719 99.628906 L 144.867188 99.984375 L 145.972656 100.335938 L 147.078125 100.691406 L 150.394531 101.746094 L 151.5 102.09375 L 152.609375 102.4375 L 153.71875 102.777344 L 154.828125 103.113281 L 155.9375 103.453125 L 159.265625 104.460938 L 160.378906 104.792969 L 161.488281 105.128906 L 162.601562 105.460938 L 163.710938 105.789062 L 164.824219 106.121094 L 167.050781 106.777344 L 168.164062 107.09375 L 169.28125 107.414062 L 170.394531 107.730469 L 172.628906 108.363281 L 177.097656 109.613281 L 178.214844 109.921875 L 179.335938 110.234375 L 180.453125 110.539062 L 181.570312 110.847656 L 182.691406 111.152344 L 184.238281 111.570312 L 185.769531 111.980469 L 187.285156 112.390625 L 188.785156 112.796875 L 190.273438 113.195312 L 191.746094 113.59375 L 193.203125 113.984375 L 194.648438 114.375 L 196.074219 114.757812 L 197.488281 115.140625 L 198.886719 115.515625 L 200.273438 115.890625 L 201.644531 116.257812 L 202.996094 116.625 L 204.234375 116.957031 L 205.460938 117.285156 L 206.667969 117.613281 L 207.863281 117.933594 L 209.042969 118.25 L 210.207031 118.566406 L 211.355469 118.875 L 212.492188 119.179688 L 213.613281 119.480469 L 214.71875 119.78125 L 215.808594 120.074219 L 216.886719 120.363281 L 217.949219 120.648438 L 218.632812 120.835938 "/>
<path style=" stroke:none;fill-rule:nonzero;fill:rgb(14.99939%,28.999329%,50%);fill-opacity:0.7;" d="M 218.382812 117.496094 L 218.460938 117.890625 L 218.609375 118.820312 L 218.671875 119.375 L 218.707031 119.925781 L 218.699219 120.425781 L 218.632812 120.835938 L 218.496094 121.179688 L 218.25 121.613281 L 217.941406 122.089844 L 217.597656 122.566406 L 216.984375 123.375 L 216.707031 123.71875 L 229.148438 123.667969 Z M 218.382812 117.496094 "/>
<path style="fill:none;stroke-width:1;stroke-linecap:butt;stroke-linejoin:miter;stroke:rgb(14.99939%,28.999329%,50%);stroke-opacity:0.7;stroke-miterlimit:3.25;" d="M 91.332031 67.148438 L 90.332031 67.792969 L 87.648438 69.527344 L 84.269531 71.707031 L 80.539062 74.113281 L 76.117188 76.96875 L 71.347656 80.050781 L 69.066406 81.964844 L 67.347656 83.960938 L 66.746094 86.121094 L 66.703125 88.363281 L 67.78125 90.769531 L 69.417969 93.253906 L 71.1875 95.324219 "/>
<path style=" stroke:none;fill-rule:nonzero;fill:rgb(14.99939%,28.999329%,50%);fill-opacity:0.7;" d="M 72.867188 92.433594 L 72.710938 92.796875 L 72.304688 93.652344 L 72.042969 94.144531 L 71.761719 94.617188 L 71.472656 95.027344 L 71.1875 95.324219 L 70.878906 95.535156 L 70.433594 95.753906 L 69.910156 95.96875 L 69.355469 96.171875 L 68.390625 96.492188 L 67.972656 96.617188 L 78.265625 103.605469 Z M 72.867188 92.433594 "/>
<path style="fill:none;stroke-width:1;stroke-linecap:butt;stroke-linejoin:miter;stroke:rgb(14.99939%,28.999329%,50%);stroke-opacity:0.7;stroke-miterlimit:3.25;" d="M 94.222656 66.632812 L 166.246094 82.8125 "/>
<path style=" stroke:none;fill-rule:nonzero;fill:rgb(14.99939%,28.999329%,50%);fill-opacity:0.7;" d="M 165.855469 79.488281 L 165.949219 79.878906 L 166.136719 80.804688 L 166.222656 81.351562 L 166.28125 81.902344 L 166.292969 82.402344 L 166.246094 82.8125 L 166.121094 83.164062 L 165.898438 83.605469 L 165.605469 84.09375 L 165.285156 84.589844 L 164.703125 85.421875 L 164.445312 85.773438 L 176.871094 85.199219 Z M 165.855469 79.488281 "/>
<path style="fill:none;stroke-width:1;stroke-linecap:butt;stroke-linejoin:miter;stroke:rgb(14.99939%,28.999329%,50%);stroke-opacity:0.7;stroke-miterlimit:3.25;" d="M 333.679688 9.613281 L 334.066406 9.996094 L 334.90625 10.835938 L 335.800781 11.734375 L 336.867188 12.800781 L 337.992188 13.921875 L 339.171875 15.101562 L 340.40625 16.339844 L 341.8125 17.746094 L 343.277344 19.207031 L 346.371094 22.300781 L 347.203125 23.242188 L 347.984375 24.203125 L 348.71875 25.183594 L 349.398438 26.1875 L 349.929688 27.25 L 350.40625 28.335938 L 350.835938 29.441406 L 351.214844 30.570312 L 351.441406 31.820312 L 351.617188 33.453125 L 351.746094 35.832031 L 351.820312 39.3125 L 351.820312 97.109375 L 351.714844 98.296875 L 351.535156 99.421875 L 351.289062 100.484375 L 350.96875 101.484375 L 350.4375 102.292969 L 349.835938 103.039062 L 349.160156 103.71875 L 348.414062 104.335938 L 347.457031 104.765625 L 346.429688 105.128906 L 345.332031 105.429688 L 344.160156 105.667969 L 323.65625 107.945312 L 304.046875 110.125 L 285.324219 112.203125 L 252.347656 115.867188 L 238.089844 117.453125 L 224.726562 118.9375 L 212.253906 120.324219 L 202.457031 121.410156 L 193.554688 122.398438 L 190.835938 122.703125 "/>
<path style=" stroke:none;fill-rule:nonzero;fill:rgb(14.99939%,28.999329%,50%);fill-opacity:0.7;" d="M 192.285156 125.71875 L 192.070312 125.382812 L 191.59375 124.566406 L 191.332031 124.074219 L 191.097656 123.574219 L 190.921875 123.105469 L 190.835938 122.703125 L 190.835938 122.328125 L 190.90625 121.839844 L 191.019531 121.28125 L 191.164062 120.710938 L 191.441406 119.734375 L 191.574219 119.316406 L 180.007812 123.90625 Z M 192.285156 125.71875 "/>
<path style="fill:none;stroke-width:1;stroke-linecap:butt;stroke-linejoin:miter;stroke:rgb(14.99939%,28.999329%,50%);stroke-opacity:0.7;stroke-miterlimit:3.25;" d="M 332.554688 10.078125 L 332.554688 58.578125 L 332.453125 59.789062 L 332.285156 60.949219 L 332.046875 62.0625 L 331.742188 63.128906 L 331.234375 64.046875 L 330.660156 64.917969 L 330.015625 65.738281 L 329.304688 66.511719 L 328.390625 67.136719 L 327.410156 67.710938 L 326.359375 68.242188 L 325.242188 68.71875 L 319.136719 70.757812 L 313.28125 72.707031 L 307.679688 74.574219 L 302.332031 76.355469 L 297.746094 77.886719 L 286.601562 81.601562 "/>
<path style=" stroke:none;fill-rule:nonzero;fill:rgb(14.99939%,28.999329%,50%);fill-opacity:0.7;" d="M 288.648438 84.246094 L 288.371094 83.960938 L 287.730469 83.265625 L 287.375 82.839844 L 287.039062 82.398438 L 286.769531 81.976562 L 286.601562 81.601562 L 286.523438 81.234375 L 286.488281 80.742188 L 286.484375 80.171875 L 286.503906 79.585938 L 286.570312 78.570312 L 286.613281 78.136719 L 276.265625 85.046875 Z M 288.648438 84.246094 "/>
<path style="fill:none;stroke-width:1;stroke-linecap:butt;stroke-linejoin:miter;stroke:rgb(14.99939%,28.999329%,50%);stroke-opacity:0.7;stroke-miterlimit:3.25;" d="M 331 8.832031 L 258.222656 25.039062 "/>
<path style=" stroke:none;fill-rule:nonzero;fill:rgb(14.99939%,28.999329%,50%);fill-opacity:0.7;" d="M 259.988281 27.878906 L 259.738281 27.566406 L 259.175781 26.808594 L 258.863281 26.347656 L 258.578125 25.875 L 258.351562 25.429688 L 258.222656 25.039062 L 258.183594 24.667969 L 258.199219 24.171875 L 258.253906 23.605469 L 258.332031 23.023438 L 258.503906 22.019531 L 258.589844 21.589844 L 247.589844 27.40625 Z M 259.988281 27.878906 "/>
<path style="fill:none;stroke-width:1;stroke-linecap:butt;stroke-linejoin:miter;stroke:rgb(14.99939%,28.999329%,50%);stroke-opacity:0.7;stroke-miterlimit:3.25;" d="M 138.707031 47.5 L 185.796875 62.496094 "/>
<path style=" stroke:none;fill-rule:nonzero;fill:rgb(14.99939%,28.999329%,50%);fill-opacity:0.7;" d="M 185.699219 59.148438 L 185.757812 59.546875 L 185.863281 60.484375 L 185.898438 61.039062 L 185.910156 61.589844 L 185.878906 62.089844 L 185.796875 62.496094 L 185.644531 62.835938 L 185.378906 63.253906 L 185.046875 63.714844 L 184.683594 64.179688 L 184.03125 64.960938 L 183.742188 65.289062 L 196.175781 65.800781 Z M 185.699219 59.148438 "/>
<path style="fill:none;stroke-width:1;stroke-linecap:butt;stroke-linejoin:miter;stroke:rgb(14.99939%,28.999329%,50%);stroke-opacity:0.7;stroke-miterlimit:3.25;" d="M 135.726562 47.648438 L 104.128906 61.324219 "/>
<path style=" stroke:none;fill-rule:nonzero;fill:rgb(14.99939%,28.999329%,50%);fill-opacity:0.7;" d="M 106.398438 63.785156 L 106.09375 63.523438 L 105.398438 62.886719 L 105.003906 62.492188 L 104.636719 62.082031 L 104.328125 61.683594 L 104.128906 61.324219 L 104.019531 60.96875 L 103.941406 60.476562 L 103.890625 59.914062 L 103.859375 59.324219 L 103.835938 58.308594 L 103.839844 57.871094 L 94.128906 65.652344 Z M 106.398438 63.785156 "/>
<path style="fill:none;stroke-width:1;stroke-linecap:butt;stroke-linejoin:miter;stroke:rgb(14.99939%,28.999329%,50%);stroke-opacity:0.7;stroke-miterlimit:3.25;" d="M 154.933594 8.957031 L 154.070312 9.222656 L 152.800781 9.617188 L 151.476562 10.027344 L 150.101562 10.449219 L 148.675781 10.890625 L 147.199219 11.347656 L 145.671875 11.820312 L 143.882812 12.375 L 142.042969 12.945312 L 140.152344 13.527344 L 138.210938 14.128906 L 136.214844 14.746094 L 134.171875 15.378906 L 132.074219 16.027344 L 129.921875 16.691406 L 127.515625 17.4375 L 125.054688 18.199219 L 122.542969 18.976562 L 119.980469 19.769531 L 117.367188 20.578125 L 114.699219 21.402344 L 111.980469 22.242188 L 109.210938 23.101562 L 107.96875 23.503906 L 106.726562 23.917969 L 105.484375 24.335938 L 104.25 24.761719 L 103.015625 25.195312 L 101.785156 25.636719 L 100.558594 26.085938 L 99.335938 26.539062 L 98.125 27.03125 L 96.917969 27.527344 L 95.714844 28.03125 L 94.515625 28.542969 L 93.320312 29.0625 L 92.125 29.585938 L 90.933594 30.121094 L 89.746094 30.660156 L 88.558594 31.242188 L 87.273438 31.890625 L 85.785156 32.660156 L 84.003906 33.605469 L 81.820312 34.78125 L 79.140625 36.246094 L 75.859375 38.058594 L 71.878906 40.273438 L 70.882812 40.839844 L 68.890625 41.980469 L 67.898438 42.554688 L 65.914062 43.710938 L 63.9375 44.875 L 62.957031 45.46875 L 60.996094 46.664062 L 60.019531 47.265625 L 59.046875 47.871094 L 58.070312 48.476562 L 57.097656 49.082031 L 56.125 49.691406 L 55.148438 50.324219 L 54.101562 51.003906 L 52.902344 51.789062 L 51.484375 52.722656 L 49.773438 53.863281 L 47.691406 55.253906 L 45.167969 56.945312 L 42.125 58.992188 L 40.328125 60.210938 L 39.433594 60.824219 L 38.535156 61.4375 L 37.640625 62.050781 L 36.742188 62.664062 L 34.953125 63.898438 L 33.171875 65.140625 L 32.285156 65.765625 L 31.394531 66.390625 L 29.621094 67.640625 L 27.847656 68.898438 L 26.945312 69.542969 L 25.941406 70.269531 L 24.722656 71.148438 L 23.1875 72.265625 L 21.230469 73.695312 L 18.742188 75.511719 L 15.617188 77.796875 L 11.75 80.628906 L 11.246094 81.054688 L 10.765625 81.484375 L 10.308594 81.925781 L 9.875 82.371094 L 9.464844 82.824219 L 9.074219 83.28125 L 8.710938 83.746094 L 8.367188 84.21875 L 8.140625 84.722656 L 7.933594 85.230469 L 7.75 85.75 L 7.589844 86.269531 L 7.453125 86.800781 L 7.339844 87.335938 L 7.25 87.878906 L 7.179688 88.425781 L 7.230469 89.015625 L 7.320312 89.65625 L 7.46875 90.394531 L 7.699219 91.273438 L 8.023438 92.335938 L 8.460938 93.636719 L 9.035156 95.210938 L 9.761719 97.109375 L 10.050781 97.722656 L 10.351562 98.328125 L 10.664062 98.921875 L 10.984375 99.503906 L 11.316406 100.074219 L 11.660156 100.632812 L 12.015625 101.179688 L 12.378906 101.71875 L 12.796875 102.203125 L 13.226562 102.675781 L 13.667969 103.136719 L 14.117188 103.585938 L 14.578125 104.023438 L 15.050781 104.453125 L 15.53125 104.871094 L 16.023438 105.277344 L 16.570312 105.625 L 17.128906 105.96875 L 17.699219 106.296875 L 18.277344 106.613281 L 18.867188 106.921875 L 19.464844 107.21875 L 20.078125 107.503906 L 20.699219 107.777344 L 23.292969 108.765625 L 25.835938 109.734375 L 28.328125 110.679688 L 30.765625 111.609375 L 33.148438 112.519531 L 35.484375 113.40625 L 37.765625 114.273438 L 39.992188 115.121094 L 41.960938 115.871094 L 43.875 116.601562 L 45.738281 117.308594 L 47.550781 118 L 49.308594 118.667969 L 51.015625 119.316406 L 51.859375 119.640625 "/>
<path style=" stroke:none;fill-rule:nonzero;fill:rgb(14.99939%,28.999329%,50%);fill-opacity:0.7;" d="M 51.949219 116.292969 L 51.984375 116.691406 L 52.039062 117.636719 L 52.042969 118.191406 L 52.023438 118.742188 L 51.964844 119.242188 L 51.859375 119.640625 L 51.6875 119.972656 L 51.402344 120.375 L 51.042969 120.816406 L 50.65625 121.261719 L 49.960938 122.003906 L 49.65625 122.316406 L 62.039062 123.515625 Z M 51.949219 116.292969 "/>
<path style="fill:none;stroke-width:1;stroke-linecap:butt;stroke-linejoin:miter;stroke:rgb(14.99939%,28.999329%,50%);stroke-opacity:0.7;stroke-miterlimit:3.25;" d="M 157.875 9.207031 L 158.585938 9.570312 L 159.34375 9.953125 L 160.121094 10.351562 L 160.921875 10.757812 L 161.746094 11.175781 L 162.589844 11.605469 L 163.550781 12.09375 L 164.53125 12.59375 L 165.535156 13.105469 L 166.5625 13.628906 L 167.613281 14.164062 L 168.6875 14.707031 L 169.78125 15.265625 L 170.898438 15.835938 L 172.128906 16.460938 L 173.382812 17.097656 L 174.660156 17.75 L 175.960938 18.410156 L 177.28125 19.082031 L 178.625 19.765625 L 179.992188 20.460938 L 181.382812 21.167969 L 182.457031 21.722656 L 183.527344 22.28125 L 184.601562 22.839844 L 185.667969 23.402344 L 186.738281 23.96875 L 188.871094 25.109375 L 189.933594 25.683594 L 190.992188 26.269531 L 192.046875 26.855469 L 193.101562 27.449219 L 194.152344 28.042969 L 196.253906 29.238281 L 197.300781 29.839844 L 198.347656 30.445312 L 199.410156 31.074219 L 200.597656 31.789062 L 202.035156 32.664062 L 203.859375 33.785156 L 206.191406 35.226562 L 209.164062 37.070312 L 212.898438 39.398438 L 217.527344 42.289062 L 218.136719 42.703125 L 218.742188 43.121094 L 219.339844 43.542969 L 219.929688 43.976562 L 220.511719 44.414062 L 221.085938 44.859375 L 221.652344 45.3125 L 222.214844 45.773438 L 222.742188 46.265625 L 223.257812 46.765625 L 223.769531 47.273438 L 224.273438 47.789062 L 224.769531 48.3125 L 225.257812 48.839844 L 225.742188 49.375 L 226.21875 49.917969 L 226.660156 50.5 L 227.125 51.136719 L 227.632812 51.871094 L 228.210938 52.746094 L 228.886719 53.808594 L 229.6875 55.105469 L 230.636719 56.679688 L 231.761719 58.578125 L 232.15625 59.199219 L 232.554688 59.808594 L 232.964844 60.414062 L 233.378906 61.007812 L 233.804688 61.59375 L 234.238281 62.171875 L 234.679688 62.742188 L 235.125 63.300781 L 235.617188 63.816406 L 236.113281 64.328125 L 236.617188 64.828125 L 237.132812 65.316406 L 237.652344 65.800781 L 238.183594 66.273438 L 238.722656 66.738281 L 239.269531 67.195312 L 239.855469 67.609375 L 240.449219 68.015625 L 241.050781 68.414062 L 241.664062 68.800781 L 242.28125 69.179688 L 242.910156 69.550781 L 243.542969 69.910156 L 244.1875 70.265625 L 246.003906 71.175781 L 247.789062 72.066406 L 249.535156 72.9375 L 251.246094 73.796875 L 252.925781 74.632812 L 254.566406 75.453125 L 256.171875 76.257812 L 257.746094 77.042969 L 259.140625 77.742188 L 260.503906 78.421875 L 261.828125 79.085938 L 263.121094 79.730469 L 263.589844 79.964844 "/>
<path style=" stroke:none;fill-rule:nonzero;fill:rgb(14.99939%,28.999329%,50%);fill-opacity:0.7;" d="M 264.011719 76.644531 L 264.007812 77.046875 L 263.964844 77.988281 L 263.917969 78.542969 L 263.84375 79.089844 L 263.734375 79.582031 L 263.589844 79.964844 L 263.386719 80.277344 L 263.0625 80.652344 L 262.660156 81.058594 L 262.230469 81.457031 L 261.464844 82.128906 L 261.128906 82.40625 L 273.332031 84.835938 Z M 264.011719 76.644531 "/>
<path style="fill:none;stroke-width:1;stroke-linecap:butt;stroke-linejoin:miter;stroke:rgb(14.99939%,28.999329%,50%);stroke-opacity:0.7;stroke-miterlimit:3.25;" d="M 156.457031 10.078125 L 156.457031 39.3125 L 156.421875 39.9375 L 156.375 40.558594 L 156.316406 41.175781 L 156.242188 41.785156 L 156.15625 42.390625 L 156.058594 42.988281 L 155.945312 43.578125 L 155.820312 44.164062 L 155.628906 44.722656 L 155.421875 45.273438 L 155.203125 45.820312 L 154.972656 46.359375 L 154.726562 46.890625 L 154.46875 47.417969 L 154.199219 47.941406 L 153.914062 48.457031 L 153.546875 48.957031 L 153.066406 49.539062 L 152.371094 50.300781 L 151.371094 51.320312 L 149.953125 52.695312 L 148.03125 54.511719 L 145.496094 56.859375 L 142.253906 59.828125 L 141.664062 60.375 L 141.082031 60.921875 L 140.5 61.472656 L 139.917969 62.027344 L 139.34375 62.582031 L 138.769531 63.140625 L 138.203125 63.703125 L 137.636719 64.269531 L 137.085938 64.851562 L 136.539062 65.433594 L 135.992188 66.019531 L 134.914062 67.199219 L 134.378906 67.792969 L 133.847656 68.390625 L 133.320312 68.992188 L 132.800781 69.613281 L 132.253906 70.285156 L 131.640625 71.046875 L 130.929688 71.949219 L 130.082031 73.035156 L 129.074219 74.347656 L 127.859375 75.9375 L 126.414062 77.84375 L 126.019531 78.457031 L 125.660156 79.0625 L 125.332031 79.65625 L 125.039062 80.238281 L 124.78125 80.8125 L 124.558594 81.371094 L 124.371094 81.921875 L 124.214844 82.464844 L 124.234375 82.949219 L 124.289062 83.421875 L 124.375 83.886719 L 124.5 84.339844 L 124.65625 84.785156 L 124.847656 85.214844 L 125.074219 85.636719 L 125.335938 86.046875 L 125.769531 86.402344 L 126.238281 86.75 L 126.738281 87.085938 L 127.277344 87.410156 L 127.847656 87.722656 L 128.453125 88.023438 L 129.097656 88.316406 L 129.769531 88.597656 L 132.714844 89.578125 L 135.597656 90.539062 L 138.425781 91.480469 L 146.546875 94.1875 L 149.132812 95.050781 L 151.664062 95.894531 L 153.898438 96.640625 L 156.074219 97.363281 L 158.1875 98.070312 L 160.246094 98.753906 L 162.242188 99.421875 L 164.183594 100.066406 L 166.0625 100.695312 L 166.582031 100.867188 "/>
<path style=" stroke:none;fill-rule:nonzero;fill:rgb(14.99939%,28.999329%,50%);fill-opacity:0.7;" d="M 166.53125 97.519531 L 166.582031 97.917969 L 166.675781 98.855469 L 166.707031 99.414062 L 166.707031 99.964844 L 166.671875 100.464844 L 166.582031 100.867188 L 166.425781 101.207031 L 166.15625 101.621094 L 165.816406 102.078125 L 165.449219 102.535156 L 164.785156 103.308594 L 164.492188 103.632812 L 176.914062 104.3125 Z M 166.53125 97.519531 "/>
<path style="fill:none;stroke-width:1;stroke-linecap:butt;stroke-linejoin:miter;stroke:rgb(14.99939%,28.999329%,50%);stroke-opacity:0.7;stroke-miterlimit:3.25;" d="M 158.011719 8.820312 L 233.828125 25.125 "/>
<path style=" stroke:none;fill-rule:nonzero;fill:rgb(14.99939%,28.999329%,50%);fill-opacity:0.7;" d="M 233.410156 21.804688 L 233.507812 22.195312 L 233.703125 23.117188 L 233.792969 23.667969 L 233.855469 24.214844 L 233.875 24.714844 L 233.828125 25.125 L 233.710938 25.480469 L 233.488281 25.921875 L 233.203125 26.414062 L 232.886719 26.910156 L 232.3125 27.75 L 232.054688 28.105469 L 244.476562 27.417969 Z M 233.410156 21.804688 "/>
<path style="fill:none;stroke-width:1;stroke-linecap:butt;stroke-linejoin:miter;stroke:rgb(14.99939%,28.999329%,50%);stroke-opacity:0.7;stroke-miterlimit:3.25;" d="M 155.328125 9.613281 L 142.640625 22.300781 L 141.023438 24.203125 L 139.613281 26.1875 L 138.601562 28.335938 L 137.796875 30.570312 L 137.390625 32.972656 L 137.265625 34.535156 "/>
<path style=" stroke:none;fill-rule:nonzero;fill:rgb(14.99939%,28.999329%,50%);fill-opacity:0.7;" d="M 140.511719 33.46875 L 140.152344 33.640625 L 139.285156 34.011719 L 138.761719 34.210938 L 138.238281 34.378906 L 137.75 34.496094 L 137.339844 34.535156 L 136.96875 34.484375 L 136.492188 34.355469 L 135.953125 34.171875 L 135.40625 33.960938 L 134.46875 33.5625 L 134.070312 33.378906 L 137.191406 45.425781 Z M 140.511719 33.46875 "/>
<path style="fill-rule:evenodd;fill:rgb(63.998413%,70.399475%,79.998779%);fill-opacity:1;stroke-width:1;stroke-linecap:square;stroke-linejoin:miter;stroke:rgb(0%,0%,0%);stroke-opacity:0.7;stroke-miterlimit:3.25;" d="M 228.59375 143 C 228.59375 142.578125 228.425781 142.171875 228.125 141.875 C 227.828125 141.574219 227.421875 141.40625 227 141.40625 C 226.578125 141.40625 226.171875 141.574219 225.875 141.875 C 225.574219 142.171875 225.40625 142.578125 225.40625 143 C 225.40625 143.421875 225.574219 143.828125 225.875 144.125 C 226.171875 144.425781 226.578125 144.59375 227 144.59375 C 227.421875 144.59375 227.828125 144.425781 228.125 144.125 C 228.425781 143.828125 228.59375 143.421875 228.59375 143 Z M 228.59375 143 "/>
<path style="fill-rule:evenodd;fill:rgb(63.998413%,70.399475%,79.998779%);fill-opacity:1;stroke-width:1;stroke-linecap:square;stroke-linejoin:miter;stroke:rgb(0%,0%,0%);stroke-opacity:0.7;stroke-miterlimit:3.25;" d="M 122.59375 124 C 122.59375 123.578125 122.425781 123.171875 122.125 122.875 C 121.828125 122.574219 121.421875 122.40625 121 122.40625 C 120.578125 122.40625 120.171875 122.574219 119.875 122.875 C 119.574219 123.171875 119.40625 123.578125 119.40625 124 C 119.40625 124.421875 119.574219 124.828125 119.875 125.125 C 120.171875 125.425781 120.578125 125.59375 121 125.59375 C 121.421875 125.59375 121.828125 125.425781 122.125 125.125 C 122.425781 124.828125 122.59375 124.421875 122.59375 124 Z M 122.59375 124 "/>
<path style="fill-rule:evenodd;fill:rgb(63.998413%,70.399475%,79.998779%);fill-opacity:1;stroke-width:1;stroke-linecap:square;stroke-linejoin:miter;stroke:rgb(0%,0%,0%);stroke-opacity:0.7;stroke-miterlimit:3.25;" d="M 65.59375 124 C 65.59375 123.578125 65.425781 123.171875 65.125 122.875 C 64.828125 122.574219 64.421875 122.40625 64 122.40625 C 63.578125 122.40625 63.171875 122.574219 62.875 122.875 C 62.574219 123.171875 62.40625 123.578125 62.40625 124 C 62.40625 124.421875 62.574219 124.828125 62.875 125.125 C 63.171875 125.425781 63.578125 125.59375 64 125.59375 C 64.421875 125.59375 64.828125 125.425781 65.125 125.125 C 65.425781 124.828125 65.59375 124.421875 65.59375 124 Z M 65.59375 124 "/>
<path style="fill-rule:evenodd;fill:rgb(63.998413%,70.399475%,79.998779%);fill-opacity:1;stroke-width:1;stroke-linecap:square;stroke-linejoin:miter;stroke:rgb(0%,0%,0%);stroke-opacity:0.7;stroke-miterlimit:3.25;" d="M 179.59375 124 C 179.59375 123.578125 179.425781 123.171875 179.125 122.875 C 178.828125 122.574219 178.421875 122.40625 178 122.40625 C 177.578125 122.40625 177.171875 122.574219 176.875 122.875 C 176.574219 123.171875 176.40625 123.578125 176.40625 124 C 176.40625 124.421875 176.574219 124.828125 176.875 125.125 C 177.171875 125.425781 177.578125 125.59375 178 125.59375 C 178.421875 125.59375 178.828125 125.425781 179.125 125.125 C 179.425781 124.828125 179.59375 124.421875 179.59375 124 Z M 179.59375 124 "/>
<path style="fill-rule:evenodd;fill:rgb(63.998413%,70.399475%,79.998779%);fill-opacity:1;stroke-width:1;stroke-linecap:square;stroke-linejoin:miter;stroke:rgb(0%,0%,0%);stroke-opacity:0.7;stroke-miterlimit:3.25;" d="M 232.59375 124 C 232.59375 123.578125 232.425781 123.171875 232.125 122.875 C 231.828125 122.574219 231.421875 122.40625 231 122.40625 C 230.578125 122.40625 230.171875 122.574219 229.875 122.875 C 229.574219 123.171875 229.40625 123.578125 229.40625 124 C 229.40625 124.421875 229.574219 124.828125 229.875 125.125 C 230.171875 125.425781 230.578125 125.59375 231 125.59375 C 231.421875 125.59375 231.828125 125.425781 232.125 125.125 C 232.425781 124.828125 232.59375 124.421875 232.59375 124 Z M 232.59375 124 "/>
<path style="fill-rule:evenodd;fill:rgb(63.998413%,70.399475%,79.998779%);fill-opacity:1;stroke-width:1;stroke-linecap:square;stroke-linejoin:miter;stroke:rgb(0%,0%,0%);stroke-opacity:0.7;stroke-miterlimit:3.25;" d="M 199.59375 105 C 199.59375 104.578125 199.425781 104.171875 199.125 103.875 C 198.828125 103.574219 198.421875 103.40625 198 103.40625 C 197.578125 103.40625 197.171875 103.574219 196.875 103.875 C 196.574219 104.171875 196.40625 104.578125 196.40625 105 C 196.40625 105.421875 196.574219 105.828125 196.875 106.125 C 197.171875 106.425781 197.578125 106.59375 198 106.59375 C 198.421875 106.59375 198.828125 106.425781 199.125 106.125 C 199.425781 105.828125 199.59375 105.421875 199.59375 105 Z M 199.59375 105 "/>
<path style="fill-rule:evenodd;fill:rgb(63.998413%,70.399475%,79.998779%);fill-opacity:1;stroke-width:1;stroke-linecap:square;stroke-linejoin:miter;stroke:rgb(0%,0%,0%);stroke-opacity:0.7;stroke-miterlimit:3.25;" d="M 256.59375 105 C 256.59375 104.578125 256.425781 104.171875 256.125 103.875 C 255.828125 103.574219 255.421875 103.40625 255 103.40625 C 254.578125 103.40625 254.171875 103.574219 253.875 103.875 C 253.574219 104.171875 253.40625 104.578125 253.40625 105 C 253.40625 105.421875 253.574219 105.828125 253.875 106.125 C 254.171875 106.425781 254.578125 106.59375 255 106.59375 C 255.421875 106.59375 255.828125 106.425781 256.125 106.125 C 256.425781 105.828125 256.59375 105.421875 256.59375 105 Z M 256.59375 105 "/>
<path style="fill-rule:evenodd;fill:rgb(63.998413%,70.399475%,79.998779%);fill-opacity:1;stroke-width:1;stroke-linecap:square;stroke-linejoin:miter;stroke:rgb(0%,0%,0%);stroke-opacity:0.7;stroke-miterlimit:3.25;" d="M 276.59375 86 C 276.59375 85.578125 276.425781 85.171875 276.125 84.875 C 275.828125 84.574219 275.421875 84.40625 275 84.40625 C 274.578125 84.40625 274.171875 84.574219 273.875 84.875 C 273.574219 85.171875 273.40625 85.578125 273.40625 86 C 273.40625 86.421875 273.574219 86.828125 273.875 87.125 C 274.171875 87.425781 274.578125 87.59375 275 87.59375 C 275.421875 87.59375 275.828125 87.425781 276.125 87.125 C 276.425781 86.828125 276.59375 86.421875 276.59375 86 Z M 276.59375 86 "/>
<path style="fill-rule:evenodd;fill:rgb(63.998413%,70.399475%,79.998779%);fill-opacity:1;stroke-width:1;stroke-linecap:square;stroke-linejoin:miter;stroke:rgb(0%,0%,0%);stroke-opacity:0.7;stroke-miterlimit:3.25;" d="M 179.59375 105 C 179.59375 104.578125 179.425781 104.171875 179.125 103.875 C 178.828125 103.574219 178.421875 103.40625 178 103.40625 C 177.578125 103.40625 177.171875 103.574219 176.875 103.875 C 176.574219 104.171875 176.40625 104.578125 176.40625 105 C 176.40625 105.421875 176.574219 105.828125 176.875 106.125 C 177.171875 106.425781 177.578125 106.59375 178 106.59375 C 178.421875 106.59375 178.828125 106.425781 179.125 106.125 C 179.425781 105.828125 179.59375 105.421875 179.59375 105 Z M 179.59375 105 "/>
<path style="fill-rule:evenodd;fill:rgb(63.998413%,70.399475%,79.998779%);fill-opacity:1;stroke-width:1;stroke-linecap:square;stroke-linejoin:miter;stroke:rgb(0%,0%,0%);stroke-opacity:0.7;stroke-miterlimit:3.25;" d="M 80.59375 105 C 80.59375 104.578125 80.425781 104.171875 80.125 103.875 C 79.828125 103.574219 79.421875 103.40625 79 103.40625 C 78.578125 103.40625 78.171875 103.574219 77.875 103.875 C 77.574219 104.171875 77.40625 104.578125 77.40625 105 C 77.40625 105.421875 77.574219 105.828125 77.875 106.125 C 78.171875 106.425781 78.578125 106.59375 79 106.59375 C 79.421875 106.59375 79.828125 106.425781 80.125 106.125 C 80.425781 105.828125 80.59375 105.421875 80.59375 105 Z M 80.59375 105 "/>
<path style="fill-rule:evenodd;fill:rgb(63.998413%,70.399475%,79.998779%);fill-opacity:1;stroke-width:1;stroke-linecap:square;stroke-linejoin:miter;stroke:rgb(0%,0%,0%);stroke-opacity:0.7;stroke-miterlimit:3.25;" d="M 25.59375 86 C 25.59375 85.578125 25.425781 85.171875 25.125 84.875 C 24.828125 84.574219 24.421875 84.40625 24 84.40625 C 23.578125 84.40625 23.171875 84.574219 22.875 84.875 C 22.574219 85.171875 22.40625 85.578125 22.40625 86 C 22.40625 86.421875 22.574219 86.828125 22.875 87.125 C 23.171875 87.425781 23.578125 87.59375 24 87.59375 C 24.421875 87.59375 24.828125 87.425781 25.125 87.125 C 25.425781 86.828125 25.59375 86.421875 25.59375 86 Z M 25.59375 86 "/>
<path style="fill-rule:evenodd;fill:rgb(63.998413%,70.399475%,79.998779%);fill-opacity:1;stroke-width:1;stroke-linecap:square;stroke-linejoin:miter;stroke:rgb(0%,0%,0%);stroke-opacity:0.7;stroke-miterlimit:3.25;" d="M 179.59375 86 C 179.59375 85.578125 179.425781 85.171875 179.125 84.875 C 178.828125 84.574219 178.421875 84.40625 178 84.40625 C 177.578125 84.40625 177.171875 84.574219 176.875 84.875 C 176.574219 85.171875 176.40625 85.578125 176.40625 86 C 176.40625 86.421875 176.574219 86.828125 176.875 87.125 C 177.171875 87.425781 177.578125 87.59375 178 87.59375 C 178.421875 87.59375 178.828125 87.425781 179.125 87.125 C 179.425781 86.828125 179.59375 86.421875 179.59375 86 Z M 179.59375 86 "/>
<path style="fill-rule:evenodd;fill:rgb(63.998413%,70.399475%,79.998779%);fill-opacity:1;stroke-width:1;stroke-linecap:square;stroke-linejoin:miter;stroke:rgb(0%,0%,0%);stroke-opacity:0.7;stroke-miterlimit:3.25;" d="M 199.59375 66 C 199.59375 65.578125 199.425781 65.171875 199.125 64.875 C 198.828125 64.574219 198.421875 64.40625 198 64.40625 C 197.578125 64.40625 197.171875 64.574219 196.875 64.875 C 196.574219 65.171875 196.40625 65.578125 196.40625 66 C 196.40625 66.421875 196.574219 66.828125 196.875 67.125 C 197.171875 67.425781 197.578125 67.59375 198 67.59375 C 198.421875 67.59375 198.828125 67.425781 199.125 67.125 C 199.425781 66.828125 199.59375 66.421875 199.59375 66 Z M 199.59375 66 "/>
<path style="fill-rule:evenodd;fill:rgb(63.998413%,70.399475%,79.998779%);fill-opacity:1;stroke-width:1;stroke-linecap:square;stroke-linejoin:miter;stroke:rgb(0%,0%,0%);stroke-opacity:0.7;stroke-miterlimit:3.25;" d="M 314.59375 86 C 314.59375 85.578125 314.425781 85.171875 314.125 84.875 C 313.828125 84.574219 313.421875 84.40625 313 84.40625 C 312.578125 84.40625 312.171875 84.574219 311.875 84.875 C 311.574219 85.171875 311.40625 85.578125 311.40625 86 C 311.40625 86.421875 311.574219 86.828125 311.875 87.125 C 312.171875 87.425781 312.578125 87.59375 313 87.59375 C 313.421875 87.59375 313.828125 87.425781 314.125 87.125 C 314.425781 86.828125 314.59375 86.421875 314.59375 86 Z M 314.59375 86 "/>
<path style="fill-rule:evenodd;fill:rgb(63.998413%,70.399475%,79.998779%);fill-opacity:1;stroke-width:1;stroke-linecap:square;stroke-linejoin:miter;stroke:rgb(0%,0%,0%);stroke-opacity:0.7;stroke-miterlimit:3.25;" d="M 247.59375 47 C 247.59375 46.578125 247.425781 46.171875 247.125 45.875 C 246.828125 45.574219 246.421875 45.40625 246 45.40625 C 245.578125 45.40625 245.171875 45.574219 244.875 45.875 C 244.574219 46.171875 244.40625 46.578125 244.40625 47 C 244.40625 47.421875 244.574219 47.828125 244.875 48.125 C 245.171875 48.425781 245.578125 48.59375 246 48.59375 C 246.421875 48.59375 246.828125 48.425781 247.125 48.125 C 247.425781 47.828125 247.59375 47.421875 247.59375 47 Z M 247.59375 47 "/>
<path style="fill-rule:evenodd;fill:rgb(63.998413%,70.399475%,79.998779%);fill-opacity:1;stroke-width:1;stroke-linecap:square;stroke-linejoin:miter;stroke:rgb(0%,0%,0%);stroke-opacity:0.7;stroke-miterlimit:3.25;" d="M 247.59375 28 C 247.59375 27.578125 247.425781 27.171875 247.125 26.875 C 246.828125 26.574219 246.421875 26.40625 246 26.40625 C 245.578125 26.40625 245.171875 26.574219 244.875 26.875 C 244.574219 27.171875 244.40625 27.578125 244.40625 28 C 244.40625 28.421875 244.574219 28.828125 244.875 29.125 C 245.171875 29.425781 245.578125 29.59375 246 29.59375 C 246.421875 29.59375 246.828125 29.425781 247.125 29.125 C 247.425781 28.828125 247.59375 28.421875 247.59375 28 Z M 247.59375 28 "/>
<path style="fill-rule:evenodd;fill:rgb(63.998413%,70.399475%,79.998779%);fill-opacity:1;stroke-width:1;stroke-linecap:square;stroke-linejoin:miter;stroke:rgb(0%,0%,0%);stroke-opacity:0.7;stroke-miterlimit:3.25;" d="M 94.59375 66 C 94.59375 65.578125 94.425781 65.171875 94.125 64.875 C 93.828125 64.574219 93.421875 64.40625 93 64.40625 C 92.578125 64.40625 92.171875 64.574219 91.875 64.875 C 91.574219 65.171875 91.40625 65.578125 91.40625 66 C 91.40625 66.421875 91.574219 66.828125 91.875 67.125 C 92.171875 67.425781 92.578125 67.59375 93 67.59375 C 93.421875 67.59375 93.828125 67.425781 94.125 67.125 C 94.425781 66.828125 94.59375 66.421875 94.59375 66 Z M 94.59375 66 "/>
<path style="fill-rule:evenodd;fill:rgb(63.998413%,70.399475%,79.998779%);fill-opacity:1;stroke-width:1;stroke-linecap:square;stroke-linejoin:miter;stroke:rgb(0%,0%,0%);stroke-opacity:0.7;stroke-miterlimit:3.25;" d="M 334.59375 8 C 334.59375 7.578125 334.425781 7.171875 334.125 6.875 C 333.828125 6.574219 333.421875 6.40625 333 6.40625 C 332.578125 6.40625 332.171875 6.574219 331.875 6.875 C 331.574219 7.171875 331.40625 7.578125 331.40625 8 C 331.40625 8.421875 331.574219 8.828125 331.875 9.125 C 332.171875 9.425781 332.578125 9.59375 333 9.59375 C 333.421875 9.59375 333.828125 9.425781 334.125 9.125 C 334.425781 8.828125 334.59375 8.421875 334.59375 8 Z M 334.59375 8 "/>
<path style="fill-rule:evenodd;fill:rgb(63.998413%,70.399475%,79.998779%);fill-opacity:1;stroke-width:1;stroke-linecap:square;stroke-linejoin:miter;stroke:rgb(0%,0%,0%);stroke-opacity:0.7;stroke-miterlimit:3.25;" d="M 138.59375 47 C 138.59375 46.578125 138.425781 46.171875 138.125 45.875 C 137.828125 45.574219 137.421875 45.40625 137 45.40625 C 136.578125 45.40625 136.171875 45.574219 135.875 45.875 C 135.574219 46.171875 135.40625 46.578125 135.40625 47 C 135.40625 47.421875 135.574219 47.828125 135.875 48.125 C 136.171875 48.425781 136.578125 48.59375 137 48.59375 C 137.421875 48.59375 137.828125 48.425781 138.125 48.125 C 138.425781 47.828125 138.59375 47.421875 138.59375 47 Z M 138.59375 47 "/>
<path style="fill-rule:evenodd;fill:rgb(63.998413%,70.399475%,79.998779%);fill-opacity:1;stroke-width:1;stroke-linecap:square;stroke-linejoin:miter;stroke:rgb(0%,0%,0%);stroke-opacity:0.7;stroke-miterlimit:3.25;" d="M 157.59375 8 C 157.59375 7.578125 157.425781 7.171875 157.125 6.875 C 156.828125 6.574219 156.421875 6.40625 156 6.40625 C 155.578125 6.40625 155.171875 6.574219 154.875 6.875 C 154.574219 7.171875 154.40625 7.578125 154.40625 8 C 154.40625 8.421875 154.574219 8.828125 154.875 9.125 C 155.171875 9.425781 155.578125 9.59375 156 9.59375 C 156.421875 9.59375 156.828125 9.425781 157.125 9.125 C 157.425781 8.828125 157.59375 8.421875 157.59375 8 Z M 157.59375 8 "/>
</g>
</svg>
