<?xml version="1.0" encoding="UTF-8"?>
<svg xmlns="http://www.w3.org/2000/svg" xmlns:xlink="http://www.w3.org/1999/xlink" width="353pt" height="196pt" viewBox="0 0 353 196" version="1.1">
<g id="surface21">
<path style="fill:none;stroke-width:1;stroke-linecap:butt;stroke-linejoin:miter;stroke:rgb(14.99939%,28.999329%,50%);stroke-opacity:0.7;stroke-miterlimit:3.25;" d="M 167.417969 168.160156 L 195.492188 187.019531 "/>
<path style=" stroke:none;fill-rule:nonzero;fill:rgb(14.99939%,28.999329%,50%);fill-opacity:0.7;" d="M 196.335938 183.78125 L 196.28125 184.179688 L 196.121094 185.109375 L 196 185.652344 L 195.855469 186.183594 L 195.6875 186.65625 L 195.492188 187.019531 L 195.25 187.304688 L 194.882812 187.636719 L 194.433594 187.984375 L 193.957031 188.328125 L 193.113281 188.894531 L 192.742188 189.128906 L 204.535156 193.09375 Z M 196.335938 183.78125 "/>
<path style="fill:none;stroke-width:1;stroke-linecap:butt;stroke-linejoin:miter;stroke:rgb(14.99939%,28.999329%,50%);stroke-opacity:0.7;stroke-miterlimit:3.25;" d="M 192.753906 142.277344 L 192.753906 156.769531 L 192.929688 160.261719 L 193.273438 163.71875 L 193.960938 167.09375 L 194.824219 170.429688 L 196.03125 173.683594 L 197.410156 176.898438 L 199.199219 180.558594 L 200.308594 182.824219 "/>
<path style=" stroke:none;fill-rule:nonzero;fill:rgb(14.99939%,28.999329%,50%);fill-opacity:0.7;" d="M 202.65625 180.445312 L 202.414062 180.757812 L 201.808594 181.484375 L 201.429688 181.894531 L 201.039062 182.285156 L 200.65625 182.609375 L 200.308594 182.824219 L 199.953125 182.949219 L 199.46875 183.050781 L 198.90625 183.128906 L 198.320312 183.1875 L 197.308594 183.253906 L 196.871094 183.273438 L 205.089844 192.613281 Z M 202.65625 180.445312 "/>
<path style="fill:none;stroke-width:1;stroke-linecap:butt;stroke-linejoin:miter;stroke:rgb(14.99939%,28.999329%,50%);stroke-opacity:0.7;stroke-miterlimit:3.25;" d="M 191.753906 141.863281 L 174.949219 158.667969 "/>
<path style=" stroke:none;fill-rule:nonzero;fill:rgb(14.99939%,28.999329%,50%);fill-opacity:0.7;" d="M 177.964844 160.121094 L 177.585938 159.988281 L 176.703125 159.652344 L 176.191406 159.429688 L 175.699219 159.1875 L 175.265625 158.929688 L 174.949219 158.667969 L 174.714844 158.378906 L 174.460938 157.953125 L 174.207031 157.445312 L 173.960938 156.910156 L 173.566406 155.972656 L 173.410156 155.5625 L 167.246094 166.371094 Z M 177.964844 160.121094 "/>
<path style="fill:none;stroke-width:1;stroke-linecap:butt;stroke-linejoin:miter;stroke:rgb(14.99939%,28.999329%,50%);stroke-opacity:0.7;stroke-miterlimit:3.25;" d="M 114.15625 115.414062 L 114.949219 116.316406 L 116.851562 118.476562 L 119.097656 121.027344 L 121.515625 123.777344 L 124.28125 126.917969 L 127.21875 130.257812 L 130.375 133.746094 L 133.574219 137.195312 L 136.863281 140.550781 L 140.195312 143.863281 L 143.617188 147.089844 L 147.085938 150.269531 L 151.222656 153.960938 L 155.089844 157.414062 L 157.0625 159.175781 "/>
<path style=" stroke:none;fill-rule:nonzero;fill:rgb(14.99939%,28.999329%,50%);fill-opacity:0.7;" d="M 158.339844 156.082031 L 158.230469 156.46875 L 157.945312 157.367188 L 157.753906 157.890625 L 157.539062 158.398438 L 157.304688 158.84375 L 157.0625 159.175781 L 156.785156 159.425781 L 156.375 159.699219 L 155.882812 159.984375 L 155.363281 160.261719 L 154.449219 160.707031 L 154.050781 160.886719 L 165.1875 166.429688 Z M 158.339844 156.082031 "/>
<path style="fill:none;stroke-width:1;stroke-linecap:butt;stroke-linejoin:miter;stroke:rgb(14.99939%,28.999329%,50%);stroke-opacity:0.7;stroke-miterlimit:3.25;" d="M 114.566406 114.796875 L 181.078125 136.96875 "/>
<path style=" stroke:none;fill-rule:nonzero;fill:rgb(14.99939%,28.999329%,50%);fill-opacity:0.7;" d="M 181.027344 133.625 L 181.082031 134.019531 L 181.171875 134.960938 L 181.203125 135.515625 L 181.207031 136.066406 L 181.167969 136.566406 L 181.078125 136.96875 L 180.921875 137.308594 L 180.652344 137.726562 L 180.316406 138.179688 L 179.945312 138.640625 L 179.285156 139.410156 L 178.988281 139.734375 L 191.414062 140.414062 Z M 181.027344 133.625 "/>
<path style="fill:none;stroke-width:1;stroke-linecap:butt;stroke-linejoin:miter;stroke:rgb(14.99939%,28.999329%,50%);stroke-opacity:0.7;stroke-miterlimit:3.25;" d="M 193.757812 88.839844 L 194.105469 89.191406 L 194.835938 89.917969 L 196.394531 91.476562 L 197.222656 92.308594 L 198.195312 93.277344 L 199.199219 94.285156 L 200.238281 95.324219 L 201.3125 96.394531 L 202.417969 97.503906 L 204.84375 99.929688 L 206.160156 101.242188 L 207.507812 102.59375 L 210.3125 105.398438 L 211.769531 106.851562 L 212.539062 107.710938 L 213.28125 108.582031 L 213.988281 109.46875 L 214.667969 110.363281 L 215.316406 111.273438 L 215.933594 112.195312 L 216.425781 113.171875 L 216.890625 114.15625 L 217.320312 115.15625 L 217.722656 116.167969 L 218.09375 117.191406 L 218.433594 118.230469 L 218.648438 119.34375 L 218.835938 120.617188 L 218.988281 122.199219 L 219.113281 124.234375 L 219.203125 126.871094 L 219.265625 130.257812 L 219.265625 156.769531 L 219.226562 157.9375 L 219.167969 159.101562 L 219.085938 160.261719 L 218.988281 161.414062 L 218.867188 162.5625 L 218.730469 163.707031 L 218.511719 164.835938 L 218.273438 165.957031 L 218.015625 167.070312 L 217.738281 168.183594 L 217.4375 169.289062 L 217.121094 170.390625 L 216.722656 171.472656 L 216.304688 172.550781 L 215.867188 173.625 L 215.410156 174.691406 L 214.933594 175.753906 L 214.4375 176.8125 L 213.796875 178.070312 L 213.167969 179.296875 L 212.554688 180.496094 L 211.953125 181.671875 L 211.367188 182.820312 L 211.3125 182.925781 "/>
<path style=" stroke:none;fill-rule:nonzero;fill:rgb(14.99939%,28.999329%,50%);fill-opacity:0.7;" d="M 214.628906 183.375 L 214.230469 183.371094 L 213.289062 183.320312 L 212.734375 183.265625 L 212.1875 183.1875 L 211.699219 183.074219 L 211.3125 182.925781 L 211.003906 182.71875 L 210.632812 182.390625 L 210.230469 181.988281 L 209.832031 181.554688 L 209.171875 180.78125 L 208.894531 180.445312 L 206.355469 192.625 Z M 214.628906 183.375 "/>
<path style="fill:none;stroke-width:1;stroke-linecap:butt;stroke-linejoin:miter;stroke:rgb(14.99939%,28.999329%,50%);stroke-opacity:0.7;stroke-miterlimit:3.25;" d="M 191.753906 88.839844 L 187.316406 93.277344 L 186.3125 94.285156 L 185.273438 95.324219 L 184.199219 96.394531 L 183.089844 97.503906 L 181.949219 98.648438 L 180.667969 99.929688 L 179.351562 101.242188 L 178 102.59375 L 176.617188 103.980469 L 175.195312 105.398438 L 173.742188 106.851562 L 172.972656 107.710938 L 172.230469 108.582031 L 171.519531 109.46875 L 170.84375 110.363281 L 170.195312 111.273438 L 169.578125 112.195312 L 169.082031 113.171875 L 168.621094 114.15625 L 168.1875 115.15625 L 167.789062 116.167969 L 167.417969 117.191406 L 167.078125 118.230469 L 166.863281 119.34375 L 166.675781 120.617188 L 166.523438 122.199219 L 166.398438 124.234375 L 166.304688 126.871094 L 166.246094 130.257812 L 166.246094 155.066406 "/>
<path style=" stroke:none;fill-rule:nonzero;fill:rgb(14.99939%,28.999329%,50%);fill-opacity:0.7;" d="M 169.402344 153.957031 L 169.042969 154.132812 L 168.183594 154.519531 L 167.664062 154.722656 L 167.140625 154.898438 L 166.65625 155.023438 L 166.246094 155.066406 L 165.875 155.023438 L 165.394531 154.898438 L 164.855469 154.722656 L 164.300781 154.519531 L 163.359375 154.132812 L 162.960938 153.957031 L 166.246094 165.957031 Z M 169.402344 153.957031 "/>
<path style="fill:none;stroke-width:1;stroke-linecap:butt;stroke-linejoin:miter;stroke:rgb(14.99939%,28.999329%,50%);stroke-opacity:0.7;stroke-miterlimit:3.25;" d="M 192.753906 89.253906 L 192.753906 128.554688 "/>
<path style=" stroke:none;fill-rule:nonzero;fill:rgb(14.99939%,28.999329%,50%);fill-opacity:0.7;" d="M 195.914062 127.445312 L 195.554688 127.621094 L 194.691406 128.007812 L 194.175781 128.210938 L 193.652344 128.390625 L 193.164062 128.511719 L 192.753906 128.554688 L 192.382812 128.511719 L 191.90625 128.390625 L 191.363281 128.210938 L 190.8125 128.007812 L 189.871094 127.621094 L 189.472656 127.445312 L 192.753906 139.445312 Z M 195.914062 127.445312 "/>
<path style="fill:none;stroke-width:1;stroke-linecap:butt;stroke-linejoin:miter;stroke:rgb(14.99939%,28.999329%,50%);stroke-opacity:0.7;stroke-miterlimit:3.25;" d="M 191.414062 88.289062 L 124.898438 110.460938 "/>
<path style=" stroke:none;fill-rule:nonzero;fill:rgb(14.99939%,28.999329%,50%);fill-opacity:0.7;" d="M 126.949219 113.105469 L 126.667969 112.820312 L 126.03125 112.125 L 125.671875 111.695312 L 125.339844 111.257812 L 125.070312 110.835938 L 124.898438 110.460938 L 124.820312 110.09375 L 124.785156 109.597656 L 124.785156 109.03125 L 124.804688 108.445312 L 124.871094 107.429688 L 124.910156 106.992188 L 114.566406 113.902344 Z M 126.949219 113.105469 "/>
<path style="fill:none;stroke-width:1;stroke-linecap:butt;stroke-linejoin:miter;stroke:rgb(14.99939%,28.999329%,50%);stroke-opacity:0.7;stroke-miterlimit:3.25;" d="M 194.097656 61.777344 L 194.300781 61.84375 L 195.929688 62.386719 L 197.648438 62.960938 L 199.453125 63.5625 L 201.34375 64.191406 L 203.324219 64.851562 L 205.390625 65.542969 L 207.542969 66.257812 L 210.132812 67.121094 L 212.808594 68.015625 L 215.574219 68.9375 L 218.425781 69.886719 L 221.363281 70.867188 L 224.390625 71.875 L 227.5 72.910156 L 230.703125 73.976562 L 234.335938 75.191406 L 238.058594 76.429688 L 241.871094 77.699219 L 245.765625 79 L 249.75 80.328125 L 253.824219 81.683594 L 257.980469 83.070312 L 262.226562 84.488281 L 263.007812 84.808594 L 263.765625 85.148438 L 264.5 85.5 L 265.207031 85.875 L 265.894531 86.261719 L 266.558594 86.667969 L 267.199219 87.089844 L 267.816406 87.527344 L 268.316406 88.050781 L 268.792969 88.589844 L 269.25 89.148438 L 269.679688 89.71875 L 270.085938 90.308594 L 270.472656 90.917969 L 270.832031 91.539062 L 271.167969 92.179688 L 271.390625 92.914062 L 271.589844 93.730469 L 271.765625 94.683594 L 271.914062 95.839844 L 272.042969 97.265625 L 272.148438 99.015625 L 272.230469 101.15625 L 272.289062 103.746094 L 272.289062 130.257812 L 272.246094 131.125 L 272.191406 131.988281 L 272.117188 132.84375 L 272.03125 133.695312 L 271.925781 134.539062 L 271.804688 135.378906 L 271.667969 136.210938 L 271.511719 137.035156 L 271.277344 137.832031 L 271.027344 138.621094 L 270.761719 139.40625 L 270.480469 140.183594 L 270.179688 140.957031 L 269.867188 141.722656 L 269.535156 142.480469 L 269.1875 143.234375 L 268.746094 143.972656 L 268.210938 144.800781 L 267.492188 145.804688 L 266.519531 147.082031 L 265.203125 148.722656 L 263.46875 150.824219 L 261.230469 153.472656 L 258.410156 156.769531 L 257.621094 157.632812 L 256.828125 158.488281 L 256.027344 159.339844 L 255.222656 160.183594 L 254.410156 161.015625 L 253.589844 161.84375 L 252.765625 162.664062 L 251.933594 163.472656 L 251.070312 164.246094 L 250.199219 165.015625 L 249.324219 165.773438 L 248.441406 166.523438 L 247.550781 167.265625 L 246.65625 168.003906 L 245.753906 168.730469 L 244.84375 169.453125 L 243.90625 170.136719 L 242.957031 170.8125 L 242.003906 171.476562 L 241.042969 172.136719 L 240.078125 172.792969 L 239.105469 173.4375 L 238.128906 174.074219 L 237.144531 174.703125 L 235.328125 175.808594 L 233.546875 176.898438 L 231.796875 177.964844 L 230.082031 179.011719 L 228.398438 180.039062 L 226.746094 181.046875 L 225.128906 182.035156 L 223.542969 183.003906 L 222.117188 183.871094 L 220.726562 184.71875 L 219.367188 185.546875 L 218.042969 186.359375 L 216.75 187.148438 L 216.214844 187.472656 "/>
<path style=" stroke:none;fill-rule:nonzero;fill:rgb(14.99939%,28.999329%,50%);fill-opacity:0.7;" d="M 218.808594 189.589844 L 218.46875 189.375 L 217.691406 188.839844 L 217.246094 188.503906 L 216.824219 188.152344 L 216.464844 187.800781 L 216.214844 187.472656 L 216.058594 187.132812 L 215.914062 186.660156 L 215.785156 186.105469 L 215.671875 185.53125 L 215.507812 184.527344 L 215.453125 184.09375 L 206.917969 193.144531 Z M 218.808594 189.589844 "/>
<path style="fill:none;stroke-width:1;stroke-linecap:butt;stroke-linejoin:miter;stroke:rgb(14.99939%,28.999329%,50%);stroke-opacity:0.7;stroke-miterlimit:3.25;" d="M 191.753906 62.332031 L 186.078125 68.007812 L 183.328125 70.753906 L 180.1875 73.898438 L 176.847656 77.234375 L 173.210938 80.625 L 169.46875 83.871094 L 165.515625 86.828125 L 161.460938 89.644531 L 157.199219 92.167969 L 152.832031 94.546875 L 143.84375 99.039062 L 135.539062 103.191406 L 128.597656 106.664062 L 124.230469 108.847656 "/>
<path style=" stroke:none;fill-rule:nonzero;fill:rgb(14.99939%,28.999329%,50%);fill-opacity:0.7;" d="M 126.632812 111.175781 L 126.316406 110.933594 L 125.585938 110.335938 L 125.171875 109.964844 L 124.78125 109.574219 L 124.453125 109.195312 L 124.230469 108.847656 L 124.101562 108.496094 L 124 108.011719 L 123.914062 107.449219 L 123.851562 106.863281 L 123.773438 105.851562 L 123.753906 105.414062 L 114.488281 113.71875 Z M 126.632812 111.175781 "/>
<path style="fill:none;stroke-width:1;stroke-linecap:butt;stroke-linejoin:miter;stroke:rgb(14.99939%,28.999329%,50%);stroke-opacity:0.7;stroke-miterlimit:3.25;" d="M 192.753906 62.746094 L 192.753906 75.53125 "/>
<path style=" stroke:none;fill-rule:nonzero;fill:rgb(14.99939%,28.999329%,50%);fill-opacity:0.7;" d="M 195.914062 74.425781 L 195.554688 74.601562 L 194.691406 74.984375 L 194.175781 75.191406 L 193.652344 75.367188 L 193.164062 75.492188 L 192.753906 75.53125 L 192.382812 75.492188 L 191.90625 75.367188 L 191.363281 75.191406 L 190.8125 74.984375 L 189.871094 74.601562 L 189.472656 74.425781 L 192.753906 86.425781 Z M 195.914062 74.425781 "/>
<path style="fill:none;stroke-width:1;stroke-linecap:butt;stroke-linejoin:miter;stroke:rgb(14.99939%,28.999329%,50%);stroke-opacity:0.7;stroke-miterlimit:3.25;" d="M 124.292969 35.351562 L 123.910156 35.507812 L 123.015625 35.867188 L 122.09375 36.242188 L 121.140625 36.628906 L 120.15625 37.027344 L 119.140625 37.4375 L 118.097656 37.863281 L 117.023438 38.296875 L 115.917969 38.746094 L 114.78125 39.207031 L 113.617188 39.679688 L 112.238281 40.238281 L 110.832031 40.808594 L 109.394531 41.390625 L 107.925781 41.984375 L 106.425781 42.59375 L 104.898438 43.210938 L 103.339844 43.84375 L 101.75 44.488281 L 100.128906 45.144531 L 98.480469 45.8125 L 96.800781 46.492188 L 95.089844 47.1875 L 93.167969 47.964844 L 91.214844 48.757812 L 89.234375 49.5625 L 87.222656 50.378906 L 85.179688 51.207031 L 83.105469 52.046875 L 81 52.898438 L 78.867188 53.761719 L 76.703125 54.640625 L 74.507812 55.53125 L 72.285156 56.433594 L 70.027344 57.347656 L 69.519531 57.589844 L 69.019531 57.84375 L 68.527344 58.101562 L 68.046875 58.367188 L 67.578125 58.640625 L 67.117188 58.917969 L 66.667969 59.203125 L 66.226562 59.496094 L 65.796875 59.796875 L 65.378906 60.105469 L 64.96875 60.417969 L 64.570312 60.738281 L 64.242188 61.105469 L 63.921875 61.480469 L 63.613281 61.859375 L 63.316406 62.25 L 63.027344 62.644531 L 62.75 63.046875 L 62.480469 63.453125 L 62.222656 63.871094 L 61.976562 64.292969 L 61.738281 64.722656 L 61.511719 65.15625 L 61.292969 65.601562 L 61.148438 66.09375 L 61.011719 66.613281 L 60.882812 67.175781 L 60.769531 67.796875 L 60.660156 68.503906 L 60.566406 69.308594 L 60.480469 70.226562 L 60.402344 71.285156 L 60.339844 72.496094 L 60.28125 73.878906 L 60.238281 75.453125 L 60.203125 77.234375 L 60.203125 103.746094 L 60.222656 104.328125 L 60.25 104.910156 L 60.285156 105.488281 L 60.324219 106.066406 L 60.371094 106.640625 L 60.425781 107.210938 L 60.484375 107.78125 L 60.546875 108.351562 L 60.617188 108.917969 L 60.695312 109.484375 L 60.78125 110.046875 L 60.871094 110.609375 L 61.003906 111.15625 L 61.140625 111.703125 L 61.285156 112.246094 L 61.4375 112.789062 L 61.597656 113.328125 L 61.761719 113.867188 L 61.929688 114.402344 L 62.105469 114.9375 L 62.289062 115.46875 L 62.476562 116 L 62.671875 116.527344 L 62.875 117.054688 L 63.121094 117.574219 L 63.390625 118.113281 L 63.703125 118.699219 L 64.070312 119.363281 L 64.515625 120.121094 L 65.050781 121 L 65.695312 122.03125 L 66.464844 123.230469 L 67.378906 124.628906 L 68.453125 126.25 L 69.703125 128.117188 L 71.148438 130.257812 L 71.570312 130.832031 L 71.992188 131.398438 L 72.421875 131.960938 L 72.855469 132.519531 L 73.292969 133.074219 L 73.730469 133.625 L 74.175781 134.171875 L 74.625 134.710938 L 75.078125 135.246094 L 75.535156 135.777344 L 76 136.304688 L 76.464844 136.828125 L 76.957031 137.316406 L 77.457031 137.800781 L 77.960938 138.28125 L 78.46875 138.757812 L 78.980469 139.230469 L 79.496094 139.695312 L 80.015625 140.15625 L 80.539062 140.613281 L 81.066406 141.066406 L 81.597656 141.515625 L 82.132812 141.957031 L 82.675781 142.398438 L 83.253906 142.808594 L 83.902344 143.25 L 84.679688 143.753906 L 85.652344 144.355469 L 86.878906 145.089844 L 88.429688 145.988281 L 90.359375 147.089844 L 92.738281 148.421875 L 95.628906 150.023438 L 99.089844 151.921875 L 103.1875 154.160156 L 107.984375 156.769531 L 109.082031 157.34375 L 110.183594 157.917969 L 111.285156 158.488281 L 112.390625 159.054688 L 113.496094 159.617188 L 114.601562 160.175781 L 115.710938 160.734375 L 116.820312 161.285156 L 117.929688 161.832031 L 119.042969 162.378906 L 120.160156 162.921875 L 121.273438 163.457031 L 122.402344 163.972656 L 123.53125 164.484375 L 124.660156 164.988281 L 125.792969 165.492188 L 126.925781 165.992188 L 128.058594 166.488281 L 129.195312 166.980469 L 131.46875 167.957031 L 132.609375 168.4375 L 133.753906 168.917969 L 134.898438 169.390625 L 136.050781 169.84375 L 138.363281 170.734375 L 140.683594 171.609375 L 141.84375 172.042969 L 143.007812 172.472656 L 144.171875 172.898438 L 145.339844 173.320312 L 147.675781 174.15625 L 148.847656 174.566406 L 151.046875 175.3125 L 153.222656 176.050781 L 155.367188 176.78125 L 157.488281 177.5 L 159.582031 178.210938 L 161.648438 178.914062 L 163.691406 179.609375 L 165.707031 180.292969 L 167.695312 180.96875 L 169.65625 181.636719 L 171.59375 182.292969 L 173.5 182.941406 L 175.226562 183.527344 L 176.925781 184.105469 L 178.597656 184.671875 L 180.242188 185.230469 L 181.859375 185.78125 L 183.453125 186.324219 L 185.019531 186.855469 L 186.558594 187.378906 L 188.074219 187.890625 L 189.5625 188.398438 L 191.019531 188.894531 L 192.457031 189.378906 L 193.707031 189.804688 L 194.058594 189.925781 "/>
<path style=" stroke:none;fill-rule:nonzero;fill:rgb(14.99939%,28.999329%,50%);fill-opacity:0.7;" d="M 194.023438 186.578125 L 194.074219 186.976562 L 194.164062 187.914062 L 194.1875 188.472656 L 194.1875 189.023438 L 194.148438 189.523438 L 194.058594 189.925781 L 193.898438 190.261719 L 193.625 190.675781 L 193.285156 191.132812 L 192.914062 191.585938 L 192.246094 192.355469 L 191.953125 192.679688 L 204.371094 193.429688 Z M 194.023438 186.578125 "/>
<path style="fill:none;stroke-width:1;stroke-linecap:butt;stroke-linejoin:miter;stroke:rgb(14.99939%,28.999329%,50%);stroke-opacity:0.7;stroke-miterlimit:3.25;" d="M 125.007812 36.101562 L 124.867188 36.402344 L 124.671875 36.820312 L 124.46875 37.246094 L 124.265625 37.683594 L 124.058594 38.132812 L 123.84375 38.589844 L 123.628906 39.054688 L 123.382812 39.574219 L 123.136719 40.105469 L 122.882812 40.644531 L 122.625 41.195312 L 122.367188 41.753906 L 122.101562 42.320312 L 121.832031 42.898438 L 121.558594 43.484375 L 121.277344 44.082031 L 120.996094 44.6875 L 120.6875 45.347656 L 120.375 46.019531 L 120.054688 46.699219 L 119.734375 47.390625 L 119.40625 48.085938 L 119.078125 48.796875 L 118.742188 49.511719 L 118.402344 50.238281 L 118.058594 50.976562 L 117.710938 51.722656 L 117.429688 52.367188 L 117.160156 53.011719 L 116.894531 53.660156 L 116.632812 54.308594 L 116.382812 54.960938 L 116.136719 55.613281 L 115.894531 56.265625 L 115.664062 56.921875 L 115.4375 57.578125 L 115.21875 58.238281 L 115.039062 58.90625 L 114.863281 59.574219 L 114.699219 60.242188 L 114.539062 60.914062 L 114.386719 61.585938 L 114.238281 62.261719 L 114.101562 62.9375 L 113.96875 63.617188 L 113.839844 64.292969 L 113.722656 64.976562 L 113.640625 65.667969 L 113.570312 66.398438 L 113.503906 67.191406 L 113.441406 68.082031 L 113.390625 69.097656 L 113.34375 70.277344 L 113.304688 71.648438 L 113.269531 73.246094 L 113.242188 75.097656 L 113.222656 77.234375 L 113.191406 77.929688 L 113.144531 78.617188 L 113.089844 79.300781 L 113.023438 79.980469 L 112.945312 80.65625 L 112.855469 81.324219 L 112.757812 81.992188 L 112.644531 82.652344 L 112.523438 83.308594 L 112.390625 83.960938 L 112.191406 84.585938 L 111.980469 85.203125 L 111.757812 85.820312 L 111.523438 86.429688 L 111.277344 87.035156 L 111.023438 87.636719 L 110.757812 88.234375 L 110.480469 88.824219 L 110.191406 89.410156 L 109.890625 89.996094 L 109.515625 90.558594 L 109.070312 91.175781 L 108.5 91.902344 L 107.75 92.796875 L 106.757812 93.914062 L 105.46875 95.3125 L 103.828125 97.046875 L 101.773438 99.179688 L 99.253906 101.761719 L 96.207031 104.855469 L 95.652344 105.496094 L 95.125 106.132812 L 94.625 106.773438 L 94.148438 107.417969 L 93.699219 108.0625 L 93.277344 108.707031 L 92.878906 109.355469 L 92.507812 110.003906 L 92.164062 110.65625 L 91.847656 111.308594 L 91.6875 111.972656 L 91.554688 112.636719 L 91.445312 113.300781 L 91.363281 113.96875 L 91.308594 114.640625 L 91.28125 115.308594 L 91.277344 115.980469 L 91.300781 116.65625 L 91.351562 117.332031 L 91.429688 118.007812 L 91.667969 118.703125 L 91.957031 119.425781 L 92.320312 120.21875 L 92.785156 121.105469 L 93.375 122.125 L 94.117188 123.300781 L 95.03125 124.671875 L 96.144531 126.269531 L 97.480469 128.117188 L 99.066406 130.257812 L 99.636719 130.941406 L 100.207031 131.617188 L 100.785156 132.289062 L 101.371094 132.949219 L 101.960938 133.605469 L 102.558594 134.25 L 103.160156 134.890625 L 103.769531 135.519531 L 104.382812 136.144531 L 105.003906 136.761719 L 105.660156 137.332031 L 106.324219 137.894531 L 106.992188 138.453125 L 107.664062 139 L 108.34375 139.539062 L 109.03125 140.074219 L 109.722656 140.601562 L 110.417969 141.117188 L 111.125 141.628906 L 111.832031 142.132812 L 112.578125 142.589844 L 113.328125 143.039062 L 114.085938 143.484375 L 114.847656 143.917969 L 115.617188 144.34375 L 116.390625 144.765625 L 117.171875 145.179688 L 117.960938 145.582031 L 118.753906 145.980469 L 119.550781 146.371094 L 121.773438 147.371094 L 123.964844 148.355469 L 126.121094 149.324219 L 128.242188 150.28125 L 130.332031 151.21875 L 132.382812 152.140625 L 134.402344 153.050781 L 136.386719 153.941406 L 138.335938 154.820312 L 140.253906 155.679688 L 141.964844 156.449219 L 143.640625 157.203125 L 145.28125 157.945312 L 146.890625 158.667969 L 148.464844 159.375 L 150.003906 160.066406 L 151.507812 160.742188 L 152.976562 161.40625 L 154.414062 162.050781 L 155.019531 162.324219 "/>
<path style=" stroke:none;fill-rule:nonzero;fill:rgb(14.99939%,28.999329%,50%);fill-opacity:0.7;" d="M 155.304688 158.988281 L 155.320312 159.390625 L 155.316406 160.332031 L 155.289062 160.890625 L 155.238281 161.4375 L 155.148438 161.933594 L 155.019531 162.324219 L 154.828125 162.644531 L 154.519531 163.03125 L 154.136719 163.453125 L 153.726562 163.871094 L 152.988281 164.570312 L 152.664062 164.863281 L 164.953125 166.792969 Z M 155.304688 158.988281 "/>
<path style="fill:none;stroke-width:1;stroke-linecap:butt;stroke-linejoin:miter;stroke:rgb(14.99939%,28.999329%,50%);stroke-opacity:0.7;stroke-miterlimit:3.25;" d="M 126.269531 36.066406 L 126.304688 36.132812 L 126.675781 36.828125 L 127.0625 37.550781 L 127.460938 38.304688 L 127.875 39.082031 L 128.347656 39.964844 L 128.835938 40.878906 L 129.335938 41.820312 L 129.851562 42.785156 L 130.378906 43.777344 L 130.921875 44.796875 L 131.523438 45.925781 L 132.140625 47.082031 L 132.769531 48.265625 L 133.414062 49.472656 L 134.074219 50.707031 L 134.746094 51.972656 L 135.257812 53.019531 L 135.753906 54.078125 L 136.222656 55.136719 L 136.675781 56.203125 L 137.105469 57.273438 L 137.515625 58.347656 L 137.84375 59.445312 L 138.152344 60.546875 L 138.441406 61.652344 L 138.707031 62.765625 L 138.953125 63.882812 L 139.179688 65.003906 L 139.324219 66.167969 L 139.445312 67.488281 L 139.550781 69.109375 L 139.632812 71.175781 L 139.691406 73.835938 L 139.734375 77.234375 L 139.734375 103.746094 L 139.8125 104.875 L 139.929688 105.984375 L 140.085938 107.0625 L 140.28125 108.121094 L 140.515625 109.15625 L 140.789062 110.164062 L 141.21875 111.078125 L 141.683594 111.964844 L 142.191406 112.832031 L 142.738281 113.671875 L 143.324219 114.488281 L 143.949219 115.28125 L 144.730469 115.976562 L 145.550781 116.648438 L 146.410156 117.296875 L 147.304688 117.917969 L 148.242188 118.519531 L 149.21875 119.09375 L 156.078125 122.523438 L 159.371094 124.167969 L 162.570312 125.769531 L 165.675781 127.324219 L 171.339844 130.15625 L 173.898438 131.433594 L 176.363281 132.664062 L 178.734375 133.851562 L 181.015625 134.992188 L 181.746094 135.359375 "/>
<path style=" stroke:none;fill-rule:nonzero;fill:rgb(14.99939%,28.999329%,50%);fill-opacity:0.7;" d="M 182.167969 132.039062 L 182.164062 132.4375 L 182.125 133.378906 L 182.074219 133.9375 L 182 134.480469 L 181.894531 134.972656 L 181.746094 135.359375 L 181.542969 135.671875 L 181.21875 136.046875 L 180.820312 136.449219 L 180.390625 136.851562 L 179.625 137.519531 L 179.289062 137.800781 L 191.488281 140.230469 Z M 182.167969 132.039062 "/>
<path style="fill:none;stroke-width:1;stroke-linecap:butt;stroke-linejoin:miter;stroke:rgb(14.99939%,28.999329%,50%);stroke-opacity:0.7;stroke-miterlimit:3.25;" d="M 126.789062 35.59375 L 128.753906 36.871094 L 132.335938 39.210938 L 136.796875 42.121094 L 141.695312 45.316406 L 147.472656 49.082031 L 153.683594 53.136719 L 157.796875 55.957031 L 161.839844 58.867188 L 165.738281 61.953125 L 169.5625 65.132812 L 173.242188 68.488281 L 176.847656 71.933594 L 184.050781 79.136719 "/>
<path style=" stroke:none;fill-rule:nonzero;fill:rgb(14.99939%,28.999329%,50%);fill-opacity:0.7;" d="M 185.503906 76.121094 L 185.371094 76.5 L 185.035156 77.382812 L 184.8125 77.890625 L 184.570312 78.386719 L 184.3125 78.816406 L 184.050781 79.136719 L 183.761719 79.371094 L 183.335938 79.621094 L 182.828125 79.878906 L 182.292969 80.125 L 181.355469 80.519531 L 180.945312 80.675781 L 191.753906 86.839844 Z M 185.503906 76.121094 "/>
<path style="fill:none;stroke-width:1;stroke-linecap:butt;stroke-linejoin:miter;stroke:rgb(14.99939%,28.999329%,50%);stroke-opacity:0.7;stroke-miterlimit:3.25;" d="M 126.921875 35.339844 L 181.308594 56.808594 "/>
<path style=" stroke:none;fill-rule:nonzero;fill:rgb(14.99939%,28.999329%,50%);fill-opacity:0.7;" d="M 181.4375 53.464844 L 181.46875 53.863281 L 181.511719 54.808594 L 181.511719 55.363281 L 181.484375 55.914062 L 181.417969 56.414062 L 181.308594 56.808594 L 181.132812 57.140625 L 180.839844 57.539062 L 180.476562 57.976562 L 180.085938 58.414062 L 179.382812 59.148438 L 179.070312 59.457031 L 191.4375 60.808594 Z M 181.4375 53.464844 "/>
<path style="fill:none;stroke-width:1;stroke-linecap:butt;stroke-linejoin:miter;stroke:rgb(14.99939%,28.999329%,50%);stroke-opacity:0.7;stroke-miterlimit:3.25;" d="M 85.40625 8.855469 L 85.097656 8.988281 L 84.246094 9.34375 L 83.371094 9.714844 L 82.46875 10.09375 L 81.539062 10.484375 L 80.582031 10.886719 L 79.597656 11.300781 L 78.585938 11.726562 L 77.550781 12.164062 L 76.484375 12.613281 L 75.390625 13.070312 L 74.109375 13.609375 L 72.804688 14.160156 L 71.46875 14.722656 L 70.105469 15.296875 L 68.714844 15.882812 L 67.300781 16.476562 L 65.855469 17.085938 L 64.386719 17.703125 L 62.886719 18.332031 L 61.363281 18.976562 L 59.8125 19.628906 L 58.230469 20.292969 L 56.464844 21.035156 L 54.667969 21.792969 L 52.847656 22.558594 L 51 23.335938 L 49.121094 24.125 L 47.21875 24.925781 L 45.289062 25.738281 L 43.332031 26.5625 L 41.347656 27.398438 L 39.335938 28.246094 L 37.296875 29.101562 L 35.230469 29.972656 L 34.609375 30.261719 L 33.992188 30.558594 L 33.378906 30.859375 L 32.773438 31.167969 L 32.171875 31.480469 L 31.574219 31.800781 L 30.980469 32.125 L 30.394531 32.457031 L 29.8125 32.792969 L 29.238281 33.136719 L 28.664062 33.488281 L 28.097656 33.84375 L 27.566406 34.238281 L 27.039062 34.640625 L 26.519531 35.050781 L 26.003906 35.464844 L 25.492188 35.886719 L 24.984375 36.3125 L 24.484375 36.742188 L 23.988281 37.179688 L 23.496094 37.625 L 23.011719 38.074219 L 22.53125 38.53125 L 22.054688 38.992188 L 21.609375 39.5 L 21.15625 40.039062 L 20.679688 40.628906 L 20.164062 41.296875 L 19.589844 42.070312 L 18.949219 42.964844 L 18.21875 44.011719 L 17.394531 45.230469 L 16.453125 46.648438 L 15.382812 48.289062 L 14.167969 50.175781 L 12.792969 52.332031 L 12.5 52.835938 L 12.214844 53.34375 L 11.933594 53.855469 L 11.660156 54.363281 L 11.390625 54.875 L 11.128906 55.390625 L 10.871094 55.90625 L 10.621094 56.421875 L 10.375 56.941406 L 10.136719 57.460938 L 9.902344 57.984375 L 9.675781 58.507812 L 9.488281 59.042969 L 9.304688 59.582031 L 9.128906 60.121094 L 8.957031 60.660156 L 8.792969 61.203125 L 8.636719 61.746094 L 8.480469 62.292969 L 8.191406 63.386719 L 7.925781 64.488281 L 7.804688 65.042969 L 7.71875 65.609375 L 7.640625 66.199219 L 7.570312 66.824219 L 7.503906 67.507812 L 7.441406 68.269531 L 7.386719 69.121094 L 7.339844 70.085938 L 7.296875 71.179688 L 7.257812 72.425781 L 7.226562 73.835938 L 7.199219 75.433594 L 7.179688 77.234375 L 7.179688 103.746094 L 7.195312 104.332031 L 7.214844 104.917969 L 7.269531 106.082031 L 7.304688 106.664062 L 7.34375 107.246094 L 7.386719 107.828125 L 7.433594 108.40625 L 7.484375 108.984375 L 7.539062 109.558594 L 7.601562 110.136719 L 7.667969 110.710938 L 7.761719 111.28125 L 7.863281 111.847656 L 7.96875 112.414062 L 8.082031 112.976562 L 8.195312 113.542969 L 8.4375 114.667969 L 8.566406 115.230469 L 8.699219 115.789062 L 8.835938 116.347656 L 9.125 117.464844 L 9.304688 118.019531 L 9.5 118.59375 L 9.71875 119.210938 L 9.96875 119.894531 L 10.265625 120.660156 L 10.617188 121.535156 L 11.027344 122.539062 L 11.515625 123.695312 L 12.085938 125.023438 L 12.746094 126.542969 L 13.511719 128.28125 L 14.390625 130.257812 L 14.679688 130.824219 L 14.972656 131.386719 L 15.273438 131.945312 L 15.578125 132.496094 L 15.890625 133.039062 L 16.207031 133.578125 L 16.53125 134.109375 L 16.863281 134.636719 L 17.199219 135.15625 L 17.539062 135.671875 L 17.886719 136.179688 L 18.242188 136.679688 L 18.636719 137.140625 L 19.039062 137.597656 L 19.445312 138.042969 L 19.859375 138.488281 L 20.277344 138.921875 L 20.703125 139.355469 L 21.136719 139.777344 L 21.574219 140.199219 L 22.015625 140.609375 L 22.464844 141.015625 L 22.921875 141.417969 L 23.382812 141.8125 L 23.898438 142.171875 L 24.507812 142.5625 L 25.292969 143.027344 L 26.339844 143.597656 L 27.738281 144.320312 L 29.566406 145.230469 L 31.917969 146.363281 L 34.871094 147.761719 L 38.515625 149.460938 L 42.933594 151.503906 L 48.214844 153.925781 L 54.445312 156.769531 L 55.753906 157.339844 L 57.070312 157.902344 L 58.382812 158.460938 L 59.699219 159.015625 L 61.019531 159.5625 L 62.339844 160.105469 L 63.664062 160.640625 L 64.988281 161.171875 L 66.3125 161.699219 L 67.640625 162.21875 L 68.96875 162.734375 L 70.300781 163.242188 L 71.644531 163.710938 L 72.992188 164.175781 L 74.339844 164.636719 L 75.6875 165.089844 L 77.039062 165.539062 L 78.390625 165.980469 L 79.746094 166.417969 L 81.105469 166.851562 L 82.460938 167.277344 L 83.820312 167.695312 L 85.183594 168.113281 L 86.546875 168.523438 L 87.921875 168.894531 L 89.300781 169.257812 L 90.683594 169.617188 L 92.0625 169.972656 L 93.445312 170.320312 L 94.832031 170.664062 L 96.21875 171.003906 L 97.609375 171.335938 L 99 171.664062 L 100.390625 171.984375 L 101.785156 172.300781 L 103.179688 172.609375 L 107.273438 173.457031 L 111.3125 174.296875 L 115.296875 175.125 L 119.230469 175.941406 L 123.109375 176.746094 L 126.933594 177.539062 L 130.707031 178.320312 L 134.429688 179.09375 L 138.097656 179.855469 L 141.710938 180.605469 L 145.273438 181.34375 L 148.785156 182.070312 L 151.921875 182.722656 L 155.007812 183.363281 L 158.042969 183.992188 L 161.023438 184.609375 L 163.949219 185.21875 L 166.824219 185.816406 L 169.648438 186.402344 L 172.414062 186.976562 L 175.132812 187.539062 L 177.792969 188.089844 L 180.402344 188.632812 L 182.960938 189.164062 L 185.148438 189.617188 L 187.28125 190.058594 L 189.363281 190.492188 L 191.390625 190.914062 L 193.367188 191.320312 L 193.660156 191.382812 "/>
<path style=" stroke:none;fill-rule:nonzero;fill:rgb(14.99939%,28.999329%,50%);fill-opacity:0.7;" d="M 193.214844 188.066406 L 193.316406 188.453125 L 193.519531 189.375 L 193.613281 189.925781 L 193.679688 190.472656 L 193.703125 190.972656 L 193.660156 191.382812 L 193.542969 191.738281 L 193.324219 192.183594 L 193.042969 192.675781 L 192.730469 193.171875 L 192.160156 194.015625 L 191.90625 194.375 L 204.324219 193.597656 Z M 193.214844 188.066406 "/>
<path style="fill:none;stroke-width:1;stroke-linecap:butt;stroke-linejoin:miter;stroke:rgb(14.99939%,28.999329%,50%);stroke-opacity:0.7;stroke-miterlimit:3.25;" d="M 85.636719 9.230469 L 85.570312 9.289062 L 84.972656 9.800781 L 84.351562 10.332031 L 83.71875 10.878906 L 83.0625 11.4375 L 82.386719 12.015625 L 81.695312 12.609375 L 80.910156 13.285156 L 80.105469 13.976562 L 79.28125 14.679688 L 78.441406 15.402344 L 77.582031 16.140625 L 76.703125 16.894531 L 75.804688 17.664062 L 74.886719 18.449219 L 73.878906 19.316406 L 72.851562 20.199219 L 71.804688 21.097656 L 70.738281 22.011719 L 69.652344 22.941406 L 68.550781 23.886719 L 67.429688 24.847656 L 66.289062 25.828125 L 65.425781 26.585938 L 64.566406 27.347656 L 63.707031 28.113281 L 62.855469 28.882812 L 62.007812 29.65625 L 61.164062 30.433594 L 60.320312 31.214844 L 59.484375 32 L 58.664062 32.804688 L 57.039062 34.421875 L 56.230469 35.238281 L 55.429688 36.054688 L 54.628906 36.878906 L 53.832031 37.703125 L 53.039062 38.53125 L 52.253906 39.394531 L 51.398438 40.355469 L 50.390625 41.496094 L 49.160156 42.917969 L 47.632812 44.707031 L 45.726562 46.953125 L 43.367188 49.75 L 40.484375 53.1875 L 39.957031 53.878906 L 39.445312 54.578125 L 38.949219 55.28125 L 38.472656 55.992188 L 38.007812 56.707031 L 37.558594 57.429688 L 37.125 58.15625 L 36.710938 58.890625 L 36.371094 59.648438 L 36.050781 60.417969 L 35.742188 61.1875 L 35.453125 61.96875 L 35.175781 62.75 L 34.917969 63.542969 L 34.671875 64.335938 L 34.445312 65.136719 L 34.296875 65.976562 L 34.164062 66.886719 L 34.042969 67.921875 L 33.941406 69.152344 L 33.855469 70.636719 L 33.785156 72.4375 L 33.730469 74.617188 L 33.691406 77.234375 L 33.691406 103.746094 L 33.722656 104.621094 L 33.765625 105.492188 L 33.824219 106.363281 L 33.890625 107.226562 L 33.972656 108.085938 L 34.066406 108.945312 L 34.175781 109.800781 L 34.292969 110.652344 L 34.476562 111.484375 L 34.671875 112.3125 L 34.878906 113.140625 L 35.097656 113.964844 L 35.328125 114.785156 L 35.574219 115.601562 L 35.832031 116.414062 L 36.101562 117.222656 L 36.441406 118.027344 L 36.84375 118.910156 L 37.351562 119.945312 L 38.015625 121.21875 L 38.878906 122.808594 L 39.992188 124.789062 L 41.40625 127.246094 L 43.160156 130.257812 L 43.71875 131.09375 L 44.292969 131.914062 L 44.878906 132.71875 L 45.476562 133.5 L 46.089844 134.265625 L 46.714844 135.011719 L 47.355469 135.742188 L 48.007812 136.453125 L 48.722656 137.070312 L 49.457031 137.671875 L 50.199219 138.257812 L 50.957031 138.820312 L 51.730469 139.367188 L 52.511719 139.894531 L 53.3125 140.40625 L 54.121094 140.898438 L 55 141.296875 L 55.890625 141.679688 L 56.792969 142.046875 L 57.710938 142.390625 L 58.640625 142.71875 L 59.582031 143.03125 L 60.539062 143.320312 L 61.511719 143.59375 L 67.957031 145.058594 L 74.265625 146.492188 L 80.445312 147.894531 L 86.488281 149.265625 L 92.394531 150.605469 L 98.171875 151.917969 L 103.8125 153.199219 L 109.316406 154.449219 L 114.148438 155.546875 L 118.851562 156.613281 L 123.414062 157.648438 L 127.847656 158.65625 L 132.144531 159.628906 L 136.304688 160.574219 L 140.335938 161.488281 L 144.226562 162.375 L 147.449219 163.105469 L 150.539062 163.808594 L 153.492188 164.476562 L 154.242188 164.648438 "/>
<path style=" stroke:none;fill-rule:nonzero;fill:rgb(14.99939%,28.999329%,50%);fill-opacity:0.7;" d="M 153.863281 161.324219 L 153.953125 161.710938 L 154.136719 162.636719 L 154.222656 163.1875 L 154.28125 163.738281 L 154.292969 164.238281 L 154.242188 164.648438 L 154.117188 165 L 153.894531 165.441406 L 153.601562 165.929688 L 153.277344 166.421875 L 152.695312 167.253906 L 152.433594 167.605469 L 164.863281 167.058594 Z M 153.863281 161.324219 "/>
<path style="fill:none;stroke-width:1;stroke-linecap:butt;stroke-linejoin:miter;stroke:rgb(14.99939%,28.999329%,50%);stroke-opacity:0.7;stroke-miterlimit:3.25;" d="M 86.710938 9.722656 L 86.710938 77.234375 L 86.773438 78.390625 L 86.867188 79.527344 L 86.988281 80.65625 L 87.144531 81.769531 L 87.328125 82.871094 L 87.546875 83.960938 L 87.886719 85 L 88.253906 86.023438 L 88.65625 87.035156 L 89.089844 88.035156 L 89.550781 89.019531 L 90.042969 89.996094 L 90.660156 90.917969 L 91.308594 91.828125 L 91.988281 92.722656 L 92.699219 93.609375 L 93.4375 94.480469 L 94.210938 95.339844 L 95.664062 96.792969 L 97.085938 98.210938 L 98.46875 99.597656 L 99.820312 100.949219 L 101.136719 102.261719 L 102.417969 103.542969 L 103.558594 104.6875 L 104.519531 105.648438 "/>
<path style=" stroke:none;fill-rule:nonzero;fill:rgb(14.99939%,28.999329%,50%);fill-opacity:0.7;" d="M 105.96875 102.632812 L 105.839844 103.011719 L 105.503906 103.890625 L 105.28125 104.402344 L 105.039062 104.898438 L 104.78125 105.328125 L 104.519531 105.648438 L 104.226562 105.878906 L 103.800781 106.132812 L 103.292969 106.390625 L 102.761719 106.636719 L 101.824219 107.027344 L 101.414062 107.1875 L 112.222656 113.351562 Z M 105.96875 102.632812 "/>
<path style="fill:none;stroke-width:1;stroke-linecap:butt;stroke-linejoin:miter;stroke:rgb(14.99939%,28.999329%,50%);stroke-opacity:0.7;stroke-miterlimit:3.25;" d="M 88.042969 8.789062 L 92.652344 10.453125 L 99.636719 12.976562 L 108.714844 16.253906 L 118.835938 19.910156 L 131.046875 24.320312 L 144.304688 29.105469 L 149.476562 31.191406 L 154.542969 33.457031 L 159.40625 36.085938 L 164.167969 38.898438 L 168.722656 42.070312 L 173.175781 45.421875 L 177.285156 48.761719 L 181.152344 51.902344 L 183.203125 53.570312 "/>
<path style=" stroke:none;fill-rule:nonzero;fill:rgb(14.99939%,28.999329%,50%);fill-opacity:0.7;" d="M 184.335938 50.417969 L 184.246094 50.808594 L 184 51.722656 L 183.832031 52.25 L 183.640625 52.769531 L 183.429688 53.222656 L 183.203125 53.570312 L 182.9375 53.832031 L 182.539062 54.125 L 182.058594 54.433594 L 181.554688 54.730469 L 180.660156 55.21875 L 180.273438 55.417969 L 191.65625 60.4375 Z M 184.335938 50.417969 "/>
<path style="fill:none;stroke-width:1;stroke-linecap:butt;stroke-linejoin:miter;stroke:rgb(14.99939%,28.999329%,50%);stroke-opacity:0.7;stroke-miterlimit:3.25;" d="M 87.882812 9.105469 L 115.433594 27.886719 "/>
<path style=" stroke:none;fill-rule:nonzero;fill:rgb(14.99939%,28.999329%,50%);fill-opacity:0.7;" d="M 116.296875 24.652344 L 116.242188 25.050781 L 116.074219 25.976562 L 115.953125 26.519531 L 115.804688 27.054688 L 115.632812 27.523438 L 115.433594 27.886719 L 115.191406 28.167969 L 114.820312 28.496094 L 114.367188 28.84375 L 113.890625 29.183594 L 113.039062 29.746094 L 112.671875 29.976562 L 124.433594 34.023438 Z M 116.296875 24.652344 "/>
<path style="fill:none;stroke-width:1;stroke-linecap:butt;stroke-linejoin:miter;stroke:rgb(14.99939%,28.999329%,50%);stroke-opacity:0.7;stroke-miterlimit:3.25;" d="M 247.078125 35.375 L 248.191406 35.855469 L 249.488281 36.410156 L 250.84375 36.988281 L 252.253906 37.59375 L 253.726562 38.226562 L 255.257812 38.882812 L 256.847656 39.5625 L 258.730469 40.371094 L 260.675781 41.203125 L 262.675781 42.0625 L 264.738281 42.945312 L 266.855469 43.851562 L 269.035156 44.785156 L 271.269531 45.742188 L 273.566406 46.726562 L 276.15625 47.835938 L 278.804688 48.972656 L 281.511719 50.132812 L 284.277344 51.316406 L 287.101562 52.527344 L 289.984375 53.761719 L 292.925781 55.023438 L 295.929688 56.308594 L 296.878906 56.761719 L 297.816406 57.222656 L 298.746094 57.699219 L 299.660156 58.191406 L 300.566406 58.691406 L 301.460938 59.207031 L 302.347656 59.734375 L 303.222656 60.277344 L 304.042969 60.882812 L 304.851562 61.5 L 305.648438 62.132812 L 306.4375 62.777344 L 307.214844 63.433594 L 307.980469 64.105469 L 308.738281 64.789062 L 309.480469 65.484375 L 310.183594 66.257812 L 310.925781 67.128906 L 311.769531 68.179688 L 312.769531 69.492188 L 313.980469 71.148438 L 315.457031 73.230469 L 317.253906 75.828125 L 319.429688 79.015625 L 319.882812 79.761719 L 320.328125 80.511719 L 320.753906 81.265625 L 321.171875 82.023438 L 321.574219 82.785156 L 321.960938 83.550781 L 322.335938 84.320312 L 322.695312 85.097656 L 322.988281 85.890625 L 323.265625 86.691406 L 323.53125 87.496094 L 323.785156 88.300781 L 324.023438 89.113281 L 324.246094 89.929688 L 324.457031 90.75 L 324.65625 91.574219 L 324.785156 92.429688 L 324.902344 93.347656 L 325.003906 94.398438 L 325.089844 95.636719 L 325.167969 97.132812 L 325.226562 98.9375 L 325.273438 101.125 L 325.308594 103.746094 L 325.273438 104.617188 L 325.222656 105.484375 L 325.15625 106.347656 L 325.078125 107.207031 L 324.984375 108.058594 L 324.875 108.90625 L 324.75 109.75 L 324.613281 110.589844 L 324.40625 111.40625 L 324.179688 112.214844 L 323.941406 113.019531 L 323.6875 113.820312 L 323.421875 114.617188 L 323.136719 115.410156 L 322.839844 116.195312 L 322.53125 116.980469 L 322.136719 117.753906 L 321.664062 118.605469 L 321.054688 119.628906 L 320.238281 120.902344 L 319.160156 122.515625 L 317.75 124.558594 L 315.949219 127.109375 L 313.695312 130.257812 L 313.042969 131.136719 L 312.386719 132.011719 L 311.066406 133.753906 L 310.402344 134.621094 L 309.734375 135.484375 L 309.0625 136.347656 L 308.390625 137.207031 L 307.703125 138.054688 L 307.007812 138.898438 L 306.316406 139.742188 L 305.617188 140.582031 L 304.917969 141.417969 L 304.214844 142.253906 L 303.507812 143.085938 L 302.796875 143.917969 L 302.058594 144.746094 L 301.25 145.648438 L 300.292969 146.699219 L 299.125 147.96875 L 297.667969 149.539062 L 295.851562 151.476562 L 293.605469 153.863281 L 290.863281 156.769531 L 290.003906 157.617188 L 289.136719 158.457031 L 288.257812 159.28125 L 287.371094 160.089844 L 286.476562 160.886719 L 285.574219 161.671875 L 284.664062 162.441406 L 283.742188 163.199219 L 282.78125 163.890625 L 281.808594 164.570312 L 280.828125 165.234375 L 279.839844 165.886719 L 278.839844 166.523438 L 277.835938 167.148438 L 276.820312 167.757812 L 275.796875 168.355469 L 274.730469 168.890625 L 273.652344 169.40625 L 272.570312 169.914062 L 271.476562 170.402344 L 270.375 170.882812 L 269.265625 171.347656 L 268.148438 171.800781 L 267.019531 172.238281 L 263.34375 173.535156 L 259.738281 174.808594 L 256.207031 176.054688 L 252.75 177.277344 L 249.359375 178.472656 L 246.046875 179.644531 L 242.804688 180.789062 L 239.632812 181.90625 L 236.828125 182.898438 L 234.089844 183.863281 L 231.425781 184.804688 L 228.835938 185.71875 L 226.320312 186.609375 L 223.871094 187.472656 L 221.5 188.308594 L 219.199219 189.121094 L 217.316406 189.785156 "/>
<path style=" stroke:none;fill-rule:nonzero;fill:rgb(14.99939%,28.999329%,50%);fill-opacity:0.7;" d="M 219.410156 192.394531 L 219.125 192.113281 L 218.476562 191.429688 L 218.109375 191.011719 L 217.769531 190.578125 L 217.492188 190.160156 L 217.316406 189.785156 L 217.230469 189.421875 L 217.1875 188.929688 L 217.175781 188.359375 L 217.183594 187.773438 L 217.234375 186.757812 L 217.265625 186.320312 L 207.042969 193.414062 Z M 219.410156 192.394531 "/>
<path style="fill:none;stroke-width:1;stroke-linecap:butt;stroke-linejoin:miter;stroke:rgb(14.99939%,28.999329%,50%);stroke-opacity:0.7;stroke-miterlimit:3.25;" d="M 245.777344 36.234375 L 245.777344 130.257812 L 245.695312 131.375 L 245.570312 132.464844 L 245.40625 133.523438 L 245.199219 134.554688 L 244.949219 135.550781 L 244.660156 136.519531 L 244.203125 137.371094 L 243.707031 138.191406 L 243.167969 138.980469 L 242.589844 139.742188 L 241.96875 140.472656 L 241.304688 141.175781 L 240.476562 141.753906 L 239.609375 142.308594 L 238.699219 142.828125 L 237.746094 143.320312 L 236.75 143.78125 L 235.714844 144.214844 L 230.074219 146.097656 L 219.257812 149.703125 L 214.078125 151.425781 L 209.058594 153.101562 L 204.191406 154.722656 L 199.945312 156.140625 L 195.851562 157.503906 L 191.914062 158.816406 L 188.132812 160.078125 L 184.503906 161.285156 L 181.035156 162.441406 L 178.179688 163.394531 L 177.921875 163.480469 "/>
<path style=" stroke:none;fill-rule:nonzero;fill:rgb(14.99939%,28.999329%,50%);fill-opacity:0.7;" d="M 179.96875 166.125 L 179.691406 165.839844 L 179.050781 165.144531 L 178.695312 164.71875 L 178.359375 164.277344 L 178.089844 163.855469 L 177.921875 163.480469 L 177.84375 163.117188 L 177.808594 162.621094 L 177.804688 162.050781 L 177.824219 161.464844 L 177.890625 160.449219 L 177.933594 160.015625 L 167.585938 166.925781 Z M 179.96875 166.125 "/>
<path style="fill:none;stroke-width:1;stroke-linecap:butt;stroke-linejoin:miter;stroke:rgb(14.99939%,28.999329%,50%);stroke-opacity:0.7;stroke-miterlimit:3.25;" d="M 246.863281 35.722656 L 246.960938 35.804688 L 247.582031 36.320312 L 248.222656 36.855469 L 248.886719 37.40625 L 249.566406 37.972656 L 250.269531 38.554688 L 250.992188 39.15625 L 252.65625 40.542969 L 253.519531 41.261719 L 254.402344 41.996094 L 255.304688 42.746094 L 256.230469 43.515625 L 257.171875 44.300781 L 258.136719 45.101562 L 259.199219 45.988281 L 260.285156 46.890625 L 261.390625 47.808594 L 262.515625 48.742188 L 263.660156 49.695312 L 264.824219 50.664062 L 266.007812 51.648438 L 267.214844 52.652344 L 268.070312 53.386719 L 268.925781 54.125 L 269.773438 54.867188 L 270.617188 55.617188 L 271.457031 56.367188 L 272.292969 57.125 L 273.121094 57.886719 L 273.949219 58.652344 L 274.75 59.4375 L 275.550781 60.230469 L 276.34375 61.027344 L 277.132812 61.828125 L 277.917969 62.636719 L 278.699219 63.445312 L 279.472656 64.257812 L 280.246094 65.078125 L 281.003906 65.933594 L 281.832031 66.882812 L 282.796875 68.015625 L 283.972656 69.421875 L 285.425781 71.1875 L 287.230469 73.40625 L 289.460938 76.164062 L 292.183594 79.550781 L 292.695312 80.253906 L 293.195312 80.964844 L 293.675781 81.679688 L 294.144531 82.398438 L 294.59375 83.125 L 295.03125 83.855469 L 295.453125 84.59375 L 295.859375 85.335938 L 296.1875 86.101562 L 296.5 86.875 L 296.800781 87.65625 L 297.082031 88.441406 L 297.351562 89.230469 L 297.605469 90.027344 L 297.839844 90.828125 L 298.0625 91.632812 L 298.210938 92.476562 L 298.339844 93.386719 L 298.453125 94.425781 L 298.554688 95.660156 L 298.636719 97.144531 L 298.707031 98.945312 L 298.761719 101.125 L 298.796875 103.746094 L 298.738281 104.582031 L 298.65625 105.402344 L 298.546875 106.203125 L 298.417969 106.984375 L 298.261719 107.746094 L 298.085938 108.492188 L 297.882812 109.214844 L 297.65625 109.921875 L 297.308594 110.539062 L 296.941406 111.132812 L 296.546875 111.710938 L 296.132812 112.269531 L 295.691406 112.808594 L 295.226562 113.328125 L 294.738281 113.832031 L 294.226562 114.316406 L 293.59375 114.707031 L 292.941406 115.078125 L 292.261719 115.433594 L 291.558594 115.769531 L 290.832031 116.085938 L 290.082031 116.382812 L 289.308594 116.664062 L 288.511719 116.921875 L 282.605469 118.398438 L 276.828125 119.84375 L 271.171875 121.257812 L 265.636719 122.640625 L 260.226562 123.992188 L 254.941406 125.316406 L 249.777344 126.605469 L 244.738281 127.867188 L 236.019531 130.046875 L 231.84375 131.089844 L 227.792969 132.101562 L 223.863281 133.085938 L 220.058594 134.035156 L 216.378906 134.957031 L 212.820312 135.84375 L 209.878906 136.582031 L 207.0625 137.285156 L 204.695312 137.875 "/>
<path style=" stroke:none;fill-rule:nonzero;fill:rgb(14.99939%,28.999329%,50%);fill-opacity:0.7;" d="M 206.535156 140.671875 L 206.277344 140.367188 L 205.695312 139.625 L 205.371094 139.171875 L 205.074219 138.707031 L 204.835938 138.265625 L 204.695312 137.875 L 204.648438 137.507812 L 204.648438 137.011719 L 204.691406 136.445312 L 204.753906 135.859375 L 204.898438 134.851562 L 204.972656 134.421875 L 194.128906 140.519531 Z M 206.535156 140.671875 "/>
<path style="fill:none;stroke-width:1;stroke-linecap:butt;stroke-linejoin:miter;stroke:rgb(14.99939%,28.999329%,50%);stroke-opacity:0.7;stroke-miterlimit:3.25;" d="M 244.777344 35.820312 L 243.8125 36.78125 L 241.652344 38.941406 L 239.101562 41.496094 L 236.351562 44.246094 L 233.207031 47.386719 L 229.871094 50.726562 L 226.335938 54.261719 L 222.800781 57.792969 L 208.660156 71.933594 L 205.324219 75.273438 L 202.179688 78.414062 L 201.457031 79.136719 "/>
<path style=" stroke:none;fill-rule:nonzero;fill:rgb(14.99939%,28.999329%,50%);fill-opacity:0.7;" d="M 204.472656 80.585938 L 204.097656 80.457031 L 203.214844 80.121094 L 202.703125 79.898438 L 202.207031 79.65625 L 201.777344 79.398438 L 201.457031 79.136719 L 201.226562 78.84375 L 200.972656 78.417969 L 200.714844 77.910156 L 200.472656 77.378906 L 200.078125 76.441406 L 199.917969 76.03125 L 193.757812 86.839844 Z M 204.472656 80.585938 "/>
<path style="fill:none;stroke-width:1;stroke-linecap:butt;stroke-linejoin:miter;stroke:rgb(14.99939%,28.999329%,50%);stroke-opacity:0.7;stroke-miterlimit:3.25;" d="M 244.511719 35.453125 L 203.761719 55.824219 "/>
<path style=" stroke:none;fill-rule:nonzero;fill:rgb(14.99939%,28.999329%,50%);fill-opacity:0.7;" d="M 206.167969 58.15625 L 205.847656 57.910156 L 205.117188 57.3125 L 204.703125 56.941406 L 204.3125 56.554688 L 203.984375 56.171875 L 203.761719 55.824219 L 203.636719 55.476562 L 203.53125 54.992188 L 203.449219 54.429688 L 203.382812 53.84375 L 203.308594 52.828125 L 203.285156 52.394531 L 194.019531 60.695312 Z M 206.167969 58.15625 "/>
<path style="fill:none;stroke-width:1;stroke-linecap:butt;stroke-linejoin:miter;stroke:rgb(14.99939%,28.999329%,50%);stroke-opacity:0.7;stroke-miterlimit:3.25;" d="M 247.070312 8.882812 L 247.566406 9.105469 L 248.503906 9.523438 L 249.472656 9.957031 L 250.46875 10.402344 L 251.496094 10.859375 L 252.554688 11.332031 L 253.636719 11.8125 L 254.753906 12.3125 L 255.894531 12.820312 L 257.214844 13.410156 L 258.5625 14.011719 L 259.941406 14.625 L 261.347656 15.253906 L 262.785156 15.894531 L 264.25 16.546875 L 265.742188 17.214844 L 267.265625 17.894531 L 268.820312 18.585938 L 270.402344 19.292969 L 272.160156 20.074219 L 273.945312 20.871094 L 275.761719 21.683594 L 277.609375 22.503906 L 279.484375 23.34375 L 281.386719 24.191406 L 283.320312 25.054688 L 285.28125 25.929688 L 287.273438 26.816406 L 289.296875 27.71875 L 290.347656 28.207031 L 291.398438 28.703125 L 292.441406 29.199219 L 293.484375 29.707031 L 294.523438 30.214844 L 295.5625 30.730469 L 296.59375 31.25 L 297.625 31.773438 L 298.652344 32.304688 L 299.675781 32.839844 L 300.683594 33.40625 L 301.683594 33.980469 L 302.683594 34.558594 L 303.679688 35.140625 L 304.675781 35.726562 L 305.664062 36.320312 L 306.652344 36.917969 L 307.636719 37.519531 L 308.617188 38.128906 L 309.59375 38.742188 L 310.566406 39.394531 L 311.601562 40.109375 L 312.773438 40.929688 L 314.148438 41.917969 L 315.796875 43.121094 L 317.789062 44.59375 L 320.191406 46.390625 L 323.074219 48.5625 L 326.507812 51.164062 L 330.558594 54.246094 L 331.152344 54.734375 L 331.742188 55.226562 L 332.328125 55.726562 L 332.902344 56.230469 L 333.472656 56.738281 L 334.039062 57.25 L 334.59375 57.769531 L 335.144531 58.296875 L 335.6875 58.824219 L 336.226562 59.359375 L 336.722656 59.925781 L 337.214844 60.496094 L 337.699219 61.074219 L 338.179688 61.65625 L 338.648438 62.242188 L 339.113281 62.835938 L 339.574219 63.433594 L 340.023438 64.035156 L 340.46875 64.640625 L 340.910156 65.253906 L 341.3125 65.90625 L 341.722656 66.597656 L 342.164062 67.371094 L 342.648438 68.265625 L 343.195312 69.308594 L 343.820312 70.550781 L 344.539062 72.019531 L 345.371094 73.753906 L 346.332031 75.796875 L 347.441406 78.183594 L 347.714844 78.832031 L 347.980469 79.480469 L 348.238281 80.132812 L 348.492188 80.78125 L 348.738281 81.4375 L 348.976562 82.09375 L 349.210938 82.75 L 349.4375 83.40625 L 349.660156 84.066406 L 349.875 84.726562 L 350.046875 85.394531 L 350.21875 86.066406 L 350.378906 86.738281 L 350.535156 87.410156 L 350.683594 88.085938 L 350.828125 88.761719 L 350.964844 89.4375 L 351.09375 90.117188 L 351.214844 90.796875 L 351.332031 91.480469 L 351.410156 92.175781 L 351.484375 92.90625 L 351.546875 93.699219 L 351.605469 94.589844 L 351.65625 95.609375 L 351.703125 96.789062 L 351.742188 98.160156 L 351.773438 99.753906 L 351.800781 101.605469 L 351.820312 103.746094 L 351.800781 104.449219 L 351.777344 105.152344 L 351.746094 105.851562 L 351.710938 106.554688 L 351.667969 107.25 L 351.621094 107.949219 L 351.566406 108.644531 L 351.507812 109.339844 L 351.441406 110.035156 L 351.367188 110.726562 L 351.261719 111.410156 L 351.144531 112.097656 L 351.027344 112.777344 L 350.898438 113.460938 L 350.765625 114.140625 L 350.628906 114.820312 L 350.484375 115.5 L 350.332031 116.175781 L 350.175781 116.851562 L 350.015625 117.527344 L 349.8125 118.199219 L 349.589844 118.910156 L 349.332031 119.691406 L 349.023438 120.578125 L 348.644531 121.617188 L 348.183594 122.832031 L 347.628906 124.269531 L 346.960938 125.960938 L 346.164062 127.945312 L 345.222656 130.257812 L 344.917969 130.957031 L 344.292969 132.347656 L 343.972656 133.039062 L 343.648438 133.726562 L 343.320312 134.410156 L 342.988281 135.09375 L 342.308594 136.453125 L 341.960938 137.128906 L 341.589844 137.785156 L 341.214844 138.445312 L 340.449219 139.75 L 340.058594 140.398438 L 339.664062 141.042969 L 339.265625 141.6875 L 338.863281 142.328125 L 338.457031 142.964844 L 338.042969 143.601562 L 337.601562 144.226562 L 337.117188 144.894531 L 336.558594 145.640625 L 335.886719 146.515625 L 335.070312 147.558594 L 334.070312 148.808594 L 332.855469 150.3125 L 331.382812 152.113281 L 329.625 154.25 L 327.542969 156.769531 L 326.933594 157.441406 L 326.316406 158.105469 L 325.691406 158.757812 L 325.058594 159.398438 L 324.421875 160.027344 L 323.777344 160.644531 L 323.125 161.253906 L 322.464844 161.851562 L 321.800781 162.4375 L 321.128906 163.011719 L 320.417969 163.519531 L 319.695312 164.015625 L 318.96875 164.503906 L 318.238281 164.976562 L 317.496094 165.441406 L 316.75 165.894531 L 315.996094 166.335938 L 315.234375 166.769531 L 314.46875 167.1875 L 313.695312 167.597656 L 312.878906 167.941406 L 312.058594 168.273438 L 311.230469 168.59375 L 310.394531 168.902344 L 309.550781 169.199219 L 308.703125 169.488281 L 307.847656 169.765625 L 306.984375 170.03125 L 306.113281 170.285156 L 305.238281 170.527344 L 300.351562 171.675781 L 295.542969 172.804688 L 290.816406 173.914062 L 286.171875 175.003906 L 281.605469 176.074219 L 277.121094 177.125 L 272.71875 178.160156 L 268.394531 179.175781 L 264.148438 180.171875 L 259.988281 181.148438 L 256.308594 182.011719 L 252.707031 182.855469 L 249.1875 183.679688 L 245.75 184.488281 L 242.394531 185.277344 L 239.117188 186.042969 L 235.917969 186.792969 L 232.800781 187.527344 L 229.765625 188.238281 L 226.8125 188.933594 L 224.339844 189.511719 L 221.949219 190.074219 L 219.636719 190.617188 L 217.691406 191.070312 "/>
<path style=" stroke:none;fill-rule:nonzero;fill:rgb(14.99939%,28.999329%,50%);fill-opacity:0.7;" d="M 219.492188 193.894531 L 219.238281 193.582031 L 218.667969 192.832031 L 218.351562 192.375 L 218.058594 191.90625 L 217.828125 191.460938 L 217.691406 191.070312 L 217.648438 190.699219 L 217.660156 190.207031 L 217.707031 189.640625 L 217.78125 189.054688 L 217.941406 188.050781 L 218.019531 187.621094 L 207.089844 193.558594 Z M 219.492188 193.894531 "/>
<path style="fill:none;stroke-width:1;stroke-linecap:butt;stroke-linejoin:miter;stroke:rgb(14.99939%,28.999329%,50%);stroke-opacity:0.7;stroke-miterlimit:3.25;" d="M 244.652344 9.167969 L 243.074219 10.375 L 239.976562 12.738281 L 236.101562 15.703125 L 231.832031 18.96875 L 226.78125 22.828125 L 221.335938 26.988281 L 218.03125 29.703125 L 214.832031 32.515625 L 211.847656 35.539062 L 208.972656 38.660156 L 206.3125 41.992188 L 203.757812 45.421875 L 201.449219 48.761719 L 199.757812 51.207031 "/>
<path style=" stroke:none;fill-rule:nonzero;fill:rgb(14.99939%,28.999329%,50%);fill-opacity:0.7;" d="M 202.984375 52.09375 L 202.589844 52.035156 L 201.660156 51.859375 L 201.117188 51.734375 L 200.589844 51.582031 L 200.117188 51.40625 L 199.757812 51.207031 L 199.476562 50.960938 L 199.152344 50.585938 L 198.808594 50.132812 L 198.46875 49.652344 L 197.914062 48.800781 L 197.6875 48.429688 L 193.558594 60.164062 Z M 202.984375 52.09375 "/>
<path style="fill:none;stroke-width:1;stroke-linecap:butt;stroke-linejoin:miter;stroke:rgb(14.99939%,28.999329%,50%);stroke-opacity:0.7;stroke-miterlimit:3.25;" d="M 245.777344 9.722656 L 245.777344 22.511719 "/>
<path style=" stroke:none;fill-rule:nonzero;fill:rgb(14.99939%,28.999329%,50%);fill-opacity:0.7;" d="M 248.933594 21.402344 L 248.574219 21.578125 L 247.714844 21.964844 L 247.195312 22.167969 L 246.671875 22.347656 L 246.1875 22.46875 L 245.777344 22.511719 L 245.40625 22.46875 L 244.925781 22.347656 L 244.386719 22.167969 L 243.835938 21.964844 L 242.894531 21.578125 L 242.492188 21.402344 L 245.777344 33.402344 Z M 248.933594 21.402344 "/>
<path style="fill-rule:evenodd;fill:rgb(63.998413%,70.399475%,79.998779%);fill-opacity:1;stroke-width:1;stroke-linecap:square;stroke-linejoin:miter;stroke:rgb(0%,0%,0%);stroke-opacity:0.7;stroke-miterlimit:3.25;" d="M 207.414062 194 C 207.414062 193.625 207.265625 193.265625 207 193 C 206.734375 192.734375 206.375 192.585938 206 192.585938 C 205.625 192.585938 205.265625 192.734375 205 193 C 204.734375 193.265625 204.585938 193.625 204.585938 194 C 204.585938 194.375 204.734375 194.734375 205 195 C 205.265625 195.265625 205.625 195.414062 206 195.414062 C 206.375 195.414062 206.734375 195.265625 207 195 C 207.265625 194.734375 207.414062 194.375 207.414062 194 Z M 207.414062 194 "/>
<path style="fill-rule:evenodd;fill:rgb(63.998413%,70.399475%,79.998779%);fill-opacity:1;stroke-width:1;stroke-linecap:square;stroke-linejoin:miter;stroke:rgb(0%,0%,0%);stroke-opacity:0.7;stroke-miterlimit:3.25;" d="M 167.414062 167 C 167.414062 166.625 167.265625 166.265625 167 166 C 166.734375 165.734375 166.375 165.585938 166 165.585938 C 165.625 165.585938 165.265625 165.734375 165 166 C 164.734375 166.265625 164.585938 166.625 164.585938 167 C 164.585938 167.375 164.734375 167.734375 165 168 C 165.265625 168.265625 165.625 168.414062 166 168.414062 C 166.375 168.414062 166.734375 168.265625 167 168 C 167.265625 167.734375 167.414062 167.375 167.414062 167 Z M 167.414062 167 "/>
<path style="fill-rule:evenodd;fill:rgb(63.998413%,70.399475%,79.998779%);fill-opacity:1;stroke-width:1;stroke-linecap:square;stroke-linejoin:miter;stroke:rgb(0%,0%,0%);stroke-opacity:0.7;stroke-miterlimit:3.25;" d="M 194.414062 141 C 194.414062 140.625 194.265625 140.265625 194 140 C 193.734375 139.734375 193.375 139.585938 193 139.585938 C 192.625 139.585938 192.265625 139.734375 192 140 C 191.734375 140.265625 191.585938 140.625 191.585938 141 C 191.585938 141.375 191.734375 141.734375 192 142 C 192.265625 142.265625 192.625 142.414062 193 142.414062 C 193.375 142.414062 193.734375 142.265625 194 142 C 194.265625 141.734375 194.414062 141.375 194.414062 141 Z M 194.414062 141 "/>
<path style="fill-rule:evenodd;fill:rgb(63.998413%,70.399475%,79.998779%);fill-opacity:1;stroke-width:1;stroke-linecap:square;stroke-linejoin:miter;stroke:rgb(0%,0%,0%);stroke-opacity:0.7;stroke-miterlimit:3.25;" d="M 114.414062 114 C 114.414062 113.625 114.265625 113.265625 114 113 C 113.734375 112.734375 113.375 112.585938 113 112.585938 C 112.625 112.585938 112.265625 112.734375 112 113 C 111.734375 113.265625 111.585938 113.625 111.585938 114 C 111.585938 114.375 111.734375 114.734375 112 115 C 112.265625 115.265625 112.625 115.414062 113 115.414062 C 113.375 115.414062 113.734375 115.265625 114 115 C 114.265625 114.734375 114.414062 114.375 114.414062 114 Z M 114.414062 114 "/>
<path style="fill-rule:evenodd;fill:rgb(63.998413%,70.399475%,79.998779%);fill-opacity:1;stroke-width:1;stroke-linecap:square;stroke-linejoin:miter;stroke:rgb(0%,0%,0%);stroke-opacity:0.7;stroke-miterlimit:3.25;" d="M 194.414062 88 C 194.414062 87.625 194.265625 87.265625 194 87 C 193.734375 86.734375 193.375 86.585938 193 86.585938 C 192.625 86.585938 192.265625 86.734375 192 87 C 191.734375 87.265625 191.585938 87.625 191.585938 88 C 191.585938 88.375 191.734375 88.734375 192 89 C 192.265625 89.265625 192.625 89.414062 193 89.414062 C 193.375 89.414062 193.734375 89.265625 194 89 C 194.265625 88.734375 194.414062 88.375 194.414062 88 Z M 194.414062 88 "/>
<path style="fill-rule:evenodd;fill:rgb(63.998413%,70.399475%,79.998779%);fill-opacity:1;stroke-width:1;stroke-linecap:square;stroke-linejoin:miter;stroke:rgb(0%,0%,0%);stroke-opacity:0.7;stroke-miterlimit:3.25;" d="M 194.414062 61 C 194.414062 60.625 194.265625 60.265625 194 60 C 193.734375 59.734375 193.375 59.585938 193 59.585938 C 192.625 59.585938 192.265625 59.734375 192 60 C 191.734375 60.265625 191.585938 60.625 191.585938 61 C 191.585938 61.375 191.734375 61.734375 192 62 C 192.265625 62.265625 192.625 62.414062 193 62.414062 C 193.375 62.414062 193.734375 62.265625 194 62 C 194.265625 61.734375 194.414062 61.375 194.414062 61 Z M 194.414062 61 "/>
<path style="fill-rule:evenodd;fill:rgb(63.998413%,70.399475%,79.998779%);fill-opacity:1;stroke-width:1;stroke-linecap:square;stroke-linejoin:miter;stroke:rgb(0%,0%,0%);stroke-opacity:0.7;stroke-miterlimit:3.25;" d="M 127.414062 35 C 127.414062 34.625 127.265625 34.265625 127 34 C 126.734375 33.734375 126.375 33.585938 126 33.585938 C 125.625 33.585938 125.265625 33.734375 125 34 C 124.734375 34.265625 124.585938 34.625 124.585938 35 C 124.585938 35.375 124.734375 35.734375 125 36 C 125.265625 36.265625 125.625 36.414062 126 36.414062 C 126.375 36.414062 126.734375 36.265625 127 36 C 127.265625 35.734375 127.414062 35.375 127.414062 35 Z M 127.414062 35 "/>
<path style="fill-rule:evenodd;fill:rgb(63.998413%,70.399475%,79.998779%);fill-opacity:1;stroke-width:1;stroke-linecap:square;stroke-linejoin:miter;stroke:rgb(0%,0%,0%);stroke-opacity:0.7;stroke-miterlimit:3.25;" d="M 88.414062 8 C 88.414062 7.625 88.265625 7.265625 88 7 C 87.734375 6.734375 87.375 6.585938 87 6.585938 C 86.625 6.585938 86.265625 6.734375 86 7 C 85.734375 7.265625 85.585938 7.625 85.585938 8 C 85.585938 8.375 85.734375 8.734375 86 9 C 86.265625 9.265625 86.625 9.414062 87 9.414062 C 87.375 9.414062 87.734375 9.265625 88 9 C 88.265625 8.734375 88.414062 8.375 88.414062 8 Z M 88.414062 8 "/>
<path style="fill-rule:evenodd;fill:rgb(63.998413%,70.399475%,79.998779%);fill-opacity:1;stroke-width:1;stroke-linecap:square;stroke-linejoin:miter;stroke:rgb(0%,0%,0%);stroke-opacity:0.7;stroke-miterlimit:3.25;" d="M 247.414062 35 C 247.414062 34.625 247.265625 34.265625 247 34 C 246.734375 33.734375 246.375 33.585938 246 33.585938 C 245.625 33.585938 245.265625 33.734375 245 34 C 244.734375 34.265625 244.585938 34.625 244.585938 35 C 244.585938 35.375 244.734375 35.734375 245 36 C 245.265625 36.265625 245.625 36.414062 246 36.414062 C 246.375 36.414062 246.734375 36.265625 247 36 C 247.265625 35.734375 247.414062 35.375 247.414062 35 Z M 247.414062 35 "/>
<path style="fill-rule:evenodd;fill:rgb(63.998413%,70.399475%,79.998779%);fill-opacity:1;stroke-width:1;stroke-linecap:square;stroke-linejoin:miter;stroke:rgb(0%,0%,0%);stroke-opacity:0.7;stroke-miterlimit:3.25;" d="M 247.414062 8 C 247.414062 7.625 247.265625 7.265625 247 7 C 246.734375 6.734375 246.375 6.585938 246 6.585938 C 245.625 6.585938 245.265625 6.734375 245 7 C 244.734375 7.265625 244.585938 7.625 244.585938 8 C 244.585938 8.375 244.734375 8.734375 245 9 C 245.265625 9.265625 245.625 9.414062 246 9.414062 C 246.375 9.414062 246.734375 9.265625 247 9 C 247.265625 8.734375 247.414062 8.375 247.414062 8 Z M 247.414062 8 "/>
</g>
</svg>
