<?xml version="1.0" encoding="UTF-8"?>
<svg xmlns="http://www.w3.org/2000/svg" xmlns:xlink="http://www.w3.org/1999/xlink" width="353pt" height="241pt" viewBox="0 0 353 241" version="1.1">
<g id="surface7">
<path style="fill:none;stroke-width:1;stroke-linecap:butt;stroke-linejoin:miter;stroke:rgb(14.99939%,28.999329%,50%);stroke-opacity:0.7;stroke-miterlimit:3.25;" d="M 179.5 211.253906 L 179.5 225.761719 "/>
<path style=" stroke:none;fill-rule:nonzero;fill:rgb(14.99939%,28.999329%,50%);fill-opacity:0.7;" d="M 182.65625 224.652344 L 182.296875 224.828125 L 181.4375 225.214844 L 180.917969 225.417969 L 180.394531 225.59375 L 179.910156 225.71875 L 179.5 225.761719 L 179.128906 225.71875 L 178.648438 225.59375 L 178.109375 225.417969 L 177.558594 225.214844 L 176.617188 224.828125 L 176.214844 224.652344 L 179.5 236.652344 Z M 182.65625 224.652344 "/>
<path style="fill:none;stroke-width:1;stroke-linecap:butt;stroke-linejoin:miter;stroke:rgb(14.99939%,28.999329%,50%);stroke-opacity:0.7;stroke-miterlimit:3.25;" d="M 151.953125 182.046875 L 170.625 200.71875 "/>
<path style=" stroke:none;fill-rule:nonzero;fill:rgb(14.99939%,28.999329%,50%);fill-opacity:0.7;" d="M 172.074219 197.699219 L 171.945312 198.078125 L 171.605469 198.960938 L 171.382812 199.472656 L 171.140625 199.964844 L 170.882812 200.398438 L 170.625 200.71875 L 170.332031 200.949219 L 169.90625 201.203125 L 169.398438 201.457031 L 168.863281 201.703125 L 167.925781 202.097656 L 167.519531 202.257812 L 178.324219 208.417969 Z M 172.074219 197.699219 "/>
<path style="fill:none;stroke-width:1;stroke-linecap:butt;stroke-linejoin:miter;stroke:rgb(14.99939%,28.999329%,50%);stroke-opacity:0.7;stroke-miterlimit:3.25;" d="M 236.941406 153.816406 L 236.941406 169.386719 L 236.90625 170.332031 L 236.859375 171.277344 L 236.796875 172.21875 L 236.722656 173.15625 L 236.636719 174.089844 L 236.53125 175.019531 L 236.417969 175.945312 L 236.289062 176.867188 L 236.09375 177.769531 L 235.882812 178.667969 L 235.660156 179.566406 L 235.421875 180.457031 L 235.167969 181.347656 L 234.90625 182.230469 L 234.628906 183.113281 L 234.335938 183.988281 L 233.96875 184.863281 L 233.535156 185.816406 L 232.988281 186.941406 L 232.273438 188.320312 L 231.339844 190.039062 L 230.136719 192.1875 L 228.613281 194.847656 L 226.722656 198.105469 L 226.128906 199.042969 L 225.53125 199.96875 L 224.917969 200.886719 L 224.300781 201.796875 L 223.671875 202.695312 L 223.03125 203.589844 L 222.382812 204.472656 L 221.726562 205.347656 L 221.023438 206.179688 L 220.308594 207 L 219.585938 207.816406 L 218.851562 208.621094 L 218.109375 209.417969 L 217.359375 210.207031 L 216.597656 210.984375 L 215.828125 211.757812 L 215.007812 212.484375 L 214.183594 213.203125 L 213.347656 213.910156 L 212.5 214.613281 L 211.644531 215.304688 L 210.78125 215.988281 L 209.90625 216.664062 L 209.023438 217.332031 L 207.3125 218.546875 L 205.632812 219.738281 L 203.988281 220.910156 L 202.371094 222.058594 L 200.785156 223.1875 L 199.230469 224.292969 L 197.707031 225.375 L 196.214844 226.433594 L 194.875 227.386719 L 193.566406 228.316406 L 192.289062 229.222656 L 191.046875 230.109375 L 189.832031 230.972656 L 189.730469 231.042969 "/>
<path style=" stroke:none;fill-rule:nonzero;fill:rgb(14.99939%,28.999329%,50%);fill-opacity:0.7;" d="M 192.464844 232.972656 L 192.113281 232.78125 L 191.300781 232.304688 L 190.832031 232 L 190.386719 231.675781 L 190.003906 231.351562 L 189.730469 231.042969 L 189.550781 230.714844 L 189.375 230.253906 L 189.207031 229.710938 L 189.050781 229.140625 L 188.820312 228.152344 L 188.734375 227.722656 L 180.855469 237.351562 Z M 192.464844 232.972656 "/>
<path style="fill:none;stroke-width:1;stroke-linecap:butt;stroke-linejoin:miter;stroke:rgb(14.99939%,28.999329%,50%);stroke-opacity:0.7;stroke-miterlimit:3.25;" d="M 235.363281 152.679688 L 162.6875 176.902344 "/>
<path style=" stroke:none;fill-rule:nonzero;fill:rgb(14.99939%,28.999329%,50%);fill-opacity:0.7;" d="M 164.738281 179.550781 L 164.457031 179.265625 L 163.820312 178.570312 L 163.460938 178.140625 L 163.128906 177.703125 L 162.859375 177.28125 L 162.6875 176.902344 L 162.613281 176.539062 L 162.578125 176.042969 L 162.574219 175.476562 L 162.59375 174.886719 L 162.660156 173.875 L 162.703125 173.4375 L 152.355469 180.347656 Z M 164.738281 179.550781 "/>
<path style="fill:none;stroke-width:1;stroke-linecap:butt;stroke-linejoin:miter;stroke:rgb(14.99939%,28.999329%,50%);stroke-opacity:0.7;stroke-miterlimit:3.25;" d="M 122.058594 125.09375 L 122.058594 140.664062 L 122.359375 144.371094 L 122.960938 147.949219 L 124.167969 151.28125 L 125.671875 154.488281 L 127.777344 157.445312 L 130.183594 160.277344 L 141.902344 171.996094 "/>
<path style=" stroke:none;fill-rule:nonzero;fill:rgb(14.99939%,28.999329%,50%);fill-opacity:0.7;" d="M 143.351562 168.980469 L 143.222656 169.359375 L 142.886719 170.242188 L 142.664062 170.75 L 142.421875 171.246094 L 142.164062 171.675781 L 141.902344 171.996094 L 141.609375 172.230469 L 141.183594 172.480469 L 140.679688 172.738281 L 140.144531 172.984375 L 139.207031 173.378906 L 138.796875 173.535156 L 149.605469 179.699219 Z M 143.351562 168.980469 "/>
<path style="fill:none;stroke-width:1;stroke-linecap:butt;stroke-linejoin:miter;stroke:rgb(14.99939%,28.999329%,50%);stroke-opacity:0.7;stroke-miterlimit:3.25;" d="M 123.671875 123.835938 L 224.761719 149.109375 "/>
<path style=" stroke:none;fill-rule:nonzero;fill:rgb(14.99939%,28.999329%,50%);fill-opacity:0.7;" d="M 224.453125 145.777344 L 224.535156 146.167969 L 224.699219 147.097656 L 224.773438 147.648438 L 224.820312 148.199219 L 224.820312 148.703125 L 224.761719 149.109375 L 224.628906 149.457031 L 224.394531 149.894531 L 224.09375 150.375 L 223.761719 150.859375 L 223.15625 151.679688 L 222.890625 152.027344 L 235.328125 151.75 Z M 224.453125 145.777344 "/>
<path style="fill:none;stroke-width:1;stroke-linecap:butt;stroke-linejoin:miter;stroke:rgb(14.99939%,28.999329%,50%);stroke-opacity:0.7;stroke-miterlimit:3.25;" d="M 238.113281 124.609375 L 239.066406 125.5625 L 239.390625 125.882812 L 239.714844 126.207031 L 240.042969 126.539062 L 240.378906 126.871094 L 240.71875 127.210938 L 241.058594 127.554688 L 241.789062 128.285156 L 242.175781 128.667969 L 242.566406 129.0625 L 243.359375 129.855469 L 243.765625 130.257812 L 244.171875 130.667969 L 244.585938 131.078125 L 245.003906 131.496094 L 245.421875 131.917969 L 246.277344 132.773438 L 246.714844 133.207031 L 247.625 134.117188 L 248.101562 134.597656 L 248.585938 135.078125 L 249.5625 136.054688 L 250.054688 136.550781 L 252.078125 138.574219 L 252.597656 139.089844 L 253.117188 139.609375 L 253.640625 140.136719 L 254.171875 140.664062 L 254.640625 141.199219 L 255.089844 141.730469 L 255.519531 142.257812 L 255.925781 142.785156 L 256.316406 143.304688 L 256.6875 143.824219 L 257.039062 144.339844 L 257.367188 144.851562 L 257.679688 145.359375 L 257.972656 145.863281 L 258.242188 146.367188 L 258.496094 146.867188 L 258.726562 147.363281 L 258.941406 147.855469 L 258.996094 148.324219 L 259.03125 148.785156 L 259.046875 149.246094 L 259.042969 149.707031 L 259.019531 150.160156 L 258.976562 150.609375 L 258.914062 151.058594 L 258.832031 151.503906 L 258.730469 151.945312 L 258.609375 152.382812 L 258.46875 152.820312 L 258.304688 153.25 L 258.125 153.679688 L 257.925781 154.105469 L 257.558594 154.511719 L 257.109375 154.945312 L 256.515625 155.4375 L 255.714844 156.019531 L 254.648438 156.722656 L 253.25 157.578125 L 251.460938 158.613281 L 249.21875 159.867188 L 246.460938 161.363281 L 243.121094 163.136719 L 239.144531 165.214844 L 234.464844 167.632812 L 229.019531 170.421875 L 222.75 173.609375 L 222.070312 173.96875 L 221.386719 174.328125 L 220.035156 175.0625 L 219.359375 175.433594 L 218.6875 175.808594 L 218.019531 176.1875 L 217.355469 176.566406 L 216.6875 176.953125 L 216.027344 177.339844 L 215.367188 177.730469 L 214.054688 178.519531 L 213.402344 178.921875 L 212.765625 179.347656 L 212.136719 179.777344 L 211.503906 180.207031 L 210.253906 181.082031 L 209.628906 181.523438 L 209.007812 181.96875 L 207.773438 182.867188 L 207.160156 183.324219 L 206.550781 183.78125 L 205.332031 184.703125 L 204.730469 185.171875 L 204.144531 185.664062 L 203.558594 186.160156 L 202.976562 186.660156 L 201.820312 187.667969 L 201.246094 188.175781 L 200.675781 188.6875 L 200.105469 189.203125 L 199.535156 189.722656 L 198.972656 190.242188 L 198.40625 190.769531 L 197.847656 191.296875 L 197.289062 191.828125 L 196.730469 192.363281 L 188.375 200.71875 "/>
<path style=" stroke:none;fill-rule:nonzero;fill:rgb(14.99939%,28.999329%,50%);fill-opacity:0.7;" d="M 191.394531 202.167969 L 191.015625 202.039062 L 190.132812 201.699219 L 189.621094 201.476562 L 189.128906 201.234375 L 188.695312 200.976562 L 188.375 200.71875 L 188.144531 200.425781 L 187.890625 200 L 187.636719 199.492188 L 187.390625 198.957031 L 186.996094 198.019531 L 186.835938 197.613281 L 180.675781 208.417969 Z M 191.394531 202.167969 "/>
<path style="fill:none;stroke-width:1;stroke-linecap:butt;stroke-linejoin:miter;stroke:rgb(14.99939%,28.999329%,50%);stroke-opacity:0.7;stroke-miterlimit:3.25;" d="M 235.765625 124.609375 L 229.707031 130.667969 L 226.726562 133.644531 L 223.324219 137.050781 L 219.707031 140.664062 L 215.765625 144.339844 L 211.710938 147.855469 L 207.429688 151.058594 L 203.039062 154.105469 L 198.417969 156.839844 L 193.6875 159.417969 L 183.953125 164.285156 L 174.957031 168.785156 L 167.4375 172.546875 L 162.007812 175.257812 "/>
<path style=" stroke:none;fill-rule:nonzero;fill:rgb(14.99939%,28.999329%,50%);fill-opacity:0.7;" d="M 164.410156 177.589844 L 164.09375 177.347656 L 163.363281 176.746094 L 162.949219 176.375 L 162.558594 175.988281 L 162.230469 175.609375 L 162.007812 175.257812 L 161.878906 174.910156 L 161.773438 174.425781 L 161.691406 173.863281 L 161.628906 173.277344 L 161.550781 172.265625 L 161.53125 171.828125 L 152.265625 180.132812 Z M 164.410156 177.589844 "/>
<path style="fill:none;stroke-width:1;stroke-linecap:butt;stroke-linejoin:miter;stroke:rgb(14.99939%,28.999329%,50%);stroke-opacity:0.7;stroke-miterlimit:3.25;" d="M 179.5 96.375 L 179.5 197.039062 "/>
<path style=" stroke:none;fill-rule:nonzero;fill:rgb(14.99939%,28.999329%,50%);fill-opacity:0.7;" d="M 182.65625 195.933594 L 182.296875 196.109375 L 181.4375 196.492188 L 180.917969 196.699219 L 180.394531 196.875 L 179.910156 197 L 179.5 197.039062 L 179.128906 197 L 178.648438 196.875 L 178.109375 196.699219 L 177.558594 196.492188 L 176.617188 196.109375 L 176.214844 195.933594 L 179.5 207.933594 Z M 182.65625 195.933594 "/>
<path style="fill:none;stroke-width:1;stroke-linecap:butt;stroke-linejoin:miter;stroke:rgb(14.99939%,28.999329%,50%);stroke-opacity:0.7;stroke-miterlimit:3.25;" d="M 178.324219 95.886719 L 177.246094 96.964844 L 176.421875 97.792969 L 171.394531 102.820312 L 170.230469 103.980469 L 169.03125 105.183594 L 164.980469 109.234375 L 163.515625 110.695312 L 162.015625 112.199219 L 158.902344 115.3125 L 158.066406 116.242188 L 157.265625 117.183594 L 156.496094 118.144531 L 155.761719 119.113281 L 155.058594 120.101562 L 154.390625 121.101562 L 153.855469 122.15625 L 153.355469 123.222656 L 152.886719 124.304688 L 152.453125 125.402344 L 152.050781 126.511719 L 151.683594 127.636719 L 151.449219 128.84375 L 151.246094 130.222656 L 151.082031 131.933594 L 150.945312 134.140625 L 150.847656 136.996094 L 150.78125 140.664062 L 150.78125 168.320312 "/>
<path style=" stroke:none;fill-rule:nonzero;fill:rgb(14.99939%,28.999329%,50%);fill-opacity:0.7;" d="M 153.9375 167.210938 L 153.578125 167.390625 L 152.71875 167.773438 L 152.199219 167.976562 L 151.675781 168.15625 L 151.191406 168.277344 L 150.78125 168.320312 L 150.410156 168.277344 L 149.929688 168.15625 L 149.390625 167.976562 L 148.835938 167.773438 L 147.894531 167.390625 L 147.496094 167.210938 L 150.78125 179.210938 Z M 153.9375 167.210938 "/>
<path style="fill:none;stroke-width:1;stroke-linecap:butt;stroke-linejoin:miter;stroke:rgb(14.99939%,28.999329%,50%);stroke-opacity:0.7;stroke-miterlimit:3.25;" d="M 180.675781 95.886719 L 186.734375 101.945312 L 189.710938 104.925781 L 193.117188 108.328125 L 196.730469 111.945312 L 200.5625 115.773438 L 204.390625 119.605469 L 208.21875 123.433594 L 212.050781 127.261719 L 215.878906 131.09375 L 228.0625 143.277344 "/>
<path style=" stroke:none;fill-rule:nonzero;fill:rgb(14.99939%,28.999329%,50%);fill-opacity:0.7;" d="M 229.511719 140.261719 L 229.382812 140.640625 L 229.046875 141.519531 L 228.824219 142.03125 L 228.582031 142.527344 L 228.324219 142.957031 L 228.0625 143.277344 L 227.769531 143.507812 L 227.34375 143.761719 L 226.835938 144.019531 L 226.304688 144.265625 L 225.367188 144.65625 L 224.957031 144.816406 L 235.765625 150.980469 Z M 229.511719 140.261719 "/>
<path style="fill:none;stroke-width:1;stroke-linecap:butt;stroke-linejoin:miter;stroke:rgb(14.99939%,28.999329%,50%);stroke-opacity:0.7;stroke-miterlimit:3.25;" d="M 178.015625 95.457031 L 133.289062 117.820312 "/>
<path style=" stroke:none;fill-rule:nonzero;fill:rgb(14.99939%,28.999329%,50%);fill-opacity:0.7;" d="M 135.691406 120.148438 L 135.375 119.90625 L 134.644531 119.308594 L 134.230469 118.9375 L 133.835938 118.546875 L 133.507812 118.167969 L 133.289062 117.820312 L 133.160156 117.46875 L 133.054688 116.984375 L 132.972656 116.421875 L 132.910156 115.839844 L 132.832031 114.824219 L 132.808594 114.386719 L 123.546875 122.691406 Z M 135.691406 120.148438 "/>
<path style="fill:none;stroke-width:1;stroke-linecap:butt;stroke-linejoin:miter;stroke:rgb(14.99939%,28.999329%,50%);stroke-opacity:0.7;stroke-miterlimit:3.25;" d="M 180.984375 95.457031 L 225.710938 117.820312 "/>
<path style=" stroke:none;fill-rule:nonzero;fill:rgb(14.99939%,28.999329%,50%);fill-opacity:0.7;" d="M 226.132812 114.5 L 226.128906 114.898438 L 226.089844 115.84375 L 226.039062 116.398438 L 225.964844 116.945312 L 225.859375 117.433594 L 225.710938 117.820312 L 225.507812 118.132812 L 225.183594 118.507812 L 224.785156 118.910156 L 224.355469 119.3125 L 223.589844 119.980469 L 223.253906 120.261719 L 235.453125 122.691406 Z M 226.132812 114.5 "/>
<path style="fill:none;stroke-width:1;stroke-linecap:butt;stroke-linejoin:miter;stroke:rgb(14.99939%,28.999329%,50%);stroke-opacity:0.7;stroke-miterlimit:3.25;" d="M 267.234375 66.519531 L 268.378906 66.902344 L 269.832031 67.382812 L 271.34375 67.886719 L 272.914062 68.414062 L 274.546875 68.957031 L 276.238281 69.519531 L 277.992188 70.105469 L 279.808594 70.710938 L 281.679688 71.335938 L 283.917969 72.078125 L 286.214844 72.84375 L 288.574219 73.632812 L 290.992188 74.4375 L 293.46875 75.261719 L 296.007812 76.109375 L 298.609375 76.976562 L 301.265625 77.863281 L 303.988281 78.769531 L 306.769531 79.695312 L 309.910156 80.746094 L 313.117188 81.8125 L 316.378906 82.898438 L 319.703125 84.007812 L 330.039062 87.453125 L 333.605469 88.644531 L 337.234375 89.851562 L 340.921875 91.082031 L 341.601562 91.359375 L 342.261719 91.648438 L 342.90625 91.945312 L 343.539062 92.257812 L 344.152344 92.582031 L 344.75 92.917969 L 345.328125 93.265625 L 345.894531 93.625 L 346.445312 93.992188 L 346.976562 94.375 L 347.414062 94.828125 L 347.832031 95.289062 L 348.234375 95.765625 L 348.625 96.253906 L 348.996094 96.75 L 349.351562 97.261719 L 349.6875 97.78125 L 350.011719 98.316406 L 350.320312 98.859375 L 350.609375 99.414062 L 350.804688 100.046875 L 350.980469 100.726562 L 351.140625 101.484375 L 351.289062 102.359375 L 351.417969 103.382812 L 351.53125 104.589844 L 351.625 106.015625 L 351.707031 107.691406 L 351.773438 109.660156 L 351.820312 111.945312 L 351.796875 112.707031 L 351.765625 113.464844 L 351.722656 114.21875 L 351.675781 114.972656 L 351.621094 115.726562 L 351.554688 116.476562 L 351.484375 117.222656 L 351.40625 117.96875 L 351.316406 118.714844 L 351.21875 119.453125 L 351.078125 120.183594 L 350.925781 120.914062 L 350.765625 121.640625 L 350.597656 122.363281 L 350.421875 123.085938 L 350.238281 123.804688 L 350.046875 124.523438 L 349.84375 125.238281 L 349.636719 125.953125 L 349.421875 126.664062 L 349.15625 127.371094 L 348.855469 128.121094 L 348.503906 128.949219 L 348.078125 129.90625 L 347.550781 131.03125 L 346.90625 132.367188 L 346.113281 133.957031 L 345.15625 135.839844 L 344.011719 138.0625 L 342.652344 140.664062 L 342.222656 141.414062 L 341.789062 142.152344 L 341.347656 142.886719 L 340.898438 143.617188 L 340.441406 144.335938 L 339.976562 145.050781 L 339.507812 145.761719 L 339.03125 146.464844 L 338.546875 147.160156 L 338.054688 147.847656 L 337.519531 148.5 L 336.980469 149.148438 L 336.433594 149.785156 L 335.878906 150.417969 L 335.316406 151.046875 L 334.75 151.664062 L 334.175781 152.28125 L 333.59375 152.886719 L 333.003906 153.488281 L 332.40625 154.082031 L 331.753906 154.648438 L 331.003906 155.269531 L 330.066406 156.003906 L 328.847656 156.914062 L 327.265625 158.054688 L 325.222656 159.492188 L 322.632812 161.285156 L 319.402344 163.492188 L 315.445312 166.171875 L 310.667969 169.386719 L 309.503906 170.125 L 308.335938 170.851562 L 307.167969 171.570312 L 305.992188 172.277344 L 304.8125 172.976562 L 303.628906 173.667969 L 302.441406 174.347656 L 301.25 175.019531 L 300.050781 175.679688 L 298.851562 176.332031 L 297.625 176.925781 L 296.394531 177.511719 L 295.160156 178.085938 L 293.921875 178.652344 L 292.679688 179.207031 L 291.433594 179.757812 L 290.183594 180.292969 L 288.925781 180.820312 L 287.667969 181.339844 L 286.402344 181.847656 L 285.113281 182.300781 L 283.820312 182.742188 L 282.523438 183.175781 L 281.222656 183.601562 L 279.914062 184.011719 L 278.605469 184.417969 L 277.289062 184.8125 L 275.972656 185.199219 L 274.648438 185.574219 L 273.320312 185.941406 L 268.800781 187.082031 L 264.351562 188.203125 L 259.972656 189.304688 L 255.664062 190.390625 L 251.429688 191.460938 L 247.265625 192.507812 L 243.171875 193.542969 L 239.152344 194.554688 L 235.203125 195.550781 L 231.324219 196.527344 L 227.875 197.398438 L 224.496094 198.25 L 221.191406 199.082031 L 217.957031 199.898438 L 214.792969 200.695312 L 211.703125 201.476562 L 208.683594 202.238281 L 205.734375 202.980469 L 202.855469 203.707031 L 200.050781 204.414062 L 197.675781 205.011719 L 195.367188 205.59375 L 193.136719 206.15625 L 191.671875 206.523438 "/>
<path style=" stroke:none;fill-rule:nonzero;fill:rgb(14.99939%,28.999329%,50%);fill-opacity:0.7;" d="M 193.519531 209.316406 L 193.261719 209.011719 L 192.675781 208.269531 L 192.351562 207.816406 L 192.050781 207.355469 L 191.8125 206.910156 L 191.671875 206.523438 L 191.621094 206.15625 L 191.625 205.660156 L 191.664062 205.09375 L 191.726562 204.507812 L 191.871094 203.5 L 191.945312 203.070312 L 181.109375 209.1875 Z M 193.519531 209.316406 "/>
<path style="fill:none;stroke-width:1;stroke-linecap:butt;stroke-linejoin:miter;stroke:rgb(14.99939%,28.999329%,50%);stroke-opacity:0.7;stroke-miterlimit:3.25;" d="M 267.144531 66.738281 L 267.910156 67.117188 L 271.707031 69.015625 L 273.082031 69.707031 L 274.515625 70.421875 L 276.007812 71.167969 L 277.777344 72.050781 L 279.601562 72.964844 L 281.480469 73.90625 L 283.417969 74.875 L 285.414062 75.871094 L 287.460938 76.894531 L 289.566406 77.945312 L 291.726562 79.027344 L 294.167969 80.25 L 296.667969 81.496094 L 299.21875 82.773438 L 304.492188 85.410156 L 307.214844 86.769531 L 309.992188 88.160156 L 312.824219 89.578125 L 313.621094 90.042969 L 314.394531 90.519531 L 315.144531 91.015625 L 315.871094 91.523438 L 316.570312 92.046875 L 317.25 92.585938 L 317.902344 93.140625 L 318.535156 93.707031 L 319.042969 94.347656 L 319.53125 95.003906 L 319.996094 95.675781 L 320.4375 96.359375 L 320.851562 97.058594 L 321.246094 97.773438 L 321.613281 98.503906 L 321.957031 99.25 L 322.183594 100.078125 L 322.386719 100.988281 L 322.566406 102.046875 L 322.71875 103.324219 L 322.851562 104.886719 L 322.957031 106.796875 L 323.039062 109.128906 L 323.101562 111.945312 L 323.058594 112.886719 L 322.996094 113.824219 L 322.917969 114.75 L 322.824219 115.671875 L 322.710938 116.589844 L 322.582031 117.5 L 322.4375 118.402344 L 322.273438 119.300781 L 322.023438 120.164062 L 321.757812 121.023438 L 321.472656 121.878906 L 321.171875 122.722656 L 320.851562 123.5625 L 320.515625 124.398438 L 320.164062 125.226562 L 319.792969 126.046875 L 319.320312 126.851562 L 318.75 127.75 L 317.988281 128.84375 L 316.960938 130.226562 L 315.574219 132 L 313.75 134.265625 L 311.402344 137.121094 L 308.445312 140.664062 L 307.601562 141.574219 L 306.746094 142.460938 L 305.878906 143.328125 L 305 144.175781 L 304.109375 145.003906 L 303.207031 145.8125 L 302.296875 146.597656 L 301.371094 147.367188 L 300.386719 148.035156 L 299.390625 148.683594 L 298.386719 149.3125 L 297.367188 149.921875 L 296.335938 150.507812 L 295.296875 151.078125 L 294.242188 151.625 L 293.179688 152.15625 L 292.054688 152.585938 L 290.921875 152.992188 L 289.773438 153.382812 L 288.617188 153.75 L 287.445312 154.101562 L 286.265625 154.429688 L 285.070312 154.738281 L 283.867188 155.027344 L 275.667969 156.621094 L 267.644531 158.179688 L 259.789062 159.707031 L 252.101562 161.199219 L 244.589844 162.65625 L 237.246094 164.082031 L 230.074219 165.476562 L 223.074219 166.835938 L 216.933594 168.027344 L 210.957031 169.1875 L 205.15625 170.3125 L 199.527344 171.40625 L 194.066406 172.46875 L 188.777344 173.496094 L 183.660156 174.488281 L 178.714844 175.449219 L 174.621094 176.242188 L 170.703125 177.003906 L 166.953125 177.734375 L 163.378906 178.425781 L 163.101562 178.480469 "/>
<path style=" stroke:none;fill-rule:nonzero;fill:rgb(14.99939%,28.999329%,50%);fill-opacity:0.7;" d="M 164.792969 181.371094 L 164.550781 181.050781 L 164.007812 180.277344 L 163.710938 179.808594 L 163.4375 179.328125 L 163.222656 178.875 L 163.101562 178.480469 L 163.074219 178.109375 L 163.101562 177.613281 L 163.175781 177.050781 L 163.269531 176.46875 L 163.46875 175.472656 L 163.5625 175.046875 L 152.410156 180.558594 Z M 164.792969 181.371094 "/>
<path style="fill:none;stroke-width:1;stroke-linecap:butt;stroke-linejoin:miter;stroke:rgb(14.99939%,28.999329%,50%);stroke-opacity:0.7;stroke-miterlimit:3.25;" d="M 266.835938 67.167969 L 267.125 67.457031 L 267.910156 68.246094 L 268.738281 69.070312 L 269.601562 69.933594 L 270.5 70.835938 L 271.550781 71.886719 L 272.640625 72.972656 L 277.367188 77.699219 L 278.753906 79.089844 L 280.179688 80.515625 L 281.644531 81.976562 L 283.144531 83.476562 L 284.679688 85.015625 L 286.257812 86.589844 L 287.09375 87.519531 L 287.894531 88.464844 L 288.664062 89.421875 L 289.398438 90.394531 L 290.101562 91.378906 L 290.769531 92.378906 L 291.304688 93.433594 L 291.804688 94.503906 L 292.273438 95.585938 L 292.707031 96.683594 L 293.109375 97.792969 L 293.476562 98.917969 L 293.710938 100.125 L 293.910156 101.503906 L 294.078125 103.214844 L 294.210938 105.421875 L 294.3125 108.277344 L 294.378906 111.945312 L 294.296875 113.171875 L 294.167969 114.367188 L 294 115.539062 L 293.789062 116.6875 L 293.535156 117.804688 L 293.238281 118.898438 L 292.773438 119.886719 L 292.265625 120.851562 L 291.714844 121.789062 L 291.125 122.699219 L 290.488281 123.582031 L 289.8125 124.441406 L 288.96875 125.195312 L 288.078125 125.921875 L 287.148438 126.625 L 286.175781 127.300781 L 285.160156 127.949219 L 284.105469 128.570312 L 276.675781 132.285156 L 273.109375 134.070312 L 269.640625 135.804688 L 266.273438 137.484375 L 263.007812 139.121094 L 260.140625 140.554688 L 257.371094 141.9375 L 252.128906 144.558594 L 249.65625 145.796875 L 248.167969 146.539062 "/>
<path style=" stroke:none;fill-rule:nonzero;fill:rgb(14.99939%,28.999329%,50%);fill-opacity:0.7;" d="M 250.570312 148.867188 L 250.253906 148.625 L 249.523438 148.027344 L 249.109375 147.65625 L 248.714844 147.265625 L 248.390625 146.886719 L 248.167969 146.539062 L 248.039062 146.1875 L 247.933594 145.703125 L 247.851562 145.140625 L 247.789062 144.558594 L 247.710938 143.542969 L 247.691406 143.105469 L 238.425781 151.410156 Z M 250.570312 148.867188 "/>
<path style="fill:none;stroke-width:1;stroke-linecap:butt;stroke-linejoin:miter;stroke:rgb(14.99939%,28.999329%,50%);stroke-opacity:0.7;stroke-miterlimit:3.25;" d="M 265.660156 67.65625 L 265.660156 83.226562 L 265.359375 86.929688 L 264.757812 90.511719 L 263.554688 93.839844 L 262.050781 97.046875 L 259.945312 100.003906 L 257.535156 102.835938 L 252.921875 107.449219 L 248.648438 111.726562 L 245.816406 114.558594 "/>
<path style=" stroke:none;fill-rule:nonzero;fill:rgb(14.99939%,28.999329%,50%);fill-opacity:0.7;" d="M 248.832031 116.007812 L 248.453125 115.878906 L 247.574219 115.539062 L 247.0625 115.320312 L 246.566406 115.074219 L 246.136719 114.816406 L 245.816406 114.558594 L 245.585938 114.265625 L 245.332031 113.839844 L 245.074219 113.332031 L 244.828125 112.796875 L 244.4375 111.859375 L 244.277344 111.453125 L 238.113281 122.257812 Z M 248.832031 116.007812 "/>
<path style="fill:none;stroke-width:1;stroke-linecap:butt;stroke-linejoin:miter;stroke:rgb(14.99939%,28.999329%,50%);stroke-opacity:0.7;stroke-miterlimit:3.25;" d="M 264.085938 66.519531 L 191.410156 90.742188 "/>
<path style=" stroke:none;fill-rule:nonzero;fill:rgb(14.99939%,28.999329%,50%);fill-opacity:0.7;" d="M 193.457031 93.390625 L 193.179688 93.105469 L 192.539062 92.410156 L 192.183594 91.980469 L 191.847656 91.542969 L 191.578125 91.121094 L 191.410156 90.742188 L 191.332031 90.378906 L 191.296875 89.882812 L 191.292969 89.316406 L 191.3125 88.730469 L 191.382812 87.714844 L 191.421875 87.277344 L 181.074219 94.1875 Z M 193.457031 93.390625 "/>
<path style="fill:none;stroke-width:1;stroke-linecap:butt;stroke-linejoin:miter;stroke:rgb(14.99939%,28.999329%,50%);stroke-opacity:0.7;stroke-miterlimit:3.25;" d="M 188.824219 38.253906 L 188.667969 38.367188 L 188.140625 38.75 L 187.601562 39.144531 L 187.046875 39.546875 L 186.480469 39.960938 L 185.898438 40.386719 L 185.304688 40.820312 L 184.695312 41.261719 L 184.074219 41.714844 L 183.4375 42.179688 L 182.707031 42.714844 L 181.960938 43.257812 L 181.203125 43.808594 L 180.429688 44.371094 L 179.644531 44.945312 L 178.84375 45.53125 L 178.03125 46.121094 L 177.203125 46.726562 L 176.363281 47.339844 L 175.507812 47.960938 L 174.640625 48.59375 L 173.757812 49.238281 L 172.78125 49.949219 L 171.789062 50.671875 L 170.785156 51.40625 L 169.765625 52.148438 L 168.734375 52.902344 L 167.6875 53.664062 L 166.628906 54.4375 L 165.554688 55.21875 L 164.46875 56.011719 L 163.367188 56.816406 L 162.253906 57.628906 L 161.125 58.449219 L 160.566406 58.882812 L 160.015625 59.320312 L 159.464844 59.761719 L 158.921875 60.207031 L 158.382812 60.65625 L 157.851562 61.109375 L 157.320312 61.566406 L 156.796875 62.03125 L 156.277344 62.496094 L 155.765625 62.964844 L 155.253906 63.4375 L 154.75 63.917969 L 154.277344 64.421875 L 153.8125 64.933594 L 153.351562 65.449219 L 152.894531 65.96875 L 152.441406 66.488281 L 151.996094 67.015625 L 151.554688 67.546875 L 151.117188 68.082031 L 150.683594 68.621094 L 150.257812 69.164062 L 149.835938 69.710938 L 149.417969 70.261719 L 149.03125 70.84375 L 148.640625 71.449219 L 148.234375 72.101562 L 147.804688 72.816406 L 147.339844 73.613281 L 146.832031 74.515625 L 146.265625 75.542969 L 145.640625 76.710938 L 144.941406 78.046875 L 144.15625 79.5625 L 143.277344 81.28125 L 142.296875 83.226562 L 141.964844 83.847656 L 141.628906 84.464844 L 141.285156 85.078125 L 140.9375 85.6875 L 140.585938 86.292969 L 140.226562 86.890625 L 139.863281 87.488281 L 139.496094 88.078125 L 139.121094 88.664062 L 138.742188 89.246094 L 138.359375 89.820312 L 137.972656 90.394531 L 137.546875 90.933594 L 137.117188 91.472656 L 136.679688 92.003906 L 136.238281 92.53125 L 135.792969 93.050781 L 135.34375 93.570312 L 134.886719 94.082031 L 134.425781 94.59375 L 133.960938 95.097656 L 133.488281 95.597656 L 133.011719 96.09375 L 132.527344 96.582031 L 131.996094 97.050781 L 131.382812 97.566406 L 130.597656 98.183594 L 129.570312 98.957031 L 128.21875 99.9375 L 126.460938 101.179688 L 124.21875 102.734375 L 121.410156 104.660156 L 117.953125 107.003906 L 113.773438 109.820312 L 108.785156 113.160156 L 102.914062 117.085938 L 102.417969 117.457031 L 101.929688 117.832031 L 101.449219 118.214844 L 100.984375 118.601562 L 100.523438 118.992188 L 100.078125 119.390625 L 99.640625 119.792969 L 99.210938 120.203125 L 98.792969 120.617188 L 98.382812 121.035156 L 97.984375 121.457031 L 97.59375 121.886719 L 97.273438 122.355469 L 96.964844 122.828125 L 96.664062 123.304688 L 96.375 123.785156 L 96.09375 124.273438 L 95.820312 124.765625 L 95.5625 125.265625 L 95.308594 125.765625 L 95.070312 126.277344 L 94.835938 126.789062 L 94.617188 127.308594 L 94.402344 127.835938 L 94.261719 128.398438 L 94.128906 128.988281 L 94.003906 129.625 L 93.890625 130.324219 L 93.789062 131.109375 L 93.695312 132 L 93.609375 133.015625 L 93.535156 134.175781 L 93.472656 135.5 L 93.417969 137.011719 L 93.375 138.726562 L 93.339844 140.664062 L 93.378906 141.28125 L 93.425781 141.890625 L 93.484375 142.492188 L 93.550781 143.089844 L 93.628906 143.675781 L 93.71875 144.261719 L 93.820312 144.835938 L 93.933594 145.40625 L 94.054688 145.96875 L 94.1875 146.523438 L 94.328125 147.074219 L 94.480469 147.617188 L 94.707031 148.117188 L 94.945312 148.609375 L 95.195312 149.09375 L 95.453125 149.570312 L 95.722656 150.042969 L 96.003906 150.507812 L 96.292969 150.964844 L 96.597656 151.417969 L 96.90625 151.863281 L 97.230469 152.300781 L 97.5625 152.734375 L 97.90625 153.160156 L 98.324219 153.539062 L 98.753906 153.914062 L 99.191406 154.28125 L 99.640625 154.640625 L 100.101562 154.996094 L 100.570312 155.34375 L 101.050781 155.683594 L 101.542969 156.019531 L 102.046875 156.347656 L 102.558594 156.667969 L 103.082031 156.984375 L 103.613281 157.292969 L 105.511719 158.238281 L 107.378906 159.175781 L 109.226562 160.097656 L 111.046875 161.007812 L 112.839844 161.90625 L 114.613281 162.789062 L 116.355469 163.664062 L 118.078125 164.523438 L 121.445312 166.207031 L 123.089844 167.027344 L 124.710938 167.839844 L 126.160156 168.5625 L 127.582031 169.273438 L 128.976562 169.972656 L 130.351562 170.660156 L 131.699219 171.332031 L 133.019531 171.996094 L 134.320312 172.644531 L 135.589844 173.28125 L 136.839844 173.902344 L 138.0625 174.515625 L 139.261719 175.113281 L 139.550781 175.257812 "/>
<path style=" stroke:none;fill-rule:nonzero;fill:rgb(14.99939%,28.999329%,50%);fill-opacity:0.7;" d="M 139.972656 171.941406 L 139.96875 172.339844 L 139.929688 173.28125 L 139.878906 173.835938 L 139.804688 174.382812 L 139.699219 174.875 L 139.550781 175.257812 L 139.347656 175.574219 L 139.023438 175.945312 L 138.625 176.351562 L 138.195312 176.753906 L 137.429688 177.421875 L 137.09375 177.703125 L 149.292969 180.132812 Z M 139.972656 171.941406 "/>
<path style="fill:none;stroke-width:1;stroke-linecap:butt;stroke-linejoin:miter;stroke:rgb(14.99939%,28.999329%,50%);stroke-opacity:0.7;stroke-miterlimit:3.25;" d="M 191.582031 38.144531 L 191.976562 38.386719 L 192.949219 38.984375 L 193.960938 39.605469 L 195.015625 40.25 L 196.113281 40.925781 L 197.25 41.625 L 198.433594 42.351562 L 199.824219 43.207031 L 201.261719 44.085938 L 202.738281 44.992188 L 204.257812 45.925781 L 205.820312 46.886719 L 207.425781 47.871094 L 209.070312 48.882812 L 210.761719 49.917969 L 212.660156 51.085938 L 214.605469 52.28125 L 216.589844 53.5 L 218.617188 54.742188 L 220.6875 56.015625 L 222.800781 57.3125 L 224.953125 58.632812 L 227.148438 59.984375 L 227.910156 60.515625 L 228.644531 61.0625 L 229.359375 61.617188 L 230.050781 62.1875 L 230.71875 62.773438 L 231.363281 63.367188 L 231.988281 63.976562 L 232.589844 64.597656 L 233.078125 65.285156 L 233.539062 65.980469 L 233.984375 66.691406 L 234.402344 67.414062 L 234.796875 68.148438 L 235.171875 68.898438 L 235.523438 69.65625 L 235.851562 70.433594 L 236.066406 71.28125 L 236.261719 72.207031 L 236.429688 73.285156 L 236.578125 74.574219 L 236.703125 76.144531 L 236.804688 78.066406 L 236.882812 80.402344 L 236.941406 83.226562 L 236.988281 84.164062 L 237.054688 85.09375 L 237.136719 86.015625 L 237.242188 86.929688 L 237.363281 87.835938 L 237.503906 88.734375 L 237.664062 89.628906 L 237.84375 90.511719 L 238.117188 91.355469 L 238.40625 92.191406 L 238.71875 93.019531 L 239.046875 93.839844 L 239.394531 94.65625 L 239.761719 95.460938 L 240.144531 96.257812 L 240.550781 97.046875 L 241.066406 97.816406 L 241.707031 98.683594 L 242.582031 99.757812 L 243.796875 101.144531 L 245.453125 102.949219 L 247.664062 105.277344 L 250.535156 108.242188 L 254.171875 111.945312 L 254.996094 112.902344 L 255.765625 113.859375 L 256.484375 114.816406 L 257.148438 115.773438 L 257.761719 116.734375 L 258.320312 117.691406 L 258.824219 118.648438 L 259.277344 119.605469 L 259.464844 120.5625 L 259.597656 121.519531 L 259.675781 122.476562 L 259.703125 123.433594 L 259.675781 124.390625 L 259.597656 125.347656 L 259.464844 126.304688 L 259.277344 127.261719 L 258.824219 128.21875 L 258.320312 129.179688 L 257.761719 130.136719 L 257.148438 131.09375 L 256.484375 132.050781 L 255.765625 133.007812 L 254.996094 133.964844 L 254.171875 134.921875 L 245.816406 143.277344 "/>
<path style=" stroke:none;fill-rule:nonzero;fill:rgb(14.99939%,28.999329%,50%);fill-opacity:0.7;" d="M 248.832031 144.726562 L 248.453125 144.597656 L 247.574219 144.261719 L 247.0625 144.039062 L 246.566406 143.792969 L 246.136719 143.539062 L 245.816406 143.277344 L 245.585938 142.984375 L 245.332031 142.558594 L 245.074219 142.050781 L 244.828125 141.515625 L 244.4375 140.578125 L 244.277344 140.171875 L 238.113281 150.980469 Z M 248.832031 144.726562 "/>
<path style="fill:none;stroke-width:1;stroke-linecap:butt;stroke-linejoin:miter;stroke:rgb(14.99939%,28.999329%,50%);stroke-opacity:0.7;stroke-miterlimit:3.25;" d="M 191.050781 38.679688 L 191.066406 38.703125 L 191.542969 39.464844 L 192.042969 40.257812 L 192.558594 41.082031 L 193.097656 41.9375 L 193.710938 42.914062 L 194.347656 43.925781 L 195 44.964844 L 195.671875 46.035156 L 196.363281 47.136719 L 197.078125 48.269531 L 197.867188 49.523438 L 198.675781 50.8125 L 199.503906 52.128906 L 200.351562 53.476562 L 201.21875 54.859375 L 202.105469 56.269531 L 202.734375 57.363281 L 203.339844 58.464844 L 203.917969 59.574219 L 204.472656 60.691406 L 205 61.816406 L 205.503906 62.949219 L 205.90625 64.109375 L 206.28125 65.277344 L 206.636719 66.449219 L 206.960938 67.632812 L 207.265625 68.820312 L 207.539062 70.019531 L 207.714844 71.269531 L 207.867188 72.691406 L 207.992188 74.4375 L 208.09375 76.667969 L 208.167969 79.542969 L 208.21875 83.226562 L 208.285156 84.472656 L 208.386719 85.710938 L 208.519531 86.929688 L 208.6875 88.136719 L 208.886719 89.332031 L 209.121094 90.511719 L 209.492188 91.632812 L 209.890625 92.746094 L 210.324219 93.839844 L 210.792969 94.925781 L 211.296875 95.992188 L 211.832031 97.046875 L 212.5 98.046875 L 213.199219 99.03125 L 213.9375 100.003906 L 214.707031 100.960938 L 215.507812 101.90625 L 216.34375 102.835938 L 217.917969 104.414062 L 219.457031 105.949219 L 220.957031 107.449219 L 222.417969 108.914062 L 223.84375 110.339844 L 225.234375 111.726562 L 227.671875 114.164062 L 228.0625 114.558594 "/>
<path style=" stroke:none;fill-rule:nonzero;fill:rgb(14.99939%,28.999329%,50%);fill-opacity:0.7;" d="M 229.511719 111.542969 L 229.382812 111.917969 L 229.046875 112.800781 L 228.824219 113.3125 L 228.582031 113.804688 L 228.324219 114.238281 L 228.0625 114.558594 L 227.769531 114.789062 L 227.34375 115.042969 L 226.835938 115.296875 L 226.304688 115.542969 L 225.367188 115.9375 L 224.957031 116.097656 L 235.765625 122.257812 Z M 229.511719 111.542969 "/>
<path style="fill:none;stroke-width:1;stroke-linecap:butt;stroke-linejoin:miter;stroke:rgb(14.99939%,28.999329%,50%);stroke-opacity:0.7;stroke-miterlimit:3.25;" d="M 189.585938 38.832031 L 189.367188 39.429688 L 188.476562 41.820312 L 187.410156 44.691406 L 186.253906 47.804688 L 184.921875 51.394531 L 183.5 55.222656 L 182.3125 58.839844 L 181.277344 62.484375 L 180.535156 66.179688 L 179.945312 69.902344 L 179.648438 73.679688 L 179.5 77.480469 L 179.5 82.160156 "/>
<path style=" stroke:none;fill-rule:nonzero;fill:rgb(14.99939%,28.999329%,50%);fill-opacity:0.7;" d="M 182.65625 81.054688 L 182.296875 81.230469 L 181.4375 81.613281 L 180.917969 81.816406 L 180.394531 81.996094 L 179.910156 82.117188 L 179.5 82.160156 L 179.128906 82.117188 L 178.648438 81.996094 L 178.109375 81.816406 L 177.558594 81.613281 L 176.617188 81.230469 L 176.214844 81.054688 L 179.5 93.054688 Z M 182.65625 81.054688 "/>
<path style="fill:none;stroke-width:1;stroke-linecap:butt;stroke-linejoin:miter;stroke:rgb(14.99939%,28.999329%,50%);stroke-opacity:0.7;stroke-miterlimit:3.25;" d="M 191.71875 37.863281 L 253.925781 61.53125 "/>
<path style=" stroke:none;fill-rule:nonzero;fill:rgb(14.99939%,28.999329%,50%);fill-opacity:0.7;" d="M 254.015625 58.183594 L 254.050781 58.582031 L 254.105469 59.527344 L 254.113281 60.082031 L 254.089844 60.632812 L 254.035156 61.132812 L 253.925781 61.53125 L 253.753906 61.863281 L 253.46875 62.265625 L 253.113281 62.707031 L 252.726562 63.152344 L 252.03125 63.894531 L 251.722656 64.207031 L 264.109375 65.402344 Z M 254.015625 58.183594 "/>
<path style="fill:none;stroke-width:1;stroke-linecap:butt;stroke-linejoin:miter;stroke:rgb(14.99939%,28.999329%,50%);stroke-opacity:0.7;stroke-miterlimit:3.25;" d="M 91.765625 9.078125 L 90.621094 9.460938 L 86.085938 10.972656 L 84.453125 11.515625 L 82.761719 12.082031 L 81.007812 12.664062 L 79.191406 13.269531 L 77.320312 13.894531 L 72.785156 15.40625 L 70.425781 16.191406 L 68.007812 16.996094 L 65.53125 17.824219 L 62.992188 18.667969 L 60.390625 19.535156 L 57.734375 20.421875 L 55.011719 21.328125 L 52.230469 22.257812 L 49.089844 23.304688 L 45.882812 24.371094 L 42.621094 25.460938 L 39.296875 26.570312 L 35.910156 27.695312 L 32.464844 28.84375 L 28.960938 30.015625 L 25.394531 31.203125 L 21.765625 32.410156 L 18.078125 33.640625 L 17.398438 33.917969 L 16.738281 34.207031 L 16.09375 34.507812 L 15.460938 34.820312 L 14.847656 35.144531 L 14.25 35.476562 L 13.671875 35.824219 L 13.105469 36.183594 L 12.554688 36.554688 L 12.023438 36.9375 L 11.585938 37.386719 L 11.167969 37.851562 L 10.765625 38.324219 L 10.375 38.8125 L 10.003906 39.308594 L 9.648438 39.820312 L 9.3125 40.339844 L 8.988281 40.875 L 8.679688 41.417969 L 8.390625 41.976562 L 8.195312 42.609375 L 8.019531 43.285156 L 7.859375 44.042969 L 7.710938 44.917969 L 7.582031 45.941406 L 7.46875 47.148438 L 7.375 48.574219 L 7.292969 50.253906 L 7.226562 52.21875 L 7.179688 54.503906 L 7.179688 140.664062 L 7.222656 141.410156 L 7.277344 142.144531 L 7.347656 142.875 L 7.433594 143.597656 L 7.53125 144.308594 L 7.644531 145.015625 L 7.769531 145.714844 L 7.910156 146.40625 L 8.066406 147.09375 L 8.234375 147.769531 L 8.484375 148.402344 L 8.753906 149.027344 L 9.035156 149.644531 L 9.328125 150.253906 L 9.636719 150.855469 L 9.960938 151.453125 L 10.296875 152.039062 L 10.648438 152.621094 L 11.015625 153.195312 L 11.394531 153.761719 L 11.871094 154.292969 L 12.460938 154.882812 L 13.25 155.59375 L 14.335938 156.488281 L 15.816406 157.636719 L 17.777344 159.097656 L 20.320312 160.941406 L 23.535156 163.226562 L 27.519531 166.019531 L 32.363281 169.386719 L 33.488281 170.140625 L 34.617188 170.894531 L 35.746094 171.644531 L 36.878906 172.390625 L 38.011719 173.132812 L 39.144531 173.871094 L 40.28125 174.609375 L 42.5625 176.070312 L 43.707031 176.796875 L 44.859375 177.503906 L 46.015625 178.207031 L 47.175781 178.90625 L 48.335938 179.601562 L 49.5 180.296875 L 51.828125 181.671875 L 52.996094 182.355469 L 54.167969 183.035156 L 55.339844 183.710938 L 56.539062 184.375 L 57.835938 185.085938 L 59.320312 185.886719 L 61.085938 186.828125 L 63.230469 187.960938 L 65.84375 189.324219 L 69.023438 190.976562 L 72.859375 192.957031 L 77.445312 195.316406 L 82.875 198.105469 L 85.882812 199.613281 L 88.898438 201.105469 L 90.40625 201.847656 L 91.917969 202.585938 L 93.433594 203.320312 L 94.945312 204.050781 L 96.460938 204.777344 L 97.980469 205.5 L 99.507812 206.203125 L 101.035156 206.902344 L 102.566406 207.597656 L 104.097656 208.289062 L 105.632812 208.980469 L 107.164062 209.664062 L 108.703125 210.347656 L 111.78125 211.699219 L 113.320312 212.371094 L 116.421875 213.667969 L 119.53125 214.949219 L 121.089844 215.585938 L 122.648438 216.21875 L 124.207031 216.847656 L 125.769531 217.472656 L 127.332031 218.09375 L 128.898438 218.710938 L 131.1875 219.601562 L 133.449219 220.476562 L 135.679688 221.339844 L 137.878906 222.191406 L 140.046875 223.03125 L 142.183594 223.859375 L 144.289062 224.675781 L 146.363281 225.476562 L 148.40625 226.269531 L 150.417969 227.050781 L 152.246094 227.757812 L 154.042969 228.453125 L 155.804688 229.136719 L 157.539062 229.808594 L 159.242188 230.464844 L 160.914062 231.113281 L 162.550781 231.75 L 164.160156 232.371094 L 165.738281 232.984375 L 167.285156 233.582031 L 167.792969 233.78125 "/>
<path style=" stroke:none;fill-rule:nonzero;fill:rgb(14.99939%,28.999329%,50%);fill-opacity:0.7;" d="M 167.902344 230.433594 L 167.9375 230.832031 L 167.984375 231.777344 L 167.988281 232.332031 L 167.964844 232.882812 L 167.902344 233.382812 L 167.792969 233.78125 L 167.621094 234.109375 L 167.332031 234.511719 L 166.972656 234.953125 L 166.582031 235.394531 L 165.882812 236.132812 L 165.574219 236.441406 L 177.949219 237.714844 Z M 167.902344 230.433594 "/>
<path style="fill:none;stroke-width:1;stroke-linecap:butt;stroke-linejoin:miter;stroke:rgb(14.99939%,28.999329%,50%);stroke-opacity:0.7;stroke-miterlimit:3.25;" d="M 91.855469 9.296875 L 91.425781 9.511719 L 90.75 9.847656 L 89.34375 10.550781 L 88.613281 10.917969 L 87.867188 11.289062 L 87.101562 11.671875 L 86.316406 12.066406 L 84.691406 12.878906 L 83.851562 13.296875 L 82.992188 13.726562 L 81.988281 14.230469 L 80.96875 14.738281 L 79.925781 15.261719 L 78.867188 15.789062 L 76.695312 16.875 L 75.582031 17.433594 L 74.449219 18 L 73.296875 18.574219 L 72.128906 19.160156 L 69.738281 20.355469 L 68.515625 20.96875 L 67.273438 21.585938 L 64.476562 22.984375 L 63.054688 23.699219 L 61.609375 24.417969 L 60.148438 25.148438 L 58.667969 25.890625 L 57.171875 26.636719 L 55.65625 27.394531 L 54.121094 28.164062 L 52.570312 28.941406 L 50.996094 29.726562 L 46.175781 32.136719 L 45.71875 32.398438 L 45.265625 32.667969 L 44.824219 32.941406 L 44.390625 33.21875 L 43.960938 33.503906 L 43.542969 33.792969 L 43.128906 34.082031 L 42.726562 34.382812 L 42.332031 34.683594 L 41.941406 34.992188 L 41.5625 35.300781 L 41.1875 35.621094 L 40.824219 35.941406 L 40.464844 36.265625 L 40.171875 36.632812 L 39.882812 37 L 39.605469 37.375 L 39.332031 37.753906 L 39.070312 38.136719 L 38.8125 38.527344 L 38.5625 38.921875 L 38.324219 39.320312 L 38.089844 39.722656 L 37.863281 40.128906 L 37.648438 40.542969 L 37.4375 40.960938 L 37.234375 41.382812 L 37.042969 41.808594 L 36.910156 42.277344 L 36.785156 42.761719 L 36.667969 43.277344 L 36.558594 43.832031 L 36.460938 44.445312 L 36.367188 45.125 L 36.28125 45.886719 L 36.203125 46.738281 L 36.132812 47.695312 L 36.070312 48.773438 L 36.015625 49.980469 L 35.96875 51.328125 L 35.929688 52.832031 L 35.898438 54.503906 L 35.898438 140.664062 L 35.933594 141.191406 L 35.972656 141.710938 L 36.019531 142.226562 L 36.074219 142.738281 L 36.140625 143.242188 L 36.210938 143.742188 L 36.289062 144.238281 L 36.378906 144.726562 L 36.472656 145.210938 L 36.578125 145.691406 L 36.6875 146.164062 L 36.808594 146.632812 L 36.9375 147.09375 L 37.070312 147.554688 L 37.273438 147.96875 L 37.480469 148.378906 L 37.695312 148.785156 L 37.917969 149.183594 L 38.148438 149.582031 L 38.386719 149.96875 L 38.636719 150.355469 L 38.890625 150.734375 L 39.152344 151.105469 L 39.425781 151.476562 L 39.703125 151.839844 L 39.992188 152.199219 L 40.285156 152.550781 L 40.589844 152.898438 L 40.964844 153.207031 L 41.417969 153.542969 L 42.003906 153.925781 L 42.789062 154.386719 L 43.84375 154.953125 L 45.226562 155.652344 L 47.003906 156.515625 L 49.238281 157.5625 L 51.996094 158.832031 L 55.339844 160.34375 L 59.339844 162.125 L 64.050781 164.207031 L 69.542969 166.621094 L 75.882812 169.386719 L 78.421875 170.472656 L 80.96875 171.550781 L 82.238281 172.089844 L 83.511719 172.628906 L 84.785156 173.164062 L 86.058594 173.703125 L 87.332031 174.234375 L 88.609375 174.769531 L 89.882812 175.304688 L 91.160156 175.835938 L 92.433594 176.367188 L 93.710938 176.894531 L 94.988281 177.417969 L 98.832031 178.976562 L 100.113281 179.492188 L 101.394531 180.011719 L 102.675781 180.527344 L 103.957031 181.039062 L 105.238281 181.554688 L 107.808594 182.578125 L 109.089844 183.089844 L 111.660156 184.105469 L 112.949219 184.609375 L 114.234375 185.105469 L 115.523438 185.605469 L 116.8125 186.101562 L 118.105469 186.597656 L 120.683594 187.589844 L 121.976562 188.082031 L 123.265625 188.574219 L 124.558594 189.066406 L 125.851562 189.554688 L 127.140625 190.046875 L 128.433594 190.535156 L 129.726562 191.019531 L 131.308594 191.609375 L 132.875 192.195312 L 134.425781 192.773438 L 135.960938 193.347656 L 137.484375 193.914062 L 138.992188 194.476562 L 140.484375 195.035156 L 141.964844 195.585938 L 143.429688 196.132812 L 144.878906 196.675781 L 146.316406 197.210938 L 147.738281 197.742188 L 149.144531 198.265625 L 150.539062 198.785156 L 151.816406 199.261719 L 153.082031 199.734375 L 154.328125 200.203125 L 155.566406 200.664062 L 156.785156 201.117188 L 157.992188 201.566406 L 159.183594 202.011719 L 160.363281 202.453125 L 161.527344 202.886719 L 162.675781 203.316406 L 163.808594 203.738281 L 164.929688 204.15625 L 166.035156 204.570312 L 167.128906 204.976562 L 167.738281 205.203125 "/>
<path style=" stroke:none;fill-rule:nonzero;fill:rgb(14.99939%,28.999329%,50%);fill-opacity:0.7;" d="M 167.804688 201.859375 L 167.84375 202.257812 L 167.902344 203.199219 L 167.914062 203.757812 L 167.898438 204.308594 L 167.84375 204.804688 L 167.738281 205.203125 L 167.570312 205.539062 L 167.285156 205.945312 L 166.933594 206.386719 L 166.546875 206.832031 L 165.859375 207.582031 L 165.554688 207.894531 L 177.945312 209.011719 Z M 167.804688 201.859375 "/>
<path style="fill:none;stroke-width:1;stroke-linecap:butt;stroke-linejoin:miter;stroke:rgb(14.99939%,28.999329%,50%);stroke-opacity:0.7;stroke-miterlimit:3.25;" d="M 92.164062 9.726562 L 91.875 10.019531 L 78.820312 23.074219 L 77.355469 24.535156 L 75.855469 26.039062 L 72.742188 29.152344 L 71.90625 30.082031 L 71.105469 31.023438 L 70.335938 31.984375 L 69.601562 32.953125 L 68.898438 33.941406 L 68.230469 34.941406 L 67.695312 35.996094 L 67.195312 37.0625 L 66.726562 38.144531 L 66.292969 39.242188 L 65.890625 40.351562 L 65.523438 41.476562 L 65.289062 42.683594 L 65.089844 44.0625 L 64.921875 45.773438 L 64.789062 47.980469 L 64.6875 50.835938 L 64.621094 54.503906 L 64.621094 140.664062 L 64.710938 141.878906 L 64.84375 143.058594 L 65.023438 144.203125 L 65.246094 145.320312 L 65.515625 146.402344 L 65.832031 147.453125 L 66.324219 148.371094 L 66.863281 149.261719 L 67.445312 150.117188 L 68.074219 150.941406 L 68.746094 151.734375 L 69.464844 152.492188 L 70.359375 153.121094 L 71.300781 153.71875 L 72.289062 154.285156 L 73.320312 154.816406 L 74.398438 155.316406 L 75.519531 155.785156 L 81.628906 157.824219 L 87.574219 159.804688 L 93.351562 161.730469 L 98.957031 163.601562 L 104.398438 165.414062 L 109.671875 167.171875 L 114.273438 168.703125 L 118.707031 170.183594 L 122.972656 171.605469 L 127.066406 172.96875 L 130.996094 174.28125 L 134.757812 175.535156 L 137.847656 176.5625 L 138.871094 176.902344 "/>
<path style=" stroke:none;fill-rule:nonzero;fill:rgb(14.99939%,28.999329%,50%);fill-opacity:0.7;" d="M 138.820312 173.558594 L 138.871094 173.953125 L 138.964844 174.894531 L 138.996094 175.449219 L 138.996094 176 L 138.960938 176.5 L 138.871094 176.902344 L 138.714844 177.242188 L 138.445312 177.660156 L 138.105469 178.117188 L 137.738281 178.574219 L 137.074219 179.34375 L 136.78125 179.667969 L 149.203125 180.347656 Z M 138.820312 173.558594 "/>
<path style="fill:none;stroke-width:1;stroke-linecap:butt;stroke-linejoin:miter;stroke:rgb(14.99939%,28.999329%,50%);stroke-opacity:0.7;stroke-miterlimit:3.25;" d="M 93.339844 10.214844 L 93.339844 54.503906 L 93.375 55.777344 L 93.421875 57.042969 L 93.488281 58.308594 L 93.570312 59.570312 L 93.671875 60.828125 L 93.789062 62.082031 L 93.96875 63.328125 L 94.167969 64.566406 L 94.382812 65.804688 L 94.617188 67.039062 L 94.863281 68.269531 L 95.128906 69.5 L 95.472656 70.746094 L 95.898438 72.167969 L 96.476562 73.949219 L 97.269531 76.265625 L 98.351562 79.296875 L 99.785156 83.226562 L 100.28125 84.492188 L 100.785156 85.757812 L 101.300781 87.015625 L 101.824219 88.269531 L 102.355469 89.519531 L 102.894531 90.761719 L 103.472656 91.988281 L 104.058594 93.210938 L 104.65625 94.429688 L 105.261719 95.644531 L 105.875 96.851562 L 106.496094 98.058594 L 107.15625 99.246094 L 107.824219 100.425781 L 108.503906 101.605469 L 109.1875 102.777344 L 109.886719 103.945312 L 110.589844 105.109375 L 112.25 107.765625 L 113.054688 109.050781 L 113.84375 110.308594 L 114.613281 111.535156 L 115.363281 112.738281 L 115.398438 112.792969 "/>
<path style=" stroke:none;fill-rule:nonzero;fill:rgb(14.99939%,28.999329%,50%);fill-opacity:0.7;" d="M 117.488281 110.179688 L 117.277344 110.519531 L 116.75 111.300781 L 116.421875 111.75 L 116.070312 112.175781 L 115.722656 112.539062 L 115.398438 112.792969 L 115.0625 112.953125 L 114.589844 113.105469 L 114.039062 113.242188 L 113.460938 113.359375 L 112.460938 113.535156 L 112.027344 113.597656 L 121.179688 122.027344 Z M 117.488281 110.179688 "/>
<path style="fill:none;stroke-width:1;stroke-linecap:butt;stroke-linejoin:miter;stroke:rgb(14.99939%,28.999329%,50%);stroke-opacity:0.7;stroke-miterlimit:3.25;" d="M 94.515625 9.726562 L 94.804688 10.019531 L 95.59375 10.804688 L 96.417969 11.632812 L 107.859375 23.074219 L 109.324219 24.535156 L 110.824219 26.039062 L 112.363281 27.574219 L 113.9375 29.152344 L 114.773438 30.082031 L 115.574219 31.023438 L 116.34375 31.984375 L 117.078125 32.953125 L 117.78125 33.941406 L 118.449219 34.941406 L 118.984375 35.996094 L 119.484375 37.0625 L 119.953125 38.144531 L 120.386719 39.242188 L 120.789062 40.351562 L 121.15625 41.476562 L 121.390625 42.683594 L 121.59375 44.0625 L 121.757812 45.773438 L 121.894531 47.980469 L 121.992188 50.835938 L 122.058594 54.503906 L 122.144531 55.730469 L 122.269531 56.929688 L 122.441406 58.101562 L 122.652344 59.246094 L 122.90625 60.367188 L 123.203125 61.457031 L 123.667969 62.449219 L 124.175781 63.410156 L 124.722656 64.347656 L 125.316406 65.257812 L 125.949219 66.140625 L 126.625 67 L 127.472656 67.753906 L 128.359375 68.480469 L 129.289062 69.183594 L 130.261719 69.859375 L 131.277344 70.507812 L 132.335938 71.132812 L 139.765625 74.847656 L 143.332031 76.628906 L 146.796875 78.363281 L 150.164062 80.046875 L 153.433594 81.679688 L 156.300781 83.113281 L 159.070312 84.5 L 168.273438 89.101562 "/>
<path style=" stroke:none;fill-rule:nonzero;fill:rgb(14.99939%,28.999329%,50%);fill-opacity:0.7;" d="M 168.695312 85.78125 L 168.691406 86.179688 L 168.648438 87.121094 L 168.601562 87.675781 L 168.523438 88.222656 L 168.417969 88.714844 L 168.273438 89.101562 L 168.066406 89.414062 L 167.742188 89.785156 L 167.34375 90.191406 L 166.914062 90.59375 L 166.148438 91.261719 L 165.8125 91.542969 L 178.015625 93.972656 Z M 168.695312 85.78125 "/>
<path style="fill:none;stroke-width:1;stroke-linecap:butt;stroke-linejoin:miter;stroke:rgb(14.99939%,28.999329%,50%);stroke-opacity:0.7;stroke-miterlimit:3.25;" d="M 94.96875 8.886719 L 98.964844 9.703125 L 105.214844 10.980469 L 112.09375 12.382812 L 119.59375 13.917969 L 128.972656 15.832031 L 138.980469 17.878906 L 149.609375 20.046875 L 160.867188 22.347656 L 174.003906 25.03125 L 187.761719 27.84375 L 202.148438 30.78125 L 217.160156 33.847656 L 219.898438 34.53125 L 222.597656 35.289062 L 225.261719 36.121094 L 227.886719 37.027344 L 230.398438 38.160156 L 232.875 39.363281 L 235.308594 40.644531 L 237.707031 42 L 239.992188 43.578125 L 242.242188 45.230469 L 244.449219 46.960938 L 246.621094 48.761719 L 248.648438 50.597656 L 250.617188 52.378906 L 252.527344 54.105469 L 254.378906 55.78125 L 256.054688 57.296875 L 256.351562 57.570312 "/>
<path style=" stroke:none;fill-rule:nonzero;fill:rgb(14.99939%,28.999329%,50%);fill-opacity:0.7;" d="M 257.652344 54.484375 L 257.539062 54.871094 L 257.246094 55.765625 L 257.050781 56.289062 L 256.832031 56.792969 L 256.597656 57.238281 L 256.351562 57.570312 L 256.074219 57.816406 L 255.660156 58.089844 L 255.164062 58.371094 L 254.644531 58.640625 L 253.726562 59.082031 L 253.328125 59.261719 L 264.429688 64.878906 Z M 257.652344 54.484375 "/>
<path style="fill:none;stroke-width:1;stroke-linecap:butt;stroke-linejoin:miter;stroke:rgb(14.99939%,28.999329%,50%);stroke-opacity:0.7;stroke-miterlimit:3.25;" d="M 94.933594 9.027344 L 178.128906 33.703125 "/>
<path style=" stroke:none;fill-rule:nonzero;fill:rgb(14.99939%,28.999329%,50%);fill-opacity:0.7;" d="M 177.964844 30.363281 L 178.03125 30.753906 L 178.15625 31.691406 L 178.207031 32.246094 L 178.226562 32.796875 L 178.207031 33.300781 L 178.128906 33.703125 L 177.984375 34.046875 L 177.730469 34.472656 L 177.40625 34.941406 L 177.054688 35.410156 L 176.417969 36.203125 L 176.132812 36.539062 L 188.574219 36.800781 Z M 177.964844 30.363281 "/>
<path style="fill-rule:evenodd;fill:rgb(63.998413%,70.399475%,79.998779%);fill-opacity:1;stroke-width:1;stroke-linecap:square;stroke-linejoin:miter;stroke:rgb(0%,0%,0%);stroke-opacity:0.7;stroke-miterlimit:3.25;" d="M 180.660156 238 C 180.660156 237.558594 180.484375 237.136719 180.175781 236.824219 C 179.863281 236.515625 179.441406 236.339844 179 236.339844 C 178.558594 236.339844 178.136719 236.515625 177.824219 236.824219 C 177.515625 237.136719 177.339844 237.558594 177.339844 238 C 177.339844 238.441406 177.515625 238.863281 177.824219 239.175781 C 178.136719 239.484375 178.558594 239.660156 179 239.660156 C 179.441406 239.660156 179.863281 239.484375 180.175781 239.175781 C 180.484375 238.863281 180.660156 238.441406 180.660156 238 Z M 180.660156 238 "/>
<path style="fill-rule:evenodd;fill:rgb(63.998413%,70.399475%,79.998779%);fill-opacity:1;stroke-width:1;stroke-linecap:square;stroke-linejoin:miter;stroke:rgb(0%,0%,0%);stroke-opacity:0.7;stroke-miterlimit:3.25;" d="M 180.660156 210 C 180.660156 209.558594 180.484375 209.136719 180.175781 208.824219 C 179.863281 208.515625 179.441406 208.339844 179 208.339844 C 178.558594 208.339844 178.136719 208.515625 177.824219 208.824219 C 177.515625 209.136719 177.339844 209.558594 177.339844 210 C 177.339844 210.441406 177.515625 210.863281 177.824219 211.175781 C 178.136719 211.484375 178.558594 211.660156 179 211.660156 C 179.441406 211.660156 179.863281 211.484375 180.175781 211.175781 C 180.484375 210.863281 180.660156 210.441406 180.660156 210 Z M 180.660156 210 "/>
<path style="fill-rule:evenodd;fill:rgb(63.998413%,70.399475%,79.998779%);fill-opacity:1;stroke-width:1;stroke-linecap:square;stroke-linejoin:miter;stroke:rgb(0%,0%,0%);stroke-opacity:0.7;stroke-miterlimit:3.25;" d="M 152.660156 181 C 152.660156 180.558594 152.484375 180.136719 152.175781 179.824219 C 151.863281 179.515625 151.441406 179.339844 151 179.339844 C 150.558594 179.339844 150.136719 179.515625 149.824219 179.824219 C 149.515625 180.136719 149.339844 180.558594 149.339844 181 C 149.339844 181.441406 149.515625 181.863281 149.824219 182.175781 C 150.136719 182.484375 150.558594 182.660156 151 182.660156 C 151.441406 182.660156 151.863281 182.484375 152.175781 182.175781 C 152.484375 181.863281 152.660156 181.441406 152.660156 181 Z M 152.660156 181 "/>
<path style="fill-rule:evenodd;fill:rgb(63.998413%,70.399475%,79.998779%);fill-opacity:1;stroke-width:1;stroke-linecap:square;stroke-linejoin:miter;stroke:rgb(0%,0%,0%);stroke-opacity:0.7;stroke-miterlimit:3.25;" d="M 238.660156 152 C 238.660156 151.558594 238.484375 151.136719 238.175781 150.824219 C 237.863281 150.515625 237.441406 150.339844 237 150.339844 C 236.558594 150.339844 236.136719 150.515625 235.824219 150.824219 C 235.515625 151.136719 235.339844 151.558594 235.339844 152 C 235.339844 152.441406 235.515625 152.863281 235.824219 153.175781 C 236.136719 153.484375 236.558594 153.660156 237 153.660156 C 237.441406 153.660156 237.863281 153.484375 238.175781 153.175781 C 238.484375 152.863281 238.660156 152.441406 238.660156 152 Z M 238.660156 152 "/>
<path style="fill-rule:evenodd;fill:rgb(63.998413%,70.399475%,79.998779%);fill-opacity:1;stroke-width:1;stroke-linecap:square;stroke-linejoin:miter;stroke:rgb(0%,0%,0%);stroke-opacity:0.7;stroke-miterlimit:3.25;" d="M 123.660156 123 C 123.660156 122.558594 123.484375 122.136719 123.175781 121.824219 C 122.863281 121.515625 122.441406 121.339844 122 121.339844 C 121.558594 121.339844 121.136719 121.515625 120.824219 121.824219 C 120.515625 122.136719 120.339844 122.558594 120.339844 123 C 120.339844 123.441406 120.515625 123.863281 120.824219 124.175781 C 121.136719 124.484375 121.558594 124.660156 122 124.660156 C 122.441406 124.660156 122.863281 124.484375 123.175781 124.175781 C 123.484375 123.863281 123.660156 123.441406 123.660156 123 Z M 123.660156 123 "/>
<path style="fill-rule:evenodd;fill:rgb(63.998413%,70.399475%,79.998779%);fill-opacity:1;stroke-width:1;stroke-linecap:square;stroke-linejoin:miter;stroke:rgb(0%,0%,0%);stroke-opacity:0.7;stroke-miterlimit:3.25;" d="M 238.660156 123 C 238.660156 122.558594 238.484375 122.136719 238.175781 121.824219 C 237.863281 121.515625 237.441406 121.339844 237 121.339844 C 236.558594 121.339844 236.136719 121.515625 235.824219 121.824219 C 235.515625 122.136719 235.339844 122.558594 235.339844 123 C 235.339844 123.441406 235.515625 123.863281 235.824219 124.175781 C 236.136719 124.484375 236.558594 124.660156 237 124.660156 C 237.441406 124.660156 237.863281 124.484375 238.175781 124.175781 C 238.484375 123.863281 238.660156 123.441406 238.660156 123 Z M 238.660156 123 "/>
<path style="fill-rule:evenodd;fill:rgb(63.998413%,70.399475%,79.998779%);fill-opacity:1;stroke-width:1;stroke-linecap:square;stroke-linejoin:miter;stroke:rgb(0%,0%,0%);stroke-opacity:0.7;stroke-miterlimit:3.25;" d="M 180.660156 95 C 180.660156 94.558594 180.484375 94.136719 180.175781 93.824219 C 179.863281 93.515625 179.441406 93.339844 179 93.339844 C 178.558594 93.339844 178.136719 93.515625 177.824219 93.824219 C 177.515625 94.136719 177.339844 94.558594 177.339844 95 C 177.339844 95.441406 177.515625 95.863281 177.824219 96.175781 C 178.136719 96.484375 178.558594 96.660156 179 96.660156 C 179.441406 96.660156 179.863281 96.484375 180.175781 96.175781 C 180.484375 95.863281 180.660156 95.441406 180.660156 95 Z M 180.660156 95 "/>
<path style="fill-rule:evenodd;fill:rgb(63.998413%,70.399475%,79.998779%);fill-opacity:1;stroke-width:1;stroke-linecap:square;stroke-linejoin:miter;stroke:rgb(0%,0%,0%);stroke-opacity:0.7;stroke-miterlimit:3.25;" d="M 267.660156 66 C 267.660156 65.558594 267.484375 65.136719 267.175781 64.824219 C 266.863281 64.515625 266.441406 64.339844 266 64.339844 C 265.558594 64.339844 265.136719 64.515625 264.824219 64.824219 C 264.515625 65.136719 264.339844 65.558594 264.339844 66 C 264.339844 66.441406 264.515625 66.863281 264.824219 67.175781 C 265.136719 67.484375 265.558594 67.660156 266 67.660156 C 266.441406 67.660156 266.863281 67.484375 267.175781 67.175781 C 267.484375 66.863281 267.660156 66.441406 267.660156 66 Z M 267.660156 66 "/>
<path style="fill-rule:evenodd;fill:rgb(63.998413%,70.399475%,79.998779%);fill-opacity:1;stroke-width:1;stroke-linecap:square;stroke-linejoin:miter;stroke:rgb(0%,0%,0%);stroke-opacity:0.7;stroke-miterlimit:3.25;" d="M 191.660156 37 C 191.660156 36.558594 191.484375 36.136719 191.175781 35.824219 C 190.863281 35.515625 190.441406 35.339844 190 35.339844 C 189.558594 35.339844 189.136719 35.515625 188.824219 35.824219 C 188.515625 36.136719 188.339844 36.558594 188.339844 37 C 188.339844 37.441406 188.515625 37.863281 188.824219 38.175781 C 189.136719 38.484375 189.558594 38.660156 190 38.660156 C 190.441406 38.660156 190.863281 38.484375 191.175781 38.175781 C 191.484375 37.863281 191.660156 37.441406 191.660156 37 Z M 191.660156 37 "/>
<path style="fill-rule:evenodd;fill:rgb(63.998413%,70.399475%,79.998779%);fill-opacity:1;stroke-width:1;stroke-linecap:square;stroke-linejoin:miter;stroke:rgb(0%,0%,0%);stroke-opacity:0.7;stroke-miterlimit:3.25;" d="M 94.660156 9 C 94.660156 8.558594 94.484375 8.136719 94.175781 7.824219 C 93.863281 7.515625 93.441406 7.339844 93 7.339844 C 92.558594 7.339844 92.136719 7.515625 91.824219 7.824219 C 91.515625 8.136719 91.339844 8.558594 91.339844 9 C 91.339844 9.441406 91.515625 9.863281 91.824219 10.175781 C 92.136719 10.484375 92.558594 10.660156 93 10.660156 C 93.441406 10.660156 93.863281 10.484375 94.175781 10.175781 C 94.484375 9.863281 94.660156 9.441406 94.660156 9 Z M 94.660156 9 "/>
</g>
</svg>
