<?xml version="1.0" encoding="UTF-8"?>
<svg xmlns="http://www.w3.org/2000/svg" xmlns:xlink="http://www.w3.org/1999/xlink" width="353pt" height="155pt" viewBox="0 0 353 155" version="1.1">
<g id="surface28">
<path style="fill:none;stroke-width:1;stroke-linecap:butt;stroke-linejoin:miter;stroke:rgb(14.99939%,28.999329%,50%);stroke-opacity:0.7;stroke-miterlimit:3.25;" d="M 71.792969 131.804688 L 148.078125 149.179688 "/>
<path style=" stroke:none;fill-rule:nonzero;fill:rgb(14.99939%,28.999329%,50%);fill-opacity:0.7;" d="M 147.699219 145.855469 L 147.792969 146.242188 L 147.976562 147.167969 L 148.0625 147.71875 L 148.117188 148.269531 L 148.128906 148.769531 L 148.078125 149.179688 L 147.957031 149.53125 L 147.730469 149.972656 L 147.4375 150.460938 L 147.113281 150.953125 L 146.53125 151.785156 L 146.269531 152.136719 L 158.699219 151.597656 Z M 147.699219 145.855469 "/>
<path style="fill:none;stroke-width:1;stroke-linecap:butt;stroke-linejoin:miter;stroke:rgb(14.99939%,28.999329%,50%);stroke-opacity:0.7;stroke-miterlimit:3.25;" d="M 191.710938 112.195312 L 191.488281 112.476562 L 190.160156 114.148438 L 188.589844 116.125 L 186.902344 118.253906 L 184.96875 120.6875 L 182.914062 123.273438 L 180.75 126 L 178.589844 128.726562 L 176.425781 131.457031 L 172.105469 136.917969 L 169.949219 139.652344 L 167.972656 142.15625 "/>
<path style=" stroke:none;fill-rule:nonzero;fill:rgb(14.99939%,28.999329%,50%);fill-opacity:0.7;" d="M 171.136719 143.246094 L 170.746094 143.160156 L 169.832031 142.929688 L 169.296875 142.769531 L 168.777344 142.582031 L 168.320312 142.378906 L 167.972656 142.15625 L 167.707031 141.894531 L 167.40625 141.5 L 167.089844 141.027344 L 166.785156 140.523438 L 166.285156 139.640625 L 166.078125 139.253906 L 161.222656 150.707031 Z M 171.136719 143.246094 "/>
<path style="fill:none;stroke-width:1;stroke-linecap:butt;stroke-linejoin:miter;stroke:rgb(14.99939%,28.999329%,50%);stroke-opacity:0.7;stroke-miterlimit:3.25;" d="M 191.132812 111.21875 L 82.554688 129.394531 "/>
<path style=" stroke:none;fill-rule:nonzero;fill:rgb(14.99939%,28.999329%,50%);fill-opacity:0.7;" d="M 84.167969 132.324219 L 83.933594 132 L 83.414062 131.214844 L 83.125 130.738281 L 82.867188 130.25 L 82.664062 129.789062 L 82.554688 129.394531 L 82.535156 129.019531 L 82.578125 128.527344 L 82.664062 127.964844 L 82.773438 127.386719 L 82.996094 126.394531 L 83.105469 125.972656 L 71.8125 131.191406 Z M 84.167969 132.324219 "/>
<path style="fill:none;stroke-width:1;stroke-linecap:butt;stroke-linejoin:miter;stroke:rgb(14.99939%,28.999329%,50%);stroke-opacity:0.7;stroke-miterlimit:3.25;" d="M 219.785156 91.386719 L 202.804688 103.652344 "/>
<path style=" stroke:none;fill-rule:nonzero;fill:rgb(14.99939%,28.999329%,50%);fill-opacity:0.7;" d="M 205.550781 105.5625 L 205.199219 105.375 L 204.382812 104.902344 L 203.914062 104.601562 L 203.464844 104.28125 L 203.078125 103.960938 L 202.804688 103.652344 L 202.621094 103.328125 L 202.441406 102.867188 L 202.269531 102.324219 L 202.113281 101.757812 L 201.871094 100.769531 L 201.78125 100.339844 L 193.976562 110.03125 Z M 205.550781 105.5625 "/>
<path style="fill:none;stroke-width:1;stroke-linecap:butt;stroke-linejoin:miter;stroke:rgb(14.99939%,28.999329%,50%);stroke-opacity:0.7;stroke-miterlimit:3.25;" d="M 174.1875 70.582031 L 209.582031 85.589844 "/>
<path style=" stroke:none;fill-rule:nonzero;fill:rgb(14.99939%,28.999329%,50%);fill-opacity:0.7;" d="M 209.796875 82.25 L 209.816406 82.648438 L 209.835938 83.59375 L 209.820312 84.148438 L 209.78125 84.699219 L 209.703125 85.195312 L 209.582031 85.589844 L 209.398438 85.914062 L 209.097656 86.308594 L 208.726562 86.738281 L 208.320312 87.164062 L 207.601562 87.882812 L 207.28125 88.179688 L 219.609375 89.84375 Z M 209.796875 82.25 "/>
<path style="fill:none;stroke-width:1;stroke-linecap:butt;stroke-linejoin:miter;stroke:rgb(14.99939%,28.999329%,50%);stroke-opacity:0.7;stroke-miterlimit:3.25;" d="M 253.957031 71.351562 L 253.886719 71.480469 L 252.972656 73.152344 L 251.890625 75.125 L 250.726562 77.25 L 249.398438 79.679688 L 247.984375 82.261719 L 246.332031 84.820312 L 244.527344 87.203125 L 242.410156 89.242188 L 240.140625 91.105469 L 237.558594 92.617188 L 234.824219 93.957031 L 224.976562 97.933594 L 215.933594 101.578125 L 208.507812 104.574219 L 204.261719 106.289062 "/>
<path style=" stroke:none;fill-rule:nonzero;fill:rgb(14.99939%,28.999329%,50%);fill-opacity:0.7;" d="M 206.46875 108.804688 L 206.171875 108.535156 L 205.492188 107.882812 L 205.109375 107.476562 L 204.75 107.058594 L 204.453125 106.652344 L 204.261719 106.289062 L 204.160156 105.929688 L 204.097656 105.4375 L 204.058594 104.871094 L 204.042969 104.285156 L 204.046875 103.265625 L 204.058594 102.828125 L 194.160156 110.363281 Z M 206.46875 108.804688 "/>
<path style="fill:none;stroke-width:1;stroke-linecap:butt;stroke-linejoin:miter;stroke:rgb(14.99939%,28.999329%,50%);stroke-opacity:0.7;stroke-miterlimit:3.25;" d="M 253.367188 70.785156 L 231.722656 83.972656 "/>
<path style=" stroke:none;fill-rule:nonzero;fill:rgb(14.99939%,28.999329%,50%);fill-opacity:0.7;" d="M 234.308594 86.09375 L 233.972656 85.875 L 233.195312 85.339844 L 232.75 85.003906 L 232.328125 84.652344 L 231.972656 84.300781 L 231.722656 83.972656 L 231.566406 83.632812 L 231.421875 83.160156 L 231.289062 82.605469 L 231.179688 82.027344 L 231.015625 81.023438 L 230.960938 80.589844 L 222.417969 89.636719 Z M 234.308594 86.09375 "/>
<path style="fill:none;stroke-width:1;stroke-linecap:butt;stroke-linejoin:miter;stroke:rgb(14.99939%,28.999329%,50%);stroke-opacity:0.7;stroke-miterlimit:3.25;" d="M 111.242188 51.050781 L 111.242188 61.765625 L 111.277344 62.667969 L 111.328125 63.566406 L 111.394531 64.457031 L 111.480469 65.34375 L 111.582031 66.230469 L 111.699219 67.109375 L 111.886719 67.96875 L 112.089844 68.824219 L 112.308594 69.679688 L 112.546875 70.523438 L 112.800781 71.367188 L 113.070312 72.207031 L 113.421875 73.050781 L 113.875 74.035156 L 114.511719 75.304688 L 115.417969 77 L 116.671875 79.273438 L 118.363281 82.261719 L 119.425781 84.082031 L 119.953125 84.988281 L 120.488281 85.898438 L 121.019531 86.804688 L 121.554688 87.714844 L 122.089844 88.617188 L 122.628906 89.523438 L 123.707031 91.328125 L 124.25 92.234375 L 124.789062 93.136719 L 125.351562 94.058594 L 125.992188 95.113281 L 126.800781 96.4375 L 127.859375 98.164062 L 129.246094 100.429688 L 131.050781 103.363281 L 131.558594 104.210938 L 132.0625 105.0625 L 132.5625 105.914062 L 133.058594 106.773438 L 133.550781 107.628906 L 134.035156 108.492188 L 134.503906 109.363281 L 134.964844 110.238281 L 135.421875 111.113281 L 136.320312 112.871094 L 136.761719 113.757812 L 137.195312 114.667969 L 137.667969 115.699219 L 138.238281 116.957031 L 138.949219 118.558594 L 139.847656 120.621094 L 140.984375 123.253906 L 141.390625 124.15625 L 141.804688 125.054688 L 142.226562 125.945312 L 142.65625 126.832031 L 143.09375 127.714844 L 143.539062 128.59375 L 144.015625 129.453125 L 144.5 130.308594 L 144.992188 131.160156 L 145.492188 132.007812 L 146.003906 132.847656 L 146.519531 133.683594 L 147.066406 134.503906 L 147.625 135.316406 L 148.1875 136.125 L 148.757812 136.929688 L 149.339844 137.730469 L 149.925781 138.523438 L 150.691406 139.515625 L 151.4375 140.488281 L 152.167969 141.4375 L 152.640625 142.058594 "/>
<path style=" stroke:none;fill-rule:nonzero;fill:rgb(14.99939%,28.999329%,50%);fill-opacity:0.7;" d="M 154.472656 139.253906 L 154.292969 139.613281 L 153.84375 140.445312 L 153.558594 140.921875 L 153.253906 141.378906 L 152.941406 141.773438 L 152.640625 142.058594 L 152.320312 142.25 L 151.867188 142.445312 L 151.332031 142.632812 L 150.769531 142.808594 L 149.789062 143.074219 L 149.363281 143.179688 L 159.277344 150.695312 Z M 154.472656 139.253906 "/>
<path style="fill:none;stroke-width:1;stroke-linecap:butt;stroke-linejoin:miter;stroke:rgb(14.99939%,28.999329%,50%);stroke-opacity:0.7;stroke-miterlimit:3.25;" d="M 112.746094 49.96875 L 160.898438 66.019531 "/>
<path style=" stroke:none;fill-rule:nonzero;fill:rgb(14.99939%,28.999329%,50%);fill-opacity:0.7;" d="M 160.847656 62.671875 L 160.898438 63.070312 L 160.992188 64.007812 L 161.023438 64.566406 L 161.023438 65.117188 L 160.988281 65.617188 L 160.898438 66.019531 L 160.742188 66.359375 L 160.472656 66.773438 L 160.132812 67.230469 L 159.765625 67.6875 L 159.101562 68.460938 L 158.808594 68.785156 L 171.230469 69.464844 Z M 160.847656 62.671875 "/>
<path style="fill:none;stroke-width:1;stroke-linecap:butt;stroke-linejoin:miter;stroke:rgb(14.99939%,28.999329%,50%);stroke-opacity:0.7;stroke-miterlimit:3.25;" d="M 112.363281 50.585938 L 122.917969 61.144531 "/>
<path style=" stroke:none;fill-rule:nonzero;fill:rgb(14.99939%,28.999329%,50%);fill-opacity:0.7;" d="M 124.371094 58.128906 L 124.238281 58.503906 L 123.902344 59.386719 L 123.679688 59.898438 L 123.4375 60.390625 L 123.179688 60.824219 L 122.917969 61.144531 L 122.628906 61.375 L 122.199219 61.628906 L 121.695312 61.882812 L 121.160156 62.128906 L 120.222656 62.523438 L 119.8125 62.683594 L 130.621094 68.84375 Z M 124.371094 58.128906 "/>
<path style="fill:none;stroke-width:1;stroke-linecap:butt;stroke-linejoin:miter;stroke:rgb(14.99939%,28.999329%,50%);stroke-opacity:0.7;stroke-miterlimit:3.25;" d="M 112.808594 49.691406 L 242.371094 68.199219 "/>
<path style=" stroke:none;fill-rule:nonzero;fill:rgb(14.99939%,28.999329%,50%);fill-opacity:0.7;" d="M 241.71875 64.917969 L 241.84375 65.296875 L 242.101562 66.203125 L 242.230469 66.746094 L 242.332031 67.289062 L 242.386719 67.789062 L 242.371094 68.199219 L 242.273438 68.5625 L 242.085938 69.019531 L 241.832031 69.527344 L 241.554688 70.046875 L 241.039062 70.921875 L 240.808594 71.292969 L 253.152344 69.738281 Z M 241.71875 64.917969 "/>
<path style="fill:none;stroke-width:1;stroke-linecap:butt;stroke-linejoin:miter;stroke:rgb(14.99939%,28.999329%,50%);stroke-opacity:0.7;stroke-miterlimit:3.25;" d="M 213.726562 51.050781 L 213.726562 61.765625 L 213.828125 64.480469 L 214.03125 67.175781 L 214.441406 69.839844 L 214.953125 72.484375 L 215.671875 75.089844 L 216.492188 77.683594 L 216.859375 78.714844 "/>
<path style=" stroke:none;fill-rule:nonzero;fill:rgb(14.99939%,28.999329%,50%);fill-opacity:0.7;" d="M 219.460938 76.609375 L 219.183594 76.894531 L 218.5 77.546875 L 218.082031 77.914062 L 217.648438 78.257812 L 217.234375 78.539062 L 216.859375 78.714844 L 216.496094 78.800781 L 216.003906 78.847656 L 215.4375 78.863281 L 214.847656 78.855469 L 213.832031 78.8125 L 213.394531 78.78125 L 220.535156 88.972656 Z M 219.460938 76.609375 "/>
<path style="fill:none;stroke-width:1;stroke-linecap:butt;stroke-linejoin:miter;stroke:rgb(14.99939%,28.999329%,50%);stroke-opacity:0.7;stroke-miterlimit:3.25;" d="M 212.3125 50.175781 L 183.890625 64.386719 "/>
<path style=" stroke:none;fill-rule:nonzero;fill:rgb(14.99939%,28.999329%,50%);fill-opacity:0.7;" d="M 186.292969 66.714844 L 185.976562 66.472656 L 185.246094 65.875 L 184.832031 65.5 L 184.4375 65.113281 L 184.113281 64.734375 L 183.890625 64.386719 L 183.761719 64.035156 L 183.65625 63.550781 L 183.574219 62.988281 L 183.511719 62.402344 L 183.433594 61.390625 L 183.414062 60.953125 L 174.148438 69.257812 Z M 186.292969 66.714844 "/>
<path style="fill:none;stroke-width:1;stroke-linecap:butt;stroke-linejoin:miter;stroke:rgb(14.99939%,28.999329%,50%);stroke-opacity:0.7;stroke-miterlimit:3.25;" d="M 193.230469 51.050781 L 193.230469 61.765625 L 193.472656 64.375 L 193.960938 66.859375 L 194.941406 69.097656 L 196.164062 71.214844 L 197.875 73.082031 L 199.832031 74.824219 L 204.679688 78.394531 L 209.15625 81.6875 L 211.023438 83.0625 "/>
<path style=" stroke:none;fill-rule:nonzero;fill:rgb(14.99939%,28.999329%,50%);fill-opacity:0.7;" d="M 212.003906 79.863281 L 211.929688 80.257812 L 211.730469 81.179688 L 211.589844 81.71875 L 211.421875 82.246094 L 211.230469 82.710938 L 211.023438 83.0625 L 210.769531 83.339844 L 210.382812 83.652344 L 209.921875 83.980469 L 209.429688 84.304688 L 208.5625 84.835938 L 208.183594 85.050781 L 219.792969 89.523438 Z M 212.003906 79.863281 "/>
<path style="fill:none;stroke-width:1;stroke-linecap:butt;stroke-linejoin:miter;stroke:rgb(14.99939%,28.999329%,50%);stroke-opacity:0.7;stroke-miterlimit:3.25;" d="M 191.726562 49.96875 L 143.574219 66.019531 "/>
<path style=" stroke:none;fill-rule:nonzero;fill:rgb(14.99939%,28.999329%,50%);fill-opacity:0.7;" d="M 145.625 68.664062 L 145.34375 68.378906 L 144.707031 67.683594 L 144.347656 67.257812 L 144.015625 66.816406 L 143.742188 66.394531 L 143.574219 66.019531 L 143.496094 65.652344 L 143.460938 65.160156 L 143.460938 64.589844 L 143.480469 64.003906 L 143.546875 62.988281 L 143.585938 62.554688 L 133.242188 69.464844 Z M 145.625 68.664062 "/>
<path style="fill:none;stroke-width:1;stroke-linecap:butt;stroke-linejoin:miter;stroke:rgb(14.99939%,28.999329%,50%);stroke-opacity:0.7;stroke-miterlimit:3.25;" d="M 276.628906 50.175781 L 276.808594 50.265625 L 277.664062 50.691406 L 280.453125 52.085938 L 281.457031 52.589844 L 282.5 53.109375 L 285.007812 54.363281 L 286.316406 55.019531 L 287.664062 55.691406 L 289.046875 56.382812 L 290.472656 57.097656 L 291.933594 57.828125 L 293.433594 58.574219 L 295.121094 59.421875 L 298.613281 61.167969 L 300.414062 62.066406 L 302.253906 62.988281 L 304.132812 63.925781 L 306.050781 64.886719 L 308.003906 65.863281 L 308.617188 66.226562 L 309.199219 66.601562 L 309.757812 66.988281 L 310.28125 67.382812 L 310.78125 67.785156 L 311.25 68.199219 L 311.691406 68.621094 L 312.105469 69.050781 L 312.375 69.53125 L 312.617188 70.019531 L 312.832031 70.519531 L 313.015625 71.027344 L 313.171875 71.542969 L 313.300781 72.070312 L 313.398438 72.605469 L 313.46875 73.152344 L 313.394531 73.753906 L 313.265625 74.410156 L 313.0625 75.175781 L 312.753906 76.09375 L 312.324219 77.214844 L 311.746094 78.582031 L 310.992188 80.25 L 310.042969 82.261719 L 309.6875 82.933594 L 309.324219 83.605469 L 308.960938 84.269531 L 308.585938 84.933594 L 308.210938 85.589844 L 307.828125 86.246094 L 307.4375 86.894531 L 307.042969 87.542969 L 306.625 88.167969 L 306.195312 88.792969 L 305.765625 89.410156 L 305.328125 90.027344 L 304.886719 90.636719 L 304.4375 91.246094 L 303.984375 91.847656 L 303.527344 92.449219 L 303.027344 93.039062 L 302.460938 93.695312 L 301.75 94.484375 L 300.835938 95.46875 L 299.648438 96.722656 L 298.125 98.308594 L 296.191406 100.296875 L 293.78125 102.757812 L 293.097656 103.429688 L 292.410156 104.09375 L 291.714844 104.757812 L 291.019531 105.414062 L 290.320312 106.0625 L 289.617188 106.710938 L 288.90625 107.351562 L 288.195312 107.988281 L 287.464844 108.601562 L 285.988281 109.8125 L 285.246094 110.410156 L 283.746094 111.589844 L 282.992188 112.171875 L 282.230469 112.75 L 281.433594 113.316406 L 280.515625 113.949219 L 279.359375 114.722656 L 277.84375 115.710938 L 275.859375 116.984375 L 273.285156 118.621094 L 270.007812 120.683594 L 265.902344 123.253906 L 264.792969 123.910156 L 263.675781 124.554688 L 262.558594 125.1875 L 261.433594 125.808594 L 260.304688 126.417969 L 259.171875 127.019531 L 258.035156 127.605469 L 256.890625 128.183594 L 255.726562 128.703125 L 254.554688 129.214844 L 253.382812 129.710938 L 252.203125 130.199219 L 251.019531 130.675781 L 249.832031 131.140625 L 248.640625 131.59375 L 247.441406 132.035156 L 246.222656 132.421875 L 244.996094 132.796875 L 243.769531 133.160156 L 242.535156 133.515625 L 241.296875 133.855469 L 240.054688 134.1875 L 238.808594 134.503906 L 237.554688 134.8125 L 232.886719 135.847656 L 228.3125 136.863281 L 223.832031 137.855469 L 219.441406 138.828125 L 215.148438 139.78125 L 210.945312 140.710938 L 206.839844 141.621094 L 202.824219 142.511719 L 199.273438 143.296875 L 195.820312 144.0625 L 192.460938 144.808594 L 189.191406 145.53125 L 186.015625 146.238281 L 182.933594 146.917969 L 179.945312 147.582031 L 177.050781 148.222656 L 174.625 148.761719 L 172.421875 149.25 "/>
<path style=" stroke:none;fill-rule:nonzero;fill:rgb(14.99939%,28.999329%,50%);fill-opacity:0.7;" d="M 174.1875 152.09375 L 173.9375 151.78125 L 173.375 151.023438 L 173.0625 150.5625 L 172.777344 150.089844 L 172.550781 149.640625 L 172.421875 149.25 L 172.382812 148.878906 L 172.398438 148.382812 L 172.453125 147.816406 L 172.535156 147.234375 L 172.707031 146.234375 L 172.792969 145.804688 L 161.785156 151.605469 Z M 174.1875 152.09375 "/>
<path style="fill:none;stroke-width:1;stroke-linecap:butt;stroke-linejoin:miter;stroke:rgb(14.99939%,28.999329%,50%);stroke-opacity:0.7;stroke-miterlimit:3.25;" d="M 275.214844 51.050781 L 275.214844 61.765625 L 274.929688 64.300781 L 274.363281 66.644531 L 273.226562 68.589844 L 271.808594 70.34375 L 269.820312 71.703125 L 267.546875 72.867188 L 256.582031 77.015625 L 246.539062 80.820312 L 238.332031 83.925781 L 232.734375 86.042969 "/>
<path style=" stroke:none;fill-rule:nonzero;fill:rgb(14.99939%,28.999329%,50%);fill-opacity:0.7;" d="M 234.886719 88.605469 L 234.597656 88.332031 L 233.929688 87.664062 L 233.558594 87.25 L 233.207031 86.824219 L 232.917969 86.414062 L 232.734375 86.042969 L 232.640625 85.683594 L 232.585938 85.191406 L 232.5625 84.621094 L 232.558594 84.035156 L 232.585938 83.015625 L 232.609375 82.582031 L 222.546875 89.898438 Z M 234.886719 88.605469 "/>
<path style="fill:none;stroke-width:1;stroke-linecap:butt;stroke-linejoin:miter;stroke:rgb(14.99939%,28.999329%,50%);stroke-opacity:0.7;stroke-miterlimit:3.25;" d="M 274.097656 50.585938 L 263.539062 61.144531 "/>
<path style=" stroke:none;fill-rule:nonzero;fill:rgb(14.99939%,28.999329%,50%);fill-opacity:0.7;" d="M 266.554688 62.59375 L 266.175781 62.464844 L 265.296875 62.125 L 264.785156 61.90625 L 264.289062 61.660156 L 263.859375 61.402344 L 263.539062 61.144531 L 263.304688 60.851562 L 263.054688 60.425781 L 262.796875 59.917969 L 262.550781 59.382812 L 262.160156 58.445312 L 262 58.039062 L 255.835938 68.84375 Z M 266.554688 62.59375 "/>
<path style="fill:none;stroke-width:1;stroke-linecap:butt;stroke-linejoin:miter;stroke:rgb(14.99939%,28.999329%,50%);stroke-opacity:0.7;stroke-miterlimit:3.25;" d="M 131.738281 51.050781 L 131.738281 57.488281 "/>
<path style=" stroke:none;fill-rule:nonzero;fill:rgb(14.99939%,28.999329%,50%);fill-opacity:0.7;" d="M 134.898438 56.382812 L 134.539062 56.558594 L 133.675781 56.941406 L 133.160156 57.148438 L 132.636719 57.324219 L 132.148438 57.445312 L 131.738281 57.488281 L 131.371094 57.445312 L 130.890625 57.324219 L 130.347656 57.148438 L 129.796875 56.941406 L 128.855469 56.558594 L 128.457031 56.382812 L 131.738281 68.382812 Z M 134.898438 56.382812 "/>
<path style="fill:none;stroke-width:1;stroke-linecap:butt;stroke-linejoin:miter;stroke:rgb(14.99939%,28.999329%,50%);stroke-opacity:0.7;stroke-miterlimit:3.25;" d="M 240.457031 29.507812 L 241.226562 29.785156 L 242.445312 30.226562 L 243.726562 30.691406 L 245.070312 31.175781 L 246.472656 31.679688 L 247.9375 32.210938 L 249.460938 32.761719 L 251.289062 33.421875 L 253.179688 34.105469 L 255.132812 34.808594 L 257.144531 35.535156 L 259.21875 36.285156 L 261.351562 37.054688 L 263.546875 37.847656 L 265.804688 38.664062 L 268.367188 39.589844 L 270.988281 40.535156 L 273.671875 41.507812 L 276.414062 42.496094 L 279.21875 43.511719 L 282.085938 44.546875 L 285.011719 45.601562 L 288 46.683594 L 288.597656 46.945312 L 289.179688 47.222656 L 289.742188 47.511719 L 290.285156 47.8125 L 290.8125 48.125 L 291.320312 48.449219 L 291.8125 48.789062 L 292.285156 49.140625 L 292.667969 49.554688 L 293.035156 49.980469 L 293.382812 50.417969 L 293.710938 50.871094 L 294.023438 51.335938 L 294.320312 51.8125 L 294.59375 52.300781 L 294.855469 52.800781 L 295.023438 53.375 L 295.175781 54.007812 L 295.308594 54.75 L 295.425781 55.644531 L 295.523438 56.75 L 295.605469 58.105469 L 295.667969 59.761719 L 295.710938 61.765625 L 295.675781 62.433594 L 295.625 63.09375 L 295.5625 63.746094 L 295.480469 64.394531 L 295.390625 65.035156 L 295.28125 65.667969 L 295.160156 66.296875 L 295.023438 66.917969 L 294.816406 67.507812 L 294.597656 68.089844 L 294.359375 68.667969 L 294.109375 69.238281 L 293.84375 69.800781 L 293.566406 70.355469 L 293.273438 70.90625 L 292.964844 71.449219 L 292.570312 71.972656 L 292.070312 72.574219 L 291.371094 73.328125 L 290.375 74.316406 L 289 75.625 L 287.140625 77.332031 L 284.714844 79.515625 L 281.625 82.261719 L 280.835938 82.9375 L 280.046875 83.605469 L 279.25 84.273438 L 278.453125 84.9375 L 276.851562 86.25 L 276.042969 86.902344 L 275.234375 87.550781 L 274.414062 88.179688 L 273.589844 88.804688 L 272.761719 89.429688 L 271.097656 90.664062 L 270.261719 91.273438 L 269.421875 91.882812 L 268.582031 92.484375 L 267.707031 93.082031 L 266.71875 93.746094 L 265.5 94.546875 L 263.941406 95.554688 L 261.929688 96.84375 L 259.351562 98.476562 L 256.097656 100.53125 L 252.046875 103.074219 L 250.996094 103.734375 L 249.949219 104.394531 L 248.898438 105.054688 L 246.804688 106.375 L 245.753906 107.039062 L 244.707031 107.703125 L 243.660156 108.363281 L 241.574219 109.699219 L 240.53125 110.371094 L 239.488281 111.039062 L 238.445312 111.710938 L 237.40625 112.378906 L 236.363281 113.050781 L 235.320312 113.726562 L 234.273438 114.410156 L 233.148438 115.140625 L 231.882812 115.972656 L 230.394531 116.945312 L 228.621094 118.113281 L 226.480469 119.523438 L 223.90625 121.21875 L 220.824219 123.253906 L 219.78125 123.925781 L 218.738281 124.585938 L 217.691406 125.246094 L 216.640625 125.898438 L 215.589844 126.546875 L 214.53125 127.1875 L 213.472656 127.824219 L 212.410156 128.457031 L 211.335938 129.058594 L 210.253906 129.65625 L 209.171875 130.25 L 208.085938 130.835938 L 206.996094 131.417969 L 205.90625 131.996094 L 204.8125 132.566406 L 203.714844 133.128906 L 202.601562 133.667969 L 201.484375 134.199219 L 200.367188 134.726562 L 199.246094 135.246094 L 198.121094 135.761719 L 196.996094 136.273438 L 195.867188 136.777344 L 194.734375 137.273438 L 192.75 138.117188 L 190.800781 138.949219 L 188.890625 139.761719 L 187.011719 140.558594 L 185.167969 141.34375 L 183.363281 142.113281 L 181.589844 142.867188 L 179.855469 143.605469 L 178.292969 144.269531 L 176.769531 144.917969 L 175.277344 145.550781 L 173.824219 146.171875 L 172.402344 146.773438 L 171.722656 147.066406 "/>
<path style=" stroke:none;fill-rule:nonzero;fill:rgb(14.99939%,28.999329%,50%);fill-opacity:0.7;" d="M 173.976562 149.539062 L 173.675781 149.277344 L 172.984375 148.632812 L 172.589844 148.238281 L 172.222656 147.824219 L 171.921875 147.425781 L 171.722656 147.066406 L 171.613281 146.707031 L 171.539062 146.21875 L 171.492188 145.652344 L 171.464844 145.0625 L 171.449219 144.046875 L 171.453125 143.609375 L 161.699219 151.328125 Z M 173.976562 149.539062 "/>
<path style="fill:none;stroke-width:1;stroke-linecap:butt;stroke-linejoin:miter;stroke:rgb(14.99939%,28.999329%,50%);stroke-opacity:0.7;stroke-miterlimit:3.25;" d="M 239.933594 30.226562 L 240.136719 30.488281 L 240.445312 30.894531 L 240.761719 31.304688 L 241.085938 31.726562 L 241.417969 32.160156 L 241.789062 32.640625 L 242.164062 33.128906 L 242.546875 33.625 L 242.9375 34.132812 L 243.332031 34.648438 L 243.738281 35.175781 L 244.148438 35.714844 L 244.570312 36.257812 L 245.023438 36.851562 L 245.488281 37.453125 L 245.957031 38.066406 L 246.4375 38.6875 L 246.921875 39.320312 L 247.414062 39.960938 L 247.914062 40.609375 L 248.417969 41.269531 L 248.863281 41.945312 L 249.28125 42.625 L 249.664062 43.296875 L 250.015625 43.96875 L 250.335938 44.640625 L 250.625 45.304688 L 250.878906 45.972656 L 251.105469 46.636719 L 251.175781 47.289062 L 251.210938 47.941406 L 251.214844 48.589844 L 251.191406 49.238281 L 251.132812 49.882812 L 251.042969 50.527344 L 250.921875 51.167969 L 250.769531 51.804688 L 250.445312 52.445312 L 250.019531 53.160156 L 249.414062 54.019531 L 248.554688 55.097656 L 247.367188 56.464844 L 245.78125 58.203125 L 243.71875 60.382812 L 241.109375 63.074219 L 240.546875 63.65625 L 239.984375 64.242188 L 239.429688 64.828125 L 238.875 65.421875 L 238.324219 66.015625 L 237.777344 66.609375 L 236.699219 67.8125 L 236.179688 68.429688 L 235.664062 69.050781 L 235.152344 69.675781 L 234.644531 70.304688 L 234.140625 70.933594 L 233.640625 71.566406 L 233.140625 72.203125 L 232.648438 72.84375 L 232.175781 73.496094 L 231.703125 74.152344 L 231.238281 74.816406 L 230.773438 75.476562 L 229.859375 76.8125 L 229.40625 77.488281 L 228.960938 78.164062 L 228.535156 78.820312 L 228.121094 79.472656 L 227.804688 79.960938 "/>
<path style=" stroke:none;fill-rule:nonzero;fill:rgb(14.99939%,28.999329%,50%);fill-opacity:0.7;" d="M 231.0625 80.734375 L 230.664062 80.6875 L 229.730469 80.546875 L 229.183594 80.441406 L 228.648438 80.308594 L 228.171875 80.148438 L 227.804688 79.960938 L 227.515625 79.726562 L 227.179688 79.363281 L 226.820312 78.921875 L 226.464844 78.453125 L 225.882812 77.621094 L 225.640625 77.257812 L 221.921875 89.128906 Z M 231.0625 80.734375 "/>
<path style="fill:none;stroke-width:1;stroke-linecap:butt;stroke-linejoin:miter;stroke:rgb(14.99939%,28.999329%,50%);stroke-opacity:0.7;stroke-miterlimit:3.25;" d="M 237.742188 29.96875 L 223.410156 41.605469 "/>
<path style=" stroke:none;fill-rule:nonzero;fill:rgb(14.99939%,28.999329%,50%);fill-opacity:0.7;" d="M 226.261719 43.359375 L 225.898438 43.191406 L 225.054688 42.765625 L 224.570312 42.492188 L 224.101562 42.195312 L 223.699219 41.894531 L 223.410156 41.605469 L 223.207031 41.289062 L 223 40.839844 L 222.796875 40.308594 L 222.609375 39.753906 L 222.316406 38.777344 L 222.199219 38.355469 L 214.953125 48.46875 Z M 226.261719 43.359375 "/>
<path style="fill:none;stroke-width:1;stroke-linecap:butt;stroke-linejoin:miter;stroke:rgb(14.99939%,28.999329%,50%);stroke-opacity:0.7;stroke-miterlimit:3.25;" d="M 237.527344 29.617188 L 204.613281 44.367188 "/>
<path style=" stroke:none;fill-rule:nonzero;fill:rgb(14.99939%,28.999329%,50%);fill-opacity:0.7;" d="M 206.914062 46.796875 L 206.609375 46.539062 L 205.902344 45.910156 L 205.503906 45.519531 L 205.128906 45.117188 L 204.820312 44.722656 L 204.613281 44.367188 L 204.5 44.011719 L 204.414062 43.523438 L 204.355469 42.957031 L 204.316406 42.371094 L 204.285156 41.355469 L 204.28125 40.917969 L 194.671875 48.820312 Z M 206.914062 46.796875 "/>
<path style="fill:none;stroke-width:1;stroke-linecap:butt;stroke-linejoin:miter;stroke:rgb(14.99939%,28.999329%,50%);stroke-opacity:0.7;stroke-miterlimit:3.25;" d="M 240.347656 29.75 L 264.355469 43.328125 "/>
<path style=" stroke:none;fill-rule:nonzero;fill:rgb(14.99939%,28.999329%,50%);fill-opacity:0.7;" d="M 264.945312 40.03125 L 264.921875 40.433594 L 264.832031 41.371094 L 264.757812 41.921875 L 264.652344 42.464844 L 264.519531 42.949219 L 264.355469 43.328125 L 264.136719 43.628906 L 263.792969 43.988281 L 263.375 44.371094 L 262.925781 44.75 L 262.125 45.378906 L 261.777344 45.640625 L 273.835938 48.6875 Z M 264.945312 40.03125 "/>
<path style="fill:none;stroke-width:1;stroke-linecap:butt;stroke-linejoin:miter;stroke:rgb(14.99939%,28.999329%,50%);stroke-opacity:0.7;stroke-miterlimit:3.25;" d="M 237.414062 29.269531 L 143.992188 47.125 "/>
<path style=" stroke:none;fill-rule:nonzero;fill:rgb(14.99939%,28.999329%,50%);fill-opacity:0.7;" d="M 145.671875 50.019531 L 145.433594 49.699219 L 144.894531 48.925781 L 144.59375 48.453125 L 144.324219 47.976562 L 144.109375 47.519531 L 143.992188 47.125 L 143.964844 46.753906 L 143.996094 46.257812 L 144.066406 45.695312 L 144.164062 45.113281 L 144.367188 44.117188 L 144.464844 43.691406 L 133.292969 49.171875 Z M 145.671875 50.019531 "/>
<path style="fill:none;stroke-width:1;stroke-linecap:butt;stroke-linejoin:miter;stroke:rgb(14.99939%,28.999329%,50%);stroke-opacity:0.7;stroke-miterlimit:3.25;" d="M 109.742188 29.472656 L 106.871094 30.429688 L 106.066406 30.695312 L 105.238281 30.972656 L 104.390625 31.257812 L 103.515625 31.546875 L 102.625 31.84375 L 101.707031 32.148438 L 99.808594 32.78125 L 98.675781 33.160156 L 97.515625 33.546875 L 96.335938 33.941406 L 95.136719 34.339844 L 93.910156 34.75 L 92.664062 35.164062 L 87.460938 36.898438 L 86.105469 37.351562 L 84.726562 37.808594 L 83.328125 38.277344 L 81.90625 38.75 L 80.308594 39.28125 L 78.6875 39.824219 L 73.695312 41.488281 L 71.988281 42.054688 L 70.257812 42.632812 L 68.507812 43.21875 L 66.734375 43.808594 L 64.9375 44.40625 L 63.117188 45.011719 L 61.277344 45.625 L 59.417969 46.246094 L 57.53125 46.875 L 57.1875 47.015625 L 56.84375 47.160156 L 56.507812 47.308594 L 56.179688 47.460938 L 55.855469 47.621094 L 55.539062 47.78125 L 55.226562 47.945312 L 54.921875 48.117188 L 54.621094 48.292969 L 54.328125 48.46875 L 54.039062 48.652344 L 53.757812 48.839844 L 53.480469 49.03125 L 53.210938 49.226562 L 52.988281 49.457031 L 52.769531 49.6875 L 52.558594 49.925781 L 52.351562 50.167969 L 52.152344 50.414062 L 51.769531 50.921875 L 51.589844 51.179688 L 51.414062 51.441406 L 51.242188 51.710938 L 51.078125 51.984375 L 50.917969 52.257812 L 50.765625 52.539062 L 50.617188 52.824219 L 50.519531 53.144531 L 50.425781 53.476562 L 50.335938 53.832031 L 50.253906 54.21875 L 50.179688 54.644531 L 50.109375 55.121094 L 50.042969 55.652344 L 49.984375 56.253906 L 49.929688 56.929688 L 49.882812 57.691406 L 49.84375 58.546875 L 49.808594 59.503906 L 49.777344 60.574219 L 49.753906 61.765625 L 49.753906 102.757812 L 49.777344 103.132812 L 49.808594 103.5 L 49.84375 103.867188 L 49.882812 104.226562 L 49.929688 104.585938 L 49.984375 104.9375 L 50.042969 105.289062 L 50.105469 105.632812 L 50.175781 105.972656 L 50.25 106.308594 L 50.332031 106.640625 L 50.421875 106.96875 L 50.515625 107.292969 L 50.613281 107.613281 L 50.761719 107.902344 L 50.914062 108.183594 L 51.070312 108.460938 L 51.234375 108.738281 L 51.402344 109.007812 L 51.578125 109.273438 L 51.761719 109.535156 L 51.949219 109.792969 L 52.140625 110.046875 L 52.339844 110.296875 L 52.542969 110.539062 L 52.753906 110.78125 L 52.972656 111.019531 L 53.191406 111.25 L 53.472656 111.453125 L 53.824219 111.675781 L 54.308594 111.941406 L 54.996094 112.265625 L 55.945312 112.679688 L 57.226562 113.203125 L 58.898438 113.859375 L 61.03125 114.667969 L 63.6875 115.65625 L 66.933594 116.84375 L 70.832031 118.253906 L 75.445312 119.910156 L 80.84375 121.835938 L 87.089844 124.050781 L 88.09375 124.402344 L 89.097656 124.757812 L 90.101562 125.117188 L 92.109375 125.828125 L 93.113281 126.1875 L 94.113281 126.546875 L 96.121094 127.265625 L 97.121094 127.625 L 98.125 127.988281 L 99.128906 128.347656 L 101.128906 129.074219 L 103.128906 129.808594 L 104.128906 130.179688 L 105.128906 130.546875 L 106.128906 130.917969 L 107.125 131.289062 L 108.125 131.660156 L 109.121094 132.03125 L 110.121094 132.402344 L 111.117188 132.777344 L 112.117188 133.148438 L 115.105469 134.273438 L 116.101562 134.65625 L 117.097656 135.035156 L 118.089844 135.417969 L 119.085938 135.796875 L 120.078125 136.179688 L 121.074219 136.5625 L 122.066406 136.949219 L 123.0625 137.332031 L 124.054688 137.71875 L 125.046875 138.101562 L 128.023438 139.261719 L 129.015625 139.652344 L 129.976562 140.03125 L 130.929688 140.40625 L 131.875 140.777344 L 132.808594 141.144531 L 133.738281 141.511719 L 134.660156 141.875 L 135.570312 142.234375 L 136.476562 142.589844 L 137.371094 142.941406 L 138.261719 143.292969 L 139.140625 143.640625 L 140.015625 143.984375 L 140.882812 144.324219 L 141.738281 144.660156 L 142.535156 144.976562 L 143.320312 145.285156 L 144.097656 145.589844 L 144.871094 145.894531 L 145.632812 146.195312 L 146.386719 146.492188 L 147.136719 146.789062 L 147.875 147.078125 L 148.605469 147.367188 L 148.636719 147.378906 "/>
<path style=" stroke:none;fill-rule:nonzero;fill:rgb(14.99939%,28.999329%,50%);fill-opacity:0.7;" d="M 148.761719 144.035156 L 148.792969 144.433594 L 148.835938 145.375 L 148.835938 145.933594 L 148.808594 146.484375 L 148.746094 146.980469 L 148.636719 147.378906 L 148.460938 147.707031 L 148.171875 148.109375 L 147.808594 148.546875 L 147.414062 148.984375 L 146.710938 149.71875 L 146.402344 150.027344 L 158.769531 151.371094 Z M 148.761719 144.035156 "/>
<path style="fill:none;stroke-width:1;stroke-linecap:butt;stroke-linejoin:miter;stroke:rgb(14.99939%,28.999329%,50%);stroke-opacity:0.7;stroke-miterlimit:3.25;" d="M 109.710938 29.355469 L 109.082031 29.511719 L 106.75 30.09375 L 104.25 30.71875 L 101.582031 31.386719 L 98.742188 32.097656 L 95.730469 32.847656 L 92.042969 33.773438 L 88.183594 34.734375 L 84.15625 35.742188 L 79.957031 36.792969 L 75.589844 37.882812 L 71.054688 39.019531 L 65.835938 40.324219 L 60.453125 41.667969 L 54.894531 43.058594 L 49.171875 44.488281 L 43.277344 45.964844 L 37.210938 47.480469 L 36.394531 47.75 L 35.609375 48.046875 L 34.855469 48.371094 L 34.136719 48.71875 L 33.449219 49.09375 L 32.792969 49.496094 L 32.269531 49.996094 L 31.777344 50.523438 L 31.320312 51.078125 L 30.894531 51.65625 L 30.503906 52.261719 L 30.140625 52.890625 L 29.914062 53.640625 L 29.714844 54.53125 L 29.554688 55.675781 L 29.421875 57.1875 L 29.324219 59.179688 L 29.257812 61.765625 L 29.257812 102.757812 L 29.320312 103.632812 L 29.410156 104.488281 L 29.53125 105.324219 L 29.679688 106.140625 L 29.863281 106.941406 L 30.074219 107.71875 L 30.40625 108.425781 L 30.765625 109.113281 L 31.160156 109.78125 L 31.582031 110.429688 L 32.035156 111.0625 L 32.515625 111.675781 L 33.121094 112.214844 L 33.753906 112.734375 L 34.417969 113.234375 L 35.113281 113.714844 L 35.835938 114.179688 L 36.589844 114.625 L 39.277344 115.964844 L 41.894531 117.273438 L 44.4375 118.546875 L 46.914062 119.785156 L 49.316406 120.984375 L 51.648438 122.152344 L 59.09375 125.875 "/>
<path style=" stroke:none;fill-rule:nonzero;fill:rgb(14.99939%,28.999329%,50%);fill-opacity:0.7;" d="M 59.515625 122.554688 L 59.511719 122.953125 L 59.472656 123.898438 L 59.421875 124.453125 L 59.347656 125 L 59.238281 125.488281 L 59.09375 125.875 L 58.890625 126.1875 L 58.566406 126.5625 L 58.164062 126.964844 L 57.734375 127.367188 L 56.96875 128.035156 L 56.632812 128.316406 L 68.835938 130.746094 Z M 59.515625 122.554688 "/>
<path style="fill:none;stroke-width:1;stroke-linecap:butt;stroke-linejoin:miter;stroke:rgb(14.99939%,28.999329%,50%);stroke-opacity:0.7;stroke-miterlimit:3.25;" d="M 111.242188 30.554688 L 111.242188 36.992188 "/>
<path style=" stroke:none;fill-rule:nonzero;fill:rgb(14.99939%,28.999329%,50%);fill-opacity:0.7;" d="M 114.402344 35.886719 L 114.042969 36.0625 L 113.179688 36.445312 L 112.664062 36.652344 L 112.140625 36.828125 L 111.652344 36.949219 L 111.242188 36.992188 L 110.871094 36.949219 L 110.394531 36.828125 L 109.851562 36.652344 L 109.300781 36.445312 L 108.359375 36.0625 L 107.960938 35.886719 L 111.242188 47.886719 Z M 114.402344 35.886719 "/>
<path style="fill:none;stroke-width:1;stroke-linecap:butt;stroke-linejoin:miter;stroke:rgb(14.99939%,28.999329%,50%);stroke-opacity:0.7;stroke-miterlimit:3.25;" d="M 112.363281 30.089844 L 122.917969 40.648438 "/>
<path style=" stroke:none;fill-rule:nonzero;fill:rgb(14.99939%,28.999329%,50%);fill-opacity:0.7;" d="M 124.371094 37.628906 L 124.238281 38.007812 L 123.902344 38.890625 L 123.679688 39.402344 L 123.4375 39.894531 L 123.179688 40.328125 L 122.917969 40.648438 L 122.628906 40.878906 L 122.199219 41.132812 L 121.695312 41.386719 L 121.160156 41.632812 L 120.222656 42.027344 L 119.8125 42.1875 L 130.621094 48.347656 Z M 124.371094 37.628906 "/>
<path style="fill:none;stroke-width:1;stroke-linecap:butt;stroke-linejoin:miter;stroke:rgb(14.99939%,28.999329%,50%);stroke-opacity:0.7;stroke-miterlimit:3.25;" d="M 150.703125 29.355469 L 150.074219 29.511719 L 147.746094 30.09375 L 145.242188 30.71875 L 142.574219 31.386719 L 139.734375 32.097656 L 136.722656 32.847656 L 133.035156 33.773438 L 129.175781 34.734375 L 125.148438 35.742188 L 120.949219 36.792969 L 116.582031 37.882812 L 112.046875 39.019531 L 106.828125 40.324219 L 101.445312 41.667969 L 95.890625 43.058594 L 90.164062 44.488281 L 84.269531 45.964844 L 78.203125 47.480469 L 77.386719 47.75 L 76.601562 48.046875 L 75.847656 48.371094 L 75.128906 48.71875 L 74.441406 49.09375 L 73.785156 49.496094 L 73.261719 49.996094 L 72.769531 50.523438 L 72.3125 51.078125 L 71.886719 51.65625 L 71.496094 52.261719 L 71.136719 52.890625 L 70.90625 53.640625 L 70.710938 54.53125 L 70.546875 55.675781 L 70.414062 57.1875 L 70.316406 59.179688 L 70.25 61.765625 L 70.25 118.980469 "/>
<path style=" stroke:none;fill-rule:nonzero;fill:rgb(14.99939%,28.999329%,50%);fill-opacity:0.7;" d="M 73.410156 117.871094 L 73.050781 118.046875 L 72.1875 118.433594 L 71.671875 118.636719 L 71.148438 118.8125 L 70.660156 118.9375 L 70.25 118.980469 L 69.878906 118.9375 L 69.398438 118.8125 L 68.859375 118.636719 L 68.308594 118.433594 L 67.367188 118.046875 L 66.96875 117.871094 L 70.25 129.871094 Z M 73.410156 117.871094 "/>
<path style="fill:none;stroke-width:1;stroke-linecap:butt;stroke-linejoin:miter;stroke:rgb(14.99939%,28.999329%,50%);stroke-opacity:0.7;stroke-miterlimit:3.25;" d="M 152.238281 30.554688 L 152.238281 41.269531 L 152.453125 43.914062 L 152.878906 46.46875 L 153.738281 48.84375 L 154.8125 51.132812 L 156.316406 53.242188 L 158.035156 55.265625 L 163.914062 61.144531 "/>
<path style=" stroke:none;fill-rule:nonzero;fill:rgb(14.99939%,28.999329%,50%);fill-opacity:0.7;" d="M 165.363281 58.128906 L 165.230469 58.503906 L 164.894531 59.386719 L 164.671875 59.898438 L 164.429688 60.390625 L 164.171875 60.824219 L 163.914062 61.144531 L 163.621094 61.375 L 163.195312 61.628906 L 162.6875 61.882812 L 162.152344 62.128906 L 161.214844 62.523438 L 160.808594 62.683594 L 171.613281 68.84375 Z M 165.363281 58.128906 "/>
<path style="fill:none;stroke-width:1;stroke-linecap:butt;stroke-linejoin:miter;stroke:rgb(14.99939%,28.999329%,50%);stroke-opacity:0.7;stroke-miterlimit:3.25;" d="M 150.734375 29.472656 L 147.414062 30.578125 L 141.871094 32.425781 L 134.882812 34.753906 L 127.171875 37.324219 L 118.015625 40.378906 L 108.140625 43.671875 L 103.59375 45.691406 L 100.300781 47.800781 L 99.507812 50.089844 L 99.96875 52.46875 L 102.929688 55.023438 L 107.144531 57.667969 L 112.304688 60.246094 L 117.164062 62.675781 L 120.582031 64.386719 "/>
<path style=" stroke:none;fill-rule:nonzero;fill:rgb(14.99939%,28.999329%,50%);fill-opacity:0.7;" d="M 121.003906 61.066406 L 121 61.464844 L 120.960938 62.40625 L 120.910156 62.964844 L 120.835938 63.507812 L 120.726562 64 L 120.582031 64.386719 L 120.378906 64.699219 L 120.054688 65.074219 L 119.65625 65.476562 L 119.226562 65.878906 L 118.460938 66.546875 L 118.125 66.828125 L 130.324219 69.257812 Z M 121.003906 61.066406 "/>
<path style="fill:none;stroke-width:1;stroke-linecap:butt;stroke-linejoin:miter;stroke:rgb(14.99939%,28.999329%,50%);stroke-opacity:0.7;stroke-miterlimit:3.25;" d="M 153.652344 29.679688 L 182.070312 43.890625 "/>
<path style=" stroke:none;fill-rule:nonzero;fill:rgb(14.99939%,28.999329%,50%);fill-opacity:0.7;" d="M 182.492188 40.570312 L 182.488281 40.96875 L 182.449219 41.910156 L 182.398438 42.464844 L 182.324219 43.011719 L 182.21875 43.503906 L 182.070312 43.890625 L 181.867188 44.203125 L 181.542969 44.574219 L 181.144531 44.980469 L 180.714844 45.382812 L 179.949219 46.050781 L 179.613281 46.332031 L 191.8125 48.761719 Z M 182.492188 40.570312 "/>
<path style="fill:none;stroke-width:1;stroke-linecap:butt;stroke-linejoin:miter;stroke:rgb(14.99939%,28.999329%,50%);stroke-opacity:0.7;stroke-miterlimit:3.25;" d="M 151.117188 30.089844 L 140.5625 40.648438 "/>
<path style=" stroke:none;fill-rule:nonzero;fill:rgb(14.99939%,28.999329%,50%);fill-opacity:0.7;" d="M 143.578125 42.097656 L 143.199219 41.96875 L 142.316406 41.628906 L 141.804688 41.40625 L 141.3125 41.164062 L 140.878906 40.90625 L 140.5625 40.648438 L 140.328125 40.355469 L 140.074219 39.929688 L 139.820312 39.421875 L 139.574219 38.886719 L 139.179688 37.949219 L 139.023438 37.542969 L 132.859375 48.347656 Z M 143.578125 42.097656 "/>
<path style="fill:none;stroke-width:1;stroke-linecap:butt;stroke-linejoin:miter;stroke:rgb(14.99939%,28.999329%,50%);stroke-opacity:0.7;stroke-miterlimit:3.25;" d="M 153.851562 9.609375 L 154.3125 10.078125 L 155.183594 10.972656 L 156.109375 11.921875 L 157.210938 13.050781 L 158.371094 14.242188 L 159.585938 15.488281 L 160.863281 16.796875 L 162.3125 18.285156 L 163.820312 19.832031 L 165.386719 21.4375 L 167.007812 23.101562 L 167.882812 24.113281 L 168.707031 25.144531 L 169.472656 26.199219 L 170.1875 27.273438 L 170.746094 28.414062 L 171.25 29.574219 L 171.699219 30.757812 L 172.097656 31.960938 L 172.335938 33.296875 L 172.519531 35.035156 L 172.652344 37.566406 L 172.734375 41.269531 L 172.734375 57.488281 "/>
<path style=" stroke:none;fill-rule:nonzero;fill:rgb(14.99939%,28.999329%,50%);fill-opacity:0.7;" d="M 175.890625 56.382812 L 175.53125 56.558594 L 174.667969 56.941406 L 174.152344 57.148438 L 173.628906 57.324219 L 173.144531 57.445312 L 172.734375 57.488281 L 172.363281 57.445312 L 171.882812 57.324219 L 171.34375 57.148438 L 170.789062 56.941406 L 169.847656 56.558594 L 169.449219 56.382812 L 172.734375 68.382812 Z M 175.890625 56.382812 "/>
<path style="fill:none;stroke-width:1;stroke-linecap:butt;stroke-linejoin:miter;stroke:rgb(14.99939%,28.999329%,50%);stroke-opacity:0.7;stroke-miterlimit:3.25;" d="M 154.160156 9.191406 L 156.074219 10.160156 L 160.03125 12.164062 L 165.246094 14.800781 L 171.085938 17.761719 L 178.1875 21.355469 L 185.914062 25.269531 L 188.082031 26.667969 L 189.976562 28.234375 L 191.332031 30.136719 L 192.417969 32.203125 L 192.957031 34.601562 L 193.210938 36.992188 "/>
<path style=" stroke:none;fill-rule:nonzero;fill:rgb(14.99939%,28.999329%,50%);fill-opacity:0.7;" d="M 196.25 35.851562 L 195.894531 36.03125 L 195.035156 36.425781 L 194.519531 36.636719 L 194 36.820312 L 193.515625 36.945312 L 193.105469 36.992188 L 192.734375 36.957031 L 192.253906 36.839844 L 191.710938 36.667969 L 191.15625 36.46875 L 190.210938 36.09375 L 189.808594 35.921875 L 193.230469 47.886719 Z M 196.25 35.851562 "/>
<path style="fill:none;stroke-width:1;stroke-linecap:butt;stroke-linejoin:miter;stroke:rgb(14.99939%,28.999329%,50%);stroke-opacity:0.7;stroke-miterlimit:3.25;" d="M 151.617188 9.578125 L 151.097656 10.085938 L 149.199219 11.9375 L 146.800781 14.277344 L 144.152344 16.863281 L 141.003906 19.933594 L 137.609375 23.246094 L 135.871094 25.246094 L 134.347656 27.335938 L 133.261719 29.613281 L 132.390625 31.980469 L 131.957031 34.527344 L 131.753906 36.992188 "/>
<path style=" stroke:none;fill-rule:nonzero;fill:rgb(14.99939%,28.999329%,50%);fill-opacity:0.7;" d="M 135.003906 35.914062 L 134.644531 36.085938 L 133.777344 36.464844 L 133.257812 36.664062 L 132.734375 36.835938 L 132.246094 36.953125 L 131.835938 36.992188 L 131.464844 36.949219 L 130.988281 36.820312 L 130.449219 36.640625 L 129.898438 36.429688 L 128.960938 36.035156 L 128.5625 35.855469 L 131.738281 47.886719 Z M 135.003906 35.914062 "/>
<path style="fill:none;stroke-width:1;stroke-linecap:butt;stroke-linejoin:miter;stroke:rgb(14.99939%,28.999329%,50%);stroke-opacity:0.7;stroke-miterlimit:3.25;" d="M 151.328125 9.175781 L 122.429688 23.449219 "/>
<path style=" stroke:none;fill-rule:nonzero;fill:rgb(14.99939%,28.999329%,50%);fill-opacity:0.7;" d="M 124.820312 25.789062 L 124.503906 25.542969 L 123.777344 24.941406 L 123.363281 24.566406 L 122.972656 24.179688 L 122.648438 23.796875 L 122.429688 23.449219 L 122.300781 23.097656 L 122.199219 22.613281 L 122.121094 22.050781 L 122.058594 21.464844 L 121.988281 20.449219 L 121.96875 20.011719 L 112.664062 28.269531 Z M 124.820312 25.789062 "/>
<path style="fill:none;stroke-width:1;stroke-linecap:butt;stroke-linejoin:miter;stroke:rgb(14.99939%,28.999329%,50%);stroke-opacity:0.7;stroke-miterlimit:3.25;" d="M 8.761719 51.050781 L 8.761719 102.757812 L 8.871094 104.046875 L 9.050781 105.285156 L 9.300781 106.46875 L 9.625 107.601562 L 10.167969 108.578125 L 10.777344 109.503906 L 11.460938 110.375 L 12.21875 111.199219 L 13.191406 111.863281 L 14.234375 112.476562 L 15.351562 113.039062 L 16.539062 113.550781 L 23.039062 115.714844 L 29.265625 117.792969 L 35.226562 119.777344 L 40.914062 121.675781 L 45.792969 123.300781 L 50.40625 124.835938 L 54.746094 126.285156 L 58.417969 127.507812 "/>
<path style=" stroke:none;fill-rule:nonzero;fill:rgb(14.99939%,28.999329%,50%);fill-opacity:0.7;" d="M 58.363281 124.160156 L 58.417969 124.558594 L 58.511719 125.496094 L 58.539062 126.054688 L 58.542969 126.605469 L 58.507812 127.105469 L 58.417969 127.507812 L 58.257812 127.847656 L 57.992188 128.261719 L 57.652344 128.71875 L 57.285156 129.179688 L 56.621094 129.949219 L 56.328125 130.273438 L 68.75 130.953125 Z M 58.363281 124.160156 "/>
<path style="fill:none;stroke-width:1;stroke-linecap:butt;stroke-linejoin:miter;stroke:rgb(14.99939%,28.999329%,50%);stroke-opacity:0.7;stroke-miterlimit:3.25;" d="M 10.332031 49.664062 L 160.355469 68.417969 "/>
<path style=" stroke:none;fill-rule:nonzero;fill:rgb(14.99939%,28.999329%,50%);fill-opacity:0.7;" d="M 159.648438 65.144531 L 159.777344 65.523438 L 160.050781 66.425781 L 160.191406 66.964844 L 160.300781 67.507812 L 160.363281 68.003906 L 160.355469 68.417969 L 160.265625 68.78125 L 160.085938 69.242188 L 159.84375 69.753906 L 159.570312 70.277344 L 159.074219 71.164062 L 158.847656 71.539062 L 171.164062 69.769531 Z M 159.648438 65.144531 "/>
<path style="fill:none;stroke-width:1;stroke-linecap:butt;stroke-linejoin:miter;stroke:rgb(14.99939%,28.999329%,50%);stroke-opacity:0.7;stroke-miterlimit:3.25;" d="M 214.84375 30.089844 L 226.023438 41.269531 L 228.757812 44 L 231.488281 46.734375 L 245.898438 61.144531 "/>
<path style=" stroke:none;fill-rule:nonzero;fill:rgb(14.99939%,28.999329%,50%);fill-opacity:0.7;" d="M 247.347656 58.128906 L 247.21875 58.503906 L 246.878906 59.386719 L 246.660156 59.898438 L 246.414062 60.390625 L 246.15625 60.824219 L 245.898438 61.144531 L 245.605469 61.375 L 245.179688 61.628906 L 244.671875 61.882812 L 244.136719 62.128906 L 243.199219 62.523438 L 242.792969 62.683594 L 253.601562 68.84375 Z M 247.347656 58.128906 "/>
<path style="fill:none;stroke-width:1;stroke-linecap:butt;stroke-linejoin:miter;stroke:rgb(14.99939%,28.999329%,50%);stroke-opacity:0.7;stroke-miterlimit:3.25;" d="M 212.175781 29.28125 L 123.476562 47.019531 "/>
<path style=" stroke:none;fill-rule:nonzero;fill:rgb(14.99939%,28.999329%,50%);fill-opacity:0.7;" d="M 125.179688 49.902344 L 124.9375 49.582031 L 124.390625 48.8125 L 124.089844 48.34375 L 123.8125 47.867188 L 123.597656 47.414062 L 123.476562 47.019531 L 123.445312 46.648438 L 123.472656 46.152344 L 123.539062 45.589844 L 123.632812 45.007812 L 123.824219 44.011719 L 123.917969 43.582031 L 112.796875 49.15625 Z M 125.179688 49.902344 "/>
<path style="fill:none;stroke-width:1;stroke-linecap:butt;stroke-linejoin:miter;stroke:rgb(14.99939%,28.999329%,50%);stroke-opacity:0.7;stroke-miterlimit:3.25;" d="M 212.605469 30.089844 L 202.050781 40.648438 "/>
<path style=" stroke:none;fill-rule:nonzero;fill:rgb(14.99939%,28.999329%,50%);fill-opacity:0.7;" d="M 205.066406 42.097656 L 204.6875 41.96875 L 203.804688 41.628906 L 203.296875 41.40625 L 202.800781 41.164062 L 202.371094 40.90625 L 202.050781 40.648438 L 201.816406 40.355469 L 201.566406 39.929688 L 201.308594 39.421875 L 201.0625 38.886719 L 200.667969 37.949219 L 200.511719 37.542969 L 194.347656 48.347656 Z M 205.066406 42.097656 "/>
<path style="fill:none;stroke-width:1;stroke-linecap:butt;stroke-linejoin:miter;stroke:rgb(14.99939%,28.999329%,50%);stroke-opacity:0.7;stroke-miterlimit:3.25;" d="M 212.191406 29.355469 L 143.84375 46.441406 "/>
<path style=" stroke:none;fill-rule:nonzero;fill:rgb(14.99939%,28.999329%,50%);fill-opacity:0.7;" d="M 145.683594 49.238281 L 145.425781 48.929688 L 144.84375 48.1875 L 144.519531 47.734375 L 144.21875 47.273438 L 143.984375 46.828125 L 143.84375 46.441406 L 143.792969 46.070312 L 143.796875 45.578125 L 143.835938 45.007812 L 143.902344 44.425781 L 144.046875 43.417969 L 144.121094 42.988281 L 133.273438 49.082031 Z M 145.683594 49.238281 "/>
<path style="fill:none;stroke-width:1;stroke-linecap:butt;stroke-linejoin:miter;stroke:rgb(14.99939%,28.999329%,50%);stroke-opacity:0.7;stroke-miterlimit:3.25;" d="M 292.382812 29.617188 L 293.382812 30.066406 L 294.730469 30.667969 L 296.15625 31.308594 L 297.667969 31.984375 L 299.261719 32.699219 L 301.179688 33.558594 L 303.183594 34.457031 L 305.269531 35.390625 L 307.4375 36.359375 L 309.6875 37.367188 L 312.019531 38.414062 L 314.683594 39.605469 L 317.425781 40.832031 L 320.25 42.097656 L 323.160156 43.402344 L 326.148438 44.742188 L 329.222656 46.117188 L 329.992188 46.527344 L 330.730469 46.960938 L 331.4375 47.414062 L 332.117188 47.886719 L 332.761719 48.378906 L 333.378906 48.890625 L 333.871094 49.480469 L 334.332031 50.09375 L 334.765625 50.722656 L 335.164062 51.375 L 335.535156 52.046875 L 335.871094 52.738281 L 336.085938 53.527344 L 336.273438 54.453125 L 336.425781 55.625 L 336.550781 57.160156 L 336.640625 59.167969 L 336.703125 61.765625 L 336.636719 62.621094 L 336.539062 63.449219 L 336.40625 64.246094 L 336.238281 65.019531 L 336.039062 65.761719 L 335.808594 66.480469 L 335.441406 67.082031 L 335.042969 67.660156 L 334.609375 68.210938 L 334.144531 68.730469 L 333.648438 69.222656 L 333.117188 69.6875 L 332.453125 70.042969 L 331.753906 70.367188 L 331.023438 70.667969 L 330.257812 70.9375 L 329.460938 71.179688 L 328.632812 71.394531 L 319.753906 72.96875 L 311.128906 74.496094 L 302.757812 75.980469 L 294.636719 77.421875 L 286.769531 78.816406 L 279.152344 80.164062 L 272.546875 81.335938 L 266.191406 82.460938 L 260.089844 83.542969 L 254.242188 84.582031 L 248.644531 85.574219 L 243.296875 86.519531 L 238.960938 87.289062 L 234.878906 88.011719 L 233.351562 88.28125 "/>
<path style=" stroke:none;fill-rule:nonzero;fill:rgb(14.99939%,28.999329%,50%);fill-opacity:0.7;" d="M 234.992188 91.199219 L 234.757812 90.875 L 234.226562 90.09375 L 233.933594 89.621094 L 233.667969 89.136719 L 233.464844 88.679688 L 233.351562 88.28125 L 233.328125 87.910156 L 233.363281 87.417969 L 233.445312 86.855469 L 233.550781 86.273438 L 233.765625 85.28125 L 233.867188 84.855469 L 222.625 90.183594 Z M 234.992188 91.199219 "/>
<path style="fill:none;stroke-width:1;stroke-linecap:butt;stroke-linejoin:miter;stroke:rgb(14.99939%,28.999329%,50%);stroke-opacity:0.7;stroke-miterlimit:3.25;" d="M 292.167969 29.96875 L 292.808594 30.488281 L 293.816406 31.304688 L 294.867188 32.160156 L 296.0625 33.128906 L 297.300781 34.132812 L 298.589844 35.175781 L 299.921875 36.257812 L 301.398438 37.453125 L 302.917969 38.6875 L 304.484375 39.960938 L 306.101562 41.269531 L 307.464844 42.546875 L 308.617188 43.765625 L 309.558594 44.925781 L 310.285156 46.027344 L 310.371094 46.953125 L 310.246094 47.820312 L 309.910156 48.625 L 309.359375 49.375 L 308.167969 49.945312 L 306.765625 50.460938 L 305.152344 50.914062 L 303.324219 51.308594 L 287.359375 53.589844 L 272.070312 55.773438 L 257.460938 57.859375 L 243.527344 59.851562 L 231.628906 61.550781 L 220.40625 63.152344 L 209.863281 64.660156 L 199.996094 66.070312 L 192.164062 67.1875 L 185.082031 68.199219 "/>
<path style=" stroke:none;fill-rule:nonzero;fill:rgb(14.99939%,28.999329%,50%);fill-opacity:0.7;" d="M 186.625 71.167969 L 186.398438 70.839844 L 185.898438 70.039062 L 185.621094 69.554688 L 185.371094 69.0625 L 185.183594 68.597656 L 185.082031 68.199219 L 185.070312 67.828125 L 185.125 67.332031 L 185.222656 66.773438 L 185.347656 66.199219 L 185.597656 65.214844 L 185.714844 64.792969 L 174.300781 69.738281 Z M 186.625 71.167969 "/>
<path style="fill:none;stroke-width:1;stroke-linecap:butt;stroke-linejoin:miter;stroke:rgb(14.99939%,28.999329%,50%);stroke-opacity:0.7;stroke-miterlimit:3.25;" d="M 289.390625 29.296875 L 205.4375 46.90625 "/>
<path style=" stroke:none;fill-rule:nonzero;fill:rgb(14.99939%,28.999329%,50%);fill-opacity:0.7;" d="M 207.171875 49.769531 L 206.925781 49.453125 L 206.371094 48.691406 L 206.0625 48.226562 L 205.785156 47.75 L 205.5625 47.300781 L 205.4375 46.90625 L 205.402344 46.535156 L 205.425781 46.039062 L 205.488281 45.476562 L 205.574219 44.894531 L 205.757812 43.894531 L 205.847656 43.464844 L 194.777344 49.144531 Z M 207.171875 49.769531 "/>
<path style="fill:none;stroke-width:1;stroke-linecap:butt;stroke-linejoin:miter;stroke:rgb(14.99939%,28.999329%,50%);stroke-opacity:0.7;stroke-miterlimit:3.25;" d="M 289.976562 30.226562 L 282.808594 39.570312 "/>
<path style=" stroke:none;fill-rule:nonzero;fill:rgb(14.99939%,28.999329%,50%);fill-opacity:0.7;" d="M 285.988281 40.613281 L 285.59375 40.535156 L 284.675781 40.316406 L 284.140625 40.164062 L 283.621094 39.984375 L 283.160156 39.785156 L 282.808594 39.570312 L 282.539062 39.3125 L 282.234375 38.921875 L 281.910156 38.453125 L 281.597656 37.953125 L 281.085938 37.074219 L 280.875 36.691406 L 276.175781 48.210938 Z M 285.988281 40.613281 "/>
<path style="fill:none;stroke-width:1;stroke-linecap:butt;stroke-linejoin:miter;stroke:rgb(14.99939%,28.999329%,50%);stroke-opacity:0.7;stroke-miterlimit:3.25;" d="M 286.304688 9.089844 L 287.375 9.539062 L 288.746094 10.117188 L 290.191406 10.726562 L 291.710938 11.363281 L 293.300781 12.035156 L 295.183594 12.828125 L 297.136719 13.648438 L 299.164062 14.503906 L 301.265625 15.386719 L 303.4375 16.300781 L 305.683594 17.246094 L 308.21875 18.316406 L 310.828125 19.414062 L 313.511719 20.542969 L 316.265625 21.703125 L 319.09375 22.890625 L 321.992188 24.113281 L 323.257812 24.679688 L 324.515625 25.261719 L 325.765625 25.855469 L 327.003906 26.464844 L 328.234375 27.085938 L 329.457031 27.722656 L 330.644531 28.414062 L 331.824219 29.117188 L 332.996094 29.835938 L 334.160156 30.570312 L 335.3125 31.316406 L 336.460938 32.074219 L 337.59375 32.910156 L 338.851562 33.871094 L 340.359375 35.074219 L 342.257812 36.632812 L 344.671875 38.660156 L 347.734375 41.269531 L 348.605469 42.125 L 349.386719 42.949219 L 350.078125 43.75 L 350.679688 44.519531 L 351.191406 45.261719 L 351.609375 45.976562 L 351.671875 46.578125 L 351.640625 47.152344 L 351.519531 47.699219 L 351.308594 48.21875 L 351.007812 48.710938 L 350.617188 49.171875 L 349.863281 49.519531 L 349.023438 49.84375 L 348.089844 50.136719 L 347.070312 50.402344 L 345.957031 50.640625 L 344.753906 50.851562 L 330.546875 52.429688 L 316.746094 53.960938 L 303.351562 55.449219 L 290.355469 56.894531 L 277.769531 58.292969 L 265.582031 59.648438 L 255.015625 60.820312 L 244.851562 61.949219 L 235.09375 63.035156 L 225.738281 64.074219 L 216.789062 65.070312 L 208.242188 66.019531 L 201.3125 66.789062 L 194.789062 67.511719 L 188.667969 68.191406 L 185.132812 68.585938 "/>
<path style=" stroke:none;fill-rule:nonzero;fill:rgb(14.99939%,28.999329%,50%);fill-opacity:0.7;" d="M 186.582031 71.601562 L 186.367188 71.265625 L 185.886719 70.449219 L 185.628906 69.957031 L 185.394531 69.457031 L 185.21875 68.988281 L 185.132812 68.585938 L 185.132812 68.214844 L 185.203125 67.722656 L 185.316406 67.164062 L 185.460938 66.59375 L 185.738281 65.617188 L 185.871094 65.199219 L 174.304688 69.789062 Z M 186.582031 71.601562 "/>
<path style="fill:none;stroke-width:1;stroke-linecap:butt;stroke-linejoin:miter;stroke:rgb(14.99939%,28.999329%,50%);stroke-opacity:0.7;stroke-miterlimit:3.25;" d="M 283.324219 8.914062 L 225.710938 25.515625 "/>
<path style=" stroke:none;fill-rule:nonzero;fill:rgb(14.99939%,28.999329%,50%);fill-opacity:0.7;" d="M 227.652344 28.246094 L 227.382812 27.949219 L 226.773438 27.226562 L 226.433594 26.785156 L 226.121094 26.332031 L 225.867188 25.898438 L 225.710938 25.515625 L 225.648438 25.148438 L 225.636719 24.652344 L 225.65625 24.085938 L 225.699219 23.5 L 225.808594 22.488281 L 225.867188 22.054688 L 215.246094 28.53125 Z M 227.652344 28.246094 "/>
<path style="fill-rule:evenodd;fill:rgb(63.998413%,70.399475%,79.998779%);fill-opacity:1;stroke-width:1;stroke-linecap:square;stroke-linejoin:miter;stroke:rgb(0%,0%,0%);stroke-opacity:0.7;stroke-miterlimit:3.25;" d="M 161.582031 152 C 161.582031 151.582031 161.414062 151.179688 161.117188 150.882812 C 160.820312 150.585938 160.417969 150.417969 160 150.417969 C 159.582031 150.417969 159.179688 150.585938 158.882812 150.882812 C 158.585938 151.179688 158.417969 151.582031 158.417969 152 C 158.417969 152.417969 158.585938 152.820312 158.882812 153.117188 C 159.179688 153.414062 159.582031 153.582031 160 153.582031 C 160.417969 153.582031 160.820312 153.414062 161.117188 153.117188 C 161.414062 152.820312 161.582031 152.417969 161.582031 152 Z M 161.582031 152 "/>
<path style="fill-rule:evenodd;fill:rgb(63.998413%,70.399475%,79.998779%);fill-opacity:1;stroke-width:1;stroke-linecap:square;stroke-linejoin:miter;stroke:rgb(0%,0%,0%);stroke-opacity:0.7;stroke-miterlimit:3.25;" d="M 71.582031 131 C 71.582031 130.582031 71.414062 130.179688 71.117188 129.882812 C 70.820312 129.585938 70.417969 129.417969 70 129.417969 C 69.582031 129.417969 69.179688 129.585938 68.882812 129.882812 C 68.585938 130.179688 68.417969 130.582031 68.417969 131 C 68.417969 131.417969 68.585938 131.820312 68.882812 132.117188 C 69.179688 132.414062 69.582031 132.582031 70 132.582031 C 70.417969 132.582031 70.820312 132.414062 71.117188 132.117188 C 71.414062 131.820312 71.582031 131.417969 71.582031 131 Z M 71.582031 131 "/>
<path style="fill-rule:evenodd;fill:rgb(63.998413%,70.399475%,79.998779%);fill-opacity:1;stroke-width:1;stroke-linecap:square;stroke-linejoin:miter;stroke:rgb(0%,0%,0%);stroke-opacity:0.7;stroke-miterlimit:3.25;" d="M 194.582031 111 C 194.582031 110.582031 194.414062 110.179688 194.117188 109.882812 C 193.820312 109.585938 193.417969 109.417969 193 109.417969 C 192.582031 109.417969 192.179688 109.585938 191.882812 109.882812 C 191.585938 110.179688 191.417969 110.582031 191.417969 111 C 191.417969 111.417969 191.585938 111.820312 191.882812 112.117188 C 192.179688 112.414062 192.582031 112.582031 193 112.582031 C 193.417969 112.582031 193.820312 112.414062 194.117188 112.117188 C 194.414062 111.820312 194.582031 111.417969 194.582031 111 Z M 194.582031 111 "/>
<path style="fill-rule:evenodd;fill:rgb(63.998413%,70.399475%,79.998779%);fill-opacity:1;stroke-width:1;stroke-linecap:square;stroke-linejoin:miter;stroke:rgb(0%,0%,0%);stroke-opacity:0.7;stroke-miterlimit:3.25;" d="M 222.582031 90 C 222.582031 89.582031 222.414062 89.179688 222.117188 88.882812 C 221.820312 88.585938 221.417969 88.417969 221 88.417969 C 220.582031 88.417969 220.179688 88.585938 219.882812 88.882812 C 219.585938 89.179688 219.417969 89.582031 219.417969 90 C 219.417969 90.417969 219.585938 90.820312 219.882812 91.117188 C 220.179688 91.414062 220.582031 91.582031 221 91.582031 C 221.417969 91.582031 221.820312 91.414062 222.117188 91.117188 C 222.414062 90.820312 222.582031 90.417969 222.582031 90 Z M 222.582031 90 "/>
<path style="fill-rule:evenodd;fill:rgb(63.998413%,70.399475%,79.998779%);fill-opacity:1;stroke-width:1;stroke-linecap:square;stroke-linejoin:miter;stroke:rgb(0%,0%,0%);stroke-opacity:0.7;stroke-miterlimit:3.25;" d="M 174.582031 70 C 174.582031 69.582031 174.414062 69.179688 174.117188 68.882812 C 173.820312 68.585938 173.417969 68.417969 173 68.417969 C 172.582031 68.417969 172.179688 68.585938 171.882812 68.882812 C 171.585938 69.179688 171.417969 69.582031 171.417969 70 C 171.417969 70.417969 171.585938 70.820312 171.882812 71.117188 C 172.179688 71.414062 172.582031 71.582031 173 71.582031 C 173.417969 71.582031 173.820312 71.414062 174.117188 71.117188 C 174.414062 70.820312 174.582031 70.417969 174.582031 70 Z M 174.582031 70 "/>
<path style="fill-rule:evenodd;fill:rgb(63.998413%,70.399475%,79.998779%);fill-opacity:1;stroke-width:1;stroke-linecap:square;stroke-linejoin:miter;stroke:rgb(0%,0%,0%);stroke-opacity:0.7;stroke-miterlimit:3.25;" d="M 133.582031 70 C 133.582031 69.582031 133.414062 69.179688 133.117188 68.882812 C 132.820312 68.585938 132.417969 68.417969 132 68.417969 C 131.582031 68.417969 131.179688 68.585938 130.882812 68.882812 C 130.585938 69.179688 130.417969 69.582031 130.417969 70 C 130.417969 70.417969 130.585938 70.820312 130.882812 71.117188 C 131.179688 71.414062 131.582031 71.582031 132 71.582031 C 132.417969 71.582031 132.820312 71.414062 133.117188 71.117188 C 133.414062 70.820312 133.582031 70.417969 133.582031 70 Z M 133.582031 70 "/>
<path style="fill-rule:evenodd;fill:rgb(63.998413%,70.399475%,79.998779%);fill-opacity:1;stroke-width:1;stroke-linecap:square;stroke-linejoin:miter;stroke:rgb(0%,0%,0%);stroke-opacity:0.7;stroke-miterlimit:3.25;" d="M 256.582031 70 C 256.582031 69.582031 256.414062 69.179688 256.117188 68.882812 C 255.820312 68.585938 255.417969 68.417969 255 68.417969 C 254.582031 68.417969 254.179688 68.585938 253.882812 68.882812 C 253.585938 69.179688 253.417969 69.582031 253.417969 70 C 253.417969 70.417969 253.585938 70.820312 253.882812 71.117188 C 254.179688 71.414062 254.582031 71.582031 255 71.582031 C 255.417969 71.582031 255.820312 71.414062 256.117188 71.117188 C 256.414062 70.820312 256.582031 70.417969 256.582031 70 Z M 256.582031 70 "/>
<path style="fill-rule:evenodd;fill:rgb(63.998413%,70.399475%,79.998779%);fill-opacity:1;stroke-width:1;stroke-linecap:square;stroke-linejoin:miter;stroke:rgb(0%,0%,0%);stroke-opacity:0.7;stroke-miterlimit:3.25;" d="M 112.582031 49 C 112.582031 48.582031 112.414062 48.179688 112.117188 47.882812 C 111.820312 47.585938 111.417969 47.417969 111 47.417969 C 110.582031 47.417969 110.179688 47.585938 109.882812 47.882812 C 109.585938 48.179688 109.417969 48.582031 109.417969 49 C 109.417969 49.417969 109.585938 49.820312 109.882812 50.117188 C 110.179688 50.414062 110.582031 50.582031 111 50.582031 C 111.417969 50.582031 111.820312 50.414062 112.117188 50.117188 C 112.414062 49.820312 112.582031 49.417969 112.582031 49 Z M 112.582031 49 "/>
<path style="fill-rule:evenodd;fill:rgb(63.998413%,70.399475%,79.998779%);fill-opacity:1;stroke-width:1;stroke-linecap:square;stroke-linejoin:miter;stroke:rgb(0%,0%,0%);stroke-opacity:0.7;stroke-miterlimit:3.25;" d="M 215.582031 49 C 215.582031 48.582031 215.414062 48.179688 215.117188 47.882812 C 214.820312 47.585938 214.417969 47.417969 214 47.417969 C 213.582031 47.417969 213.179688 47.585938 212.882812 47.882812 C 212.585938 48.179688 212.417969 48.582031 212.417969 49 C 212.417969 49.417969 212.585938 49.820312 212.882812 50.117188 C 213.179688 50.414062 213.582031 50.582031 214 50.582031 C 214.417969 50.582031 214.820312 50.414062 215.117188 50.117188 C 215.414062 49.820312 215.582031 49.417969 215.582031 49 Z M 215.582031 49 "/>
<path style="fill-rule:evenodd;fill:rgb(63.998413%,70.399475%,79.998779%);fill-opacity:1;stroke-width:1;stroke-linecap:square;stroke-linejoin:miter;stroke:rgb(0%,0%,0%);stroke-opacity:0.7;stroke-miterlimit:3.25;" d="M 194.582031 49 C 194.582031 48.582031 194.414062 48.179688 194.117188 47.882812 C 193.820312 47.585938 193.417969 47.417969 193 47.417969 C 192.582031 47.417969 192.179688 47.585938 191.882812 47.882812 C 191.585938 48.179688 191.417969 48.582031 191.417969 49 C 191.417969 49.417969 191.585938 49.820312 191.882812 50.117188 C 192.179688 50.414062 192.582031 50.582031 193 50.582031 C 193.417969 50.582031 193.820312 50.414062 194.117188 50.117188 C 194.414062 49.820312 194.582031 49.417969 194.582031 49 Z M 194.582031 49 "/>
<path style="fill-rule:evenodd;fill:rgb(63.998413%,70.399475%,79.998779%);fill-opacity:1;stroke-width:1;stroke-linecap:square;stroke-linejoin:miter;stroke:rgb(0%,0%,0%);stroke-opacity:0.7;stroke-miterlimit:3.25;" d="M 276.582031 49 C 276.582031 48.582031 276.414062 48.179688 276.117188 47.882812 C 275.820312 47.585938 275.417969 47.417969 275 47.417969 C 274.582031 47.417969 274.179688 47.585938 273.882812 47.882812 C 273.585938 48.179688 273.417969 48.582031 273.417969 49 C 273.417969 49.417969 273.585938 49.820312 273.882812 50.117188 C 274.179688 50.414062 274.582031 50.582031 275 50.582031 C 275.417969 50.582031 275.820312 50.414062 276.117188 50.117188 C 276.414062 49.820312 276.582031 49.417969 276.582031 49 Z M 276.582031 49 "/>
<path style="fill-rule:evenodd;fill:rgb(63.998413%,70.399475%,79.998779%);fill-opacity:1;stroke-width:1;stroke-linecap:square;stroke-linejoin:miter;stroke:rgb(0%,0%,0%);stroke-opacity:0.7;stroke-miterlimit:3.25;" d="M 133.582031 49 C 133.582031 48.582031 133.414062 48.179688 133.117188 47.882812 C 132.820312 47.585938 132.417969 47.417969 132 47.417969 C 131.582031 47.417969 131.179688 47.585938 130.882812 47.882812 C 130.585938 48.179688 130.417969 48.582031 130.417969 49 C 130.417969 49.417969 130.585938 49.820312 130.882812 50.117188 C 131.179688 50.414062 131.582031 50.582031 132 50.582031 C 132.417969 50.582031 132.820312 50.414062 133.117188 50.117188 C 133.414062 49.820312 133.582031 49.417969 133.582031 49 Z M 133.582031 49 "/>
<path style="fill-rule:evenodd;fill:rgb(63.998413%,70.399475%,79.998779%);fill-opacity:1;stroke-width:1;stroke-linecap:square;stroke-linejoin:miter;stroke:rgb(0%,0%,0%);stroke-opacity:0.7;stroke-miterlimit:3.25;" d="M 240.582031 29 C 240.582031 28.582031 240.414062 28.179688 240.117188 27.882812 C 239.820312 27.585938 239.417969 27.417969 239 27.417969 C 238.582031 27.417969 238.179688 27.585938 237.882812 27.882812 C 237.585938 28.179688 237.417969 28.582031 237.417969 29 C 237.417969 29.417969 237.585938 29.820312 237.882812 30.117188 C 238.179688 30.414062 238.582031 30.582031 239 30.582031 C 239.417969 30.582031 239.820312 30.414062 240.117188 30.117188 C 240.414062 29.820312 240.582031 29.417969 240.582031 29 Z M 240.582031 29 "/>
<path style="fill-rule:evenodd;fill:rgb(63.998413%,70.399475%,79.998779%);fill-opacity:1;stroke-width:1;stroke-linecap:square;stroke-linejoin:miter;stroke:rgb(0%,0%,0%);stroke-opacity:0.7;stroke-miterlimit:3.25;" d="M 112.582031 29 C 112.582031 28.582031 112.414062 28.179688 112.117188 27.882812 C 111.820312 27.585938 111.417969 27.417969 111 27.417969 C 110.582031 27.417969 110.179688 27.585938 109.882812 27.882812 C 109.585938 28.179688 109.417969 28.582031 109.417969 29 C 109.417969 29.417969 109.585938 29.820312 109.882812 30.117188 C 110.179688 30.414062 110.582031 30.582031 111 30.582031 C 111.417969 30.582031 111.820312 30.414062 112.117188 30.117188 C 112.414062 29.820312 112.582031 29.417969 112.582031 29 Z M 112.582031 29 "/>
<path style="fill-rule:evenodd;fill:rgb(63.998413%,70.399475%,79.998779%);fill-opacity:1;stroke-width:1;stroke-linecap:square;stroke-linejoin:miter;stroke:rgb(0%,0%,0%);stroke-opacity:0.7;stroke-miterlimit:3.25;" d="M 153.582031 29 C 153.582031 28.582031 153.414062 28.179688 153.117188 27.882812 C 152.820312 27.585938 152.417969 27.417969 152 27.417969 C 151.582031 27.417969 151.179688 27.585938 150.882812 27.882812 C 150.585938 28.179688 150.417969 28.582031 150.417969 29 C 150.417969 29.417969 150.585938 29.820312 150.882812 30.117188 C 151.179688 30.414062 151.582031 30.582031 152 30.582031 C 152.417969 30.582031 152.820312 30.414062 153.117188 30.117188 C 153.414062 29.820312 153.582031 29.417969 153.582031 29 Z M 153.582031 29 "/>
<path style="fill-rule:evenodd;fill:rgb(63.998413%,70.399475%,79.998779%);fill-opacity:1;stroke-width:1;stroke-linecap:square;stroke-linejoin:miter;stroke:rgb(0%,0%,0%);stroke-opacity:0.7;stroke-miterlimit:3.25;" d="M 154.582031 8 C 154.582031 7.582031 154.414062 7.179688 154.117188 6.882812 C 153.820312 6.585938 153.417969 6.417969 153 6.417969 C 152.582031 6.417969 152.179688 6.585938 151.882812 6.882812 C 151.585938 7.179688 151.417969 7.582031 151.417969 8 C 151.417969 8.417969 151.585938 8.820312 151.882812 9.117188 C 152.179688 9.414062 152.582031 9.582031 153 9.582031 C 153.417969 9.582031 153.820312 9.414062 154.117188 9.117188 C 154.414062 8.820312 154.582031 8.417969 154.582031 8 Z M 154.582031 8 "/>
<path style="fill-rule:evenodd;fill:rgb(63.998413%,70.399475%,79.998779%);fill-opacity:1;stroke-width:1;stroke-linecap:square;stroke-linejoin:miter;stroke:rgb(0%,0%,0%);stroke-opacity:0.7;stroke-miterlimit:3.25;" d="M 10.582031 49 C 10.582031 48.582031 10.414062 48.179688 10.117188 47.882812 C 9.820312 47.585938 9.417969 47.417969 9 47.417969 C 8.582031 47.417969 8.179688 47.585938 7.882812 47.882812 C 7.585938 48.179688 7.417969 48.582031 7.417969 49 C 7.417969 49.417969 7.585938 49.820312 7.882812 50.117188 C 8.179688 50.414062 8.582031 50.582031 9 50.582031 C 9.417969 50.582031 9.820312 50.414062 10.117188 50.117188 C 10.414062 49.820312 10.582031 49.417969 10.582031 49 Z M 10.582031 49 "/>
<path style="fill-rule:evenodd;fill:rgb(63.998413%,70.399475%,79.998779%);fill-opacity:1;stroke-width:1;stroke-linecap:square;stroke-linejoin:miter;stroke:rgb(0%,0%,0%);stroke-opacity:0.7;stroke-miterlimit:3.25;" d="M 215.582031 29 C 215.582031 28.582031 215.414062 28.179688 215.117188 27.882812 C 214.820312 27.585938 214.417969 27.417969 214 27.417969 C 213.582031 27.417969 213.179688 27.585938 212.882812 27.882812 C 212.585938 28.179688 212.417969 28.582031 212.417969 29 C 212.417969 29.417969 212.585938 29.820312 212.882812 30.117188 C 213.179688 30.414062 213.582031 30.582031 214 30.582031 C 214.417969 30.582031 214.820312 30.414062 215.117188 30.117188 C 215.414062 29.820312 215.582031 29.417969 215.582031 29 Z M 215.582031 29 "/>
<path style="fill-rule:evenodd;fill:rgb(63.998413%,70.399475%,79.998779%);fill-opacity:1;stroke-width:1;stroke-linecap:square;stroke-linejoin:miter;stroke:rgb(0%,0%,0%);stroke-opacity:0.7;stroke-miterlimit:3.25;" d="M 292.582031 29 C 292.582031 28.582031 292.414062 28.179688 292.117188 27.882812 C 291.820312 27.585938 291.417969 27.417969 291 27.417969 C 290.582031 27.417969 290.179688 27.585938 289.882812 27.882812 C 289.585938 28.179688 289.417969 28.582031 289.417969 29 C 289.417969 29.417969 289.585938 29.820312 289.882812 30.117188 C 290.179688 30.414062 290.582031 30.582031 291 30.582031 C 291.417969 30.582031 291.820312 30.414062 292.117188 30.117188 C 292.414062 29.820312 292.582031 29.417969 292.582031 29 Z M 292.582031 29 "/>
<path style="fill-rule:evenodd;fill:rgb(63.998413%,70.399475%,79.998779%);fill-opacity:1;stroke-width:1;stroke-linecap:square;stroke-linejoin:miter;stroke:rgb(0%,0%,0%);stroke-opacity:0.7;stroke-miterlimit:3.25;" d="M 286.582031 8 C 286.582031 7.582031 286.414062 7.179688 286.117188 6.882812 C 285.820312 6.585938 285.417969 6.417969 285 6.417969 C 284.582031 6.417969 284.179688 6.585938 283.882812 6.882812 C 283.585938 7.179688 283.417969 7.582031 283.417969 8 C 283.417969 8.417969 283.585938 8.820312 283.882812 9.117188 C 284.179688 9.414062 284.582031 9.582031 285 9.582031 C 285.417969 9.582031 285.820312 9.414062 286.117188 9.117188 C 286.414062 8.820312 286.582031 8.417969 286.582031 8 Z M 286.582031 8 "/>
</g>
</svg>
