<?xml version="1.0" encoding="UTF-8" standalone="no"?>
<svg
   xmlns:dc="http://purl.org/dc/elements/1.1/"
   xmlns:cc="http://creativecommons.org/ns#"
   xmlns:rdf="http://www.w3.org/1999/02/22-rdf-syntax-ns#"
   xmlns:svg="http://www.w3.org/2000/svg"
   xmlns="http://www.w3.org/2000/svg"
   xmlns:sodipodi="http://sodipodi.sourceforge.net/DTD/sodipodi-0.dtd"
   xmlns:inkscape="http://www.inkscape.org/namespaces/inkscape"
   width="353pt"
   height="225pt"
   viewBox="0 0 353 225"
   version="1.1"
   id="svg4003"
   sodipodi:docname="Panel with DAGs.svg"
   inkscape:version="0.92.3 (2405546, 2018-03-11)"
   inkscape:export-filename="C:\Users\s379011\Dropbox\projects\2017network-rankings\docs\Panel with DAGs.svg.png"
   inkscape:export-xdpi="96"
   inkscape:export-ydpi="96">
  <metadata
     id="metadata4009">
    <rdf:RDF>
      <cc:Work
         rdf:about="">
        <dc:format>image/svg+xml</dc:format>
        <dc:type
           rdf:resource="http://purl.org/dc/dcmitype/StillImage" />
        <dc:title />
      </cc:Work>
    </rdf:RDF>
  </metadata>
  <defs
     id="defs4007" />
  <sodipodi:namedview
     pagecolor="#ffffff"
     bordercolor="#666666"
     borderopacity="1"
     objecttolerance="10"
     gridtolerance="10"
     guidetolerance="10"
     inkscape:pageopacity="0"
     inkscape:pageshadow="2"
     inkscape:window-width="1366"
     inkscape:window-height="706"
     id="namedview4005"
     showgrid="false"
     inkscape:zoom="0.63286057"
     inkscape:cx="43.089715"
     inkscape:cy="168.87942"
     inkscape:window-x="-8"
     inkscape:window-y="-8"
     inkscape:window-maximized="1"
     inkscape:current-layer="svg4003" />
  <g
     id="surface14"
     inkscape:export-xdpi="96"
     inkscape:export-ydpi="96">
    <path
       style="fill:none;stroke-width:1;stroke-linecap:butt;stroke-linejoin:miter;stroke:rgb(14.99939%,28.999329%,50%);stroke-opacity:0.7;stroke-miterlimit:3.25;"
       d="M 234.1875 195.78125 L 202.398438 215.160156 "
       id="path3862" />
    <path
       style=" stroke:none;fill-rule:nonzero;fill:rgb(14.99939%,28.999329%,50%);fill-opacity:0.7;"
       d="M 204.988281 217.277344 L 204.648438 217.0625 L 203.871094 216.527344 L 203.429688 216.191406 L 203.003906 215.839844 L 202.648438 215.488281 L 202.398438 215.160156 L 202.238281 214.820312 L 202.09375 214.347656 L 201.964844 213.792969 L 201.851562 213.214844 L 201.691406 212.210938 L 201.632812 211.777344 L 193.097656 220.828125 Z M 204.988281 217.277344 "
       id="path3864" />
    <path
       style="fill:none;stroke-width:1;stroke-linecap:butt;stroke-linejoin:miter;stroke:rgb(14.99939%,28.999329%,50%);stroke-opacity:0.7;stroke-miterlimit:3.25;"
       d="M 165.910156 169.734375 L 166.167969 170.304688 L 167.15625 172.476562 L 168.320312 175.042969 L 169.574219 177.804688 L 171.007812 180.964844 L 172.53125 184.320312 L 174.171875 187.859375 L 175.839844 191.386719 L 177.558594 194.886719 L 179.308594 198.371094 L 181.109375 201.832031 L 182.9375 205.277344 L 184.8125 208.742188 L 185.867188 210.691406 "
       id="path3866" />
    <path
       style=" stroke:none;fill-rule:nonzero;fill:rgb(14.99939%,28.999329%,50%);fill-opacity:0.7;"
       d="M 188.117188 208.214844 L 187.886719 208.542969 L 187.308594 209.289062 L 186.953125 209.714844 L 186.574219 210.121094 L 186.207031 210.460938 L 185.867188 210.691406 L 185.519531 210.832031 L 185.039062 210.953125 L 184.480469 211.054688 L 183.898438 211.136719 L 182.886719 211.246094 L 182.449219 211.28125 L 191.046875 220.273438 Z M 188.117188 208.214844 "
       id="path3868" />
    <path
       style="fill:none;stroke-width:1;stroke-linecap:butt;stroke-linejoin:miter;stroke:rgb(14.99939%,28.999329%,50%);stroke-opacity:0.7;stroke-miterlimit:3.25;"
       d="M 166.714844 168.878906 L 223.878906 190.570312 "
       id="path3870" />
    <path
       style=" stroke:none;fill-rule:nonzero;fill:rgb(14.99939%,28.999329%,50%);fill-opacity:0.7;"
       d="M 223.964844 187.222656 L 224 187.621094 L 224.054688 188.5625 L 224.0625 189.121094 L 224.042969 189.671875 L 223.984375 190.171875 L 223.878906 190.570312 L 223.707031 190.902344 L 223.421875 191.304688 L 223.066406 191.75 L 222.679688 192.191406 L 221.984375 192.933594 L 221.679688 193.246094 L 234.0625 194.433594 Z M 223.964844 187.222656 "
       id="path3872" />
    <path
       style="fill:none;stroke-width:1;stroke-linecap:butt;stroke-linejoin:miter;stroke:rgb(14.99939%,28.999329%,50%);stroke-opacity:0.7;stroke-miterlimit:3.25;"
       d="M 218.574219 143.222656 L 218.574219 157.671875 L 218.535156 158.847656 L 218.480469 160.019531 L 218.40625 161.1875 L 218.316406 162.351562 L 218.207031 163.511719 L 218.078125 164.667969 L 217.878906 165.808594 L 217.65625 166.945312 L 217.421875 168.078125 L 217.164062 169.207031 L 216.890625 170.332031 L 216.597656 171.453125 L 216.21875 172.585938 L 215.742188 173.890625 L 215.085938 175.542969 L 214.167969 177.714844 L 212.914062 180.582031 L 211.238281 184.320312 L 210.6875 185.5 L 210.136719 186.683594 L 209.582031 187.859375 L 209.023438 189.035156 L 207.898438 191.386719 L 207.320312 192.554688 L 206.742188 193.71875 L 206.160156 194.882812 L 205.574219 196.046875 L 204.984375 197.210938 L 204.390625 198.371094 L 203.789062 199.523438 L 202.570312 201.828125 L 201.34375 204.125 L 200.722656 205.269531 L 200.078125 206.449219 L 199.449219 207.605469 L 198.828125 208.734375 L 198.222656 209.84375 L 197.746094 210.71875 "
       id="path3874" />
    <path
       style=" stroke:none;fill-rule:nonzero;fill:rgb(14.99939%,28.999329%,50%);fill-opacity:0.7;"
       d="M 201.046875 211.261719 L 200.648438 211.246094 L 199.707031 211.167969 L 199.152344 211.101562 L 198.609375 211.003906 L 198.125 210.878906 L 197.746094 210.71875 L 197.4375 210.503906 L 197.078125 210.167969 L 196.6875 209.753906 L 196.300781 209.308594 L 195.660156 208.519531 L 195.394531 208.171875 L 192.519531 220.277344 Z M 201.046875 211.261719 "
       id="path3876" />
    <path
       style="fill:none;stroke-width:1;stroke-linecap:butt;stroke-linejoin:miter;stroke:rgb(14.99939%,28.999329%,50%);stroke-opacity:0.7;stroke-miterlimit:3.25;"
       d="M 217.195312 142.371094 L 176.394531 162.769531 "
       id="path3878" />
    <path
       style=" stroke:none;fill-rule:nonzero;fill:rgb(14.99939%,28.999329%,50%);fill-opacity:0.7;"
       d="M 178.796875 165.097656 L 178.480469 164.855469 L 177.75 164.257812 L 177.335938 163.886719 L 176.941406 163.5 L 176.617188 163.117188 L 176.394531 162.769531 L 176.265625 162.417969 L 176.160156 161.933594 L 176.078125 161.375 L 176.015625 160.789062 L 175.9375 159.773438 L 175.917969 159.335938 L 166.652344 167.640625 Z M 178.796875 165.097656 "
       id="path3880" />
    <path
       style="fill:none;stroke-width:1;stroke-linecap:butt;stroke-linejoin:miter;stroke:rgb(14.99939%,28.999329%,50%);stroke-opacity:0.7;stroke-miterlimit:3.25;"
       d="M 245.222656 116.574219 L 245.222656 157.671875 L 245.191406 158.851562 L 245.148438 160.027344 L 245.085938 161.199219 L 245.011719 162.371094 L 244.921875 163.539062 L 244.816406 164.707031 L 244.652344 165.859375 L 244.46875 167.015625 L 244.273438 168.164062 L 244.066406 169.3125 L 243.839844 170.457031 L 243.597656 171.597656 L 243.296875 172.730469 L 242.984375 173.859375 L 242.652344 174.984375 L 242.304688 176.105469 L 241.945312 177.226562 L 241.570312 178.34375 L 241.128906 179.550781 L 240.699219 180.734375 L 240.277344 181.894531 L 239.863281 183.027344 L 239.765625 183.300781 "
       id="path3882" />
    <path
       style=" stroke:none;fill-rule:nonzero;fill:rgb(14.99939%,28.999329%,50%);fill-opacity:0.7;"
       d="M 243.109375 183.339844 L 242.710938 183.382812 L 241.769531 183.449219 L 241.214844 183.464844 L 240.664062 183.449219 L 240.164062 183.398438 L 239.765625 183.300781 L 239.429688 183.132812 L 239.019531 182.851562 L 238.574219 182.5 L 238.125 182.121094 L 237.375 181.4375 L 237.058594 181.132812 L 236.03125 193.53125 Z M 243.109375 183.339844 "
       id="path3884" />
    <path
       style="fill:none;stroke-width:1;stroke-linecap:butt;stroke-linejoin:miter;stroke:rgb(14.99939%,28.999329%,50%);stroke-opacity:0.7;stroke-miterlimit:3.25;"
       d="M 244.132812 116.121094 L 227.363281 132.890625 "
       id="path3886" />
    <path
       style=" stroke:none;fill-rule:nonzero;fill:rgb(14.99939%,28.999329%,50%);fill-opacity:0.7;"
       d="M 230.378906 134.339844 L 230.003906 134.210938 L 229.121094 133.871094 L 228.609375 133.652344 L 228.113281 133.40625 L 227.683594 133.148438 L 227.363281 132.890625 L 227.132812 132.597656 L 226.878906 132.171875 L 226.621094 131.664062 L 226.378906 131.128906 L 225.984375 130.191406 L 225.824219 129.785156 L 219.664062 140.589844 Z M 230.378906 134.339844 "
       id="path3888" />
    <path
       style="fill:none;stroke-width:1;stroke-linecap:butt;stroke-linejoin:miter;stroke:rgb(14.99939%,28.999329%,50%);stroke-opacity:0.7;stroke-miterlimit:3.25;"
       d="M 137.535156 89.472656 L 137.132812 89.875 L 136.601562 90.402344 L 136.058594 90.949219 L 132.292969 94.714844 L 131.578125 95.425781 L 130.851562 96.152344 L 130.109375 96.898438 L 125.089844 101.917969 L 124.175781 102.828125 L 123.25 103.757812 L 121.351562 105.65625 L 120.671875 106.445312 L 120.027344 107.234375 L 119.425781 108.03125 L 118.867188 108.828125 L 118.34375 109.628906 L 117.863281 110.433594 L 117.421875 111.238281 L 117.019531 112.046875 L 116.816406 112.875 L 116.65625 113.699219 L 116.535156 114.53125 L 116.453125 115.363281 L 116.410156 116.199219 L 116.40625 117.039062 L 116.445312 117.882812 L 116.523438 118.726562 L 116.8125 119.601562 L 117.203125 120.566406 L 117.761719 121.703125 L 118.550781 123.097656 L 119.632812 124.839844 L 121.070312 127.015625 L 122.929688 129.703125 L 125.269531 132.996094 L 125.777344 133.730469 L 126.277344 134.472656 L 126.761719 135.214844 L 127.238281 135.964844 L 127.707031 136.71875 L 128.160156 137.476562 L 128.605469 138.238281 L 129.039062 139.003906 L 129.417969 139.796875 L 129.785156 140.589844 L 130.144531 141.390625 L 130.488281 142.191406 L 130.824219 143 L 131.152344 143.816406 L 131.464844 144.632812 L 131.769531 145.453125 L 132.019531 146.308594 L 132.273438 147.230469 L 132.53125 148.285156 L 132.8125 149.527344 L 133.125 151.027344 L 133.480469 152.839844 L 133.882812 155.035156 L 134.347656 157.671875 L 134.511719 158.554688 L 134.679688 159.4375 L 134.855469 160.316406 L 135.035156 161.195312 L 135.222656 162.070312 L 135.417969 162.945312 L 135.617188 163.816406 L 135.824219 164.6875 L 136.0625 165.550781 L 136.304688 166.410156 L 136.554688 167.265625 L 136.808594 168.121094 L 137.070312 168.976562 L 137.335938 169.828125 L 137.890625 171.523438 L 138.207031 172.375 L 138.5625 173.296875 L 138.988281 174.359375 L 139.519531 175.636719 L 140.183594 177.199219 L 141.015625 179.121094 L 142.050781 181.46875 L 143.316406 184.320312 L 143.746094 185.183594 L 144.1875 186.035156 L 144.644531 186.875 L 145.109375 187.703125 L 145.585938 188.523438 L 146.078125 189.332031 L 146.578125 190.132812 L 147.09375 190.917969 L 147.667969 191.65625 L 148.253906 192.378906 L 148.851562 193.09375 L 149.460938 193.796875 L 150.082031 194.488281 L 150.714844 195.171875 L 151.359375 195.84375 L 152.019531 196.503906 L 152.738281 197.109375 L 153.464844 197.707031 L 154.207031 198.296875 L 154.960938 198.871094 L 155.726562 199.4375 L 156.503906 199.992188 L 157.292969 200.535156 L 158.097656 201.070312 L 160.082031 202.28125 L 162.03125 203.472656 L 163.941406 204.636719 L 165.8125 205.78125 L 167.648438 206.902344 L 169.445312 207.996094 L 171.207031 209.074219 L 172.929688 210.125 L 174.464844 211.058594 L 175.960938 211.972656 L 177.421875 212.867188 L 178.84375 213.734375 L 180.226562 214.578125 L 181.167969 215.152344 "
       id="path3890" />
    <path
       style=" stroke:none;fill-rule:nonzero;fill:rgb(14.99939%,28.999329%,50%);fill-opacity:0.7;"
       d="M 181.867188 211.878906 L 181.828125 212.277344 L 181.710938 213.214844 L 181.613281 213.761719 L 181.492188 214.300781 L 181.34375 214.78125 L 181.167969 215.152344 L 180.9375 215.445312 L 180.582031 215.792969 L 180.148438 216.160156 L 179.6875 216.523438 L 178.871094 217.128906 L 178.511719 217.378906 L 190.464844 220.828125 Z M 181.867188 211.878906 "
       id="path3892" />
    <path
       style="fill:none;stroke-width:1;stroke-linecap:butt;stroke-linejoin:miter;stroke:rgb(14.99939%,28.999329%,50%);stroke-opacity:0.7;stroke-miterlimit:3.25;"
       d="M 139.714844 89.472656 L 154.496094 104.253906 L 155.554688 105.316406 L 156.636719 106.394531 L 157.734375 107.496094 L 158.320312 108.140625 L 158.886719 108.792969 L 159.4375 109.453125 L 159.96875 110.121094 L 160.484375 110.796875 L 160.980469 111.480469 L 161.460938 112.167969 L 161.921875 112.867188 L 162.296875 113.597656 L 162.65625 114.339844 L 162.996094 115.085938 L 163.320312 115.839844 L 163.625 116.601562 L 163.914062 117.371094 L 164.183594 118.148438 L 164.4375 118.933594 L 164.601562 119.761719 L 164.75 120.660156 L 164.882812 121.695312 L 164.996094 122.921875 L 165.089844 124.402344 L 165.167969 126.207031 L 165.230469 128.390625 L 165.273438 131.023438 L 165.316406 131.890625 L 165.378906 132.753906 L 165.457031 133.609375 L 165.554688 134.460938 L 165.667969 135.300781 L 165.796875 136.132812 L 165.945312 136.960938 L 166.109375 137.78125 L 166.363281 138.566406 L 166.632812 139.339844 L 166.921875 140.109375 L 167.226562 140.871094 L 167.550781 141.625 L 167.890625 142.375 L 168.25 143.113281 L 168.625 143.847656 L 169.101562 144.558594 L 169.699219 145.367188 L 170.507812 146.363281 L 171.632812 147.648438 L 173.171875 149.320312 L 175.226562 151.484375 L 177.890625 154.234375 L 181.261719 157.671875 L 182.164062 158.542969 L 183.070312 159.410156 L 183.980469 160.269531 L 184.898438 161.121094 L 185.820312 161.96875 L 186.746094 162.808594 L 187.679688 163.640625 L 188.613281 164.46875 L 189.578125 165.261719 L 190.542969 166.050781 L 191.515625 166.832031 L 192.492188 167.605469 L 193.476562 168.375 L 194.464844 169.136719 L 195.457031 169.894531 L 196.453125 170.640625 L 197.476562 171.359375 L 198.507812 172.070312 L 199.539062 172.773438 L 200.578125 173.46875 L 201.621094 174.160156 L 202.671875 174.847656 L 203.726562 175.523438 L 204.785156 176.195312 L 206.542969 177.269531 L 208.265625 178.324219 L 209.960938 179.363281 L 211.625 180.378906 L 213.261719 181.378906 L 214.863281 182.359375 L 216.4375 183.320312 L 217.976562 184.261719 L 219.363281 185.109375 L 220.722656 185.941406 L 222.046875 186.75 L 223.34375 187.542969 L 224.609375 188.316406 L 224.898438 188.492188 "
       id="path3894" />
    <path
       style=" stroke:none;fill-rule:nonzero;fill:rgb(14.99939%,28.999329%,50%);fill-opacity:0.7;"
       d="M 225.597656 185.222656 L 225.5625 185.621094 L 225.441406 186.554688 L 225.34375 187.105469 L 225.222656 187.644531 L 225.074219 188.121094 L 224.898438 188.492188 L 224.667969 188.789062 L 224.3125 189.132812 L 223.878906 189.503906 L 223.417969 189.867188 L 222.597656 190.46875 L 222.238281 190.71875 L 234.1875 194.175781 Z M 225.597656 185.222656 "
       id="path3896" />
    <path
       style="fill:none;stroke-width:1;stroke-linecap:butt;stroke-linejoin:miter;stroke:rgb(14.99939%,28.999329%,50%);stroke-opacity:0.7;stroke-miterlimit:3.25;"
       d="M 138.625 89.921875 L 138.625 104.371094 L 139 107.65625 L 139.746094 110.667969 L 141.246094 113.140625 L 143.117188 115.347656 L 145.742188 117.007812 L 148.738281 118.402344 L 165.285156 123.917969 L 180.429688 128.964844 L 192.769531 133.078125 L 203.707031 136.726562 L 206.777344 137.75 "
       id="path3898" />
    <path
       style=" stroke:none;fill-rule:nonzero;fill:rgb(14.99939%,28.999329%,50%);fill-opacity:0.7;"
       d="M 206.726562 134.402344 L 206.777344 134.800781 L 206.871094 135.738281 L 206.902344 136.296875 L 206.902344 136.847656 L 206.867188 137.347656 L 206.777344 137.75 L 206.621094 138.089844 L 206.351562 138.503906 L 206.011719 138.960938 L 205.644531 139.417969 L 204.980469 140.191406 L 204.6875 140.515625 L 217.109375 141.195312 Z M 206.726562 134.402344 "
       id="path3900" />
    <path
       style="fill:none;stroke-width:1;stroke-linecap:butt;stroke-linejoin:miter;stroke:rgb(14.99939%,28.999329%,50%);stroke-opacity:0.7;stroke-miterlimit:3.25;"
       d="M 140.121094 88.757812 L 233.160156 112.015625 "
       id="path3902" />
    <path
       style=" stroke:none;fill-rule:nonzero;fill:rgb(14.99939%,28.999329%,50%);fill-opacity:0.7;"
       d="M 232.851562 108.683594 L 232.933594 109.074219 L 233.097656 110.003906 L 233.171875 110.558594 L 233.214844 111.105469 L 233.21875 111.609375 L 233.160156 112.015625 L 233.027344 112.367188 L 232.792969 112.800781 L 232.492188 113.28125 L 232.160156 113.769531 L 231.554688 114.589844 L 231.289062 114.933594 L 243.726562 114.65625 Z M 232.851562 108.683594 "
       id="path3904" />
    <path
       style="fill:none;stroke-width:1;stroke-linecap:butt;stroke-linejoin:miter;stroke:rgb(14.99939%,28.999329%,50%);stroke-opacity:0.7;stroke-miterlimit:3.25;"
       d="M 128.65625 62.449219 L 127.378906 63.117188 L 125.941406 63.871094 L 124.425781 64.664062 L 122.835938 65.496094 L 121.167969 66.371094 L 119.195312 67.402344 L 117.144531 68.476562 L 115.015625 69.59375 L 112.8125 70.746094 L 110.53125 71.941406 L 108.171875 73.175781 L 105.507812 74.570312 L 102.769531 76.003906 L 99.953125 77.480469 L 97.058594 78.996094 L 94.085938 80.550781 L 91.039062 82.148438 L 89.746094 82.878906 L 88.46875 83.625 L 87.210938 84.390625 L 85.960938 85.171875 L 84.730469 85.976562 L 83.515625 86.796875 L 82.363281 87.6875 L 81.222656 88.601562 L 80.097656 89.53125 L 78.992188 90.476562 L 77.898438 91.441406 L 76.820312 92.425781 L 75.78125 93.511719 L 74.625 94.789062 L 73.21875 96.433594 L 71.425781 98.617188 L 69.113281 101.511719 L 66.152344 105.292969 L 65.433594 106.382812 L 64.769531 107.476562 L 64.164062 108.574219 L 63.613281 109.671875 L 63.117188 110.777344 L 62.675781 111.886719 L 62.460938 113.011719 L 62.300781 114.140625 L 62.195312 115.269531 L 62.144531 116.40625 L 62.152344 117.542969 L 62.214844 118.6875 L 62.515625 119.871094 L 62.957031 121.203125 L 63.625 122.839844 L 64.597656 124.921875 L 65.96875 127.597656 L 67.820312 131.023438 L 68.507812 132.199219 L 69.199219 133.375 L 69.894531 134.546875 L 70.597656 135.714844 L 71.304688 136.878906 L 72.015625 138.042969 L 72.746094 139.191406 L 73.480469 140.339844 L 74.222656 141.480469 L 74.96875 142.621094 L 75.71875 143.757812 L 76.472656 144.890625 L 77.269531 146.042969 L 78.195312 147.355469 L 79.375 149.007812 L 80.933594 151.164062 L 82.996094 153.996094 L 85.6875 157.671875 L 86.566406 158.851562 L 87.445312 160.027344 L 88.332031 161.203125 L 89.21875 162.375 L 90.109375 163.546875 L 91 164.714844 L 91.90625 165.871094 L 92.816406 167.027344 L 93.726562 168.179688 L 94.640625 169.332031 L 95.558594 170.480469 L 96.476562 171.625 L 97.433594 172.789062 L 98.53125 174.117188 L 99.914062 175.765625 L 101.71875 177.910156 L 104.082031 180.707031 L 107.152344 184.320312 L 108.195312 185.457031 L 109.253906 186.566406 L 110.328125 187.652344 L 111.421875 188.710938 L 112.535156 189.75 L 113.660156 190.761719 L 114.855469 191.671875 L 116.070312 192.5625 L 117.296875 193.425781 L 118.542969 194.261719 L 119.808594 195.078125 L 121.089844 195.867188 L 122.4375 196.554688 L 123.800781 197.222656 L 125.183594 197.863281 L 126.582031 198.480469 L 128 199.070312 L 129.433594 199.636719 L 134.417969 201.394531 L 139.269531 203.105469 L 143.988281 204.773438 L 148.574219 206.390625 L 153.03125 207.960938 L 157.355469 209.488281 L 161.148438 210.824219 L 164.808594 212.117188 L 168.339844 213.363281 L 171.738281 214.558594 L 175.003906 215.710938 L 178.136719 216.816406 L 180.054688 217.492188 "
       id="path3906" />
    <path
       style=" stroke:none;fill-rule:nonzero;fill:rgb(14.99939%,28.999329%,50%);fill-opacity:0.7;"
       d="M 180.058594 214.148438 L 180.105469 214.542969 L 180.183594 215.484375 L 180.203125 216.042969 L 180.195312 216.59375 L 180.152344 217.09375 L 180.054688 217.492188 L 179.890625 217.828125 L 179.617188 218.242188 L 179.269531 218.691406 L 178.894531 219.144531 L 178.214844 219.902344 L 177.917969 220.222656 L 190.328125 221.117188 Z M 180.058594 214.148438 "
       id="path3908" />
    <path
       style="fill:none;stroke-width:1;stroke-linecap:butt;stroke-linejoin:miter;stroke:rgb(14.99939%,28.999329%,50%);stroke-opacity:0.7;stroke-miterlimit:3.25;"
       d="M 129.066406 62.941406 L 128.863281 63.195312 L 128.457031 63.707031 L 128.039062 64.230469 L 127.613281 64.769531 L 127.179688 65.316406 L 126.730469 65.878906 L 126.238281 66.5 L 125.734375 67.136719 L 125.21875 67.785156 L 124.695312 68.445312 L 124.160156 69.117188 L 123.617188 69.800781 L 123.0625 70.5 L 122.5 71.207031 L 121.886719 71.980469 L 121.265625 72.761719 L 120.632812 73.558594 L 119.992188 74.367188 L 119.339844 75.1875 L 118.679688 76.019531 L 118.007812 76.863281 L 117.328125 77.722656 L 116.621094 78.609375 L 114.488281 81.257812 L 113.773438 82.140625 L 112.34375 83.898438 L 111.625 84.777344 L 110.902344 85.652344 L 110.175781 86.523438 L 109.453125 87.394531 L 108.722656 88.261719 L 107.996094 89.132812 L 106.535156 90.867188 L 105.800781 91.730469 L 105.050781 92.605469 L 104.226562 93.558594 L 103.261719 94.671875 L 102.082031 96.023438 L 100.613281 97.699219 L 98.789062 99.773438 L 96.539062 102.328125 L 93.789062 105.449219 L 93.175781 106.253906 L 92.59375 107.0625 L 92.050781 107.871094 L 91.542969 108.683594 L 91.070312 109.496094 L 90.636719 110.316406 L 90.234375 111.136719 L 89.871094 111.957031 L 89.6875 112.792969 L 89.539062 113.628906 L 89.425781 114.46875 L 89.351562 115.3125 L 89.308594 116.15625 L 89.304688 117.003906 L 89.335938 117.851562 L 89.40625 118.703125 L 89.660156 119.578125 L 89.988281 120.519531 L 90.441406 121.585938 L 91.050781 122.84375 L 91.859375 124.355469 L 92.914062 126.179688 L 94.253906 128.378906 L 95.917969 131.023438 L 96.535156 131.878906 L 97.160156 132.71875 L 97.796875 133.550781 L 98.445312 134.367188 L 99.105469 135.171875 L 99.773438 135.960938 L 100.457031 136.738281 L 101.148438 137.503906 L 101.894531 138.203125 L 102.648438 138.886719 L 103.417969 139.5625 L 104.195312 140.222656 L 104.984375 140.867188 L 105.785156 141.503906 L 106.597656 142.125 L 107.417969 142.730469 L 108.296875 143.273438 L 109.183594 143.804688 L 110.082031 144.320312 L 110.992188 144.824219 L 111.910156 145.316406 L 112.839844 145.792969 L 113.78125 146.257812 L 114.734375 146.710938 L 117.761719 148.003906 L 120.726562 149.273438 L 123.632812 150.515625 L 126.480469 151.734375 L 129.265625 152.925781 L 131.996094 154.09375 L 134.664062 155.238281 L 137.273438 156.351562 L 139.589844 157.34375 L 141.84375 158.308594 L 144.035156 159.246094 L 146.171875 160.160156 L 148.25 161.046875 L 150.265625 161.910156 L 152.222656 162.746094 L 153.84375 163.441406 "
       id="path3910" />
    <path
       style=" stroke:none;fill-rule:nonzero;fill:rgb(14.99939%,28.999329%,50%);fill-opacity:0.7;"
       d="M 154.066406 160.101562 L 154.085938 160.5 L 154.101562 161.445312 L 154.085938 162 L 154.042969 162.550781 L 153.964844 163.046875 L 153.84375 163.441406 L 153.65625 163.765625 L 153.355469 164.15625 L 152.980469 164.585938 L 152.574219 165.011719 L 151.851562 165.726562 L 151.53125 166.023438 L 163.855469 167.726562 Z M 154.066406 160.101562 "
       id="path3912" />
    <path
       style="fill:none;stroke-width:1;stroke-linecap:butt;stroke-linejoin:miter;stroke:rgb(14.99939%,28.999329%,50%);stroke-opacity:0.7;stroke-miterlimit:3.25;"
       d="M 130.496094 63.199219 L 134.804688 76.550781 "
       id="path3914" />
    <path
       style=" stroke:none;fill-rule:nonzero;fill:rgb(14.99939%,28.999329%,50%);fill-opacity:0.7;"
       d="M 137.46875 74.527344 L 137.183594 74.804688 L 136.480469 75.433594 L 136.050781 75.789062 L 135.609375 76.117188 L 135.183594 76.382812 L 134.804688 76.550781 L 134.4375 76.625 L 133.945312 76.652344 L 133.375 76.652344 L 132.789062 76.625 L 131.773438 76.550781 L 131.339844 76.503906 L 138.152344 86.914062 Z M 137.46875 74.527344 "
       id="path3916" />
    <path
       style="fill:none;stroke-width:1;stroke-linecap:butt;stroke-linejoin:miter;stroke:rgb(14.99939%,28.999329%,50%);stroke-opacity:0.7;stroke-miterlimit:3.25;"
       d="M 204.542969 62.289062 L 205.777344 62.769531 L 207.207031 63.320312 L 208.699219 63.898438 L 210.253906 64.503906 L 211.871094 65.128906 L 213.554688 65.78125 L 215.296875 66.457031 L 217.355469 67.253906 L 219.480469 68.078125 L 221.664062 68.925781 L 223.910156 69.796875 L 226.222656 70.691406 L 228.597656 71.613281 L 231.035156 72.554688 L 233.535156 73.523438 L 236.347656 74.617188 L 239.226562 75.730469 L 242.167969 76.871094 L 245.171875 78.035156 L 248.238281 79.222656 L 251.367188 80.4375 L 254.558594 81.671875 L 257.816406 82.933594 L 258.964844 83.417969 L 260.109375 83.914062 L 261.246094 84.421875 L 262.375 84.945312 L 263.496094 85.476562 L 264.605469 86.019531 L 265.710938 86.578125 L 266.808594 87.144531 L 267.867188 87.773438 L 268.914062 88.414062 L 269.957031 89.070312 L 270.992188 89.734375 L 272.015625 90.410156 L 273.035156 91.101562 L 274.046875 91.800781 L 275.046875 92.515625 L 276.027344 93.304688 L 277.097656 94.207031 L 278.359375 95.316406 L 279.910156 96.738281 L 281.847656 98.566406 L 284.273438 100.902344 L 287.285156 103.847656 L 290.984375 107.496094 L 291.566406 108.140625 L 292.136719 108.792969 L 292.683594 109.453125 L 293.21875 110.121094 L 293.730469 110.796875 L 294.230469 111.480469 L 294.707031 112.167969 L 295.171875 112.867188 L 295.546875 113.597656 L 295.902344 114.339844 L 296.242188 115.085938 L 296.566406 115.839844 L 296.871094 116.601562 L 297.160156 117.371094 L 297.429688 118.148438 L 297.683594 118.933594 L 297.847656 119.761719 L 297.996094 120.660156 L 298.128906 121.695312 L 298.242188 122.921875 L 298.335938 124.402344 L 298.417969 126.207031 L 298.476562 128.390625 L 298.519531 131.023438 L 298.519531 157.671875 L 298.476562 158.539062 L 298.410156 159.398438 L 298.328125 160.25 L 298.230469 161.097656 L 298.109375 161.933594 L 297.972656 162.761719 L 297.820312 163.578125 L 297.644531 164.390625 L 297.382812 165.164062 L 297.101562 165.925781 L 296.800781 166.683594 L 296.480469 167.429688 L 296.144531 168.171875 L 295.789062 168.902344 L 295.414062 169.625 L 295.023438 170.339844 L 294.519531 171.035156 L 293.886719 171.820312 L 293.011719 172.808594 L 291.777344 174.09375 L 290.074219 175.785156 L 287.785156 177.984375 L 284.804688 180.796875 L 281.011719 184.320312 L 280.023438 185.175781 L 279.023438 186.019531 L 278.015625 186.851562 L 277 187.667969 L 275.980469 188.472656 L 274.949219 189.265625 L 273.914062 190.046875 L 272.867188 190.8125 L 271.785156 191.515625 L 270.695312 192.207031 L 269.597656 192.882812 L 268.492188 193.546875 L 267.378906 194.199219 L 266.257812 194.839844 L 265.128906 195.464844 L 263.992188 196.078125 L 262.820312 196.628906 L 261.640625 197.164062 L 260.449219 197.6875 L 259.253906 198.199219 L 258.050781 198.699219 L 256.839844 199.183594 L 255.617188 199.65625 L 254.390625 200.117188 L 250.648438 201.402344 L 246.980469 202.664062 L 243.382812 203.898438 L 239.863281 205.109375 L 236.414062 206.292969 L 233.035156 207.453125 L 229.730469 208.589844 L 226.5 209.699219 L 223.636719 210.683594 L 220.84375 211.644531 L 218.128906 212.578125 L 215.480469 213.484375 L 212.910156 214.371094 L 210.410156 215.230469 L 207.984375 216.0625 L 205.632812 216.871094 L 203.644531 217.554688 L 203.539062 217.589844 "
       id="path3918" />
    <path
       style=" stroke:none;fill-rule:nonzero;fill:rgb(14.99939%,28.999329%,50%);fill-opacity:0.7;"
       d="M 205.613281 220.214844 L 205.328125 219.933594 L 204.683594 219.242188 L 204.324219 218.820312 L 203.988281 218.382812 L 203.710938 217.964844 L 203.539062 217.589844 L 203.457031 217.226562 L 203.417969 216.730469 L 203.410156 216.164062 L 203.425781 215.574219 L 203.484375 214.558594 L 203.519531 214.125 L 193.238281 221.128906 Z M 205.613281 220.214844 "
       id="path3920" />
    <path
       style="fill:none;stroke-width:1;stroke-linecap:butt;stroke-linejoin:miter;stroke:rgb(14.99939%,28.999329%,50%);stroke-opacity:0.7;stroke-miterlimit:3.25;"
       d="M 204.410156 62.558594 L 204.683594 62.730469 L 205.515625 63.257812 L 206.378906 63.804688 L 207.269531 64.367188 L 208.1875 64.949219 L 209.136719 65.546875 L 210.113281 66.167969 L 211.238281 66.878906 L 212.386719 67.605469 L 213.570312 68.351562 L 214.777344 69.117188 L 216.015625 69.902344 L 217.285156 70.703125 L 218.582031 71.523438 L 219.90625 72.363281 L 221.375 73.292969 L 222.875 74.242188 L 224.40625 75.210938 L 225.960938 76.195312 L 227.550781 77.199219 L 229.164062 78.222656 L 230.808594 79.261719 L 232.484375 80.320312 L 233.53125 81.007812 L 234.578125 81.699219 L 235.617188 82.398438 L 236.652344 83.105469 L 237.683594 83.816406 L 238.707031 84.53125 L 239.730469 85.253906 L 240.746094 85.984375 L 241.738281 86.742188 L 242.722656 87.507812 L 243.707031 88.277344 L 244.683594 89.054688 L 245.65625 89.839844 L 246.625 90.628906 L 247.585938 91.421875 L 248.542969 92.222656 L 249.496094 93.070312 L 250.539062 94.023438 L 251.777344 95.183594 L 253.308594 96.640625 L 255.230469 98.503906 L 257.640625 100.867188 L 260.644531 103.832031 L 264.332031 107.496094 L 264.917969 108.140625 L 265.484375 108.792969 L 266.035156 109.453125 L 266.566406 110.121094 L 267.082031 110.796875 L 267.578125 111.480469 L 268.058594 112.167969 L 268.523438 112.867188 L 268.898438 113.597656 L 269.253906 114.339844 L 269.59375 115.085938 L 269.917969 115.839844 L 270.222656 116.601562 L 270.511719 117.371094 L 270.78125 118.148438 L 271.035156 118.933594 L 271.199219 119.761719 L 271.347656 120.660156 L 271.480469 121.695312 L 271.59375 122.921875 L 271.6875 124.402344 L 271.765625 126.207031 L 271.828125 128.390625 L 271.871094 131.023438 L 271.871094 157.671875 L 271.820312 158.535156 L 271.753906 159.386719 L 271.664062 160.230469 L 271.554688 161.0625 L 271.421875 161.886719 L 271.273438 162.699219 L 271.105469 163.5 L 270.917969 164.292969 L 270.628906 165.035156 L 270.320312 165.765625 L 269.992188 166.488281 L 269.640625 167.199219 L 269.273438 167.902344 L 268.886719 168.59375 L 268.476562 169.277344 L 268.050781 169.945312 L 267.523438 170.566406 L 266.976562 171.179688 L 266.40625 171.777344 L 265.820312 172.371094 L 265.214844 172.949219 L 264.585938 173.519531 L 263.941406 174.082031 L 263.273438 174.632812 L 261.640625 175.828125 L 260.039062 177 L 258.472656 178.152344 L 256.929688 179.277344 L 255.421875 180.386719 L 253.945312 181.46875 L 252.496094 182.527344 L 251.078125 183.566406 L 249.816406 184.492188 L 248.582031 185.398438 L 247.378906 186.28125 L 246.207031 187.136719 L 245.535156 187.632812 "
       id="path3922" />
    <path
       style=" stroke:none;fill-rule:nonzero;fill:rgb(14.99939%,28.999329%,50%);fill-opacity:0.7;"
       d="M 248.292969 189.523438 L 247.9375 189.339844 L 247.121094 188.871094 L 246.648438 188.574219 L 246.195312 188.257812 L 245.808594 187.9375 L 245.535156 187.632812 L 245.347656 187.308594 L 245.164062 186.847656 L 244.988281 186.308594 L 244.828125 185.742188 L 244.582031 184.753906 L 244.484375 184.328125 L 236.746094 194.070312 Z M 248.292969 189.523438 "
       id="path3924" />
    <path
       style="fill:none;stroke-width:1;stroke-linecap:butt;stroke-linejoin:miter;stroke:rgb(14.99939%,28.999329%,50%);stroke-opacity:0.7;stroke-miterlimit:3.25;"
       d="M 201.847656 62.621094 L 201.703125 62.722656 L 200.960938 63.242188 L 200.199219 63.78125 L 199.414062 64.335938 L 198.601562 64.90625 L 197.769531 65.492188 L 196.910156 66.097656 L 195.929688 66.789062 L 194.925781 67.492188 L 193.902344 68.21875 L 192.851562 68.957031 L 191.773438 69.714844 L 190.675781 70.488281 L 189.554688 71.28125 L 188.40625 72.085938 L 187.140625 72.980469 L 185.847656 73.890625 L 184.535156 74.816406 L 183.195312 75.757812 L 181.832031 76.71875 L 180.445312 77.695312 L 179.035156 78.691406 L 177.597656 79.699219 L 176.703125 80.4375 L 175.863281 81.175781 L 175.074219 81.917969 L 174.339844 82.667969 L 173.660156 83.421875 L 173.03125 84.179688 L 172.457031 84.941406 L 171.9375 85.707031 L 171.679688 86.5 L 171.476562 87.292969 L 171.328125 88.089844 L 171.234375 88.894531 L 171.191406 89.703125 L 171.199219 90.515625 L 171.265625 91.332031 L 171.378906 92.15625 L 171.78125 93.015625 L 172.332031 93.980469 L 173.132812 95.148438 L 174.289062 96.617188 L 175.890625 98.488281 L 178.042969 100.859375 L 180.839844 103.828125 L 184.386719 107.496094 L 184.96875 108.140625 L 185.539062 108.792969 L 186.085938 109.453125 L 186.617188 110.121094 L 187.132812 110.796875 L 187.632812 111.480469 L 188.109375 112.167969 L 188.574219 112.867188 L 188.949219 113.597656 L 189.304688 114.339844 L 189.644531 115.085938 L 189.96875 115.839844 L 190.273438 116.601562 L 190.5625 117.371094 L 190.832031 118.148438 L 191.085938 118.933594 L 191.25 119.761719 L 191.398438 120.660156 L 191.53125 121.695312 L 191.644531 122.921875 L 191.738281 124.402344 L 191.820312 126.207031 L 191.878906 128.390625 L 191.921875 131.023438 L 191.878906 131.890625 L 191.820312 132.753906 L 191.738281 133.609375 L 191.644531 134.460938 L 191.53125 135.300781 L 191.398438 136.132812 L 191.25 136.960938 L 191.085938 137.78125 L 190.832031 138.566406 L 190.5625 139.339844 L 190.273438 140.109375 L 189.96875 140.871094 L 189.644531 141.625 L 189.304688 142.375 L 188.949219 143.113281 L 188.574219 143.847656 L 188.109375 144.542969 L 187.632812 145.234375 L 187.132812 145.914062 L 186.617188 146.589844 L 186.085938 147.257812 L 185.539062 147.917969 L 184.96875 148.574219 L 184.386719 149.21875 L 180.105469 153.5 L 179.082031 154.519531 L 178.082031 155.523438 L 177.097656 156.503906 L 176.136719 157.46875 L 174.066406 159.539062 "
       id="path3926" />
    <path
       style=" stroke:none;fill-rule:nonzero;fill:rgb(14.99939%,28.999329%,50%);fill-opacity:0.7;"
       d="M 177.082031 160.988281 L 176.703125 160.859375 L 175.820312 160.523438 L 175.3125 160.300781 L 174.816406 160.054688 L 174.386719 159.800781 L 174.066406 159.539062 L 173.832031 159.246094 L 173.582031 158.820312 L 173.324219 158.3125 L 173.078125 157.777344 L 172.683594 156.839844 L 172.527344 156.433594 L 166.363281 167.242188 Z M 177.082031 160.988281 "
       id="path3928" />
    <path
       style="fill:none;stroke-width:1;stroke-linecap:butt;stroke-linejoin:miter;stroke:rgb(14.99939%,28.999329%,50%);stroke-opacity:0.7;stroke-miterlimit:3.25;"
       d="M 202.511719 63.152344 L 202.449219 63.296875 L 202.277344 63.707031 L 202.101562 64.125 L 201.921875 64.550781 L 201.742188 64.984375 L 201.554688 65.429688 L 201.367188 65.878906 L 201.15625 66.375 L 200.945312 66.882812 L 200.730469 67.394531 L 200.511719 67.914062 L 200.289062 68.445312 L 200.066406 68.980469 L 199.835938 69.527344 L 199.605469 70.078125 L 199.367188 70.640625 L 199.128906 71.207031 L 198.871094 71.824219 L 198.609375 72.449219 L 198.34375 73.078125 L 198.078125 73.71875 L 197.804688 74.367188 L 197.53125 75.023438 L 197.25 75.683594 L 196.96875 76.355469 L 196.683594 77.035156 L 196.394531 77.722656 L 196.15625 78.421875 L 195.929688 79.117188 L 195.726562 79.808594 L 195.539062 80.5 L 195.375 81.183594 L 195.226562 81.863281 L 195.097656 82.542969 L 194.984375 83.214844 L 194.894531 83.886719 L 194.820312 84.554688 L 194.859375 85.199219 L 194.917969 85.839844 L 194.992188 86.476562 L 195.089844 87.109375 L 195.203125 87.738281 L 195.335938 88.363281 L 195.488281 88.988281 L 195.65625 89.605469 L 195.84375 90.21875 L 196.054688 90.832031 L 196.382812 91.429688 L 196.800781 92.09375 L 197.363281 92.882812 L 198.144531 93.867188 L 199.207031 95.105469 L 200.617188 96.671875 L 202.4375 98.628906 L 204.738281 101.042969 L 207.582031 103.972656 L 211.035156 107.496094 L 211.503906 108.011719 L 211.960938 108.53125 L 212.410156 109.058594 L 212.84375 109.585938 L 213.269531 110.121094 L 213.679688 110.660156 L 214.082031 111.207031 L 214.472656 111.753906 L 214.855469 112.308594 L 215.222656 112.867188 L 215.523438 113.453125 L 215.8125 114.042969 L 216.09375 114.636719 L 216.363281 115.238281 L 216.617188 115.839844 L 216.863281 116.449219 L 217.097656 117.0625 L 217.320312 117.683594 L 217.535156 118.304688 L 217.734375 118.933594 L 217.867188 119.585938 L 217.992188 120.246094 L 218.105469 120.910156 L 218.203125 121.582031 L 218.292969 122.253906 L 218.371094 122.933594 L 218.4375 123.617188 L 218.496094 124.304688 L 218.539062 124.996094 L 218.574219 125.691406 L 218.574219 129.246094 "
       id="path3930" />
    <path
       style=" stroke:none;fill-rule:nonzero;fill:rgb(14.99939%,28.999329%,50%);fill-opacity:0.7;"
       d="M 221.730469 128.140625 L 221.371094 128.316406 L 220.507812 128.699219 L 219.992188 128.90625 L 219.46875 129.082031 L 218.984375 129.207031 L 218.574219 129.246094 L 218.203125 129.207031 L 217.722656 129.082031 L 217.179688 128.90625 L 216.628906 128.699219 L 215.6875 128.316406 L 215.289062 128.140625 L 218.574219 140.140625 Z M 221.730469 128.140625 "
       id="path3932" />
    <path
       style="fill:none;stroke-width:1;stroke-linecap:butt;stroke-linejoin:miter;stroke:rgb(14.99939%,28.999329%,50%);stroke-opacity:0.7;stroke-miterlimit:3.25;"
       d="M 203.878906 63.066406 L 204.253906 63.707031 L 205.511719 65.878906 L 207 68.445312 L 208.605469 71.207031 L 210.4375 74.367188 L 212.386719 77.722656 L 214.542969 81.203125 L 216.792969 84.613281 L 219.226562 87.878906 L 221.757812 91.070312 L 224.476562 94.121094 L 227.289062 97.097656 L 231.21875 101.03125 L 234.882812 104.691406 L 236.429688 106.238281 "
       id="path3934" />
    <path
       style=" stroke:none;fill-rule:nonzero;fill:rgb(14.99939%,28.999329%,50%);fill-opacity:0.7;"
       d="M 237.878906 103.222656 L 237.75 103.601562 L 237.414062 104.484375 L 237.191406 104.996094 L 236.945312 105.488281 L 236.691406 105.921875 L 236.429688 106.238281 L 236.136719 106.472656 L 235.710938 106.726562 L 235.203125 106.980469 L 234.671875 107.226562 L 233.730469 107.621094 L 233.324219 107.777344 L 244.132812 113.941406 Z M 237.878906 103.222656 "
       id="path3936" />
    <path
       style="fill:none;stroke-width:1;stroke-linecap:butt;stroke-linejoin:miter;stroke:rgb(14.99939%,28.999329%,50%);stroke-opacity:0.7;stroke-miterlimit:3.25;"
       d="M 201.683594 62.320312 L 150.113281 83.632812 "
       id="path3938" />
    <path
       style=" stroke:none;fill-rule:nonzero;fill:rgb(14.99939%,28.999329%,50%);fill-opacity:0.7;"
       d="M 152.34375 86.128906 L 152.046875 85.863281 L 151.359375 85.214844 L 150.972656 84.8125 L 150.609375 84.398438 L 150.3125 83.996094 L 150.113281 83.632812 L 150.011719 83.273438 L 149.941406 82.785156 L 149.898438 82.21875 L 149.878906 81.628906 L 149.875 80.613281 L 149.882812 80.175781 L 140.046875 87.792969 Z M 152.34375 86.128906 "
       id="path3940" />
    <path
       style="fill:none;stroke-width:1;stroke-linecap:butt;stroke-linejoin:miter;stroke:rgb(14.99939%,28.999329%,50%);stroke-opacity:0.7;stroke-miterlimit:3.25;"
       d="M 228.25 35.484375 L 228.289062 35.492188 L 229.878906 35.921875 L 231.535156 36.367188 L 233.261719 36.828125 L 235.050781 37.308594 L 236.910156 37.808594 L 238.835938 38.324219 L 240.828125 38.859375 L 242.890625 39.414062 L 245.015625 39.984375 L 247.542969 40.664062 L 250.140625 41.363281 L 252.800781 42.078125 L 255.53125 42.808594 L 258.324219 43.558594 L 261.1875 44.328125 L 264.121094 45.117188 L 267.117188 45.921875 L 270.179688 46.746094 L 273.3125 47.585938 L 276.84375 48.535156 L 280.441406 49.5 L 284.109375 50.484375 L 287.84375 51.488281 L 291.644531 52.507812 L 295.511719 53.546875 L 299.445312 54.605469 L 303.445312 55.679688 L 307.515625 56.773438 L 311.652344 57.882812 L 312.589844 58.167969 L 313.519531 58.464844 L 314.445312 58.773438 L 315.367188 59.089844 L 316.28125 59.417969 L 317.191406 59.753906 L 318.09375 60.101562 L 318.988281 60.460938 L 319.878906 60.828125 L 320.765625 61.207031 L 321.613281 61.644531 L 322.457031 62.09375 L 323.292969 62.550781 L 324.125 63.019531 L 324.949219 63.5 L 325.769531 63.988281 L 326.582031 64.484375 L 327.390625 64.996094 L 328.191406 65.515625 L 328.988281 66.042969 L 329.753906 66.640625 L 330.566406 67.296875 L 331.46875 68.066406 L 332.507812 68.996094 L 333.738281 70.132812 L 335.203125 71.53125 L 336.953125 73.242188 L 339.039062 75.308594 L 341.503906 77.789062 L 344.402344 80.726562 L 344.863281 81.253906 L 345.3125 81.78125 L 345.753906 82.3125 L 346.179688 82.847656 L 346.597656 83.390625 L 347.003906 83.9375 L 347.402344 84.488281 L 347.785156 85.042969 L 348.160156 85.601562 L 348.523438 86.164062 L 348.820312 86.753906 L 349.105469 87.351562 L 349.378906 87.949219 L 349.644531 88.554688 L 349.894531 89.160156 L 350.136719 89.773438 L 350.367188 90.390625 L 350.589844 91.011719 L 350.796875 91.640625 L 350.996094 92.269531 L 351.128906 92.933594 L 351.25 93.632812 L 351.359375 94.398438 L 351.457031 95.265625 L 351.546875 96.265625 L 351.621094 97.429688 L 351.6875 98.792969 L 351.742188 100.382812 L 351.785156 102.230469 L 351.820312 104.371094 L 351.820312 157.671875 L 351.78125 158.363281 L 351.730469 159.046875 L 351.667969 159.726562 L 351.59375 160.398438 L 351.503906 161.066406 L 351.402344 161.726562 L 351.289062 162.378906 L 351.160156 163.023438 L 351.023438 163.664062 L 350.871094 164.300781 L 350.640625 164.894531 L 350.402344 165.484375 L 350.148438 166.070312 L 349.882812 166.644531 L 349.601562 167.214844 L 349.3125 167.78125 L 349.007812 168.339844 L 348.691406 168.890625 L 348.359375 169.433594 L 348.019531 169.972656 L 347.585938 170.484375 L 347.066406 171.046875 L 346.375 171.714844 L 345.441406 172.554688 L 344.183594 173.617188 L 342.523438 174.960938 L 340.382812 176.644531 L 337.6875 178.730469 L 334.359375 181.269531 L 330.320312 184.320312 L 329.347656 185 L 328.375 185.671875 L 327.394531 186.328125 L 326.414062 186.980469 L 325.425781 187.617188 L 324.433594 188.246094 L 323.433594 188.863281 L 322.433594 189.472656 L 321.425781 190.070312 L 320.414062 190.660156 L 319.375 191.183594 L 318.332031 191.703125 L 317.285156 192.207031 L 316.230469 192.703125 L 315.171875 193.1875 L 314.109375 193.664062 L 313.042969 194.128906 L 311.972656 194.582031 L 310.894531 195.027344 L 309.816406 195.460938 L 308.707031 195.835938 L 307.59375 196.195312 L 306.472656 196.550781 L 305.351562 196.890625 L 304.222656 197.222656 L 303.09375 197.542969 L 301.957031 197.855469 L 300.816406 198.15625 L 299.667969 198.449219 L 298.519531 198.726562 L 293.3125 199.84375 L 288.191406 200.945312 L 283.152344 202.023438 L 278.199219 203.085938 L 273.332031 204.132812 L 268.550781 205.15625 L 263.851562 206.167969 L 259.234375 207.15625 L 254.707031 208.128906 L 250.257812 209.082031 L 246.320312 209.925781 L 242.46875 210.753906 L 238.699219 211.5625 L 235.011719 212.355469 L 231.414062 213.125 L 227.898438 213.878906 L 224.464844 214.617188 L 221.121094 215.335938 L 217.859375 216.035156 L 214.679688 216.714844 L 212.011719 217.289062 L 209.425781 217.84375 L 206.921875 218.378906 L 204.503906 218.898438 L 203.9375 219.019531 "
       id="path3942" />
    <path
       style=" stroke:none;fill-rule:nonzero;fill:rgb(14.99939%,28.999329%,50%);fill-opacity:0.7;"
       d="M 205.683594 221.875 L 205.433594 221.5625 L 204.878906 220.800781 L 204.570312 220.335938 L 204.285156 219.863281 L 204.0625 219.414062 L 203.9375 219.019531 L 203.902344 218.648438 L 203.921875 218.15625 L 203.980469 217.589844 L 204.0625 217.007812 L 204.242188 216.007812 L 204.332031 215.578125 L 193.285156 221.304688 Z M 205.683594 221.875 "
       id="path3944" />
    <path
       style="fill:none;stroke-width:1;stroke-linecap:butt;stroke-linejoin:miter;stroke:rgb(14.99939%,28.999329%,50%);stroke-opacity:0.7;stroke-miterlimit:3.25;"
       d="M 228.167969 35.71875 L 228.519531 35.878906 L 229.4375 36.292969 L 230.382812 36.722656 L 231.355469 37.160156 L 232.351562 37.613281 L 233.378906 38.078125 L 234.429688 38.550781 L 235.507812 39.039062 L 236.609375 39.539062 L 237.875 40.113281 L 239.164062 40.695312 L 240.484375 41.292969 L 241.828125 41.902344 L 243.199219 42.519531 L 244.59375 43.152344 L 246.019531 43.796875 L 247.46875 44.453125 L 248.945312 45.121094 L 250.449219 45.804688 L 252.113281 46.554688 L 253.804688 47.320312 L 255.519531 48.097656 L 257.261719 48.886719 L 259.035156 49.6875 L 260.828125 50.5 L 262.652344 51.324219 L 264.503906 52.160156 L 266.378906 53.011719 L 268.28125 53.871094 L 269.433594 54.410156 L 270.582031 54.949219 L 272.871094 56.042969 L 275.152344 57.152344 L 276.289062 57.714844 L 277.425781 58.28125 L 278.558594 58.851562 L 279.6875 59.421875 L 280.804688 60.023438 L 281.917969 60.625 L 283.03125 61.230469 L 284.140625 61.84375 L 285.246094 62.457031 L 286.351562 63.078125 L 288.554688 64.328125 L 289.652344 64.960938 L 290.746094 65.597656 L 291.84375 66.269531 L 293.027344 67.003906 L 294.386719 67.863281 L 296.011719 68.90625 L 297.992188 70.195312 L 300.414062 71.792969 L 303.371094 73.75 L 306.949219 76.136719 L 311.242188 79.007812 L 316.332031 82.421875 L 316.882812 82.839844 L 317.417969 83.265625 L 317.941406 83.699219 L 318.453125 84.136719 L 318.953125 84.582031 L 319.4375 85.035156 L 319.90625 85.496094 L 320.367188 85.964844 L 320.808594 86.4375 L 321.242188 86.917969 L 321.597656 87.441406 L 321.9375 87.96875 L 322.265625 88.507812 L 322.578125 89.050781 L 322.878906 89.601562 L 323.167969 90.160156 L 323.441406 90.722656 L 323.703125 91.292969 L 323.953125 91.871094 L 324.1875 92.457031 L 324.34375 93.089844 L 324.488281 93.761719 L 324.621094 94.503906 L 324.738281 95.347656 L 324.84375 96.328125 L 324.933594 97.476562 L 325.011719 98.820312 L 325.078125 100.398438 L 325.132812 102.238281 L 325.171875 104.371094 L 325.171875 157.671875 L 325.125 158.347656 L 325.066406 159.011719 L 324.988281 159.667969 L 324.898438 160.308594 L 324.792969 160.941406 L 324.671875 161.5625 L 324.535156 162.171875 L 324.382812 162.769531 L 324.21875 163.355469 L 324.035156 163.929688 L 323.761719 164.4375 L 323.476562 164.933594 L 323.171875 165.417969 L 322.855469 165.890625 L 322.519531 166.355469 L 322.171875 166.804688 L 321.808594 167.246094 L 321.429688 167.671875 L 321.039062 168.089844 L 320.628906 168.496094 L 320.128906 168.835938 L 319.613281 169.160156 L 319.085938 169.476562 L 318.539062 169.78125 L 317.980469 170.074219 L 317.40625 170.355469 L 316.8125 170.625 L 316.207031 170.882812 L 315.589844 171.132812 L 314.953125 171.367188 L 311.046875 172.527344 L 307.203125 173.671875 L 303.425781 174.792969 L 299.710938 175.898438 L 296.0625 176.980469 L 292.476562 178.046875 L 288.957031 179.09375 L 285.5 180.121094 L 282.109375 181.128906 L 278.785156 182.117188 L 275.847656 182.992188 L 272.972656 183.84375 L 270.164062 184.679688 L 267.417969 185.496094 L 264.738281 186.292969 L 262.121094 187.070312 L 259.570312 187.828125 L 257.082031 188.566406 L 254.660156 189.289062 L 252.300781 189.988281 L 250.332031 190.574219 L 248.425781 191.140625 L 247.421875 191.4375 "
       id="path3946" />
    <path
       style=" stroke:none;fill-rule:nonzero;fill:rgb(14.99939%,28.999329%,50%);fill-opacity:0.7;"
       d="M 249.382812 194.148438 L 249.113281 193.855469 L 248.5 193.140625 L 248.15625 192.699219 L 247.835938 192.25 L 247.578125 191.820312 L 247.421875 191.4375 L 247.355469 191.070312 L 247.339844 190.574219 L 247.355469 190.007812 L 247.394531 189.421875 L 247.496094 188.410156 L 247.546875 187.972656 L 236.980469 194.542969 Z M 249.382812 194.148438 "
       id="path3948" />
    <path
       style="fill:none;stroke-width:1;stroke-linecap:butt;stroke-linejoin:miter;stroke:rgb(14.99939%,28.999329%,50%);stroke-opacity:0.7;stroke-miterlimit:3.25;"
       d="M 227.777344 36.246094 L 228.125 36.648438 L 228.484375 37.058594 L 228.851562 37.476562 L 229.222656 37.902344 L 229.601562 38.335938 L 229.984375 38.777344 L 230.378906 39.230469 L 230.8125 39.726562 L 231.253906 40.230469 L 231.699219 40.746094 L 232.15625 41.265625 L 232.617188 41.796875 L 233.085938 42.332031 L 233.558594 42.878906 L 234.042969 43.429688 L 234.53125 43.992188 L 235.027344 44.558594 L 235.5625 45.175781 L 236.109375 45.796875 L 236.660156 46.429688 L 237.214844 47.070312 L 237.78125 47.71875 L 238.351562 48.371094 L 238.929688 49.035156 L 239.515625 49.707031 L 240.109375 50.386719 L 240.707031 51.074219 L 241.339844 51.765625 L 241.980469 52.453125 L 242.621094 53.136719 L 243.269531 53.8125 L 243.921875 54.484375 L 244.578125 55.148438 L 245.238281 55.808594 L 245.90625 56.460938 L 246.574219 57.109375 L 247.25 57.75 L 247.953125 58.359375 L 248.660156 58.960938 L 249.371094 59.558594 L 250.085938 60.148438 L 250.808594 60.734375 L 251.53125 61.3125 L 252.261719 61.886719 L 252.996094 62.457031 L 253.738281 63.019531 L 254.480469 63.574219 L 255.269531 64.105469 L 256.160156 64.6875 L 257.261719 65.371094 L 258.664062 66.21875 L 260.472656 67.277344 L 262.789062 68.605469 L 265.710938 70.261719 L 269.335938 72.292969 L 273.773438 74.765625 L 279.113281 77.722656 L 280.234375 78.429688 L 281.296875 79.136719 L 282.296875 79.839844 L 283.242188 80.546875 L 284.132812 81.246094 L 284.960938 81.949219 L 285.730469 82.648438 L 286.445312 83.347656 L 287.097656 84.046875 L 287.695312 84.746094 L 287.945312 85.433594 L 288.132812 86.125 L 288.265625 86.8125 L 288.339844 87.5 L 288.355469 88.1875 L 288.3125 88.871094 L 288.210938 89.554688 L 288.054688 90.238281 L 287.835938 90.917969 L 287.5625 91.597656 L 286.941406 92.273438 L 286.257812 92.945312 L 285.519531 93.617188 L 284.722656 94.285156 L 283.867188 94.957031 L 282.953125 95.625 L 281.980469 96.289062 L 280.949219 96.957031 L 279.863281 97.621094 L 278.71875 98.285156 L 277.25 99.019531 L 275.796875 99.742188 L 274.367188 100.460938 L 272.953125 101.167969 L 271.554688 101.863281 L 270.179688 102.554688 L 268.816406 103.234375 L 267.476562 103.90625 L 266.152344 104.566406 L 264.847656 105.21875 L 263.648438 105.820312 L 262.46875 106.410156 L 261.308594 106.988281 L 260.164062 107.5625 L 259.039062 108.125 L 257.929688 108.675781 L 256.839844 109.222656 L 256.34375 109.472656 "
       id="path3950" />
    <path
       style=" stroke:none;fill-rule:nonzero;fill:rgb(14.99939%,28.999329%,50%);fill-opacity:0.7;"
       d="M 258.746094 111.800781 L 258.429688 111.558594 L 257.699219 110.960938 L 257.285156 110.585938 L 256.890625 110.199219 L 256.5625 109.820312 L 256.34375 109.472656 L 256.214844 109.121094 L 256.109375 108.636719 L 256.027344 108.074219 L 255.964844 107.488281 L 255.886719 106.476562 L 255.863281 106.039062 L 246.601562 114.34375 Z M 258.746094 111.800781 "
       id="path3952" />
    <path
       style="fill:none;stroke-width:1;stroke-linecap:butt;stroke-linejoin:miter;stroke:rgb(14.99939%,28.999329%,50%);stroke-opacity:0.7;stroke-miterlimit:3.25;"
       d="M 225.277344 35.492188 L 142.011719 58.429688 "
       id="path3954" />
    <path
       style=" stroke:none;fill-rule:nonzero;fill:rgb(14.99939%,28.999329%,50%);fill-opacity:0.7;"
       d="M 143.917969 61.179688 L 143.652344 60.882812 L 143.050781 60.152344 L 142.71875 59.707031 L 142.40625 59.25 L 142.160156 58.816406 L 142.011719 58.429688 L 141.953125 58.0625 L 141.945312 57.566406 L 141.972656 57 L 142.023438 56.414062 L 142.144531 55.402344 L 142.207031 54.96875 L 131.507812 61.324219 Z M 143.917969 61.179688 "
       id="path3956" />
    <path
       style="fill:none;stroke-width:1;stroke-linecap:butt;stroke-linejoin:miter;stroke:rgb(14.99939%,28.999329%,50%);stroke-opacity:0.7;stroke-miterlimit:3.25;"
       d="M 225.738281 36.234375 L 211.359375 52.433594 "
       id="path3958" />
    <path
       style=" stroke:none;fill-rule:nonzero;fill:rgb(14.99939%,28.999329%,50%);fill-opacity:0.7;"
       d="M 214.457031 53.703125 L 214.074219 53.597656 L 213.171875 53.3125 L 212.648438 53.121094 L 212.140625 52.90625 L 211.695312 52.675781 L 211.359375 52.433594 L 211.113281 52.15625 L 210.835938 51.746094 L 210.546875 51.253906 L 210.269531 50.734375 L 209.824219 49.824219 L 209.640625 49.425781 L 204.128906 60.582031 Z M 214.457031 53.703125 "
       id="path3960" />
    <path
       style="fill:none;stroke-width:1;stroke-linecap:butt;stroke-linejoin:miter;stroke:rgb(14.99939%,28.999329%,50%);stroke-opacity:0.7;stroke-miterlimit:3.25;"
       d="M 128.578125 8.972656 L 127.238281 9.472656 L 125.746094 10.027344 L 124.1875 10.609375 L 122.558594 11.214844 L 120.867188 11.847656 L 119.105469 12.503906 L 117.28125 13.183594 L 115.117188 13.992188 L 112.890625 14.820312 L 110.59375 15.675781 L 108.230469 16.558594 L 105.800781 17.464844 L 103.304688 18.394531 L 100.742188 19.351562 L 98.109375 20.332031 L 95.144531 21.4375 L 92.113281 22.566406 L 89.015625 23.722656 L 85.851562 24.902344 L 82.617188 26.105469 L 79.316406 27.335938 L 75.953125 28.589844 L 72.519531 29.871094 L 71.375 30.335938 L 70.238281 30.816406 L 69.109375 31.308594 L 67.988281 31.808594 L 66.878906 32.328125 L 65.773438 32.855469 L 64.679688 33.398438 L 63.589844 33.953125 L 62.542969 34.570312 L 61.507812 35.199219 L 60.476562 35.839844 L 59.453125 36.496094 L 58.441406 37.164062 L 57.4375 37.84375 L 56.4375 38.535156 L 55.449219 39.242188 L 54.488281 40.023438 L 53.457031 40.898438 L 52.277344 41.945312 L 50.867188 43.25 L 49.152344 44.882812 L 47.054688 46.933594 L 44.488281 49.476562 L 41.382812 52.59375 L 40.648438 53.367188 L 39.917969 54.140625 L 39.191406 54.917969 L 38.46875 55.699219 L 37.753906 56.480469 L 37.039062 57.269531 L 35.625 58.855469 L 34.945312 59.667969 L 34.265625 60.484375 L 33.589844 61.304688 L 32.921875 62.128906 L 32.257812 62.953125 L 31.597656 63.785156 L 30.941406 64.617188 L 30.289062 65.457031 L 29.648438 66.324219 L 28.960938 67.269531 L 28.179688 68.378906 L 27.246094 69.71875 L 26.113281 71.367188 L 24.730469 73.410156 L 23.046875 75.914062 L 21.007812 78.964844 L 20.503906 79.753906 L 20.003906 80.550781 L 19.507812 81.347656 L 19.019531 82.148438 L 18.535156 82.953125 L 18.058594 83.757812 L 17.585938 84.570312 L 17.121094 85.378906 L 16.683594 86.207031 L 16.253906 87.035156 L 15.828125 87.867188 L 15.410156 88.703125 L 14.996094 89.542969 L 14.585938 90.382812 L 14.183594 91.226562 L 13.789062 92.074219 L 13.417969 92.945312 L 13.03125 93.882812 L 12.601562 94.949219 L 12.113281 96.210938 L 11.542969 97.730469 L 10.863281 99.570312 L 10.058594 101.792969 L 9.101562 104.460938 L 8.832031 105.34375 L 8.578125 106.222656 L 8.34375 107.105469 L 8.125 107.988281 L 7.921875 108.871094 L 7.738281 109.753906 L 7.566406 110.636719 L 7.414062 111.519531 L 7.347656 112.402344 L 7.292969 113.285156 L 7.257812 114.171875 L 7.238281 115.054688 L 7.234375 115.941406 L 7.25 116.824219 L 7.28125 117.710938 L 7.328125 118.59375 L 7.460938 119.492188 L 7.632812 120.453125 L 7.859375 121.535156 L 8.164062 122.808594 L 8.566406 124.332031 L 9.089844 126.164062 L 9.75 128.375 L 10.566406 131.023438 L 10.878906 131.894531 L 11.207031 132.757812 L 11.542969 133.617188 L 11.886719 134.46875 L 12.242188 135.316406 L 12.613281 136.15625 L 12.988281 136.988281 L 13.378906 137.816406 L 13.820312 138.609375 L 14.269531 139.394531 L 14.730469 140.175781 L 15.203125 140.949219 L 15.6875 141.71875 L 16.179688 142.480469 L 16.683594 143.234375 L 17.199219 143.980469 L 17.785156 144.714844 L 18.476562 145.53125 L 19.371094 146.539062 L 20.574219 147.824219 L 22.171875 149.484375 L 24.273438 151.613281 L 26.96875 154.3125 L 30.355469 157.671875 L 31.269531 158.550781 L 32.1875 159.425781 L 33.109375 160.300781 L 34.03125 161.167969 L 34.960938 162.035156 L 35.886719 162.898438 L 36.820312 163.757812 L 37.757812 164.613281 L 38.707031 165.453125 L 39.660156 166.285156 L 40.617188 167.117188 L 41.574219 167.945312 L 42.535156 168.769531 L 43.5 169.59375 L 44.46875 170.410156 L 45.441406 171.226562 L 46.441406 172.035156 L 47.554688 172.921875 L 48.882812 173.964844 L 50.527344 175.246094 L 52.601562 176.839844 L 55.207031 178.832031 L 58.453125 181.296875 L 62.4375 184.320312 L 63.632812 185.171875 L 64.835938 186.003906 L 66.046875 186.824219 L 67.265625 187.625 L 68.488281 188.414062 L 69.71875 189.1875 L 70.957031 189.945312 L 72.203125 190.6875 L 73.488281 191.351562 L 74.777344 192 L 76.070312 192.632812 L 77.375 193.25 L 78.6875 193.851562 L 80.003906 194.441406 L 81.332031 195.011719 L 82.664062 195.570312 L 84.03125 196.046875 L 85.40625 196.511719 L 86.789062 196.960938 L 88.179688 197.390625 L 89.578125 197.808594 L 90.980469 198.210938 L 92.394531 198.597656 L 93.8125 198.96875 L 99.757812 200.34375 L 105.578125 201.691406 L 111.28125 203.011719 L 116.867188 204.300781 L 122.328125 205.566406 L 127.671875 206.800781 L 132.894531 208.007812 L 138 209.191406 L 142.5 210.230469 L 146.882812 211.246094 L 151.144531 212.230469 L 155.285156 213.1875 L 159.308594 214.117188 L 163.210938 215.019531 L 166.992188 215.894531 L 170.652344 216.742188 L 173.714844 217.453125 L 176.65625 218.132812 L 179.476562 218.785156 L 179.667969 218.828125 "
       id="path3962" />
    <path
       style=" stroke:none;fill-rule:nonzero;fill:rgb(14.99939%,28.999329%,50%);fill-opacity:0.7;"
       d="M 179.296875 215.5 L 179.390625 215.890625 L 179.570312 216.816406 L 179.652344 217.367188 L 179.707031 217.917969 L 179.71875 218.417969 L 179.667969 218.828125 L 179.542969 219.179688 L 179.3125 219.621094 L 179.019531 220.105469 L 178.695312 220.597656 L 178.109375 221.425781 L 177.847656 221.777344 L 190.277344 221.28125 Z M 179.296875 215.5 "
       id="path3964" />
    <path
       style="fill:none;stroke-width:1;stroke-linecap:butt;stroke-linejoin:miter;stroke:rgb(14.99939%,28.999329%,50%);stroke-opacity:0.7;stroke-miterlimit:3.25;"
       d="M 128.816406 9.390625 L 128.773438 9.425781 L 128.113281 9.945312 L 127.4375 10.484375 L 126.734375 11.039062 L 126.015625 11.609375 L 125.269531 12.199219 L 124.503906 12.804688 L 123.632812 13.492188 L 122.738281 14.199219 L 121.824219 14.925781 L 120.886719 15.667969 L 119.929688 16.425781 L 118.949219 17.203125 L 117.949219 17.992188 L 116.929688 18.804688 L 115.796875 19.699219 L 114.648438 20.609375 L 113.472656 21.539062 L 112.28125 22.484375 L 111.066406 23.445312 L 109.828125 24.425781 L 108.570312 25.421875 L 107.289062 26.433594 L 106.390625 27.167969 L 105.496094 27.90625 L 104.605469 28.644531 L 103.722656 29.390625 L 102.839844 30.144531 L 101.964844 30.898438 L 101.09375 31.660156 L 100.226562 32.425781 L 99.378906 33.210938 L 98.539062 34.003906 L 97.703125 34.804688 L 96.875 35.605469 L 96.046875 36.410156 L 95.226562 37.222656 L 94.40625 38.039062 L 93.59375 38.859375 L 92.796875 39.714844 L 91.949219 40.636719 L 91 41.6875 L 89.898438 42.929688 L 88.59375 44.429688 L 87.027344 46.242188 L 85.152344 48.4375 L 82.914062 51.074219 L 81.40625 52.839844 L 79.132812 55.476562 L 77.609375 57.226562 L 76.84375 58.097656 L 75.289062 59.824219 L 74.511719 60.683594 L 73.730469 61.539062 L 72.949219 62.398438 L 72.164062 63.253906 L 71.378906 64.105469 L 70.589844 64.957031 L 69.777344 65.816406 L 68.871094 66.765625 L 67.78125 67.898438 L 66.414062 69.308594 L 64.675781 71.089844 L 62.476562 73.335938 L 59.730469 76.132812 L 56.335938 79.582031 L 54.921875 81.074219 L 54.226562 81.828125 L 53.535156 82.585938 L 52.847656 83.347656 L 52.164062 84.113281 L 51.488281 84.882812 L 50.820312 85.65625 L 50.179688 86.453125 L 49.542969 87.253906 L 48.910156 88.054688 L 48.285156 88.863281 L 47.667969 89.679688 L 47.054688 90.496094 L 46.445312 91.316406 L 45.84375 92.140625 L 45.261719 93 L 44.648438 93.933594 L 43.957031 95.003906 L 43.15625 96.28125 L 42.199219 97.835938 L 41.046875 99.734375 L 39.664062 102.042969 L 38.011719 104.832031 L 37.574219 105.683594 L 37.167969 106.539062 L 36.785156 107.390625 L 36.425781 108.25 L 36.09375 109.105469 L 35.789062 109.964844 L 35.507812 110.824219 L 35.253906 111.683594 L 35.128906 112.546875 L 35.027344 113.414062 L 34.953125 114.28125 L 34.90625 115.152344 L 34.882812 116.019531 L 34.886719 116.890625 L 34.914062 117.761719 L 34.96875 118.636719 L 35.15625 119.523438 L 35.398438 120.476562 L 35.726562 121.554688 L 36.171875 122.820312 L 36.761719 124.339844 L 37.53125 126.171875 L 38.5 128.375 L 39.710938 131.023438 L 40.171875 131.863281 L 40.652344 132.6875 L 41.144531 133.488281 L 41.65625 134.273438 L 42.179688 135.042969 L 42.714844 135.789062 L 43.269531 136.515625 L 43.839844 137.226562 L 44.480469 137.84375 L 45.136719 138.441406 L 45.808594 139.019531 L 46.496094 139.582031 L 47.199219 140.121094 L 47.917969 140.644531 L 48.648438 141.148438 L 49.394531 141.632812 L 50.214844 142.023438 L 51.050781 142.394531 L 51.902344 142.75 L 52.769531 143.085938 L 53.648438 143.402344 L 54.542969 143.699219 L 55.453125 143.976562 L 56.378906 144.238281 L 63.09375 145.722656 L 69.667969 147.175781 L 76.105469 148.601562 L 82.398438 149.992188 L 88.550781 151.355469 L 94.566406 152.6875 L 100.4375 153.984375 L 106.171875 155.253906 L 111.199219 156.367188 L 116.085938 157.449219 L 120.835938 158.5 L 125.445312 159.519531 L 129.910156 160.507812 L 134.238281 161.464844 L 138.421875 162.390625 L 142.46875 163.285156 L 145.8125 164.023438 L 149.011719 164.734375 L 152.074219 165.410156 L 153.132812 165.644531 "
       id="path3966" />
    <path
       style=" stroke:none;fill-rule:nonzero;fill:rgb(14.99939%,28.999329%,50%);fill-opacity:0.7;"
       d="M 152.734375 162.320312 L 152.828125 162.710938 L 153.019531 163.636719 L 153.105469 164.183594 L 153.164062 164.734375 L 153.179688 165.234375 L 153.132812 165.644531 L 153.011719 165.996094 L 152.789062 166.441406 L 152.5 166.929688 L 152.179688 167.421875 L 151.601562 168.257812 L 151.34375 168.613281 L 163.769531 167.996094 Z M 152.734375 162.320312 "
       id="path3968" />
    <path
       style="fill:none;stroke-width:1;stroke-linecap:butt;stroke-linejoin:miter;stroke:rgb(14.99939%,28.999329%,50%);stroke-opacity:0.7;stroke-miterlimit:3.25;"
       d="M 130.023438 9.976562 L 130.023438 49.300781 "
       id="path3970" />
    <path
       style=" stroke:none;fill-rule:nonzero;fill:rgb(14.99939%,28.999329%,50%);fill-opacity:0.7;"
       d="M 133.179688 48.191406 L 132.820312 48.367188 L 131.960938 48.753906 L 131.441406 48.957031 L 130.917969 49.132812 L 130.433594 49.257812 L 130.023438 49.300781 L 129.652344 49.257812 L 129.171875 49.132812 L 128.632812 48.957031 L 128.082031 48.753906 L 127.140625 48.367188 L 126.738281 48.191406 L 130.023438 60.191406 Z M 133.179688 48.191406 "
       id="path3972" />
    <path
       style="fill:none;stroke-width:1;stroke-linecap:butt;stroke-linejoin:miter;stroke:rgb(14.99939%,28.999329%,50%);stroke-opacity:0.7;stroke-miterlimit:3.25;"
       d="M 131.320312 9.265625 L 133.214844 10.472656 L 136.816406 12.777344 L 141.242188 15.609375 L 146.078125 18.703125 L 151.738281 22.320312 L 157.8125 26.207031 L 162.390625 29.230469 L 166.921875 32.324219 L 171.351562 35.546875 L 175.734375 38.835938 L 180.023438 42.257812 L 184.257812 45.742188 L 188.214844 49.097656 L 191.9375 52.257812 L 193.625 53.6875 "
       id="path3974" />
    <path
       style=" stroke:none;fill-rule:nonzero;fill:rgb(14.99939%,28.999329%,50%);fill-opacity:0.7;"
       d="M 194.824219 50.566406 L 194.726562 50.953125 L 194.460938 51.859375 L 194.28125 52.386719 L 194.078125 52.898438 L 193.859375 53.347656 L 193.625 53.6875 L 193.351562 53.945312 L 192.949219 54.230469 L 192.464844 54.527344 L 191.953125 54.816406 L 191.050781 55.285156 L 190.65625 55.476562 L 201.929688 60.734375 Z M 194.824219 50.566406 "
       id="path3976" />
    <path
       style="fill:none;stroke-width:1;stroke-linecap:butt;stroke-linejoin:miter;stroke:rgb(14.99939%,28.999329%,50%);stroke-opacity:0.7;stroke-miterlimit:3.25;"
       d="M 131.507812 8.84375 L 214.777344 31.78125 "
       id="path3978" />
    <path
       style=" stroke:none;fill-rule:nonzero;fill:rgb(14.99939%,28.999329%,50%);fill-opacity:0.7;"
       d="M 214.546875 28.441406 L 214.621094 28.835938 L 214.761719 29.769531 L 214.824219 30.324219 L 214.855469 30.875 L 214.84375 31.375 L 214.777344 31.78125 L 214.636719 32.128906 L 214.390625 32.558594 L 214.078125 33.03125 L 213.734375 33.507812 L 213.113281 34.3125 L 212.835938 34.652344 L 225.277344 34.675781 Z M 214.546875 28.441406 "
       id="path3980" />
    <path
       style="fill-rule:evenodd;fill:rgb(63.998413%,70.399475%,79.998779%);fill-opacity:1;stroke-width:1;stroke-linecap:square;stroke-linejoin:miter;stroke:rgb(0%,0%,0%);stroke-opacity:0.7;stroke-miterlimit:3.25;"
       d="M 193.542969 222 C 193.542969 221.589844 193.378906 221.199219 193.089844 220.910156 C 192.800781 220.621094 192.410156 220.457031 192 220.457031 C 191.589844 220.457031 191.199219 220.621094 190.910156 220.910156 C 190.621094 221.199219 190.457031 221.589844 190.457031 222 C 190.457031 222.410156 190.621094 222.800781 190.910156 223.089844 C 191.199219 223.378906 191.589844 223.542969 192 223.542969 C 192.410156 223.542969 192.800781 223.378906 193.089844 223.089844 C 193.378906 222.800781 193.542969 222.410156 193.542969 222 Z M 193.542969 222 "
       id="path3982" />
    <path
       style="fill-rule:evenodd;fill:rgb(63.998413%,70.399475%,79.998779%);fill-opacity:1;stroke-width:1;stroke-linecap:square;stroke-linejoin:miter;stroke:rgb(0%,0%,0%);stroke-opacity:0.7;stroke-miterlimit:3.25;"
       d="M 237.542969 195 C 237.542969 194.589844 237.378906 194.199219 237.089844 193.910156 C 236.800781 193.621094 236.410156 193.457031 236 193.457031 C 235.589844 193.457031 235.199219 193.621094 234.910156 193.910156 C 234.621094 194.199219 234.457031 194.589844 234.457031 195 C 234.457031 195.410156 234.621094 195.800781 234.910156 196.089844 C 235.199219 196.378906 235.589844 196.542969 236 196.542969 C 236.410156 196.542969 236.800781 196.378906 237.089844 196.089844 C 237.378906 195.800781 237.542969 195.410156 237.542969 195 Z M 237.542969 195 "
       id="path3984" />
    <path
       style="fill-rule:evenodd;fill:rgb(63.998413%,70.399475%,79.998779%);fill-opacity:1;stroke-width:1;stroke-linecap:square;stroke-linejoin:miter;stroke:rgb(0%,0%,0%);stroke-opacity:0.7;stroke-miterlimit:3.25;"
       d="M 166.542969 168 C 166.542969 167.589844 166.378906 167.199219 166.089844 166.910156 C 165.800781 166.621094 165.410156 166.457031 165 166.457031 C 164.589844 166.457031 164.199219 166.621094 163.910156 166.910156 C 163.621094 167.199219 163.457031 167.589844 163.457031 168 C 163.457031 168.410156 163.621094 168.800781 163.910156 169.089844 C 164.199219 169.378906 164.589844 169.542969 165 169.542969 C 165.410156 169.542969 165.800781 169.378906 166.089844 169.089844 C 166.378906 168.800781 166.542969 168.410156 166.542969 168 Z M 166.542969 168 "
       id="path3986" />
    <path
       style="fill-rule:evenodd;fill:rgb(63.998413%,70.399475%,79.998779%);fill-opacity:1;stroke-width:1;stroke-linecap:square;stroke-linejoin:miter;stroke:rgb(0%,0%,0%);stroke-opacity:0.7;stroke-miterlimit:3.25;"
       d="M 220.542969 142 C 220.542969 141.589844 220.378906 141.199219 220.089844 140.910156 C 219.800781 140.621094 219.410156 140.457031 219 140.457031 C 218.589844 140.457031 218.199219 140.621094 217.910156 140.910156 C 217.621094 141.199219 217.457031 141.589844 217.457031 142 C 217.457031 142.410156 217.621094 142.800781 217.910156 143.089844 C 218.199219 143.378906 218.589844 143.542969 219 143.542969 C 219.410156 143.542969 219.800781 143.378906 220.089844 143.089844 C 220.378906 142.800781 220.542969 142.410156 220.542969 142 Z M 220.542969 142 "
       id="path3988" />
    <path
       style="fill-rule:evenodd;fill:rgb(63.998413%,70.399475%,79.998779%);fill-opacity:1;stroke-width:1;stroke-linecap:square;stroke-linejoin:miter;stroke:rgb(0%,0%,0%);stroke-opacity:0.7;stroke-miterlimit:3.25;"
       d="M 246.542969 115 C 246.542969 114.589844 246.378906 114.199219 246.089844 113.910156 C 245.800781 113.621094 245.410156 113.457031 245 113.457031 C 244.589844 113.457031 244.199219 113.621094 243.910156 113.910156 C 243.621094 114.199219 243.457031 114.589844 243.457031 115 C 243.457031 115.410156 243.621094 115.800781 243.910156 116.089844 C 244.199219 116.378906 244.589844 116.542969 245 116.542969 C 245.410156 116.542969 245.800781 116.378906 246.089844 116.089844 C 246.378906 115.800781 246.542969 115.410156 246.542969 115 Z M 246.542969 115 "
       id="path3990" />
    <path
       style="fill-rule:evenodd;fill:rgb(63.998413%,70.399475%,79.998779%);fill-opacity:1;stroke-width:1;stroke-linecap:square;stroke-linejoin:miter;stroke:rgb(0%,0%,0%);stroke-opacity:0.7;stroke-miterlimit:3.25;"
       d="M 140.542969 88 C 140.542969 87.589844 140.378906 87.199219 140.089844 86.910156 C 139.800781 86.621094 139.410156 86.457031 139 86.457031 C 138.589844 86.457031 138.199219 86.621094 137.910156 86.910156 C 137.621094 87.199219 137.457031 87.589844 137.457031 88 C 137.457031 88.410156 137.621094 88.800781 137.910156 89.089844 C 138.199219 89.378906 138.589844 89.542969 139 89.542969 C 139.410156 89.542969 139.800781 89.378906 140.089844 89.089844 C 140.378906 88.800781 140.542969 88.410156 140.542969 88 Z M 140.542969 88 "
       id="path3992" />
    <path
       style="fill-rule:evenodd;fill:rgb(63.998413%,70.399475%,79.998779%);fill-opacity:1;stroke-width:1;stroke-linecap:square;stroke-linejoin:miter;stroke:rgb(0%,0%,0%);stroke-opacity:0.7;stroke-miterlimit:3.25;"
       d="M 131.542969 62 C 131.542969 61.589844 131.378906 61.199219 131.089844 60.910156 C 130.800781 60.621094 130.410156 60.457031 130 60.457031 C 129.589844 60.457031 129.199219 60.621094 128.910156 60.910156 C 128.621094 61.199219 128.457031 61.589844 128.457031 62 C 128.457031 62.410156 128.621094 62.800781 128.910156 63.089844 C 129.199219 63.378906 129.589844 63.542969 130 63.542969 C 130.410156 63.542969 130.800781 63.378906 131.089844 63.089844 C 131.378906 62.800781 131.542969 62.410156 131.542969 62 Z M 131.542969 62 "
       id="path3994" />
    <path
       style="fill-rule:evenodd;fill:rgb(63.998413%,70.399475%,79.998779%);fill-opacity:1;stroke-width:1;stroke-linecap:square;stroke-linejoin:miter;stroke:rgb(0%,0%,0%);stroke-opacity:0.7;stroke-miterlimit:3.25;"
       d="M 204.542969 62 C 204.542969 61.589844 204.378906 61.199219 204.089844 60.910156 C 203.800781 60.621094 203.410156 60.457031 203 60.457031 C 202.589844 60.457031 202.199219 60.621094 201.910156 60.910156 C 201.621094 61.199219 201.457031 61.589844 201.457031 62 C 201.457031 62.410156 201.621094 62.800781 201.910156 63.089844 C 202.199219 63.378906 202.589844 63.542969 203 63.542969 C 203.410156 63.542969 203.800781 63.378906 204.089844 63.089844 C 204.378906 62.800781 204.542969 62.410156 204.542969 62 Z M 204.542969 62 "
       id="path3996" />
    <path
       style="fill-rule:evenodd;fill:rgb(63.998413%,70.399475%,79.998779%);fill-opacity:1;stroke-width:1;stroke-linecap:square;stroke-linejoin:miter;stroke:rgb(0%,0%,0%);stroke-opacity:0.7;stroke-miterlimit:3.25;"
       d="M 228.542969 35 C 228.542969 34.589844 228.378906 34.199219 228.089844 33.910156 C 227.800781 33.621094 227.410156 33.457031 227 33.457031 C 226.589844 33.457031 226.199219 33.621094 225.910156 33.910156 C 225.621094 34.199219 225.457031 34.589844 225.457031 35 C 225.457031 35.410156 225.621094 35.800781 225.910156 36.089844 C 226.199219 36.378906 226.589844 36.542969 227 36.542969 C 227.410156 36.542969 227.800781 36.378906 228.089844 36.089844 C 228.378906 35.800781 228.542969 35.410156 228.542969 35 Z M 228.542969 35 "
       id="path3998" />
    <path
       style="fill-rule:evenodd;fill:rgb(63.998413%,70.399475%,79.998779%);fill-opacity:1;stroke-width:1;stroke-linecap:square;stroke-linejoin:miter;stroke:rgb(0%,0%,0%);stroke-opacity:0.7;stroke-miterlimit:3.25;"
       d="M 131.542969 8 C 131.542969 7.589844 131.378906 7.199219 131.089844 6.910156 C 130.800781 6.621094 130.410156 6.457031 130 6.457031 C 129.589844 6.457031 129.199219 6.621094 128.910156 6.910156 C 128.621094 7.199219 128.457031 7.589844 128.457031 8 C 128.457031 8.410156 128.621094 8.800781 128.910156 9.089844 C 129.199219 9.378906 129.589844 9.542969 130 9.542969 C 130.410156 9.542969 130.800781 9.378906 131.089844 9.089844 C 131.378906 8.800781 131.542969 8.410156 131.542969 8 Z M 131.542969 8 "
       id="path4000" />
  </g>
  <rect
     y="0.39672461"
     x="-327.70657"
     style="fill:#ffffff;stroke-width:0.73812121"
     width="251.29567"
     height="227.59375"
     id="rect4150"
     inkscape:export-xdpi="96"
     inkscape:export-ydpi="96" />
  <g
     id="g4160"
     transform="matrix(0.77560392,0,0,0.70244989,-327.70656,0.39671892)"
     inkscape:export-xdpi="96"
     inkscape:export-ydpi="96">
    <g
       id="g4158">
      <path
         style="fill:none;stroke:#1b80c4;stroke-width:3;stroke-miterlimit:10"
         inkscape:connector-curvature="0"
         stroke-miterlimit="10"
         d="M 197.155,174.985 C 192.255,148.74 166.792,126 140,126"
         id="path4152" />
      <g
         id="g4156">
        <path
           style="fill:#1b80c4"
           inkscape:connector-curvature="0"
           d="m 198,184 c 1.132,-4.4 3.268,-9.936 5.771,-13.49 l -6.829,3.304 -7.361,-1.829 c 3.18,2.964 6.409,7.942 8.419,12.015 z"
           id="path4154" />
      </g>
    </g>
  </g>
  <g
     id="g4170"
     transform="matrix(0.77560392,0,0,0.70244989,-327.70656,0.39671892)"
     inkscape:export-xdpi="96"
     inkscape:export-ydpi="96">
    <g
       id="g4168">
      <path
         style="fill:none;stroke:#1b80c4;stroke-width:3;stroke-miterlimit:10"
         inkscape:connector-curvature="0"
         stroke-miterlimit="10"
         d="m 68,54 c 123.079,0 163.802,49.864 165.913,156.947"
         id="path4162" />
      <g
         id="g4166">
        <path
           style="fill:#1b80c4"
           inkscape:connector-curvature="0"
           d="m 234,220 c -1.679,-4.222 -4.497,-9.443 -7.428,-12.653 l 7.192,2.415 7.071,-2.745 c -2.78,3.342 -5.354,8.689 -6.835,12.983 z"
           id="path4164" />
      </g>
    </g>
  </g>
  <path
     inkscape:connector-curvature="0"
     style="fill:none;stroke:#ffffff;stroke-width:5.90496969;stroke-miterlimit:10"
     stroke-miterlimit="10"
     d="m -188.09786,114.1936 c 72.588,0 97.726095,47.11894 97.726095,88.50869"
     id="path4172"
     inkscape:export-xdpi="96"
     inkscape:export-ydpi="96" />
  <ellipse
     style="fill:#abd5ee;stroke:#000000;stroke-width:0.73812121;stroke-miterlimit:10"
     stroke-miterlimit="10"
     cx="-313.7457"
     cy="13.040821"
     id="circle4174"
     rx="6.9804354"
     ry="6.3220491"
     inkscape:export-xdpi="96"
     inkscape:export-ydpi="96" />
  <ellipse
     style="fill:#abd5ee;stroke:#000000;stroke-width:0.73812121;stroke-miterlimit:10"
     stroke-miterlimit="10"
     cx="-285.82394"
     cy="38.329014"
     id="circle4176"
     rx="6.9804354"
     ry="6.3220491"
     inkscape:export-xdpi="96"
     inkscape:export-ydpi="96" />
  <ellipse
     style="fill:#abd5ee;stroke:#000000;stroke-width:0.73812121;stroke-miterlimit:10"
     stroke-miterlimit="10"
     cx="-257.90222"
     cy="63.61721"
     id="circle4178"
     rx="6.9804354"
     ry="6.3220491"
     inkscape:export-xdpi="96"
     inkscape:export-ydpi="96" />
  <ellipse
     style="fill:#abd5ee;stroke:#000000;stroke-width:0.73812121;stroke-miterlimit:10"
     stroke-miterlimit="10"
     cx="-229.98047"
     cy="88.905403"
     id="circle4180"
     rx="6.9804354"
     ry="6.3220491"
     inkscape:export-xdpi="96"
     inkscape:export-ydpi="96" />
  <ellipse
     style="fill:#abd5ee;stroke:#000000;stroke-width:0.73812121;stroke-miterlimit:10"
     stroke-miterlimit="10"
     cx="-202.05872"
     cy="114.1936"
     id="circle4182"
     rx="6.9804354"
     ry="6.3220491"
     inkscape:export-xdpi="96"
     inkscape:export-ydpi="96" />
  <ellipse
     style="fill:#abd5ee;stroke:#000000;stroke-width:0.73812121;stroke-miterlimit:10"
     stroke-miterlimit="10"
     cx="-174.13699"
     cy="139.4818"
     id="circle4184"
     rx="6.9804354"
     ry="6.3220491"
     inkscape:export-xdpi="96"
     inkscape:export-ydpi="96" />
  <ellipse
     style="fill:#abd5ee;stroke:#000000;stroke-width:0.73812121;stroke-miterlimit:10"
     stroke-miterlimit="10"
     cx="-146.21524"
     cy="164.76999"
     id="circle4186"
     rx="6.9804354"
     ry="6.3220491"
     inkscape:export-xdpi="96"
     inkscape:export-ydpi="96" />
  <ellipse
     style="fill:#abd5ee;stroke:#000000;stroke-width:0.73812121;stroke-miterlimit:10"
     stroke-miterlimit="10"
     cx="-118.2935"
     cy="190.05818"
     id="circle4188"
     rx="6.9804354"
     ry="6.3220491"
     inkscape:export-xdpi="96"
     inkscape:export-ydpi="96" />
  <ellipse
     style="fill:#abd5ee;stroke:#000000;stroke-width:0.73812121;stroke-miterlimit:10"
     stroke-miterlimit="10"
     cx="-90.371765"
     cy="215.34637"
     id="circle4190"
     rx="6.9804354"
     ry="6.3220491"
     inkscape:export-xdpi="96"
     inkscape:export-ydpi="96" />
  <g
     id="g4200"
     transform="matrix(0.77560392,0,0,0.70244989,-327.70656,0.39671892)"
     inkscape:export-xdpi="96"
     inkscape:export-ydpi="96">
    <g
       id="g4198">
      <line
         style="fill:none;stroke:#1b80c4;stroke-width:3;stroke-miterlimit:10"
         stroke-miterlimit="10"
         x1="27"
         y1="27"
         x2="38.598999"
         y2="38.598999"
         id="line4192" />
      <g
         id="g4196">
        <path
           style="fill:#1b80c4"
           inkscape:connector-curvature="0"
           d="M 45,45 C 40.87,43.105 35.226,41.275 30.89,40.979 l 6.869,-3.22 3.219,-6.868 C 41.275,35.228 43.105,40.872 45,45 Z"
           id="path4194" />
      </g>
    </g>
  </g>
  <g
     id="g4210"
     transform="matrix(0.77560392,0,0,0.70244989,-327.70656,0.39671892)"
     inkscape:export-xdpi="96"
     inkscape:export-ydpi="96">
    <g
       id="g4208">
      <line
         style="fill:none;stroke:#1b80c4;stroke-width:3;stroke-miterlimit:10"
         stroke-miterlimit="10"
         x1="63"
         y1="63"
         x2="74.598999"
         y2="74.598999"
         id="line4202" />
      <g
         id="g4206">
        <path
           style="fill:#1b80c4"
           inkscape:connector-curvature="0"
           d="M 81,81 C 76.87,79.105 71.226,77.275 66.89,76.979 l 6.869,-3.22 3.219,-6.868 C 77.275,71.228 79.105,76.872 81,81 Z"
           id="path4204" />
      </g>
    </g>
  </g>
  <g
     id="g4220"
     transform="matrix(0.77560392,0,0,0.70244989,-327.70656,0.39671892)"
     inkscape:export-xdpi="96"
     inkscape:export-ydpi="96">
    <g
       id="g4218">
      <line
         style="fill:none;stroke:#1b80c4;stroke-width:3;stroke-miterlimit:10"
         stroke-miterlimit="10"
         x1="135"
         y1="135"
         x2="146.599"
         y2="146.599"
         id="line4212" />
      <g
         id="g4216">
        <path
           style="fill:#1b80c4"
           inkscape:connector-curvature="0"
           d="m 153,153 c -4.13,-1.895 -9.774,-3.725 -14.11,-4.021 l 6.869,-3.22 3.219,-6.868 c 0.297,4.337 2.127,9.981 4.022,14.109 z"
           id="path4214" />
      </g>
    </g>
  </g>
  <g
     id="g4230"
     transform="matrix(0.77560392,0,0,0.70244989,-327.70656,0.39671892)"
     inkscape:export-xdpi="96"
     inkscape:export-ydpi="96">
    <g
       id="g4228">
      <line
         style="fill:none;stroke:#1b80c4;stroke-width:3;stroke-miterlimit:10"
         stroke-miterlimit="10"
         x1="207"
         y1="207"
         x2="218.599"
         y2="218.599"
         id="line4222" />
      <g
         id="g4226">
        <path
           style="fill:#1b80c4"
           inkscape:connector-curvature="0"
           d="m 225,225 c -4.13,-1.895 -9.774,-3.725 -14.11,-4.021 l 6.869,-3.22 3.219,-6.868 c 0.297,4.337 2.127,9.981 4.022,14.109 z"
           id="path4224" />
      </g>
    </g>
  </g>
  <g
     id="g4240"
     transform="matrix(0.77560392,0,0,0.70244989,-327.70656,0.39671892)"
     inkscape:export-xdpi="96"
     inkscape:export-ydpi="96">
    <g
       id="g4238">
      <line
         style="fill:none;stroke:#1b80c4;stroke-width:3;stroke-miterlimit:10"
         stroke-miterlimit="10"
         x1="243"
         y1="243"
         x2="254.599"
         y2="254.599"
         id="line4232" />
      <g
         id="g4236">
        <path
           style="fill:#1b80c4"
           inkscape:connector-curvature="0"
           d="m 261,261 c -4.13,-1.895 -9.774,-3.725 -14.11,-4.021 l 6.869,-3.22 3.219,-6.868 c 0.297,4.337 2.127,9.981 4.022,14.109 z"
           id="path4234" />
      </g>
    </g>
  </g>
  <g
     id="g4250"
     transform="matrix(0.77560392,0,0,0.70244989,-327.70656,0.39671892)"
     inkscape:export-xdpi="96"
     inkscape:export-ydpi="96">
    <g
       id="g4248">
      <path
         style="fill:none;stroke:#1b80c4;stroke-width:3;stroke-miterlimit:10"
         inkscape:connector-curvature="0"
         stroke-miterlimit="10"
         d="M 102.948,125.744 C 44.182,122.334 18,85.237 18,32"
         id="path4242" />
      <g
         id="g4246">
        <path
           style="fill:#1b80c4"
           inkscape:connector-curvature="0"
           d="m 112,126 c -4.204,-1.723 -9.396,-4.596 -12.574,-7.561 l 2.339,7.217 -2.818,7.042 c 3.37,-2.744 8.743,-5.262 13.053,-6.698 z"
           id="path4244" />
      </g>
    </g>
  </g>
  <g
     id="g4260"
     transform="matrix(0.77560392,0,0,0.70244989,-327.70656,0.39671892)"
     inkscape:export-xdpi="96"
     inkscape:export-ydpi="96">
    <g
       id="g4258">
      <path
         style="fill:none;stroke:#1b80c4;stroke-width:3;stroke-miterlimit:10"
         inkscape:connector-curvature="0"
         stroke-miterlimit="10"
         d="M 246.946,269.767 C 180.617,266.25 162,223.607 162,176"
         id="path4252" />
      <g
         id="g4256">
        <path
           style="fill:#1b80c4"
           inkscape:connector-curvature="0"
           d="m 256,270 c -4.208,-1.714 -9.405,-4.577 -12.589,-7.536 l 2.354,7.211 -2.805,7.047 c 3.365,-2.75 8.733,-5.278 13.04,-6.722 z"
           id="path4254" />
      </g>
    </g>
  </g>
  <g
     id="g4270"
     transform="matrix(0.77560392,0,0,0.70244989,-327.70656,0.39671892)"
     inkscape:export-xdpi="96"
     inkscape:export-ydpi="96">
    <g
       id="g4268">
      <path
         style="fill:none;stroke:#1b80c4;stroke-width:3;stroke-miterlimit:10"
         inkscape:connector-curvature="0"
         stroke-miterlimit="10"
         d="m 176,162 c 89.507,0 126.715,55.256 129.79,120.95"
         id="path4262" />
      <g
         id="g4266">
        <path
           style="fill:#1b80c4"
           inkscape:connector-curvature="0"
           d="m 306,292 c -1.722,-4.205 -4.594,-9.397 -7.558,-12.576 l 7.216,2.341 7.042,-2.817 c -2.744,3.37 -5.264,8.742 -6.7,13.052 z"
           id="path4264" />
      </g>
    </g>
  </g>
  <g
     id="g4280"
     transform="matrix(0.77560392,0,0,0.70244989,-327.70656,0.39671892)"
     inkscape:export-xdpi="96"
     inkscape:export-ydpi="96">
    <g
       id="g4278">
      <path
         style="fill:none;stroke:#1b80c4;stroke-width:3;stroke-miterlimit:10"
         inkscape:connector-curvature="0"
         stroke-miterlimit="10"
         d="M 282.946,305.935 C 141.085,303.83 126,251.236 126,140"
         id="path4272" />
      <g
         id="g4276">
        <path
           style="fill:#1b80c4"
           inkscape:connector-curvature="0"
           d="m 292,306 c -4.242,-1.628 -9.496,-4.384 -12.74,-7.277 l 2.5,7.162 -2.66,7.103 c 3.308,-2.819 8.623,-5.456 12.9,-6.988 z"
           id="path4274" />
      </g>
    </g>
  </g>
</svg>
